<svg width="532" height="543" viewBox="0 0 532 543" fill="none" xmlns="http://www.w3.org/2000/svg">
<g clip-path="url(#clip0_8055_4278)">
<path d="M254.69 542.27L253.58 541.77L0 427.36L0.849991 46.83L254.73 0L531.88 50.19V428.27L530.13 428.99L254.69 542.27ZM5.64 423.72L254.79 536.14L526.25 424.49V54.89L254.74 5.72L6.46999 51.51L5.64 423.72Z" fill="#02B9E9"/>
<path d="M4.42998 427.848L1.21997 423.228L143.71 324.208L94.8 214.428V91.0881L2.55995 51.7581L4.76997 46.5781L100.43 87.3681V213.238L150.75 326.178L4.42998 427.848Z" fill="#02B9E9"/>
<path d="M526.5 427.54L479.21 322.45L439.13 258.15L390.71 208.06V91.3298L528.25 49.8398L529.88 55.2299L396.34 95.5099V205.78L443.59 254.66L443.75 254.91L484.27 319.97L531.64 425.23L526.5 427.54Z" fill="#02B9E9"/>
<path d="M99.1801 214.871L96.05 212.801L181.87 83.4211V70.8911L98.05 91.0511L97.1801 87.4011L185.63 66.1211V84.5511L185.31 85.0211L99.1801 214.871Z" fill="#02B9E9"/>
<path d="M320.65 78.5883L319.67 74.9583L402.86 52.4883L317.7 28.3783L254.78 45.1483L185.56 29.4583L114.67 52.8783L185.6 66.1283L184.91 69.8183L99.6399 53.8883L185.37 25.5683L254.7 41.2883L317.73 24.4883L416.94 52.5783L320.65 78.5883Z" fill="#02B9E9"/>
<path d="M319.624 74.9805L318.806 78.6405L393.129 95.2336L393.946 91.5736L319.624 74.9805Z" fill="#02B9E9"/>
<path d="M256.62 539.209H252.86V439.769L270.76 261.219L252.86 102.609V43.2188H256.62V102.509L274.53 261.199L274.51 261.399L256.61 439.949L256.62 539.209Z" fill="#02B9E9"/>
<path d="M319.627 74.9844L288.421 162.901L291.955 164.156L323.161 76.2388L319.627 74.9844Z" fill="#02B9E9"/>
<path d="M480.84 322.788L340.84 250.538L340.56 250.088L253.13 105.838L256.34 103.898L343.5 247.688L482.56 319.458L480.84 322.788Z" fill="#02B9E9"/>
<path d="M397.79 211.46L290.58 164.86L292.07 161.42L389.21 203.64L320.39 78.2397L323.68 76.4297L397.79 211.46Z" fill="#02B9E9"/>
<path d="M318.556 80.418L255.086 104.209L256.406 107.73L319.875 83.9388L318.556 80.418Z" fill="#02B9E9"/>
<path d="M184.316 82.2188L183.208 85.8011L254.196 107.767L255.305 104.184L184.316 82.2188Z" fill="#02B9E9"/>
<path d="M253.814 42.0938L183.52 81.6283L185.358 84.8969L255.653 45.3623L253.814 42.0938Z" fill="#02B9E9"/>
<path d="M256.241 42.5156L254.283 45.7143L317.968 84.6794L319.926 81.4806L256.241 42.5156Z" fill="#02B9E9"/>
<path d="M253.699 104.371L96.3838 212.596L98.5093 215.685L255.825 107.46L253.699 104.371Z" fill="#02B9E9"/>
<path d="M254.24 442.23L203.9 375.32L145.8 325.43L242.68 238.3L211.58 211.97L253 106.09L256.5 107.46L216.06 210.84L274.2 260.06L274.37 260.46L333.22 396.08L254.24 442.23ZM151.49 325.36L206.78 372.9L255.24 437.3L328.68 394.46L271.11 262.36L245.58 240.74L151.49 325.36Z" fill="#02B9E9"/>
<path d="M213.811 209.555L99.8113 210.668L99.8479 214.418L213.848 213.305L213.811 209.555Z" fill="#02B9E9"/>
<path d="M269.806 258.328L204.357 371.648L207.605 373.524L273.053 260.203L269.806 258.328Z" fill="#02B9E9"/>
<path d="M251.2 539.181L203.51 460.181L78.4299 374.121L80.5499 371.031L206.31 457.551L254.42 537.251L251.2 539.181Z" fill="#02B9E9"/>
<path d="M203.384 374.023L203.052 458.853L206.802 458.867L207.134 374.037L203.384 374.023Z" fill="#02B9E9"/>
<path d="M55.74 450.142L55.7 446.392L184.78 444.922L186.9 448.572L55.74 450.142Z" fill="#02B9E9"/>
<path d="M339.88 435.461L329.25 395.73L333.22 396.081L343.51 434.49L339.88 435.461Z" fill="#02B9E9"/>
<path d="M256.89 540.56L253.98 538.18L384.59 378.64L340.39 249.72L343.95 248.5L388.82 379.4L256.89 540.56Z" fill="#02B9E9"/>
<path d="M272.551 257.672L270.462 260.799L365.938 324.564L368.027 321.438L272.551 257.672Z" fill="#02B9E9"/>
<path d="M385.72 380.619C353.4 360.669 304.2 330.559 301.13 329.369L301.65 328.019V325.699C302.32 325.699 303.89 325.699 387.69 377.429L385.72 380.619Z" fill="#02B9E9"/>
<path d="M480.411 318.695L366.832 320.138L366.88 323.887L480.458 322.445L480.411 318.695Z" fill="#02B9E9"/>
<path d="M387.68 380.63L385.73 377.43C428.21 351.53 479.08 320.59 480.17 320.23L480.76 322.01L481.55 323.711C479.22 324.871 413 365.19 387.68 380.63Z" fill="#02B9E9"/>
<path d="M479.143 320.996L435.402 389.833L438.567 391.844L482.308 323.008L479.143 320.996Z" fill="#02B9E9"/>
<path d="M437.623 388.074L436.234 391.568L527.185 427.712L528.574 424.218L437.623 388.074Z" fill="#02B9E9"/>
<path d="M340.27 440.521L337.66 437.731L437.98 387.801L439.65 391.171L340.27 440.521Z" fill="#02B9E9"/>
<path d="M446.35 461.579C339.22 440.859 339.01 440.649 338.45 440.079L339.78 438.749L340.36 436.969C342.92 437.689 418.25 452.319 447.06 457.889L446.35 461.579Z" fill="#02B9E9"/>
<path d="M186.62 27.8008H184.62V82.0108H186.62V27.8008Z" fill="#02B9E9"/>
</g>
<defs>
<clipPath id="clip0_8055_4278">
<rect width="532" height="543" fill="white"/>
</clipPath>
</defs>
</svg>
