<?xml version="1.0" encoding="UTF-8"?>
<svg id="DAO" xmlns="http://www.w3.org/2000/svg" viewBox="0 0 1080 1080">
  <defs>
    <style>
      .cls-1, .cls-2 {
        fill: none;
      }

      .cls-2 {
        stroke: #fee1ff;
        stroke-linecap: round;
        stroke-linejoin: round;
        stroke-width: 0px;
      }

      .cls-3 {
        fill: #fff59c;
      }

      .cls-4 {
        fill: #ffcaff;
      }

      .cls-5 {
        fill: #efe750;
      }

      .cls-6 {
        fill: #969696;
      }

      .cls-7 {
        fill: #afa125;
      }

      .cls-8 {
        fill: #d3d3d3;
      }

      .cls-9 {
        fill: #3f3f3f;
      }

      .cls-10 {
        fill: #93f985;
      }
    </style>
  </defs>
  <g id="camera-DAO">
    <g>
      <path class="cls-1" d="m812.31,545.98c-.96.3-1.92.62-2.88.95-.53.29-1.05.6-1.57.9l.04.18c1.45-.72,2.92-1.39,4.42-2.03Z"/>
      <path class="cls-3" d="m477.11,539.23l139.13-93.22c.86-.65-.9.61,0,0-19.41-8.27-40.54-17.16-59.95-25.42-9.2-3.92-18.6-7.61-27.58-12.04-4.61-2.52-9.22-5.03-13.84-7.53-.14-.34-.27-.69-.4-1.03-.06-.16-.12-.33-.17-.5-2.46-4.17-2.74-9.79-1.65-14.36,1.73-7.32,7.11-13.05,13.31-17,2.76-1.76,5.69-3.24,8.72-4.49.83-.19,1.65-.38,2.48-.56,12.97-2.74,26.19-4.02,39.43-4.51,13.91-.51,27.83-.14,41.73.37,3.36.12,6.72.25,10.08.39,10.06.66,20.19,1.34,30.19,2.66.51.08,1.02.14,1.53.23,3.97.65,7.94,1.34,11.91,2.03,2.18.47,4.34,1,6.49,1.61.35.06.71.11,1.06.17,11.56,1.91,22.7,5.79,29.83,15.63.24.34.53,1.16.64,1.49l49.81-33.41h0l-295.81-102.02-254.32,172.31,267.39,119.2Zm227.07-170.23c.43.09.85.17,1.28.24-.43-.07-.86-.14-1.28-.24Zm-7.67-38.55c13.07-.92,24.09,4.49,24.63,12.09,0,0,0,0,0,0,.72,1.52,1.16,3.14,1.28,4.84.68,9.72-9.35,18.35-22.42,19.27-1.89.13-3.75.09-5.53-.1-2.12-.46-4.24-.93-6.36-1.4-7.34-2.53-12.54-7.9-13.01-14.45-.02-.34-.03-.67-.03-1-.72-1.2-1.16-2.49-1.25-3.85-.53-7.59,9.63-14.49,22.69-15.41Zm-235.38,114.25c25.34-1.78,46.74,8.86,47.78,23.76,0,0,0,0,0,.01,1.39,2.98,2.26,6.16,2.5,9.51,1.34,19.09-18.11,36-43.46,37.79-25.34,1.78-46.97-12.25-48.32-31.33-.05-.66-.06-1.32-.06-1.97-1.4-2.35-2.25-4.88-2.44-7.55-1.05-14.91,18.65-28.44,43.99-30.22Z"/>
      <path class="cls-5" d="m693.57,765.17c-2.37-1.37-4.29-3.51-6.29-5.35-1.85-1.71-3.7-3.41-5.52-5.15-3.64-3.47-7.27-6.96-10.87-10.47-7.22-7.01-14.34-14.12-21.4-21.3-7.06-7.18-14.13-14.36-20.9-21.8-2.85-3.14-5.7-6.28-8.54-9.42-.04.03-.07.07-.12.1-.8.48-1.6.88-2.4,1.21-.68.72-1.65,1.11-2.59.84-12.56,2.95-25.73-9.47-32.67-18.64-10.18-13.46-15.22-30.12-16.42-46.81-2-27.66,4.84-56.1,16.53-81.05,11-23.47,26.95-44.76,46.54-61.74,9.71-8.42,20.3-15.85,31.58-22,12.42-6.78,25.93-12.71,40.07-14.47,13.9-1.73,27.55,1.92,37.87,11.6,9.4,8.82,14.89,21.02,16.52,33.69,1.06.56,2.1,1.13,3.15,1.61,4.49,2.06,9.08,3.79,13.76,5.36,6.76,2.27,13.48,4.67,20.23,6.96.26.11.51.22.77.33l-32.95-158.9-282.74,189.49,76.12,324.55,143.19-97.15c-.27-.43-.53-.87-.79-1.31-.69.24-1.45.23-2.14-.17Z"/>
      <path class="cls-4" d="m750.92,606.46c5.36-8.86,11.41-17.77,18.24-26.08-13.53,15.84-24.38,34.23-32.95,53.18,4.45-9.31,9.42-18.36,14.71-27.1Z"/>
      <polygon class="cls-7" points="553.3 863.8 477.18 539.25 209.79 420.05 296.06 754.92 553.3 863.8"/>
      <path d="m807.9,548.01l-.04-.18c-1.05.6-2.1,1.21-3.13,1.83,1.04-.57,2.1-1.12,3.17-1.65Z"/>
      <path class="cls-9" d="m465,498.7c-20.8,1.46-38.93-5.45-45.34-16.21,0,.65.01,1.31.06,1.97,1.34,19.09,22.97,33.11,48.32,31.33,25.34-1.78,44.8-18.7,43.46-37.79-.24-3.35-1.11-6.53-2.5-9.51,1.03,14.9-18.65,28.42-43.99,30.2Z"/>
      <path class="cls-8" d="m417.22,474.94c.19,2.67,1.04,5.2,2.44,7.55,6.41,10.76,24.54,17.67,45.34,16.21,25.33-1.78,45.02-15.3,43.99-30.2,0,0,0,0,0-.01-1.05-14.91-22.44-25.55-47.78-23.76-25.34,1.78-45.04,15.31-43.99,30.22Zm47.42,15.94c-15.69,1.1-29.01-6.61-29.76-17.23-.75-10.62,11.37-20.12,27.05-21.22,15.69-1.1,29.01,6.61,29.76,17.23.75,10.62-11.37,20.12-27.05,21.22Z"/>
      <path class="cls-9" d="m461.93,452.43c-15.69,1.1-27.8,10.61-27.05,21.22.75,10.62,14.07,18.33,29.76,17.23,15.69-1.1,27.8-10.61,27.05-21.22-.75-10.62-14.07-18.33-29.76-17.23Zm2.78,36.76c-13.19.93-24.35-5-24.93-13.25s9.64-15.68,22.83-16.6,24.35,5,24.93,13.25c.58,8.24-9.64,15.68-22.83,16.6Z"/>
      <path class="cls-10" d="m462.61,459.34c-13.19.93-23.41,8.36-22.83,16.6s11.74,14.17,24.93,13.25c13.19-.93,23.41-8.36,22.83-16.6-.58-8.24-11.74-14.17-24.93-13.25Z"/>
      <path class="cls-6" d="m703.92,386.27c-.3-.23-.59-.5-.84-.85-3.31-4.62-8.28-7.62-13.59-9.75-8.99-2.39-19.71-1.13-27.53,1.39-17.16,5.55-30.62,18.79-37.97,35.08-4.28,9.48-6.7,19.6-7.48,29.96-.05.62.98,2.38,1.38,2.84,1.95-1.23,4.16-2.79,6.05-4.04,4.66-3.06,9.24-6.25,13.9-9.31,9.16-6.02,18.23-12.38,27.39-18.39,9.16-6,17.78-12.06,27.04-17.91,4.14-2.62,8.49-5.93,12.69-8.45-.08-.18-.44-.08-.53-.25-.08-.15-.43-.18-.5-.33Z"/>
      <path class="cls-9" d="m679.64,366.05c-.35-.06-.71-.11-1.06-.17-2.14-.61-4.31-1.14-6.49-1.61-3.97-.69-7.93-1.38-11.91-2.03-.51-.08-1.02-.15-1.53-.23-10-1.32-20.13-2-30.19-2.66-3.35-.15-6.71-.27-10.08-.39-13.9-.51-27.83-.88-41.73-.37-13.23.49-26.46,1.77-39.43,4.51-.83.18-1.66.37-2.48.56-3.04,1.25-5.96,2.72-8.72,4.49-6.19,3.95-11.58,9.68-13.31,17-1.08,4.57-.81,10.19,1.65,14.36.06.16.11.33.17.5.13.34.26.69.4,1.03,4.62,2.5,9.23,5.01,13.84,7.53,8.98,4.43,18.38,8.12,27.58,12.04,19.41,8.26,38.82,16.53,58.22,24.8.83-.56,1.67-1.11,2.52-1.64-.4-.46-.65-1.05-.6-1.66.79-10.36,3.21-20.47,7.48-29.96,7.35-16.29,20.81-29.53,37.97-35.08,7.82-2.53,18.54-3.78,27.53-1.39,5.32,2.13,10.29,5.13,13.59,9.75.25.35.54.62.84.85.08.15.15.3.22.45.15,0,.3-.02.45-.04.14.07.28.13.43.18.37-.22.73-.45,1.1-.67,1.3-.77,2.64-1.49,4-2.19.06-.42.01-.86-.14-1.32-.11-.33-.26-.66-.51-1-7.13-9.84-18.27-13.71-29.83-15.63Z"/>
      <path class="cls-9" d="m738.45,460.7c-10.31-9.68-23.96-13.33-37.87-11.6-14.14,1.75-27.65,7.69-40.07,14.47-11.29,6.16-21.87,13.58-31.58,22-19.59,16.98-35.55,38.27-46.54,61.74-11.69,24.96-18.53,53.4-16.53,81.05,1.2,16.69,6.24,33.35,16.42,46.81,6.94,9.18,20.11,21.59,32.67,18.64.94.27,1.91-.11,2.59-.84.81-.33,1.61-.73,2.4-1.21.05-.03.07-.07.12-.1-.66-.73-1.32-1.45-1.97-2.17-1.61-1.78-3.17-3.63-4.62-5.54-.22-.3-.47-.6-.71-.9-.23-.18-.48-.33-.67-.55-.96-1.06-1.65-2.52-2.43-3.72-1.62-2.5-2.8-5.29-3.95-8.04-2.27-5.46-3.83-11.24-4.85-17.06-2.17-12.35-1.61-24.98-.03-37.37,5.22-40.97,23.86-79.88,54.65-107.73,14.46-13.08,31.61-24.18,50.15-30.48,9.53-3.24,20.36-4.76,29.91-.81,6.77,2.8,12.79,8.14,15.1,15.14,1.49.47,2.93,1.2,4.35,1.95-1.63-12.66-7.13-24.87-16.52-33.69Z"/>
      <path class="cls-8" d="m736.22,633.56c-2.4,5.31-4.62,10.66-6.67,16.02-8.02,20.96-13.5,43.18-13.65,65.66.43,6.4,1.28,12.78,2.61,19.05,1.8,8.47,4.35,16.82,7.61,24.88,19.76-3.07,38.55-10.61,55.52-21.16,31.3-19.47,54.84-52.5,66.41-87.23,6.73-20.21,5.23-41.03-.25-61.35-2.59-9.59-5.64-19.11-10.66-27.73-3.14-5.39-7.21-9.58-11.85-13.28-1.28-1.34-2.57-2.66-3.93-3.9-.38-.34-.77-.65-1.19-.89-1.47.46-2.94.91-4.43,1.33-1.14.32-2.27.66-3.41,1.03-1.49.64-2.97,1.31-4.42,2.03-1.07.53-2.12,1.08-3.17,1.65-13.52,8.19-25.31,18.72-35.57,30.72-6.82,8.31-12.88,17.22-18.24,26.08-5.29,8.74-10.26,17.79-14.71,27.1Z"/>
      <path class="cls-6" d="m825.27,548.42c4.65,3.7,8.72,7.89,11.85,13.28,5.02,8.63,8.07,18.14,10.66,27.73,5.48,20.32,6.98,41.14.25,61.35-11.56,34.73-35.11,67.76-66.41,87.23-16.96,10.55-35.75,18.09-55.52,21.16,2.67,6.61,5.82,13.03,9.43,19.17,11.34-2.19,22.19-5.83,32.35-11.47,10.93-6.08,21.05-13.72,30.81-21.52,16.33-13.04,31.75-27.73,43.71-44.95,12.37-17.8,20.4-38.36,23.67-59.77,3.13-20.43,1.98-42.06-4.63-61.72-2.97-8.82-6.97-17.37-12.45-24.91-2.67-3.68-5.65-7.11-8.97-10.22-1.61-1.5-3.31-2.89-5.01-4.27-1.86.38-3.73.78-5.56,1.28-3.14.85-6.22,1.86-9.32,2.83.42.24.81.55,1.19.89,1.36,1.24,2.65,2.56,3.93,3.9Z"/>
      <path class="cls-9" d="m810.59,515.93c.26.07.53.14.8.2-.27-.06-.53-.13-.8-.2Z"/>
      <path class="cls-9" d="m809.55,515.62c.2.07.41.13.61.19-.21-.06-.41-.12-.61-.19Z"/>
      <path class="cls-9" d="m896.13,556.19c-12.2-16.22-30.5-27.37-50.44-27.9-.4-.16-.81-.31-1.2-.47-3.26-1.37-6.53-2.72-9.82-4.02-1.43-.57-2.89-1.07-4.33-1.61,0,0,0,0,0,0-5.62-1.95-11.28-3.79-16.91-5.71-.68-.07-1.36-.18-2.03-.33.69.16,1.4.29,2.1.36.39.13.78.27,1.17.4-.09.25-.23.48-.43.65-1.3-.32-2.73.05-4.11.58-.33.13-.66.26-.99.39-.23.04-.48.04-.71.1-1.21.29-2.42.77-3.58,1.21-.94.36-1.86.78-2.76,1.22-7.01,2.98-14.09,5.83-20.88,9.29-.28.15-.55.31-.84.46-9.16,5.94-17.8,12.65-25.72,20.34-27.39,26.57-43.05,61.46-53.58,97.62-5.43,18.65-9.56,37.81-10.61,57.25-1.06,19.6,1.87,38.46,7.51,57.2.36,1.2-.81,2.08-1.81,1.95-.14.08-.3.13-.45.18.26.44.52.88.79,1.31.03.04.05.08.07.12.63,1,1.55,1.42,2.46,1.44.97.94,2.01,1.83,3.07,2.7,1.06.86,2.15,1.7,3.19,2.53,4.82,3.82,9.8,7.47,14.8,11.05,6.04,4.32,12.2,8.44,18.47,12.4,8.76,8.27,20.05,13.51,32.28,13.41,13.45-.11,27.08-4.89,39.26-10.29,11.39-5.04,22.01-11.62,31.7-19.44,21.28-17.16,35.61-40.27,47.27-64.67,6.34-13.27,12.17-26.78,16.31-40.91,4.12-14.06,6.75-28.57,7.89-43.18,2.04-25.96-1.04-54.22-17.14-75.62Zm-126.97,24.19c10.25-12,22.05-22.53,35.57-30.72,1.03-.63,2.08-1.24,3.13-1.83.53-.3,1.04-.61,1.57-.9.96-.33,1.92-.64,2.88-.95,1.14-.36,2.27-.71,3.41-1.03,1.48-.42,2.96-.87,4.43-1.33,3.1-.97,6.18-1.98,9.32-2.83,1.84-.5,3.7-.89,5.56-1.28,1.71,1.38,3.41,2.77,5.01,4.27,3.32,3.11,6.3,6.54,8.97,10.22,5.48,7.54,9.49,16.09,12.45,24.91,6.61,19.65,7.75,41.29,4.63,61.72-3.28,21.41-11.31,41.97-23.67,59.77-11.96,17.22-27.39,31.91-43.71,44.95-9.76,7.79-19.87,15.44-30.81,21.52-10.16,5.65-21.02,9.28-32.35,11.47-3.61-6.13-6.76-12.56-9.43-19.17-3.26-8.06-5.82-16.41-7.61-24.88-1.33-6.28-2.18-12.65-2.61-19.05.16-22.48,5.63-44.7,13.65-65.66,2.05-5.35,4.28-10.71,6.67-16.02,8.56-18.95,19.41-37.35,32.95-53.18Z"/>
      <path class="cls-6" d="m792.87,508.66c-.26-.11-.51-.22-.77-.33-6.75-2.3-13.47-4.7-20.23-6.96-4.68-1.57-9.27-3.3-13.76-5.36-1.05-.48-2.09-1.05-3.15-1.61-1.42-.75-2.86-1.48-4.35-1.95-2.31-7-8.33-12.35-15.1-15.14-9.55-3.94-20.39-2.43-29.91.81-18.53,6.31-35.69,17.4-50.15,30.48-30.79,27.85-49.43,66.76-54.65,107.73-1.58,12.39-2.14,25.01.03,37.37,1.02,5.82,2.58,11.6,4.85,17.06,1.14,2.75,2.32,5.53,3.95,8.04.78,1.2,1.47,2.66,2.43,3.72.19.21.44.37.67.55.24.3.48.61.71.9,1.46,1.91,3.01,3.76,4.62,5.54.66.73,1.32,1.45,1.97,2.17,2.85,3.14,5.69,6.28,8.54,9.42,6.77,7.45,13.84,14.63,20.9,21.8,7.06,7.18,14.18,14.28,21.4,21.3,3.61,3.51,7.23,7,10.87,10.47,1.82,1.74,3.67,3.44,5.52,5.15,2,1.84,3.92,3.98,6.29,5.35.69.4,1.46.4,2.14.17.15-.05.31-.1.45-.18,1.01.13,2.18-.75,1.81-1.95-5.64-18.73-8.57-37.6-7.51-57.2,1.05-19.44,5.17-38.6,10.61-57.25,10.54-36.16,26.19-71.05,53.58-97.62,7.92-7.68,16.55-14.4,25.72-20.34.28-.15.55-.32.84-.46,6.8-3.47,13.88-6.31,20.88-9.29.9-.44,1.81-.86,2.76-1.22,1.16-.45,2.37-.92,3.58-1.21.23-.05.47-.06.71-.1.33-.13.66-.27.99-.39,1.39-.53,2.81-.89,4.11-.58.2-.18.34-.4.43-.65-.39-.13-.78-.27-1.17-.4-.71-.07-1.41-.2-2.1-.36,0,0,0,0,0,0-.27-.06-.53-.13-.8-.2-.14-.04-.29-.08-.43-.12-.21-.06-.41-.13-.61-.19-.3-.1-.61-.21-.9-.32-1.49-.57-2.92-1.27-4.32-2.04-1.32-.49-2.64-.99-3.95-1.5-2.52-.98-5.03-2.01-7.51-3.1Z"/>
      <path class="cls-9" d="m698.51,357.97c-10.72.75-20.07-2.76-23.37-8.24,0,.33,0,.67.03,1,.46,6.55,5.67,11.92,13.01,14.45,2.12.47,4.24.94,6.36,1.4,1.79.19,3.64.23,5.53.1,13.07-.92,23.1-9.55,22.42-19.27-.12-1.7-.57-3.33-1.28-4.84.53,7.59-9.63,14.49-22.69,15.41Z"/>
      <path class="cls-8" d="m675.14,349.73c3.3,5.48,12.65,8.99,23.37,8.24,13.06-.92,23.22-7.82,22.69-15.41,0,0,0,0,0,0-.53-7.59-11.56-13-24.63-12.09-13.07.92-23.23,7.82-22.69,15.41.1,1.36.53,2.65,1.25,3.85Zm22.76,2.58c-6.76.48-12.5-2.8-12.81-7.32-.32-4.52,4.9-8.57,11.66-9.04,6.76-.48,12.5,2.8,12.81,7.32s-4.9,8.57-11.66,9.04Z"/>
      <path class="cls-9" d="m696.75,335.94c-6.76.48-11.98,4.52-11.66,9.04.32,4.52,6.05,7.8,12.81,7.32,6.76-.48,11.98-4.52,11.66-9.04s-6.05-7.8-12.81-7.32Z"/>
      <path class="cls-2" d="m705.53,369.26c-.43-.07-.86-.14-1.28-.24"/>
    </g>
    <polygon class="cls-9" points="616.63 441.19 616.63 442.56 617.1 443.77 617.88 444.94 616.09 446.16 614.58 445.41 614.53 442.59 616.51 439.21 616.82 438.42 616.63 441.19"/>
    <polygon class="cls-9" points="703.22 385.63 704.38 387.16 705.02 386.86 705.5 385.58 704.23 385.15 703.22 385.63"/>
  </g>
</svg>