<svg width="594" height="562" viewBox="0 0 594 562" fill="none" xmlns="http://www.w3.org/2000/svg">
<g clip-path="url(#clip0_8980_5241)">
<path d="M764 218.387L507.855 0L340.969 97.3562L340.935 97.3245L340.924 97.3775L340.801 97.4516L340.891 97.5894L331.109 153.055L277.982 132.74L192.11 185.864L192.032 185.885L192.043 185.906L191.931 185.98L192.099 186.044L209.778 238.521L170.213 264.188L170 264.251L170.022 264.315L170.011 264.325L170.034 264.336L195.969 342.808L195.913 342.925L259.17 372.628L283.871 452.786L502.74 561.173L504.254 562L587.355 508.76L576.339 462.037L670.68 398.274L670.725 398.295L697.625 348.499L697.591 348.488L697.602 348.478L674.595 328.385L721.889 295.979H721.9C721.911 295.968 721.911 295.969 721.922 295.958C722.236 295.661 722.573 295.364 722.943 295.131C722.954 295.121 722.977 295.11 722.988 295.1C723.044 295.047 723.111 294.994 723.167 294.941C723.28 294.739 723.392 294.548 723.515 294.347L723.504 294.326L763.484 218.768L764 218.387ZM672.239 147.29L596.049 199.365L513.06 126.901L587.568 75.1022L672.239 147.29ZM507.215 6.60205L585.021 72.9403L510.547 124.718L428.119 52.7527L507.215 6.60205ZM425.158 54.4801L593.278 201.272L521.675 250.22L345.333 101.044L425.158 54.4801ZM450.241 301.956L481.134 309.427L406.66 359.53L380.702 348.456L450.241 301.956ZM380.242 342.268L352.658 246.395L428.153 195.825L448.39 296.7L380.242 342.268ZM489.177 310.518L506.385 400.912L433.28 449.532L410.16 363.674L489.177 310.518ZM509.111 405.586L558.559 418.334L481.314 471.235L440.01 451.546L509.111 405.586ZM278.599 138.696L421.927 193.494L349.102 242.283L203.844 184.942L278.599 138.696ZM198.874 188.736L347.105 247.243L375.598 346.273L231.125 284.608L231.17 284.598L198.874 188.736ZM211.539 243.799L224.305 281.684L181.386 263.361L211.539 243.799ZM200.647 339.237L176.854 267.261L404.585 364.458L426.325 445.198L200.647 339.237ZM288.549 449.214L266.125 375.892L434.772 455.074L434.76 455.032L434.816 455L479.99 476.534L499.486 553.31L288.549 449.214ZM581.039 506.386L505.611 554.72L485.375 475.008L561.375 422.954L581.039 506.386ZM575.004 456.399L570.809 438.607L573.377 430.86L622.623 397.966L607.255 434.527L607.311 434.548L575.004 456.399ZM575.038 425.858L587.613 387.963L642.703 350.215L624.912 392.562L575.038 425.858ZM666.383 394.639L615.646 428.931L631.014 392.371L688.269 354.136L666.383 394.639ZM690.03 349.06L633.291 386.956L651.172 344.408L669.962 331.533L690.03 349.06ZM718.669 291.624L590.417 379.495L608.018 326.425L753.59 225.603L718.669 291.624ZM605.797 321.391L524.233 252.382L674.797 149.463L755.138 217.952L605.797 321.391Z" fill="#C79EC6"/>
</g>
<defs>
<clipPath id="clip0_8980_5241">
<rect width="594" height="562" fill="white"/>
</clipPath>
</defs>
</svg>
