<svg width="505" height="540" viewBox="0 0 505 540" fill="none" xmlns="http://www.w3.org/2000/svg">
<path d="M504.455 131.186C503.265 115.906 498.845 100.036 486.835 89.6656C473.795 78.4056 456.255 75.5656 439.695 73.8356C430.375 72.8556 420.995 72.1156 411.855 69.9256C403.585 67.9356 395.645 64.7555 388.305 60.4655C384.795 58.4155 381.415 56.1356 378.225 53.6056C375.895 51.0956 373.725 48.4956 371.725 45.6956C371.225 44.9656 370.725 44.2356 370.225 43.5056C369.355 42.1956 368.495 40.8856 367.625 39.5756C366.975 38.6056 366.315 37.6356 365.655 36.6656C365.565 36.5256 365.455 36.3956 365.355 36.2556C365.035 35.6956 364.695 35.1456 364.295 34.6056C361.165 30.4556 356.765 27.6656 351.885 25.9856C346.415 24.1056 340.525 23.6756 334.795 23.3156C328.795 22.9356 322.765 22.8056 316.755 23.1156C307.455 23.5956 297.945 25.2156 289.055 28.3556C278.395 19.8856 267.515 11.3456 254.955 5.86557C241.965 0.205571 227.755 -1.97445 213.975 2.09555C200.685 6.02555 189.215 14.2456 177.855 21.8856C165.045 30.5056 152.235 39.1255 139.425 47.7455C125.105 57.3855 110.775 67.0256 96.4552 76.6656C96.3552 76.7356 96.2752 76.8056 96.1952 76.8856C95.5852 76.9256 94.9852 76.9356 94.3752 76.9856C81.8452 77.9356 69.7652 81.0955 58.2752 86.1555C37.5752 95.2655 17.8952 109.496 8.2252 130.526C-0.864799 150.286 -1.6048 172.896 2.0652 194.056C6.3252 218.586 16.3652 241.586 24.8552 264.846C25.5952 266.876 26.3052 268.916 27.0252 270.956C24.6952 292.856 21.8452 314.696 18.5452 336.486C16.2552 351.566 14.0352 367.496 18.4052 382.426C22.5552 396.616 32.8952 406.906 44.9752 414.806C51.1552 418.846 57.6852 422.316 64.1752 425.816C72.0452 430.066 79.9152 434.306 87.7752 438.556C103.515 447.046 119.245 455.536 134.985 464.026L144.275 469.046C144.315 469.066 144.335 469.096 144.375 469.116C146.215 470.196 148.055 471.286 149.895 472.366C152.875 476.696 156.315 480.696 160.305 484.176C165.475 488.686 171.825 492.516 178.575 494.316C178.775 494.616 179.035 494.866 179.365 495.026C195.995 503.106 212.535 511.396 228.965 519.886C233.495 522.226 238.005 524.576 242.515 526.946C243.655 528.726 244.975 530.386 246.455 531.896C246.375 531.926 246.295 531.956 246.215 531.996C251.875 537.546 260.815 539.996 268.565 539.966C282.055 539.906 294.705 534.056 305.385 526.186C316.715 517.826 326.245 507.406 335.305 496.706C344.065 486.346 352.305 475.526 360.055 464.386C360.295 464.326 360.545 464.246 360.795 464.106C376.065 455.296 390.925 445.786 405.685 436.156C420.555 426.456 435.515 416.856 450.255 406.956C457.025 402.406 463.625 397.476 468.935 391.236C473.765 385.556 477.625 379.136 480.565 372.286C487.135 356.976 489.185 340.346 489.625 323.816C489.865 315.006 489.715 306.186 489.575 297.366C489.435 288.516 489.085 279.666 487.805 270.906C487.495 268.756 487.115 266.616 486.675 264.486C486.595 264.096 486.395 263.766 486.135 263.486C491.955 254.006 495.755 243.126 494.455 231.916C494.045 228.376 493.145 225.056 491.755 221.776C491.745 221.756 491.725 221.736 491.715 221.716C492.875 218.436 493.925 215.116 494.915 211.786C497.575 202.786 499.645 193.616 501.175 184.356C502.735 174.946 503.775 165.446 504.335 155.916C504.855 147.696 505.095 139.416 504.455 131.186ZM367.495 50.1056C367.575 49.6056 367.645 49.1056 367.695 48.5956C376.295 61.1556 384.605 73.9256 392.395 87.0056C401.335 102.026 409.595 117.476 416.735 133.436C416.815 133.606 416.885 133.776 416.955 133.946C400.795 134.406 385.915 141.986 371.305 148.266C362.905 151.876 354.345 154.686 345.475 156.886C336.545 159.106 327.525 161.206 318.365 162.186C308.145 163.266 297.785 162.936 287.975 159.666C287.925 159.646 287.885 159.646 287.835 159.636C283.175 152.006 278.465 144.396 273.335 137.086C268.015 129.486 262.015 122.146 254.715 116.386C277.025 109.136 299.335 101.776 320.905 92.4955C331.475 87.9455 342.145 83.1655 351.145 75.8755C359.115 69.4455 365.815 60.4056 367.495 50.1056ZM457.955 185.806C460.155 190.026 462.815 193.976 465.825 197.666C465.855 197.696 465.895 197.726 465.925 197.756C465.545 199.256 465.135 200.746 464.695 202.226C461.565 212.726 456.955 222.716 451.065 231.936C447.735 226.616 446.295 220.196 445.265 214.046C443.845 205.586 442.635 197.126 440.745 188.756C440.575 188.006 440.385 187.266 440.215 186.516C440.215 186.496 440.225 186.476 440.225 186.456C441.625 175.226 444.445 164.156 448.505 153.606C448.935 152.496 449.375 151.376 449.835 150.256C449.445 162.536 452.255 174.856 457.955 185.806ZM454.745 151.746C454.785 147.516 455.245 143.316 456.115 139.176C457.305 137.776 458.705 136.366 460.665 137.076C462.625 137.776 464.095 139.626 465.075 141.386C467.605 145.896 468.525 151.166 469.055 156.246C469.595 161.406 469.775 166.616 469.625 171.806C469.425 178.436 468.655 185.036 467.355 191.526C459.025 180.076 454.615 165.866 454.745 151.746ZM445.955 233.146C449.545 239.686 456.055 245.546 463.625 246.726C463.885 246.766 464.145 246.786 464.405 246.816C456.595 252.186 448.785 257.566 440.975 262.936C440.115 263.526 439.255 264.116 438.395 264.706C435.885 252.426 432.995 240.216 429.685 228.126C427.885 221.536 425.965 214.986 423.945 208.466C422.085 202.456 420.295 196.376 417.565 190.686C415.075 185.486 411.615 180.816 406.945 177.396C402.015 173.786 396.145 172.566 390.125 173.206C383.445 173.916 376.805 175.476 370.225 176.756C363.615 178.046 357.015 179.366 350.425 180.746C335.855 183.776 321.335 187.026 306.865 190.486C303.055 184.346 299.255 178.206 295.445 172.066C294.175 170.026 292.925 167.966 291.665 165.916C308.225 169.876 325.685 166.796 342.025 162.906C351.095 160.756 360.015 158.306 368.655 154.786C376.725 151.496 384.585 147.686 392.725 144.566C401.205 141.316 410.015 138.866 419.135 138.956C425.105 152.946 430.145 167.336 433.965 182.066C436.135 190.446 437.905 198.926 439.215 207.476C440.565 216.206 441.615 225.256 445.955 233.146ZM308.765 428.236C324.055 430.246 339.515 427.156 353.825 421.756C360.425 419.266 366.845 416.316 373.135 413.116C372.915 413.526 372.685 413.946 372.455 414.356C369.885 418.856 366.675 422.816 362.615 426.056C358.515 429.346 353.775 431.826 349.075 434.126C339.045 439.036 328.575 443.376 317.525 445.346C307.875 447.066 297.895 446.636 288.755 442.916C280.985 439.756 273.925 434.236 269.945 426.756C268.995 424.976 268.275 423.116 267.715 421.166C267.635 420.876 267.515 420.646 267.365 420.436C269.115 417.376 270.945 414.356 272.815 411.366C282.345 421.096 295.385 426.486 308.765 428.236ZM275.595 407.036C278.025 403.296 280.545 399.606 283.125 395.966C283.365 395.916 283.615 395.836 283.865 395.706C291.095 391.766 298.505 388.156 306.075 384.916C313.295 381.826 320.885 378.846 328.745 377.966C334.165 377.356 339.605 377.816 344.755 379.456C344.815 379.636 344.895 379.816 345.015 379.976C353.105 390.656 355.115 405.056 350.235 417.546C350.205 417.626 350.195 417.716 350.175 417.796C344.625 419.786 338.935 421.416 333.105 422.506C319.785 424.996 305.755 424.276 293.135 419.096C286.515 416.336 280.485 412.266 275.595 407.036ZM356.195 415.456C359.295 404.806 358.055 392.956 352.915 383.126C356.845 385.446 360.425 388.336 363.635 391.596C368.035 396.066 371.705 401.166 374.745 406.636C368.705 409.846 362.525 412.866 356.195 415.456ZM352.805 377.366C346.485 374.186 339.515 372.476 332.415 372.686C323.885 372.936 315.665 375.596 307.835 378.796C301.685 381.306 295.635 384.076 289.695 387.046C292.135 383.836 294.625 380.656 297.175 377.526C305.325 367.486 313.935 357.826 322.825 348.426C330.685 340.106 339.075 332.266 346.915 323.936C347.115 323.996 347.325 324.036 347.545 324.056C354.495 324.516 361.265 326.766 367.175 330.456C373.835 334.616 378.645 340.816 383.695 346.696C386.685 350.176 389.675 353.656 392.655 357.136C390.115 366.006 387.425 374.846 384.515 383.606C382.655 389.206 380.725 394.786 378.685 400.326C378.455 400.956 378.215 401.586 377.975 402.216C371.925 391.956 363.455 382.726 352.805 377.366ZM379.405 334.166C374.105 328.496 367.555 324.196 360.235 321.606C357.255 320.556 354.175 319.836 351.055 319.406C357.835 311.596 363.435 302.416 363.355 291.966C377.625 297.286 391.385 303.906 404.475 311.676C404.245 312.676 404.015 313.676 403.775 314.656C400.965 326.256 398.025 337.826 394.845 349.336C394.665 350.006 394.465 350.666 394.285 351.336C389.395 345.556 384.565 339.686 379.405 334.166ZM363.955 286.866C363.595 286.736 363.215 286.726 362.845 286.806C361.735 280.706 358.985 275.026 355.895 269.696C352.175 263.286 348.135 257.056 344.235 250.756C342.255 247.566 340.285 244.376 338.305 241.196C355.975 253.176 377.275 258.896 398.255 262.306C405.985 263.566 413.755 264.556 421.525 265.556C422.865 265.726 424.025 264.286 424.025 263.056C424.025 262.586 423.895 262.186 423.695 261.846C423.745 261.326 423.655 260.766 423.425 260.246C417.565 246.696 407.805 234.996 395.745 226.526C382.585 217.286 366.645 212.396 350.585 212.336C341.325 212.306 332.035 213.866 323.315 217.006L309.645 194.956C334.425 189.066 359.345 183.776 384.385 179.136C390.025 178.086 395.965 177.076 401.305 179.786C405.885 182.106 409.335 186.046 411.835 190.466C414.715 195.556 416.425 201.176 418.175 206.726C420.155 213.006 422.035 219.306 423.825 225.646C427.735 239.546 431.105 253.596 433.955 267.746C431.455 269.456 428.975 271.176 426.515 272.936C422.165 276.046 417.995 279.416 414.725 283.676C409.685 290.256 407.495 298.456 405.645 306.566C392.345 298.796 378.385 292.206 363.955 286.866ZM381.985 254.046C380.705 244.496 381.595 234.736 384.405 225.536C392.805 229.876 400.365 235.826 406.635 242.976C411.155 248.126 414.925 253.916 417.875 260.086C405.905 258.536 393.785 256.846 381.985 254.046ZM376.855 252.736C366.925 250.066 357.285 246.516 348.215 241.466C342.455 238.256 337.035 234.496 332.135 230.086C331.795 229.776 331.425 229.596 331.045 229.506C329.365 226.796 327.685 224.076 325.995 221.366C340.495 216.466 356.325 216.036 371.065 220.236C374.065 221.096 376.995 222.156 379.845 223.386C376.815 232.866 375.855 242.856 376.855 252.736ZM286.945 87.5356C289.675 83.1456 293.275 79.2156 297.455 76.1756C306.295 69.7456 317.375 67.0956 328.165 69.0956C333.705 70.1256 338.935 72.2256 343.605 75.3156C337.525 79.4756 330.765 82.6755 324.085 85.6855C310.505 91.7955 296.555 97.0355 282.475 101.906C281.545 97.0055 284.465 91.5356 286.945 87.5356ZM307.805 28.9256C319.065 27.4056 330.805 27.5756 342.075 28.9456C350.525 29.9656 361.495 33.7856 362.805 43.6056C363.455 48.4256 361.855 53.6256 359.695 57.8956C357.515 62.2056 354.525 66.0156 351.045 69.3556C350.005 70.3456 348.935 71.2856 347.825 72.1956C337.625 64.6856 324.265 61.8755 311.875 64.3755C300.235 66.7155 289.875 74.0955 283.335 83.9355C281.505 86.6855 280.025 89.6555 278.855 92.7455C277.565 96.1555 276.815 99.9755 277.725 103.556C271.545 105.656 265.335 107.706 259.135 109.736C257.145 110.386 255.155 111.036 253.165 111.676C250.375 93.7456 250.315 73.9556 259.515 57.8156C269.375 40.4556 288.665 31.5056 307.805 28.9256ZM174.195 30.3755C180.115 26.3855 185.995 22.3356 192.005 18.4756C197.505 14.9456 203.175 11.5656 209.235 9.07556C215.205 6.61556 221.515 5.02555 227.985 4.90555C234.825 4.78555 241.565 6.16556 247.995 8.44556C261.305 13.1556 272.735 21.7755 283.725 30.4655C274.495 34.5055 266.165 40.3655 259.775 48.4955C255.865 53.4755 252.975 58.9655 250.915 64.7455C248.235 59.0455 244.295 53.9355 239.445 49.9055C232.215 43.9055 223.585 40.6156 214.245 39.8956C203.595 39.0756 192.705 41.0455 182.265 42.9655C171.865 44.8755 161.575 47.3556 151.445 50.3856C146.865 51.7656 142.315 53.2556 137.805 54.8656C149.935 46.7056 162.065 38.5455 174.195 30.3755ZM119.065 67.4856C119.425 67.4556 119.785 67.3656 120.135 67.2056C138.715 59.0356 158.205 52.8956 178.095 48.8456C187.935 46.8456 198.055 44.9555 208.115 44.7455C217.145 44.5555 225.825 46.3755 233.345 51.5255C240.505 56.4255 245.945 63.8156 248.395 72.1456C248.455 72.3456 248.525 72.5255 248.615 72.6855C246.075 83.9555 246.135 95.9456 247.535 107.346C247.725 108.866 247.935 110.386 248.165 111.906C243.455 109.146 238.445 107.276 233.295 106.136C233.265 106.076 233.255 106.016 233.225 105.956C226.935 94.0156 216.145 84.8856 203.425 80.4556C189.575 75.6356 174.505 76.3456 160.125 77.5156C151.125 78.2456 142.135 79.0856 133.145 79.9756C132.835 79.9056 132.525 79.8355 132.205 79.7755C123.385 77.9855 114.385 76.8856 105.375 76.7256C109.935 73.6356 114.495 70.5556 119.065 67.4856ZM226.935 105.096C219.485 104.316 211.825 104.936 204.335 106.576C204.155 106.346 203.925 106.156 203.655 106.026C185.365 97.6955 166.885 89.2756 147.575 83.6056C150.525 83.3356 153.475 83.0756 156.425 82.8156C163.605 82.2056 170.805 81.6255 178.015 81.6555C191.335 81.7255 204.765 84.2455 215.555 92.5255C220.065 95.9955 223.905 100.286 226.935 105.096ZM8.98518 202.806C4.11518 182.326 2.94518 160.306 9.76518 140.116C13.0852 130.296 18.4252 121.296 25.6452 113.846C33.3952 105.836 42.8052 99.6055 52.6352 94.4355C63.2452 88.8555 74.5952 84.7755 86.4552 82.9055C98.3452 81.0355 110.635 81.3456 122.515 83.1056C125.475 83.5456 128.415 84.0756 131.335 84.6756C131.705 84.9156 132.135 85.0556 132.595 85.0056C132.655 84.9956 132.725 84.9956 132.785 84.9856C153.655 89.4856 173.515 97.8556 192.935 106.616C194.315 107.236 195.685 107.866 197.055 108.486C189.405 110.846 182.085 114.166 175.495 118.036C165.015 124.196 155.585 132.286 148.015 141.796C146.335 143.906 144.765 146.106 143.255 148.336C143.125 148.246 142.995 148.156 142.835 148.076C128.325 140.996 111.985 140.036 96.1052 140.816C81.9652 141.516 66.5752 142.886 54.4652 150.956C42.7752 158.746 37.0652 171.676 34.6052 185.096C33.3752 191.806 32.7952 198.606 32.3652 205.406C31.8152 214.006 31.3052 222.606 30.6652 231.206C29.9552 240.646 29.1152 250.066 28.1952 259.476C21.2252 240.776 13.6152 222.266 8.98518 202.806ZM78.3852 268.486C86.8052 262.686 94.6252 255.826 101.965 248.726C105.585 245.226 109.065 241.596 112.445 237.856C112.185 244.696 112.525 251.566 113.575 258.426C117.585 284.606 132.895 306.816 149.525 326.686C151.095 328.566 152.705 330.426 154.305 332.286C153.405 331.836 152.505 331.416 151.575 331.016C145.435 328.446 138.905 327.126 132.395 325.856C125.695 324.546 119.075 323.086 112.615 320.826C106.035 318.526 99.6952 315.646 93.4352 312.586C87.5052 309.686 81.4752 306.806 75.9152 303.226C65.9352 296.786 59.4852 286.676 54.5452 276.066C63.0152 276.926 71.4452 273.266 78.3852 268.486ZM52.1152 270.536C47.3152 258.856 44.6252 246.146 45.6552 233.496C46.5352 222.586 50.6452 211.646 57.5852 203.136C61.0252 198.926 65.1052 195.266 69.8152 192.526C74.9452 189.546 81.2652 187.146 87.2852 188.216C98.6852 190.226 103.325 203.186 106.075 212.906C107.945 219.506 109.275 226.246 110.025 233.066C103.635 240.256 96.8052 247.036 89.5452 253.326C85.9452 256.446 82.2452 259.496 78.4152 262.336C74.6652 265.116 70.6652 267.786 66.2652 269.426C61.7252 271.126 56.8352 271.756 52.1152 270.536ZM111.065 212.136C109.485 206.456 107.565 200.746 104.505 195.666C101.725 191.056 97.9052 186.896 92.8852 184.726C86.6752 182.046 79.6852 182.786 73.5152 185.216C51.3052 193.976 39.7252 218.416 40.4752 241.316C40.9252 254.916 45.0552 268.156 51.0852 280.276C54.0352 286.216 57.3952 292.026 61.5952 297.176C65.7952 302.326 71.0852 306.306 76.8152 309.606C82.7052 312.996 88.8652 315.976 95.0152 318.856C101.355 321.836 107.835 324.586 114.515 326.706C120.985 328.756 127.625 329.956 134.255 331.296C140.655 332.586 147.145 334.086 152.965 337.146C163.745 342.806 171.425 352.726 177.865 362.776C182.845 370.546 187.355 378.626 191.415 386.916C191.825 387.836 192.225 388.766 192.615 389.696C186.565 384.716 179.775 380.656 172.325 378.086C166.005 375.906 159.175 374.846 152.485 375.236C146.245 375.596 139.635 377.026 134.295 380.426C130.935 382.576 128.415 385.476 127.085 388.926C124.895 382.786 122.285 376.806 118.985 371.186C116.075 366.226 112.595 361.556 108.555 357.466C104.045 352.906 98.7752 349.276 93.4152 345.806C87.9152 342.246 82.3452 338.776 77.5752 334.246C72.7152 329.636 68.6252 324.316 64.6652 318.946C56.2752 307.546 48.3952 295.776 41.0552 283.676C38.0452 278.706 35.1452 273.676 32.3052 268.606C33.0152 261.686 33.6952 254.766 34.3052 247.846C35.7352 231.596 36.4452 215.296 37.8252 199.036C38.8852 186.546 40.9652 172.956 48.9152 162.796C57.4752 151.856 71.3752 148.126 84.5952 146.696C99.4652 145.096 115.235 144.506 129.785 148.476C133.405 149.466 136.935 150.756 140.305 152.406C140.395 152.446 140.475 152.466 140.565 152.496C135.565 160.566 131.405 169.196 127.625 177.866C121.225 192.556 116.075 208.116 113.735 224.006C113.035 220.026 112.155 216.056 111.065 212.136ZM167.155 406.356C164.225 402.616 160.355 399.986 155.905 398.356C151.335 396.676 145.955 395.746 141.105 396.266C137.715 396.626 134.335 397.836 131.745 400.006C131.175 397.646 130.785 395.196 131.135 392.786C131.505 390.236 132.835 388.096 134.705 386.376C138.595 382.786 144.315 381.216 149.435 380.516C155.495 379.696 161.735 380.266 167.625 381.866C179.705 385.156 189.975 392.826 198.255 402.036C202.925 413.426 206.735 425.196 209.605 437.156C197.655 439.686 185.245 437.656 173.855 433.546C173.765 433.516 173.685 433.476 173.595 433.446C174.445 423.966 173.175 414.056 167.155 406.356ZM168.735 431.526C164.545 429.756 160.465 427.746 156.455 425.606C153.605 424.086 150.795 422.496 148.005 420.886C145.415 419.386 142.755 417.926 140.385 416.106C138.185 414.406 136.375 412.376 135.085 409.916C134.385 408.586 133.835 407.176 133.355 405.746C137.415 399.266 147.575 400.866 153.745 402.906C161.255 405.396 166.035 411.746 167.885 419.266C168.865 423.266 169.005 427.416 168.735 431.526ZM45.2252 311.866C45.0352 306.906 44.5052 301.936 43.5452 297.066C45.1652 299.586 46.8052 302.086 48.4752 304.576C52.4152 310.456 56.4952 316.246 60.6952 321.936C64.6852 327.346 68.8052 332.736 73.6552 337.416C83.0352 346.466 95.4652 351.486 104.705 360.686C112.805 368.746 118.205 379.066 122.085 389.716C126.955 403.086 129.665 417.076 133.125 430.836C107.925 416.006 83.4052 400.026 59.6952 382.916C54.6252 379.256 48.9852 375.606 45.3052 370.446C41.2752 364.816 40.9152 358.316 41.6852 351.626C42.4552 344.896 43.8052 338.256 44.4952 331.506C45.1552 324.986 45.4752 318.416 45.2252 311.866ZM103.105 441.156C88.2352 433.136 73.2752 425.256 58.5052 417.056C46.8252 410.576 34.7252 403.076 27.6852 391.336C19.9852 378.496 20.2352 362.976 21.8952 348.576C22.8052 340.666 24.1652 332.806 25.3052 324.926C26.5352 316.456 27.6952 307.976 28.7652 299.476C29.6752 292.286 30.5152 285.086 31.3052 277.876C36.8252 287.446 39.4252 298.376 40.0852 309.416C40.4752 315.956 40.2752 322.516 39.6952 329.036C39.1152 335.636 37.9552 342.136 37.0352 348.696C36.0152 355.896 35.7152 363.326 39.1352 369.976C42.1152 375.766 47.3252 379.986 52.4652 383.796C64.6352 392.816 77.1552 401.406 89.8052 409.736C104.175 419.206 118.805 428.276 133.665 436.946C134.055 437.176 134.445 437.276 134.815 437.296C136.625 443.856 138.695 450.346 141.375 456.646C142.365 458.986 143.455 461.286 144.625 463.556C130.795 456.096 116.955 448.626 103.105 441.156ZM180.835 489.746C169.925 487.226 160.905 479.286 154.535 470.306C154.525 470.276 154.515 470.246 154.505 470.216C154.305 469.936 154.105 469.666 153.935 469.386C153.815 469.196 153.695 468.986 153.575 468.776C153.515 468.726 153.455 468.676 153.385 468.636C143.305 453.476 139.245 435.686 135.155 418.116C138.945 421.726 143.755 424.246 148.275 426.796C154.285 430.206 160.415 433.406 166.775 436.106C180.565 441.936 195.845 445.156 210.665 442.026C212.975 453.386 213.755 465.626 208.195 476.106C205.705 480.796 202.145 484.956 197.495 487.606C192.435 490.506 186.485 491.046 180.835 489.746ZM196.015 497.646C194.635 496.966 193.255 496.286 191.865 495.616C197.365 494.046 202.465 491.126 206.635 487.206C212.255 481.926 215.845 474.856 217.345 467.326C219.025 458.916 218.355 450.326 216.645 441.966C214.895 433.416 212.285 424.996 209.485 416.736C206.305 407.356 202.625 398.156 198.515 389.146C198.345 388.786 198.075 388.516 197.745 388.316C196.405 385.436 195.025 382.586 193.575 379.766C187.545 367.256 180.135 355.446 171.455 344.546C168.805 341.216 166.035 337.996 163.155 334.856C147.295 316.806 131.195 297.866 122.965 274.996C113.735 249.346 117.045 221.806 125.695 196.496C130.105 183.596 135.725 170.956 142.455 159.096C148.705 148.076 156.615 138.306 166.475 130.326C175.675 122.876 186.365 117.156 197.655 113.606C210.105 109.696 223.855 108.056 236.495 112.076C247.695 115.636 256.595 123.696 263.845 132.676C271.725 142.436 278.015 153.446 284.605 164.086L332.095 240.696L344.025 259.936C347.635 265.766 351.505 271.526 354.515 277.696C357.325 283.476 359.205 289.956 358.075 296.406C357.055 302.246 354.095 307.496 350.545 312.176C346.845 317.046 342.445 321.356 338.105 325.646C333.695 330.016 329.325 334.426 325.005 338.886C316.175 348.016 307.575 357.366 299.365 367.066C283.205 386.156 268.455 406.606 257.085 428.936C251.485 439.936 246.695 451.376 242.995 463.166C240.305 471.736 238.045 480.556 237.035 489.506C233.995 482.916 231.565 476.106 229.575 469.166C229.635 468.936 229.665 468.686 229.655 468.416C229.075 456.566 229.135 444.696 229.865 432.856C230.505 422.456 231.385 411.916 233.665 401.726C235.585 393.116 238.715 384.396 244.725 377.746C248.135 373.976 252.315 371.216 256.675 368.656C261.045 366.086 265.515 363.696 270.025 361.396C287.885 352.286 306.615 344.526 322.985 332.776C325.085 331.266 327.145 329.696 329.155 328.066C330.985 326.586 333.775 324.886 333.865 322.266C333.955 319.596 331.115 317.596 329.355 315.976C327.355 314.146 325.265 312.406 323.125 310.736C318.945 307.506 314.415 304.106 309.485 302.106C308.655 301.776 307.815 301.546 306.975 301.386C306.645 293.986 306.175 286.456 303.195 279.566C300.645 273.676 296.135 268.566 290.045 266.266C283.015 263.606 275.205 265.406 268.235 267.326C260.645 269.416 253.105 271.726 245.645 274.236C242.805 275.186 239.975 276.186 237.155 277.196C238.475 276.016 239.725 274.756 240.895 273.386C245.425 268.126 248.705 262.016 251.365 255.636C254.175 248.906 256.455 241.876 258.205 234.796C260.075 227.216 261.205 219.336 260.715 211.516C260.225 203.886 258.185 196.486 255.305 189.426C252.575 182.726 249.295 176.226 244.495 170.756C240.585 166.296 235.735 162.596 230.475 159.876C219.765 154.336 207.145 152.506 195.365 155.256C188.805 156.786 182.525 159.786 176.785 163.266C171.425 166.516 166.425 170.396 161.915 174.746C152.875 183.476 145.805 194.186 141.345 205.926C135.935 220.166 134.735 235.826 136.915 250.846C137.995 258.276 139.785 266.026 143.115 272.786C145.815 278.256 150.255 282.126 155.535 284.856C155.605 284.896 155.665 284.946 155.745 284.986C155.865 285.036 155.985 285.086 156.105 285.136C156.635 285.396 157.155 285.656 157.695 285.896C157.925 285.996 158.165 286.086 158.395 286.186C158.415 286.156 158.425 286.116 158.445 286.086C164.025 288.266 169.765 289.936 175.655 291.016C175.615 291.096 175.575 291.176 175.535 291.256C185.635 292.506 196.085 291.936 205.975 290.456C209.965 289.856 213.955 288.986 217.825 287.766C219.385 302.036 220.555 316.356 221.305 330.696C221.695 338.296 221.975 345.896 222.135 353.506C222.285 360.676 222.665 367.976 222.035 375.126C221.735 378.536 221.015 381.906 219.685 385.076C218.405 388.136 216.785 391.056 215.695 394.196C213.375 400.956 214.555 408.176 215.305 415.096C216.765 428.616 218.355 442.146 221.075 455.476C224.095 470.256 228.605 484.786 235.715 498.136C235.915 498.516 236.175 498.796 236.455 498.996C236.455 500.516 236.485 502.046 236.575 503.576C236.655 504.946 236.785 506.316 236.935 507.676C236.935 507.856 236.945 508.046 236.975 508.236C237.005 508.426 237.045 508.616 237.075 508.806C237.385 511.336 237.815 513.846 238.355 516.336C238.355 516.546 238.365 516.766 238.415 516.996C238.595 517.856 238.825 518.706 239.085 519.556C224.825 512.106 210.455 504.796 196.015 497.646ZM250.895 193.586C250.325 199.306 246.745 204.186 243.115 208.416C239.035 213.176 234.555 217.616 231.195 222.946C224.585 233.456 221.865 246.436 223.385 258.726C224.185 265.186 226.035 271.426 229.045 277.186C224.135 280.386 218.665 282.546 212.995 283.986C207.075 285.496 201.005 286.246 194.905 286.606C189.655 286.916 184.355 286.976 179.095 286.556C171.965 285.436 164.935 283.496 158.285 280.676C158.235 280.656 158.175 280.636 158.115 280.616C155.995 279.556 153.985 278.296 152.215 276.716C147.145 272.166 145.195 265.216 143.585 258.826C140.015 244.666 139.885 229.566 143.575 215.416C149.575 192.406 166.335 172.656 188.075 163.006C198.615 158.326 210.305 157.806 221.255 161.406C226.395 163.096 231.335 165.696 235.535 169.106C240.305 172.976 244.005 177.726 246.905 183.136C248.525 186.146 249.965 189.286 251.205 192.496C251.045 192.816 250.935 193.186 250.895 193.586ZM253.945 200.976C254.085 201.516 254.225 202.046 254.355 202.586C256.025 209.656 256.215 216.926 255.235 224.116C254.225 231.486 252.145 238.706 249.765 245.736C247.755 251.696 245.425 257.576 242.215 263.006C239.755 267.166 236.735 270.986 233.095 274.146C228.175 264.306 226.795 252.816 228.975 242.036C230.165 236.166 232.325 230.546 235.525 225.476C238.715 220.396 243.035 216.216 246.905 211.666C249.715 208.356 252.255 204.856 253.945 200.976ZM264.475 273.596C270.925 271.726 277.915 269.236 284.735 270.076C290.575 270.796 294.995 274.676 297.735 279.706C301.305 286.246 301.655 293.956 301.975 301.246C298.825 301.576 295.675 302.526 292.675 303.256C271.305 308.486 250.545 316.186 230.905 326.096C229.325 326.896 227.755 327.736 226.185 328.566C225.435 315.006 224.335 301.466 222.865 287.956C236.485 282.486 250.375 277.676 264.475 273.596ZM223.205 389.446C224.695 386.226 225.915 382.956 226.505 379.446C227.705 372.386 227.345 365.116 227.235 357.986C227.125 350.546 226.895 343.106 226.555 335.676C226.535 335.136 226.495 334.596 226.465 334.066C245.195 323.976 265.025 315.986 285.525 310.296C290.715 308.856 295.945 307.466 301.235 306.426C303.905 305.896 306.315 306.006 308.775 307.236C311.035 308.366 313.185 309.776 315.275 311.186C319.615 314.106 323.685 317.406 327.455 321.036C327.745 321.316 328.105 321.776 328.455 322.076C328.145 322.326 327.835 322.676 327.565 322.916C327.035 323.366 326.495 323.816 325.955 324.266C324.115 325.766 322.235 327.206 320.305 328.586C304.265 340.066 285.965 347.736 268.455 356.606C264.065 358.836 259.705 361.136 255.435 363.606C251.005 366.156 246.605 368.876 242.915 372.446C236.375 378.766 232.405 387.226 229.985 395.876C227.315 405.406 226.285 415.386 225.445 425.216C224.855 432.036 224.495 438.866 224.355 445.706C222.835 436.786 221.735 427.796 220.745 418.876C220.375 415.526 219.985 412.176 219.665 408.816C219.335 405.436 219.065 401.936 219.725 398.576C220.355 395.326 221.835 392.416 223.205 389.446ZM341.275 481.536C332.705 492.466 323.715 503.286 313.605 512.826C304.285 521.626 293.495 529.646 280.995 533.176C272.905 535.466 262.745 536.076 254.935 532.106C254.755 531.876 254.535 531.656 254.255 531.476C250.145 528.886 247.125 525.456 245.275 520.946C243.895 517.566 243.095 513.986 242.445 510.396C240.955 500.156 241.515 489.776 243.785 479.466C244.525 476.106 245.375 472.756 246.325 469.436C248.445 476.466 253.475 482.636 259.735 486.456C269.745 492.566 282.465 492.726 293.515 489.696C305.305 486.456 315.855 479.816 325.945 473.106C336.055 466.386 345.805 459.106 355.135 451.346C361.245 446.256 367.175 440.946 372.905 435.436C370.625 439.196 368.315 442.946 365.935 446.646C358.245 458.636 350.065 470.326 341.275 481.536ZM484.755 317.266C484.645 333.586 483.495 350.116 477.905 365.586C475.455 372.376 472.115 378.876 467.825 384.696C463.295 390.836 457.515 395.836 451.305 400.216C444.345 405.126 437.105 409.656 429.985 414.316C422.615 419.146 415.245 423.976 407.865 428.796C394.185 437.746 380.455 446.646 366.415 455.026C373.015 445.046 379.235 434.816 385.145 424.426C404.865 408.316 424.585 392.206 444.305 376.096C453.345 368.706 463.035 361.616 470.525 352.566C474.125 348.216 477.135 343.446 479.085 338.126C481.305 332.066 481.805 325.496 481.755 319.086C481.695 311.486 481.225 303.876 480.915 296.286C480.605 288.526 480.285 280.776 479.975 273.016C479.965 272.766 479.915 272.546 479.855 272.336C480.265 271.826 480.685 271.336 481.085 270.816C481.555 270.206 482.025 269.586 482.485 268.956C483.765 276.336 484.255 283.826 484.485 291.306C484.735 299.966 484.815 308.626 484.755 317.266ZM456.395 311.466C458.805 305.346 460.705 299.036 462.095 292.616C462.165 292.286 462.165 291.986 462.125 291.696C466.505 287.116 470.955 282.606 475.165 277.876C475.665 289.906 476.185 301.926 476.625 313.956C476.855 320.206 476.975 326.576 475.495 332.696C474.225 337.956 471.725 342.736 468.525 347.066C461.745 356.226 452.215 363.206 443.475 370.346C432.905 378.976 422.345 387.606 411.775 396.236C405.075 401.706 398.375 407.176 391.675 412.656C396.715 403.336 401.525 393.886 406.125 384.346C408.925 378.536 411.615 372.676 414.315 366.806C414.405 366.756 414.495 366.726 414.575 366.656C433.325 352.516 447.805 333.316 456.395 311.466ZM419.065 356.596C421.415 351.606 423.815 346.646 426.345 341.756C433.405 328.126 441.745 315.206 451.545 303.386C452.775 301.906 454.035 300.456 455.325 299.026C449.875 317.986 439.805 335.536 426.135 349.796C423.865 352.156 421.505 354.426 419.065 356.596ZM481.265 262.016C473.555 273.936 462.625 283.296 453.215 293.806C443.455 304.706 434.795 316.616 427.465 329.276C419.765 342.576 413.585 356.666 407.125 370.596C399.465 387.106 391.275 403.376 382.365 419.246C381.975 419.346 381.585 419.556 381.235 419.936C365.425 436.716 347.905 451.866 328.965 465.016C319.585 471.526 309.825 478.216 299.175 482.496C289.065 486.556 277.615 488.326 267.145 484.506C257.305 480.916 249.475 471.266 250.285 460.486C250.335 459.866 250.075 459.306 249.665 458.856C251.595 453.306 253.755 447.846 256.135 442.496C258.605 436.956 261.295 431.516 264.175 426.186C270.895 442.506 289.385 451.286 306.485 451.316C317.985 451.336 329.245 448.136 339.795 443.776C345.115 441.576 350.375 439.176 355.465 436.476C360.285 433.926 364.955 430.966 368.895 427.176C374.075 422.206 377.565 416.006 380.395 409.486C380.585 409.216 380.725 408.906 380.785 408.576C382.105 405.446 383.285 402.246 384.425 399.096C388.535 387.726 392.255 376.216 395.675 364.616C399.125 352.936 402.285 341.176 405.275 329.376C406.755 323.516 408.195 317.636 409.605 311.756C410.925 306.276 412.055 300.696 414.005 295.396C415.825 290.456 418.605 286.156 422.435 282.546C426.345 278.866 430.875 275.926 435.275 272.896C445.605 265.796 455.925 258.686 466.255 251.586C468.785 249.846 471.315 248.106 473.845 246.366C474.345 246.026 474.715 245.536 474.905 245.006C478.625 243.226 481.895 240.366 484.445 236.926C486.275 234.456 487.705 231.736 488.935 228.916C491.605 240.216 487.415 252.516 481.265 262.016ZM498.355 168.446C496.445 186.696 492.585 204.826 486.315 222.096C483.655 229.426 479.985 237.166 472.575 240.696C466.085 243.796 459.065 240.916 454.335 236.106C466.765 217.346 473.785 195.126 474.605 172.656C474.815 167.036 474.625 161.406 474.015 155.816C473.395 150.036 472.335 144.206 469.505 139.056C466.975 134.446 461.655 130.096 456.215 132.656C453.605 133.886 451.705 136.536 450.135 138.866C448.525 141.246 447.225 143.806 446.075 146.426C442.065 155.516 439.135 165.036 437.155 174.756C433.865 163.126 429.825 151.716 425.205 140.546C418.625 124.686 410.935 109.316 402.475 94.3856C396.505 83.8556 390.165 73.5356 383.575 63.3856C387.685 65.9456 391.985 68.2056 396.485 70.0956C404.665 73.5456 413.215 75.6256 421.995 76.8456C438.735 79.1756 456.445 79.0155 472.095 86.1855C478.865 89.2855 485.055 93.7255 489.445 99.8055C493.735 105.736 496.325 112.626 497.855 119.746C499.435 127.086 499.875 134.616 499.855 142.106C499.815 150.896 499.265 159.706 498.355 168.446Z" fill="#EFE750"/>
</svg>
