<?xml version="1.0" encoding="UTF-8"?>
<svg id="DAO" xmlns="http://www.w3.org/2000/svg" viewBox="0 0 1080 1080">
  <defs>
    <style>
      .cls-1 {
        fill: none;
      }

      .cls-2 {
        fill: #fff59c;
      }

      .cls-3 {
        fill: #ffcaff;
      }

      .cls-4 {
        fill: #efe750;
      }

      .cls-5 {
        fill: #afa125;
      }

      .cls-6 {
        fill: #bf63c1;
      }
    </style>
  </defs>
  <g id="coraçäo-DAO">
    <g>
      <polygon class="cls-1" points="311.58 337.03 311.51 337.08 312.33 337.83 416.63 432.78 416.66 432.76 395.28 513.93 395.07 514.07 352.98 543.84 395.3 513.92 498.54 606.54 498.63 606.47 472.61 685.03 472.61 685.03 530.99 736.93 596.18 691.45 654.02 743.66 719.36 700.21 761.7 738.42 760.5 742.36 770.31 710.32 598.86 558.83 537.9 603.5 537.91 603.44 442.24 517.94 463.47 439.21 252.94 253.2 252.94 253.23 318.27 311.06 311.58 337.03"/>
      <polygon class="cls-1" points="560.16 524.64 560.15 524.66 569.84 533.19 560.16 524.64"/>
      <polygon class="cls-1" points="581.44 438.77 581.45 438.78 593.18 431.29 581.52 438.47 581.44 438.77"/>
      <polygon class="cls-1" points="725.03 858.2 725.07 858.07 681.87 819.18 725.03 858.2"/>
      <polygon class="cls-1" points="541.1 319.57 488.58 357.88 488.4 357.72 486.36 365.26 488.44 358.42 541.1 319.57"/>
      <polygon class="cls-1" points="726.55 863.31 722.38 879.43 726.57 863.33 726.55 863.31"/>
      <polygon class="cls-1" points="201.8 204.22 251.27 247.92 255.86 228.52 251.24 247.72 201.8 204.22"/>
      <polygon class="cls-6" points="581.43 438.79 581.45 438.78 581.44 438.77 581.43 438.79"/>
      <polygon class="cls-6" points="704.58 948.22 704.6 948.15 704.54 948.19 704.58 948.22"/>
      <path class="cls-5" d="m771,708.91l-.14.1,26.72-78.15-216.16-192.03-22.7,81.45-94.45-81.87-.09.07.04-.12-.04-.03.06-.04,22.13-73.02,2.03-7.54-.67-.59-217.16-189.78-14.71,61.16-4.59,19.4-49.47-43.7-49.31-43.39.13-.06-.13-.11-24.35,164.05-.11.74,85.8,80.65-20.55,86.82,102.59,91.62-20.34,77.66,103.25,92.58-21.8,86.9,100.84,90.52,22.5-86.37h0s0-.02,0-.02l42.4,37.93-.07.05,60.52,54.27,12.35-51.19,7.46-31.02,101.5,92.3,17.87-68.73,4.17-16.11h.02s0-.01,0-.01l42.39,35.86-.02.02,57.76,48.87,46.73-148.59-.2-.18-102.23-90.38Zm-45.97,149.29l-43.16-39.02-59.82-53.85-20.7,85.24-100.93-91.76-21.34,82.45-100.11-87.33-.05.04.02-.06-.02-.02.04-.03,22.06-76.14-.86-.76-104.18-92.8-.04.03,24.32-81.74h.01s-105.5-97.42-105.5-97.42l-.13.09,37.1-152.93.88.78.31.27v-.03s210.53,186.01,210.53,186.01l-21.23,78.73,95.68,85.5,22.21-78.8.03.03v-.02s9.69,8.55,9.69,8.55l29.07,25.6-.05.04,171.45,151.49-9.81,32.05-35.26,115.86-.17-.16-.04.13Z"/>
      <polygon class="cls-3" points="886.61 565.84 886.6 565.83 886.59 565.85 886.61 565.84"/>
      <polygon class="cls-2" points="953.51 734.12 953.5 734.16 953.6 734.07 857.97 650.11 822.31 674.19 771 708.91 873.23 799.29 873.43 799.47 873.47 799.51 873.57 799.43 953.51 734.12"/>
      <polygon class="cls-2" points="760.5 742.36 761.7 738.42 719.36 700.21 654.02 743.66 596.18 691.45 530.99 736.93 472.61 685.03 472.42 685.16 378.96 753.93 479.07 841.26 500.41 758.81 601.35 850.57 622.05 765.33 681.87 819.18 725.07 858.07 725.24 858.23 760.5 742.36"/>
      <polygon class="cls-3" points="378.91 753.88 378.93 753.9 378.94 753.85 378.91 753.88"/>
      <polygon class="cls-2" points="498.54 606.54 395.3 513.92 352.98 543.84 295.98 584.15 400.15 676.95 401.01 677.71 401.02 677.7 498.54 606.54"/>
      <polygon class="cls-2" points="416.63 432.78 312.33 337.83 311.51 337.08 311.36 337.18 214.78 405.01 320.27 502.43 416.63 432.78"/>
      <polygon class="cls-2" points="201.8 204.22 251.24 247.72 255.86 228.52 270.57 167.36 487.73 357.13 488.4 357.72 488.58 357.88 541.1 319.57 574.93 294.62 364.91 105.93 290.71 153.49 246.11 115.33 152.62 160.76 152.49 160.82 201.8 204.22"/>
      <path class="cls-2" d="m552.05,377.08l-87.78,61.33,94.45,81.87,22.7-81.45,216.16,192.03h0s88.98-65.06,88.98-65.06l-208.08-187.69-.81-.73-72.39,46.19-53.02-46.64v.02s-.21.15-.21.15Zm29.39,61.69h-.02s0,0,0,0l.08-.3,11.66-7.18-11.74,7.49Z"/>
      <polygon class="cls-3" points="464.17 438.33 464.21 438.36 464.23 438.29 464.17 438.33"/>
      <polygon class="cls-4" points="488.44 358.42 486.36 365.26 464.23 438.29 464.21 438.36 464.17 438.48 464.27 438.41 552.05 377.08 552.26 376.94 552.27 376.92 575.32 294.33 574.93 294.62 541.1 319.57 488.44 358.42"/>
      <polygon class="cls-4" points="311.36 337.18 311.51 337.08 311.58 337.03 318.27 311.06 252.94 253.23 252.63 252.96 251.75 252.17 214.65 405.1 214.78 405.01 311.36 337.18"/>
      <polygon class="cls-4" points="352.98 543.84 395.07 514.07 395.28 513.93 416.66 432.76 416.63 432.78 320.27 502.43 320.26 502.44 295.94 584.18 295.98 584.15 352.98 543.84"/>
      <polygon class="cls-4" points="472.42 685.16 472.61 685.03 472.61 685.03 498.63 606.47 498.54 606.54 401.02 677.7 401.01 677.71 378.94 753.85 378.93 753.9 378.91 753.97 378.96 753.93 472.42 685.16"/>
      <polygon class="cls-4" points="598.86 558.83 598.91 558.79 569.84 533.19 560.15 524.66 560.12 524.63 537.91 603.44 537.9 603.5 598.86 558.83"/>
      <polygon class="cls-4" points="797.58 630.84 797.58 630.86 770.86 709.01 771 708.91 822.31 674.19 857.99 650.05 886.59 565.85 886.6 565.83 886.63 565.75 886.56 565.8 797.58 630.84"/>
      <polygon class="cls-4" points="953.51 734.12 873.57 799.43 873.47 799.51 873.4 799.56 826.73 948.14 913.97 878.78 914.15 878.63 953.5 734.16 953.51 734.12"/>
      <polygon class="cls-4" points="726.57 863.3 726.57 863.33 722.38 879.43 704.51 948.16 704.49 948.23 704.54 948.19 704.6 948.15 768.94 899.18 768.96 899.16 726.57 863.3"/>
      <polygon class="cls-4" points="583.17 938.15 643.89 893.06 603.02 855.88 595.54 886.87 583.19 938.06 583.17 938.15"/>
      <polygon class="cls-4" points="480.34 845.81 480.34 845.83 457.82 932.22 522.04 884.26 522.67 883.79 522.74 883.74 480.34 845.81"/>
    </g>
  </g>
</svg>