<svg width="41" height="41" viewBox="0 0 41 41" fill="none" xmlns="http://www.w3.org/2000/svg">
<path d="M13.8625 5.13464L7.34673 6.77228L0.539856 3.67845L19.4317 0.111328L39.9604 3.93325L29.7324 7.06412L24.3817 5.82644L30.97 4.00583L23.981 1.96747L19.3221 3.27849L13.9714 2.11339L8.25703 4.00583L13.8625 5.13464Z" fill="#CCF3FF"/>
<path d="M19.2109 3.29688L14.0288 6.29166L19.2585 8.02683L23.9892 6.29166L19.3062 3.36794" fill="#02B9E9"/>
<path d="M19.3183 8.27734L20.6346 19.669L27.7401 24.4436L25.8598 18.8797L19.694 8.57826L19.3183 8.27734Z" fill="#9FE8FF"/>
<path d="M20.6195 19.9258L19.3198 33.1003L25.0183 29.8635L20.6195 19.9258Z" fill="#9FE8FF"/>
<path d="M19.3221 3.27883L24.0928 1.95117L31.0887 3.9986L24.3817 5.82677L23.9893 6.291L19.3221 3.27883Z" fill="#02B9E9"/>
<path d="M24.0694 6.3457L22.0068 12.2287L19.3583 8.00073L24.0694 6.3457Z" fill="#02B9E9"/>
<path d="M36.2504 23.9873L33.3562 19.218L29.5653 15.5088L21.8609 12.207L25.8598 18.8808L36.1279 24.1506L36.2504 23.9873Z" fill="#02B9E9"/>
<path d="M20.6195 19.9233L19.3198 33.0978L15.4699 28.1864L20.4887 19.627L20.6195 19.9233Z" fill="#02B9E9"/>
<path d="M15.5637 28.5098V34.5848L19.2208 40.6598L19.3387 40.07L19.3198 33.0991L15.5637 28.5098Z" fill="#058AA8"/>
<path d="M4.34286 33.9693L13.9873 33.7871L15.5637 34.5855L18.969 40.5509L16.3182 39.4085L4.34286 33.9693Z" fill="#054649"/>
<path d="M19.5662 40.5391L25.6556 33.1152L33.7062 34.7831L19.5662 40.5391Z" fill="#075860"/>
<path d="M33.0522 29.5449L36.2754 24.4316L39.8992 32.2978" fill="#054649"/>
<path d="M19.2253 8.17969L16.2018 15.9468L20.6346 19.6681L19.3818 8.44053L19.2253 8.17969Z" fill="#054649"/>
<path d="M14.0372 6.15213L15.0775 5.57676L19.0915 3.28966L14.1052 2.19336L14.0372 6.15213Z" fill="#054649"/>
<path d="M0.320587 31.9823L6.00697 28.168L13.9873 33.7863L11.2964 33.7228L4.29145 33.8256L3.94366 33.7432L1.75182 32.8012L0.320587 31.9823Z" fill="#075860"/>
<path d="M8.25702 4.00572L13.8625 5.13452L14.0122 4.68467L13.9714 2.11328L8.25702 4.00572Z" fill="#075860"/>
<path d="M24.3817 5.82812L29.7187 15.5149L29.7323 7.06581L24.3817 5.82812Z" fill="#077182"/>
<path d="M24.2577 5.94531L21.9419 12.3311L29.7354 15.6169L25.729 8.2619L24.477 6.03982L24.2577 5.94531Z" fill="#058AA8"/>
<path d="M25.9906 19.1133L27.7401 24.4428L36.2995 24.1593L26.6075 19.1859L25.8598 18.8789L25.9906 19.1133Z" fill="#058AA8"/>
<path d="M27.7401 24.4414L29.1834 28.5484L29.4269 28.6028L36.3479 24.3416L27.8845 24.3008L27.7401 24.4414Z" fill="#077182"/>
<path d="M29.1834 28.5491L25.6556 33.1157L28.4122 31.9166L32.988 29.4601L33.3599 28.8507L36.1309 24.498L29.3906 28.5921L29.2144 28.5506" fill="#075860"/>
<path d="M25.8378 33.1268L25.8809 33.1359L33.7062 34.7841L39.5574 32.2573L39.5022 32.153L33.1006 29.6035" fill="#077182"/>
<path d="M19.3198 33.1L19.2775 40.7915L19.8483 40.1881L25.8779 32.7628L25.0183 29.8633L19.3198 33.1Z" fill="#02B9E9"/>
<path d="M6.19901 28.0605L11.0688 24.6348L15.5417 28.344L15.4283 34.515L6.25571 28.2306L6.19901 28.0605Z" fill="#058AA8"/>
<path d="M11.3387 24.6223L18.4949 18.043L20.4887 19.6284L15.4699 28.1879L11.3387 24.6223Z" fill="#02B9E9"/>
<path d="M7.37469 16.1015L11.1724 24.4999L11.6639 24.1423L18.4949 18.0438L16.2018 15.9473L7.37469 16.1015Z" fill="#62CAEE"/>
<path d="M7.34671 6.77436L7.50926 15.7451L7.7323 15.6559L13.8527 6.49764L13.8625 5.13672L7.34671 6.77436Z" fill="#058AA8"/>
<path d="M7.8049 15.7596L7.91 15.532L13.9616 6.41992L19.0166 8.04622L8.03248 15.6719L7.8049 15.7596Z" fill="#62CAEE"/>
<path d="M7.97654 15.7894L19.0552 8.2832L16.0786 15.9195L7.87296 16.0231L7.97654 15.7894Z" fill="#075860"/>
<path d="M20.7646 19.877L22.9058 24.8171L29.0716 28.4583L27.6811 24.3967L20.7646 19.877Z" fill="#02B9E9"/>
<path d="M22.9973 25.015L25.0833 29.937L25.8152 32.6815L29.2001 28.6925L23.1432 24.9961L22.9973 25.015Z" fill="#058AA8"/>
<path d="M0.331171 3.90625L0.320587 31.9828L0.826396 31.5965L11.0273 24.4947L7.37469 16.1009L7.33916 6.64321L0.331171 3.90625Z" fill="#075860"/>
<path d="M29.8397 7.12829V15.5327L33.4817 19.4545L36.2504 23.9833L39.7389 31.4389L39.9876 31.1584L39.9604 3.93164L29.8397 7.12829Z" fill="#058AA8"/>
<path d="M19.2555 41L19.1716 40.9622L0 32.3113L0.0642639 3.54066L19.2593 0L40.2137 3.7947V32.3801L40.0814 32.4345L19.2555 41ZM0.426421 32.0368L19.2638 40.5365L39.788 32.095V4.15005L19.2601 0.43247L0.489173 3.8945L0.426421 32.0368Z" fill="#060606"/>
<path d="M0.334158 32.3508L0.0914612 32.0007L10.8654 24.5149L7.16674 16.2148V6.88869L0.192774 3.91508L0.359864 3.52344L7.59316 6.60744V16.1241L11.3977 24.6631L0.334158 32.3508Z" fill="#060606"/>
<path d="M39.8062 32.3254L36.2315 24.3807L33.2012 19.5184L29.5395 15.7313V6.9057L39.9392 3.76953L40.0625 4.17705L29.9659 7.22249V15.5596L33.5384 19.2545L33.5505 19.2742L36.6133 24.1924L40.1948 32.1508L39.8062 32.3254Z" fill="#060606"/>
<path d="M7.49795 16.2465L7.26205 16.0892L13.7506 6.30724V5.35989L7.41327 6.88487L7.34673 6.60891L14.0341 5V6.39267L14.0107 6.42897L7.49795 16.2465Z" fill="#060606"/>
<path d="M24.2433 5.94384L24.1692 5.67014L30.4582 3.97126L24.0203 2.14838L19.2623 3.41631L14.0288 2.22928L8.66908 4.00075L14.0326 5.00178L13.9805 5.28077L7.53271 4.07711L14.0145 1.93517L19.2571 3.12371L24.0225 1.85352L31.5235 3.97731L24.2433 5.94384Z" fill="#060606"/>
<path d="M24.1649 5.66859L24.1031 5.94531L29.7224 7.19986L29.7842 6.92314L24.1649 5.66859Z" fill="#060606"/>
<path d="M19.4014 40.7689H19.1179V33.2506L20.4705 19.7518L19.1179 7.75981V3.26953H19.4014V7.7515L20.7563 19.7503L20.7548 19.7646L19.4007 33.265L19.4014 40.7689Z" fill="#060606"/>
<path d="M24.1661 5.67128L21.8068 12.3184L22.074 12.4132L24.4333 5.76612L24.1661 5.67128Z" fill="#060606"/>
<path d="M36.3539 24.4058L25.769 18.9424L25.7486 18.9084L19.1383 8.0029L19.381 7.85547L25.9709 18.727L36.4848 24.1532L36.3539 24.4058Z" fill="#060606"/>
<path d="M30.0748 15.9877L21.969 12.4652L22.0824 12.2051L29.4269 15.3965L24.2229 5.91539L24.4724 5.7793L30.0748 15.9877Z" fill="#060606"/>
<path d="M24.0851 6.08016L19.2864 7.87891L19.3862 8.14511L24.1849 6.34636L24.0851 6.08016Z" fill="#060606"/>
<path d="M13.9348 6.21743L13.851 6.48828L19.2182 8.14906L19.302 7.87821L13.9348 6.21743Z" fill="#060606"/>
<path d="M19.1892 3.18279L13.8744 6.17188L14.0134 6.419L19.3281 3.42991L19.1892 3.18279Z" fill="#060606"/>
<path d="M19.3733 3.21518L19.2253 3.45703L24.0403 6.40305L24.1883 6.1612L19.3733 3.21518Z" fill="#060606"/>
<path d="M19.1805 7.88974L7.28644 16.0723L7.44714 16.3059L19.3412 8.12334L19.1805 7.88974Z" fill="#060606"/>
<path d="M19.2223 33.4359L15.4162 28.3771L11.0235 24.6051L18.3482 18.0174L15.9969 16.0267L19.1285 8.02148L19.3931 8.12507L16.3341 15.9413L20.7299 19.6627L20.7427 19.6929L25.2096 29.9421L19.2223 33.4359ZM11.4529 24.6005L15.6332 28.1949L19.2971 33.0639L24.8497 29.8249L20.497 19.8373L18.5668 18.2027L11.4529 24.6005Z" fill="#060606"/>
<path d="M16.1656 15.8455L7.54648 15.9297L7.54925 16.2132L16.1684 16.129L16.1656 15.8455Z" fill="#060606"/>
<path d="M20.3988 19.5318L15.4505 28.0996L15.696 28.2414L20.6443 19.6736L20.3988 19.5318Z" fill="#060606"/>
<path d="M18.9924 40.7668L15.3867 34.7938L5.92908 28.2864L6.09012 28.0527L15.5977 34.595L19.2351 40.6201L18.9924 40.7668Z" fill="#060606"/>
<path d="M15.3772 28.2796L15.3522 34.6934L15.6357 34.6945L15.6608 28.2807L15.3772 28.2796Z" fill="#060606"/>
<path d="M4.4109 34.0033L4.24759 33.7515L14.1664 33.6094L14.1702 33.8929L4.4109 34.0033Z" fill="#060606"/>
<path d="M25.1687 29.8446L24.8948 29.918L25.699 32.9219L25.9729 32.8486L25.1687 29.8446Z" fill="#060606"/>
<path d="M19.4218 40.8708L19.2026 40.6908L29.0768 28.6285L25.7358 18.8813L26.0042 18.7891L29.3966 28.686L19.4218 40.8708Z" fill="#060606"/>
<path d="M20.6062 19.4804L20.4483 19.7168L27.6669 24.5379L27.8248 24.3015L20.6062 19.4804Z" fill="#060606"/>
<path d="M29.1622 28.7793C26.7186 27.2709 22.9988 24.9944 22.7667 24.9044L22.806 24.8024V24.627C22.8566 24.627 22.9753 24.627 29.3112 28.5381L29.1622 28.7793Z" fill="#060606"/>
<path d="M36.3223 24.0941L27.735 24.2031L27.7386 24.4866L36.3259 24.3776L36.3223 24.0941Z" fill="#060606"/>
<path d="M29.3104 28.7795L29.163 28.5376C32.3748 26.5794 36.2209 24.2401 36.3033 24.2129L36.3479 24.3475L36.4076 24.476C36.2322 24.5645 31.2255 27.6129 29.3104 28.7795Z" fill="#060606"/>
<path d="M36.2262 24.2701L32.9191 29.4746L33.1584 29.6267L36.4654 24.4222L36.2262 24.2701Z" fill="#060606"/>
<path d="M33.0866 29.3413L32.9816 29.6055L39.8581 32.3382L39.9631 32.074L33.0866 29.3413Z" fill="#060606"/>
<path d="M25.7547 33.2886L25.5294 33.0966L33.1142 29.3223L33.2405 29.5763L25.7547 33.2886Z" fill="#060606"/>
<path d="M33.7471 34.8978C25.6473 33.3312 25.6315 33.3153 25.5891 33.2722L25.6897 33.1717L25.7335 33.0371C25.9271 33.0915 31.6225 34.1977 33.8008 34.6188L33.7471 34.8978Z" fill="#060606"/>
</svg>
