<svg width="530" height="532" viewBox="0 0 530 532" fill="none" xmlns="http://www.w3.org/2000/svg">
<path d="M470.33 329.63L449.82 310.67L491.98 280.09H491.99C492 280.08 492 280.08 492.01 280.07C492.29 279.79 492.59 279.51 492.92 279.29C492.93 279.28 492.95 279.27 492.96 279.26C493.01 279.21 493.07 279.16 493.12 279.11C493.22 278.92 493.32 278.74 493.43 278.55L493.42 278.53L529.06 207.23L529.52 206.89L301.18 0.820312L152.41 92.6903L152.38 92.6603L152.37 92.7103L152.26 92.7803L152.34 92.9103L143.62 145.25L96.26 126.08L19.71 176.21L19.64 176.23L19.65 176.25L19.55 176.32L19.7 176.38L35.46 225.9L0.190002 250.12L0 250.18L0.0200043 250.24L0.0100098 250.25L0.0299988 250.26L23.15 324.31L23.1 324.42L79.49 352.45L101.51 428.09L296.6 530.36L297.95 531.14L372.03 480.9L362.21 436.81L446.31 376.64L446.35 376.66L470.33 329.67L470.3 329.66L470.33 329.63ZM489.11 276L374.78 358.92L390.47 308.84L520.24 213.7L489.11 276ZM421.39 331.3L405.53 371.26L361.08 402.68L372.29 366.92L421.39 331.3ZM521.62 206.5L388.5 304.1L315.79 238.98L450.01 141.86L521.62 206.5ZM249.82 285.76L277.36 292.81L210.97 340.09L187.83 329.64L249.82 285.76ZM187.43 323.79L162.84 233.32L230.14 185.6L248.18 280.79L187.43 323.79ZM284.53 293.83L299.87 379.13L234.7 425.01L214.09 343.99L284.53 293.83ZM302.3 383.54L346.38 395.57L277.52 445.49L240.7 426.91L302.3 383.54ZM447.72 139.81L379.8 188.95L305.82 120.57L372.24 71.6903L447.72 139.81ZM300.62 7.0403L369.98 69.6403L303.59 118.5L230.11 50.5903L300.62 7.0403ZM227.46 52.2203L377.33 190.74L313.5 236.93L156.3 96.1703L227.46 52.2203ZM96.81 131.7L224.58 183.41L159.66 229.45L30.17 175.34L96.81 131.7ZM25.74 178.91L157.88 234.12L183.28 327.57L54.49 269.38L54.53 269.37L25.74 178.91ZM37.03 230.88L48.41 266.63L10.15 249.34L37.03 230.88ZM27.32 320.93L6.11 253.01L209.12 344.73L228.5 420.92L27.32 320.93ZM105.68 424.71L85.69 355.52L236.03 430.24L236.02 430.2L236.07 430.17L276.34 450.49L293.72 522.94L105.68 424.71ZM366.42 478.66L299.18 524.27L281.14 449.05L348.89 399.93L366.42 478.66ZM361.04 431.5L357.3 414.71L359.59 407.4L403.49 376.36L389.79 410.86L389.84 410.88L361.04 431.5ZM442.5 373.22L397.27 405.58L410.97 371.08L462.01 335L442.5 373.22ZM413 365.97L428.94 325.82L445.69 313.67L463.58 330.21L413 365.97Z" fill="#F5AEFF"/>
</svg>
