<?xml version="1.0" encoding="UTF-8"?>
<svg id="DAO" xmlns="http://www.w3.org/2000/svg" viewBox="0 0 1080 1080">
  <defs>
    <style>
      .cls-1 {
        fill: none;
      }

      .cls-2 {
        fill: #ededed;
      }

      .cls-3 {
        fill: #fff255;
      }

      .cls-4 {
        fill: #fff59c;
      }

      .cls-5 {
        fill: #efe750;
      }

      .cls-6 {
        fill: #afa125;
      }

      .cls-7 {
        fill: #62caee;
      }
    </style>
  </defs>
  <g id="dinheiro-DAO">
    <g>
      <path class="cls-1" d="m293.24,405.71s0-.01,0-.02c0,0,0,0,0,0,0,0,0,0,0,.01Z"/>
      <path class="cls-1" d="m449.47,372.11c.13-.09.27-.17.4-.25-.04-.03-.09-.06-.13-.1-.07.13-.16.25-.28.35Z"/>
      <path class="cls-1" d="m366.77,427.97c-.13.35-.2.71-.26,1.08,3-2.78,6.62-5.14,9.83-7.49.8-.59,1.62-1.16,2.43-1.74-.54.31-1.09.61-1.65.85-3.43,2.47-6.87,4.91-10.35,7.3Z"/>
      <path class="cls-1" d="m292.94,403.25s0,0,.01.01c0,0,0-.02,0-.03,0,0,0,0-.01.01Z"/>
      <path class="cls-1" d="m232.29,393.48s.02-.06.03-.1c-.02.02-.04.04-.06.06,0,.01.02.02.03.03Z"/>
      <path class="cls-1" d="m582.65,601.11c-.75-.5-1.5-.99-2.25-1.49-.04.11,1.1.8,2.25,1.49Z"/>
      <path class="cls-1" d="m391.47,414.6c-.21.15-.42.3-.63.45.37-.25.75-.5,1.12-.76,8.72-5.92,17.44-11.84,26.16-17.75l15.79-10.72c-5.21,3.42-10.42,6.87-15.59,10.35-9.01,6.06-17.96,12.21-26.85,18.43Z"/>
      <path class="cls-1" d="m367.03,432.14c.75-.62,1.52-1.22,2.28-1.83.13-.14.22-.29.4-.41.23-.16.47-.32.7-.48.05-.04.11-.08.16-.12-1.31.84-2.64,1.63-4,2.31.15.18.31.35.47.53Z"/>
      <path class="cls-1" d="m473.95,360.02c.23.11.45.25.65.43.03.01.06.03.09.05-.25-.19-.48-.37-.7-.54-.01.02-.02.04-.04.06Z"/>
      <path class="cls-1" d="m703.11,675.14c.14-.31.27-.62.41-.93.22-.46.47-1,.76-1.56-.49.09-.98.19-1.47.28.36.63.5,1.38.31,2.2Z"/>
      <path class="cls-6" d="m559.03,680.68c4.59-14.67,9.25-29.32,14.04-43.93,2.35-7.19,4.69-14.39,7.13-21.56.08-.23.16-.46.24-.69,1.15-3.35,2.38-6.69,3.62-10.01.26-.7.55-1.32.85-1.9-.75-.49-1.5-.99-2.25-1.49-1.14-.69-2.29-1.37-2.25-1.49l-79.2,59.5-60.69,201.92,82.15-57.85c3.29-11.88,6.72-23.72,10.14-35.55,8.4-29.09,17.17-58.06,26.21-86.95Z"/>
      <path class="cls-6" d="m686.26,528.35c1,.91,1.18,2.05.9,3.1,0,.03.01.05,0,.07-.19,3.23-.76,6.38-1.45,9.5-.46,2.1-.98,4.19-1.49,6.29-.43,1.77-.85,3.55-1.28,5.32,4.3-2.25,8.62-4.42,12.88-6.53,15.3-7.56,31.09-14.13,47.23-19.7l16.44-51.78-74.9,52.28c.56.48,1.12.96,1.66,1.45Z"/>
      <path class="cls-6" d="m663.57,703.41c-1.48,2.13-4.8,2.51-6.21,0-4.2-7.52-7.18-15.61-8.95-23.95-.62,2.36-1.33,4.64-1.89,6.68-1.97,7.2-3.99,14.39-5.99,21.59-1.47,5.31-2.95,10.62-4.42,15.93l41.01-28.75,4.55-11.62c-7.34,5.18-13.29,13.2-18.11,20.11Z"/>
      <path class="cls-4" d="m580.41,599.62c-12.51-8.27-24.93-16.67-37.26-25.21-3.04-2.09-6.08-4.19-9.11-6.29-30.1-20.95-59.65-42.68-88.57-65.25-14.35-11.2-28.55-22.58-42.6-34.15-7.2-5.93-14.34-11.93-21.45-17.97-2.04-1.73-4.05-3.52-6-5.36-2.55-2.41-4.99-4.94-7.22-7.65-.48-.44-.96-.87-1.44-1.3-.09-.08-.17-.16-.26-.23-.28-.25-.44-.52-.59-.79-.08-.07-.15-.15-.21-.24-.07.16-.15.32-.23.47.18.54.07,1.15-.52,1.65-.6.5-1.2,1-1.8,1.49-3.99,3.29-8.12,6.46-12.91,8.5-.16.07-.33.13-.49.2-2.73,1.1-5.59,1.74-8.46,1.86l-67.95,40.39,227.88,169.4,79.2-59.5Z"/>
      <path class="cls-4" d="m473.98,359.97c.22.17.45.35.7.54,1.65.82,3.27,1.76,4.85,2.79,3.57,2.33,6.97,5.1,10.27,7.91,2.5,2.13,4.94,4.28,7.35,6.27,7.55,6.23,15.01,12.59,22.55,18.85,27.27,22.63,54.73,45.03,82.53,67.02,14.01,11.08,28.08,22.1,42.24,33,7.02,5.4,14.06,10.78,21.12,16.13,6.31,4.78,13.01,9.28,19.02,14.45l74.9-52.28-216.04-161.04-69.84,44.42c.56.44.81,1.32.36,1.96Z"/>
      <polygon class="cls-5" points="273.33 489.72 226.25 688.45 440.52 861.04 501.21 659.12 273.33 489.72"/>
      <path class="cls-3" d="m365.92,435.4c.14.27.31.54.59.79.09.08.17.16.26.23.48.44.96.87,1.44,1.3-.81-.98-1.57-2-2.32-3.03-.06.16-.11.31-.18.46.06.08.13.16.21.24Z"/>
      <path class="cls-7" d="m646.52,686.15c.56-2.05,1.27-4.33,1.89-6.68-2.61-12.32-2.53-25.16.39-37.49-3.21,1.53-6.32,3.23-9.34,5.09-.52.38-1.04.77-1.57,1.15-1.42,1.04-2.75,2.23-4.24,3.26-1.44,1.01-2.78,2.21-4.12,3.33-.14.11-.26.24-.4.35-.46.64-.9,1.29-1.34,1.94.71,2.49-3.16,4.41-4.9,1.89-2.89-4.2-5.05-8.86-6.35-13.81-5.62-21.49,3.78-43.41,18.51-58.91,13.35-14.04,30.55-24.56,47.9-33.64.43-1.77.85-3.55,1.28-5.32.5-2.1,1.02-4.19,1.49-6.29.69-3.13,1.26-6.27,1.45-9.5,0-.03-.01-.05,0-.07.28-1.05.1-2.19-.9-3.1-.54-.49-1.1-.97-1.66-1.45-6.01-5.17-12.72-9.67-19.02-14.45-7.06-5.35-14.1-10.73-21.12-16.13-14.16-10.89-28.23-21.91-42.24-33-27.8-21.99-55.25-44.39-82.53-67.02-7.54-6.25-14.99-12.61-22.55-18.85-2.4-1.98-4.84-4.13-7.35-6.27-3.29-2.81-6.7-5.58-10.27-7.91-1.58-1.03-3.19-1.97-4.85-2.79-.03-.01-.06-.03-.09-.05-.19-.19-.41-.33-.65-.43-.1.13-.22.24-.38.34-13.29,8.37-26.53,16.83-39.66,25.45l-15.79,10.72c-8.72,5.92-17.44,11.84-26.16,17.75-.37.25-.75.51-1.12.76-4.33,3.04-8.61,6.13-12.95,9.15-2.39,1.66-4.81,3.48-7.32,5.1-.05.04-.11.08-.16.12-.23.16-.47.32-.7.48-.17.12-.26.27-.4.41-.76.61-1.53,1.21-2.28,1.83,3.11,3.57,6.83,6.18,10.63,9.01,3.82,2.85,7.44,5.95,11.11,8.98,7.73,6.37,15.5,12.7,23.31,18.98,56.38,45.43,115.09,87.83,175.52,127.71,0,0,0,0,0,0,6.82-6.1,14.73-11.23,22.08-16.67,7.25-5.36,14.54-10.66,21.88-15.89,15.06-10.73,30.32-21.17,45.73-31.38,2.4-1.59,4.48,2.17,2.22,3.8-14.86,10.71-29.75,21.39-44.64,32.06-7.45,5.33-14.89,10.67-22.34,16-4.59,3.29-9.19,6.89-13.95,10.15-2.61,2.01-5.24,3.98-7.96,5.78-.06.8-.42,1.57-.96,2.14-.01.1,0,.19-.02.29-.36,2.09-1.11,4.12-1.73,6.14-1.24,4.07-2.52,8.12-3.85,12.17-2.59,7.86-5.14,15.73-7.69,23.61-17.22,53.26-32.73,106.96-48.06,160.78,4.95-3.71,9.64-7.84,14.66-11.39,4.4-3.12,9-5.96,13.45-9.01,4.72-3.23,9.41-6.52,14.1-9.79,8.28-5.76,16.61-11.43,25.17-16.79,13.33-8.34,27.58-16.62,38.49-28.17l.37-1.33c.52-1.88,1.05-3.77,1.57-5.65,1.47-5.31,2.95-10.62,4.42-15.93,2-7.2,4.02-14.38,5.99-21.59Z"/>
      <path class="cls-3" d="m582.65,601.11c.75.5,1.5,1,2.25,1.49.03-.06.05-.12.08-.17-14.08-9.13-28.01-18.5-41.84-28.01,12.33,8.54,24.75,16.94,37.26,25.21.75.5,1.5.99,2.25,1.49Z"/>
      <path class="cls-7" d="m584.05,621.4c1.33-4.04,2.61-8.1,3.85-12.17.61-2.02,1.37-4.05,1.73-6.14.02-.1.01-.19.02-.29.54-.57.9-1.34.96-2.14,2.72-1.8,5.36-3.77,7.96-5.78,4.76-3.26,9.35-6.86,13.95-10.15,7.45-5.33,14.89-10.67,22.34-16,14.89-10.67,29.78-21.35,44.64-32.06,2.26-1.63.17-5.39-2.22-3.8-15.42,10.21-30.68,20.65-45.73,31.38-7.34,5.23-14.63,10.53-21.88,15.89-7.35,5.44-15.26,10.58-22.08,16.67,0,0,0,0,0,0-60.42-39.88-119.14-82.28-175.52-127.71-7.8-6.29-15.58-12.61-23.31-18.98-3.67-3.03-7.29-6.13-11.11-8.98-3.8-2.83-7.52-5.44-10.63-9.01-.15-.18-.32-.35-.47-.53,1.37-.68,2.7-1.47,4-2.31,2.51-1.62,4.93-3.44,7.32-5.1,4.34-3.02,8.63-6.11,12.95-9.15.21-.15.42-.3.63-.45,8.89-6.23,17.84-12.37,26.85-18.43,5.17-3.48,10.38-6.93,15.59-10.35,13.13-8.62,26.37-17.08,39.66-25.45.16-.1.28-.22.38-.34.01-.02.02-.04.04-.06.45-.65.21-1.52-.36-1.96-.39-.3-.92-.4-1.47-.06-5.97,3.63-11.9,7.33-17.8,11.06-.06.1-.12.21-.19.3-.03.28-.18.55-.43.72-.95.64-1.92,1.25-2.88,1.87-.32.21-.69.15-.97-.04-.13.08-.27.17-.4.25-.01.01-.02.03-.04.04-5.51,4.53-12.12,8.01-18.09,11.93-6.31,4.15-12.59,8.33-18.85,12.55-6.26,4.22-12.5,8.47-18.71,12.76-3.11,2.14-6.21,4.3-9.3,6.45-1.85,1.29-3.71,2.81-5.7,3.97-.81.58-1.63,1.15-2.43,1.74-3.21,2.36-6.83,4.71-9.83,7.49-.18,1.22-.06,2.56-.26,4.14-.07.54-.19,1.04-.36,1.51.75,1.03,1.51,2.05,2.32,3.03,2.22,2.71,4.67,5.24,7.22,7.65,1.95,1.84,3.96,3.62,6,5.36,7.11,6.04,14.24,12.05,21.45,17.97,14.05,11.57,28.26,22.95,42.6,34.15,28.91,22.57,58.46,44.3,88.57,65.25,3.03,2.11,6.07,4.2,9.11,6.29,13.82,9.52,27.76,18.88,41.84,28.01-.03.05-.06.12-.08.17-.3.58-.59,1.2-.85,1.9-1.24,3.32-2.47,6.66-3.62,10.01-.08.23-.16.46-.24.69-2.43,7.17-4.77,14.37-7.13,21.56-4.78,14.61-9.45,29.26-14.04,43.93-9.04,28.89-17.81,57.87-26.21,86.95-3.42,11.83-6.85,23.68-10.14,35.55-.09.31-.17.63-.26.94.12-.01.24-.01.35.02,1.84.43,3.62,1.07,5.37,1.76.05-.04.1-.07.15-.11,15.33-53.81,30.84-107.51,48.06-160.78,2.55-7.88,5.1-15.75,7.69-23.61Z"/>
      <path class="cls-2" d="m350.24,447.27c4.79-2.03,8.92-5.21,12.91-8.5.6-.5,1.2-.99,1.8-1.49.59-.49.7-1.1.52-1.65.08-.15.16-.31.23-.47.07-.15.12-.31.18-.46.17-.47.29-.97.36-1.51.2-1.59.08-2.92.26-4.14.05-.37.13-.73.26-1.08,3.48-2.39,6.93-4.83,10.35-7.3.56-.25,1.11-.54,1.65-.85,2-1.16,3.85-2.68,5.7-3.97,3.1-2.16,6.2-4.31,9.3-6.45,6.21-4.29,12.45-8.54,18.71-12.76,6.26-4.22,12.54-8.4,18.85-12.55,5.97-3.93,12.58-7.4,18.09-11.93.02-.01.02-.03.04-.04.12-.11.21-.22.28-.35.04.04.08.07.13.1.28.2.65.25.97.04.96-.62,1.93-1.23,2.88-1.87.25-.17.4-.44.43-.72.07-.09.13-.2.19-.3.31-.52.48-1.13.38-1.85-4.98-36.34-17.55-70.9-38.15-101.34-10.04-14.84-21.92-27.71-38.08-35.92-14.97-7.6-31.62-11.9-48.25-13.78-31.27-3.54-64.96,2.76-89.06,24.1-23.75,21.02-34.22,52.06-48.44,79.46-8.51,16.39-18.89,31.24-32.69,43.62-14.93,13.38-32.27,22.89-49.61,32.7-.52.29-.79.68-.92,1.09-.27.15-.51.37-.57.72-.89,4.54,4.18,8.57,7.3,11.17,4.44,3.69,9.36,6.65,14.66,8.92,11.33,4.85,23.69,6.43,35.94,5.57,21.55-1.51,44.82-8.63,61.36-23.17-.65,1.72-1.29,3.45-2.1,5.07-1.94,3.86-4.19,7.55-6.88,10.93-5.34,6.7-11.87,12.35-18.32,17.95-1.34,1.16-.49,3.22.98,3.72,17.16,5.74,36.29-.2,52.63-6.1,14.15-5.1,27.62-12.38,37.15-24.19,1.07,7.55-2.05,15.76-6.96,21.31-6.06,6.84-14.66,10.95-22.94,14.44-1.73.73-2.21,2.89-.52,4.01,5.94,3.93,13.28,4.2,20.15,3.7,7.45-.54,14.87-1.81,22.07-3.78,12.42-3.4,24.18-8.89,34.8-16.13,1.09-.67,2.16-1.37,3.22-2.08-1.46,6.03-4.74,11.36-8.92,15.98-.96,1.07-.53,2.63.82,3.09,2.6.89,5.27,1.23,7.92,1.12,2.88-.12,5.73-.76,8.46-1.86.16-.07.33-.13.49-.2Zm-57-41.56s0,0,0-.01c0,0,0,0,0,0,0,0,0,.01,0,.02Zm-.3-2.46s0,0,.01-.01c0,0,0,.02,0,.03,0,0,0,0-.01-.01Zm-60.65-9.77s-.02-.02-.03-.03c.02-.02.04-.04.06-.06-.01.03-.02.06-.03.1Z"/>
      <path class="cls-2" d="m902.98,538.45c-14.78-15.35-35.85-24.6-56.72-27.64-26.23-3.81-53.15,1-78.45,7.92-3.25.89-6.49,1.83-9.72,2.8-5.04,1.52-10.05,3.16-15.03,4.88-16.14,5.57-31.93,12.14-47.23,19.7-4.26,2.11-8.58,4.28-12.88,6.53-17.34,9.08-34.55,19.6-47.9,33.64-14.73,15.5-24.14,37.42-18.51,58.91,1.29,4.94,3.45,9.6,6.35,13.81,1.74,2.52,5.61.6,4.9-1.89.44-.65.89-1.3,1.34-1.94.13-.12.26-.24.4-.35,1.35-1.13,2.69-2.33,4.12-3.33,1.48-1.04,2.82-2.22,4.24-3.26.52-.38,1.04-.77,1.57-1.15,3.02-1.86,6.14-3.56,9.34-5.09-2.93,12.33-3,25.17-.39,37.49,1.77,8.33,4.75,16.43,8.95,23.95,1.4,2.51,4.72,2.13,6.21,0,4.81-6.91,10.77-14.93,18.11-20.11,4.06-2.86,8.54-4.86,13.48-5.32-.97,3.57-1.8,7.18-2.51,10.8-3.93,20.06-3.84,40.78.7,60.83,1.22,5.39,2.38,11.44,5.35,16.2,2.1,3.36,6.48,7.37,10.88,5.97,2.2-.69,3.35-3.59,4.57-5.35,1.65-2.37,3.41-4.66,5.27-6.87,3.63-4.3,7.6-8.31,11.86-11.97,7.82-6.73,16.61-12.26,26.04-16.41-12.9,37.88-5.26,80.57,20.68,111.4,7.16,8.51,15.58,15.87,24.86,21.99,2.17,1.43,5.07-.46,5.07-2.91.03-25.87-.06-52.36,7.8-77.29,7.39-23.45,22.4-43.15,38.55-61.29,30.34-34.06,69.96-69.63,70.95-118.79.47-23.56-5.59-48.51-22.26-65.83Zm-199.47,135.76c-.14.3-.27.62-.41.93.2-.83.06-1.58-.31-2.2.49-.1.98-.2,1.47-.28-.28.56-.54,1.1-.76,1.56Z"/>
    </g>
  </g>
</svg>