<svg xmlns="http://www.w3.org/2000/svg" width="268" height="62"><g fill="none"><path d="m38.838 45.114-11.166 4.799v-.48c-2.153.545-4.538.859-6.797.96-10.501-.101-18.836-5.534-18.933-11.999v-2.4c3.449 4.958 10.47 8.28 18.933 8.16 2.863.12 5.792-.328 8.253-.96l.971-2.4c-2.919.861-6.105 1.46-9.224 1.44-10.501.02-18.836-5.413-18.933-11.998v-1.92c3.449 4.583 10.455 7.906 18.933 7.679 3.814.227 7.544-.566 10.68-1.92l.486-2.4c-3.064 1.598-7.035 2.526-11.166 2.4-10.501.126-18.836-5.307-18.933-11.998v-1.92c3.449 4.69 10.47 8.012 18.933 8.159 4.81-.147 9.37-1.404 13.108-3.36l.486-2.88c-3.393 2.486-8.346 4.088-13.594 4.32C10.374 26.164 2.04 20.73 1.942 13.918 2.039 7.439 10.374 2.006 20.875 1.92c6.26.086 12.074 2.256 15.536 5.759l.337.555 2.448.01-.358-.565C35.395 3.053 28.509 0 20.875 0 9.256 0 0 6.331 0 13.918v24.956c.408 7.406 9.453 13.438 20.875 13.438 7.544 0 14.324-2.933 17.963-7.198z" fill="#FFF"/><path d="m34.296 62 3.92-16.469-11.269 4.844 6.86-28.578h-13.23l3.43-14.047h42.136l-3.43 14.047H48.995l-2.94 7.75 15.188-6.297L34.296 62zm6.86-19.86-1.96 9.688L55.364 27.61l-13.229 5.813 5.88-13.563h13.228l2.45-10.172H25.477l-2.45 10.172h13.229l-6.37 27.125 11.27-4.843zm54.015-25.113c-.116 1.606-.709 2.87-1.779 3.794-1.07.923-2.48 1.384-4.23 1.384-1.913 0-3.42-.644-4.516-1.933C83.549 18.984 83 17.215 83 14.966v-.913c0-1.435.253-2.7.759-3.794.506-1.093 1.229-1.933 2.168-2.517.94-.585 2.032-.877 3.277-.877 1.722 0 3.11.462 4.163 1.385 1.052.922 1.66 2.218 1.825 3.886h-3.076c-.075-.964-.344-1.663-.805-2.097-.462-.434-1.164-.651-2.107-.651-1.026 0-1.793.367-2.302 1.102-.51.735-.771 1.875-.785 3.42v1.128c0 1.613.245 2.792.733 3.537.49.745 1.26 1.118 2.313 1.118.95 0 1.659-.217 2.127-.651.469-.434.737-1.106.805-2.015h3.076zm15.884-2.153c0 1.47-.26 2.758-.78 3.865-.519 1.108-1.262 1.962-2.23 2.564-.967.601-2.076.902-3.327.902-1.237 0-2.341-.297-3.312-.892-.97-.595-1.723-1.444-2.256-2.548-.533-1.104-.803-2.374-.81-3.81v-.738c0-1.47.265-2.763.795-3.88.53-1.118 1.278-1.976 2.246-2.575.967-.598 2.073-.897 3.317-.897 1.244 0 2.35.3 3.317.897.967.599 1.716 1.457 2.245 2.574.53 1.118.795 2.408.795 3.871v.667zm-3.117-.677c0-1.566-.28-2.755-.84-3.569-.561-.813-1.361-1.22-2.4-1.22-1.033 0-1.829.402-2.39 1.205-.56.803-.844 1.98-.85 3.533v.728c0 1.524.28 2.707.84 3.547.56.841 1.367 1.262 2.42 1.262 1.032 0 1.825-.405 2.38-1.215.553-.81.833-1.991.84-3.543v-.728zM118.16 22h-3.076V7.07h3.076V22zm16.592 0h-3.077l-5.988-9.823V22h-3.076V7.07h3.076l5.999 9.844V7.07h3.066V22zM149.98 9.562h-4.573V22h-3.076V9.562h-4.512V7.07h12.161v2.492zm12.336 5.968h-5.906v3.999h6.931V22h-10.008V7.07h9.988v2.492h-6.911v3.558h5.906v2.41zm7.506 3.999h6.532V22h-9.608V7.07h3.076v12.46zm18.878-4h-5.906v4h6.931V22h-10.007V7.07h9.987v2.492h-6.911v3.558h5.906v2.41zm16.243 4.584c-.554.663-1.337 1.178-2.349 1.543-1.011.366-2.132.55-3.363.55-1.292 0-2.425-.283-3.399-.847-.974-.564-1.726-1.382-2.256-2.456-.53-1.073-.801-2.334-.815-3.783v-1.016c0-1.49.251-2.78.754-3.87.502-1.09 1.227-1.925 2.173-2.502.947-.578 2.056-.867 3.328-.867 1.77 0 3.155.422 4.153 1.267.998.844 1.589 2.073 1.774 3.686h-2.995c-.136-.855-.439-1.48-.907-1.877-.468-.396-1.113-.594-1.933-.594-1.046 0-1.842.393-2.39 1.179-.546.786-.823 1.955-.83 3.507v.953c0 1.566.298 2.748.892 3.548.595.8 1.467 1.2 2.615 1.2 1.155 0 1.98-.246 2.471-.738v-2.574h-2.799v-2.266h5.876v5.957zm9.618-3.578h-2.45V22h-3.077V7.07h5.548c1.763 0 3.124.393 4.08 1.18.958.786 1.436 1.896 1.436 3.332 0 1.019-.22 1.868-.661 2.548-.441.68-1.11 1.222-2.005 1.625l3.23 6.101V22h-3.302l-2.799-5.465zm-2.45-2.492h2.48c.773 0 1.371-.197 1.795-.59.424-.393.636-.934.636-1.625 0-.704-.2-1.258-.6-1.661-.4-.403-1.013-.605-1.84-.605h-2.472v4.481zm20.354 4.88h-5.394L226.046 22h-3.271l5.558-14.93h2.85L236.771 22h-3.27l-1.036-3.076zm-4.563-2.49h3.732l-1.876-5.59-1.856 5.59zm14.94.307V22h-3.076V7.07h5.824c1.121 0 2.107.205 2.958.616.852.41 1.506.992 1.964 1.748.458.755.687 1.615.687 2.579 0 1.463-.5 2.616-1.502 3.46-1.002.845-2.388 1.267-4.158 1.267h-2.697zm0-2.492h2.748c.814 0 1.434-.191 1.861-.574.428-.383.641-.93.641-1.64 0-.732-.215-1.324-.646-1.775-.43-.45-1.025-.683-1.784-.697h-2.82v4.686zM267.062 22h-3.076v-6.398h-5.998V22h-3.077V7.07h3.077v6.05h5.998V7.07h3.076V22z" fill="#FABF2C"/><path d="M83 45V34.336h3.655c1.206 0 2.124.242 2.754.725.63.483.945 1.204.945 2.16 0 .489-.132.928-.396 1.319-.264.39-.65.693-1.157.908.576.156 1.022.45 1.336.883.315.432.473.95.473 1.556 0 1.001-.321 1.77-.963 2.307-.642.537-1.562.806-2.758.806H83zm1.853-4.812v3.333h2.058c.581 0 1.035-.145 1.362-.433.328-.288.491-.688.491-1.2 0-1.11-.566-1.676-1.7-1.7h-2.211zm0-1.362h1.816c.577 0 1.027-.13 1.352-.392.324-.261.487-.631.487-1.11 0-.527-.15-.908-.45-1.142-.3-.235-.768-.352-1.403-.352h-1.802v2.996zM97.04 38.7a4.404 4.404 0 0 0-.725-.058c-.816 0-1.365.312-1.648.937V45h-1.78v-7.925h1.7l.043.886c.43-.688 1.026-1.032 1.787-1.032.254 0 .464.034.63.102l-.007 1.67zm6.24 6.3c-.079-.151-.147-.398-.205-.74a2.77 2.77 0 0 1-2.08.886c-.796 0-1.446-.227-1.949-.68a2.18 2.18 0 0 1-.754-1.685c0-.845.314-1.493.941-1.945.627-.451 1.525-.677 2.692-.677h1.09v-.52c0-.41-.114-.739-.343-.985-.23-.247-.579-.37-1.048-.37-.405 0-.737.101-.996.304a.94.94 0 0 0-.388.772h-1.78c0-.434.144-.84.432-1.22.288-.378.68-.674 1.176-.889a4.13 4.13 0 0 1 1.659-.322c.928 0 1.667.233 2.22.7.55.465.834 1.121.849 1.966v3.574c0 .713.1 1.282.3 1.706V45h-1.816zm-1.956-1.282c.352 0 .682-.085.992-.256.31-.171.544-.4.7-.689V41.28h-.96c-.659 0-1.154.115-1.486.345-.332.229-.498.554-.498.974 0 .341.113.614.34.816.227.203.531.304.912.304zm10.378-.871c0-.318-.13-.56-.392-.725-.261-.166-.695-.313-1.3-.44-.606-.127-1.11-.288-1.516-.483-.889-.43-1.333-1.053-1.333-1.868 0-.684.288-1.255.864-1.714.576-.459 1.309-.688 2.197-.688.948 0 1.713.234 2.297.703.583.469.875 1.076.875 1.824h-1.78a1.1 1.1 0 0 0-.38-.854c-.255-.227-.592-.34-1.012-.34-.39 0-.709.09-.955.27a.854.854 0 0 0-.37.726.72.72 0 0 0 .344.637c.23.151.693.304 1.392.458.698.154 1.246.337 1.644.55.398.212.693.467.886.764.193.298.29.66.29 1.084 0 .713-.296 1.29-.887 1.733-.59.442-1.365.662-2.322.662-.65 0-1.228-.117-1.736-.351-.507-.234-.903-.557-1.186-.967a2.288 2.288 0 0 1-.425-1.326h1.729c.024.42.183.744.476.97.293.228.68.341 1.164.341.47 0 .826-.089 1.07-.267a.827.827 0 0 0 .366-.7zM117.495 45h-1.78v-7.925h1.78V45zm-1.89-9.983c0-.273.087-.5.26-.681.173-.18.421-.271.743-.271.323 0 .572.09.748.27a.945.945 0 0 1 .263.682.916.916 0 0 1-.263.67c-.176.178-.425.268-.748.268-.322 0-.57-.09-.743-.268a.923.923 0 0 1-.26-.67zm6.32 9.983h-1.78V33.75h1.78V45z" fill="#FFF"/></g></svg>