<svg width="653" height="651" viewBox="0 0 653 651" fill="none" xmlns="http://www.w3.org/2000/svg">
<path d="M648.22 420.978L625.697 309.501L569.974 251.624L482.096 229.131L384.588 218.424L308.496 191.624L265.634 163.747L227.049 108.024L173.48 80.1771L84.5259 74.8231L6.30981 90.885L-16.1828 74.8231L-106.214 22.3002L-171.598 6.23828L-242.336 21.2533L-334.491 78.0535L-434.152 149.839L-524.183 209.839L-573.476 238.763L-643.137 250.547L-732.091 292.332L-788.891 334.117L-824.245 384.487L-844.615 451.995L-848.353 528.476L-837.615 605.466L-780.337 784.48L-770.676 817.441L-778.183 878.519L-801.753 1066.06L-793.168 1146.43L-761.015 1203.23L-718.153 1237.5L-646.368 1275.01L-578.86 1313.6L-495.26 1356.46L-409.536 1403.6L-376.305 1444.31L-322.736 1473.23L-231.658 1511.81L-130.92 1567.54L-97.6889 1598.61L-28.0274 1608.25L49.1417 1575.02L140.219 1483.94L220.589 1381.05L368.466 1292.09L524.928 1184.92L567.79 1132.4L597.79 1048.8L600.991 901.999L591.36 781.968L617.083 723.014L611.729 654.429L634.221 563.352L648.22 420.978ZM-523.226 693.163C-528.311 709.614 -542.787 721.608 -555.35 732.376C-569.408 744.43 -582.628 757.411 -596.926 769.196C-611.761 781.459 -627.943 792.018 -644.453 801.858C-656.447 809.007 -671.104 817.621 -685.64 817.112C-731.254 815.497 -724.883 732.555 -722.968 703.064C-718.871 640.072 -685.431 579.832 -622.798 558.985C-618.73 557.639 -615.44 558.656 -613.227 560.869C-590.973 557.22 -568.69 569.035 -555.26 588.776C-543.924 605.466 -536.387 625.326 -530.135 644.409C-525.08 659.753 -518.261 677.012 -523.226 693.163ZM-364.61 1291.85C-369.306 1286.59 -374.93 1282.07 -381.031 1278.06C-385.907 1276.99 -390.453 1275.22 -394.85 1271.87C-396.585 1270.56 -398.2 1269.12 -399.725 1267.56C-405.259 1264.81 -410.822 1262.27 -416.116 1259.76C-431.61 1252.4 -449.257 1247.52 -457.423 1230.89C-458.021 1229.7 -458.35 1228.5 -458.5 1227.34C-462.478 1225.03 -465.259 1220.67 -463.674 1215.61C-458.051 1197.69 -438.19 1194.7 -421.5 1199.49C-410.314 1197.87 -397.632 1201.31 -386.505 1207.92C-360.902 1223.12 -346.844 1255.24 -346.096 1284.17C-345.886 1293.29 -358.359 1298.88 -364.61 1291.85ZM-1.55667 253.867C9.74951 237.895 23.6281 223.688 40.7967 214.027C77.0782 193.598 133.669 190.098 170.459 211.066C177.039 214.804 178.026 224.077 172.822 229.371C151.466 251.086 120.329 258.115 93.4092 270.288C74.7152 278.753 56.8287 288.893 38.1047 297.298C27.0079 302.263 14.8344 305.732 4.15634 311.445C0.746543 313.27 -2.57356 313.27 -5.41506 312.163C-9.99137 312.283 -14.9864 309.8 -16.9305 304.955C-23.7202 288.025 -11.0084 267.237 -1.55667 253.867ZM-83.8404 605.795C-84.8872 612.704 -86.8913 618.925 -89.5234 624.638C-89.3141 625.027 -89.0749 625.356 -88.8655 625.805C-82.6142 640.461 -86.2932 657.121 -89.4038 672.196C-92.7538 688.527 -96.8814 704.918 -101.458 720.98C-110.85 753.971 -124.22 797.97 -151.737 820.552C-158.497 826.116 -167.5 823.992 -170.521 815.587C-185.117 775.178 -185.925 729.744 -167.081 690.501C-159.574 674.828 -146.623 662.475 -134.359 649.853C-130.471 641.807 -126.194 633.97 -121.468 626.493C-118.925 622.515 -115.187 621.199 -111.627 621.647C-107.948 615.157 -105.226 608.128 -104.03 600.231C-101.966 586.921 -81.8363 592.634 -83.8404 605.795ZM202.493 1231.64C196.331 1248.21 181.376 1256.98 164.776 1260.6C143.061 1265.32 119.043 1268.61 96.9089 1269.72C70.3483 1271.06 46.2405 1264.72 20.8165 1258.05C3.55815 1253.51 -18.8448 1248 -28.3264 1231.1C-29.0144 1229.88 -29.5827 1228.59 -30.0314 1227.34C-31.3474 1226.83 -32.6037 1226.11 -33.7702 1225.03C-37.4193 1221.68 -37.9278 1215.16 -34.9667 1211.15C-34.0694 1209.33 -32.6335 1207.74 -30.7492 1206.76C-30.3603 1206.55 -30.0014 1206.31 -29.6425 1206.1C-29.5528 1206.04 -29.4931 1205.98 -29.4034 1205.92C-25.9038 1196.02 -18.815 1186.72 -11.9655 1180.23C-10.8588 1179.15 -9.66241 1178.43 -8.46599 1177.95C4.99374 1165.15 22.5514 1157.76 40.4678 1151.87C68.4939 1142.66 97.2678 1134.04 126.401 1129.32C145.813 1126.18 166.331 1122.86 182.572 1136.41C195.374 1147.09 201.356 1163.66 203.989 1179.69C206.68 1196.02 208.355 1215.79 202.493 1231.64ZM282.892 674.589C268.894 695.167 273.889 725.078 277.09 748.288C278.137 755.886 272.095 766.175 262.852 762.526C227.618 748.558 192.473 731.568 159.123 713.592C146.022 706.533 131.545 698.667 122.482 686.553C117.637 680.062 109.74 670.252 112.103 661.548C114.317 653.472 122.602 652.425 128.046 655.775C144.556 644.2 165.404 643.033 185.564 644.768C215.654 647.4 246.491 649.913 275.834 657.181C282.863 658.976 287.17 668.338 282.892 674.589ZM548.558 568.586C545.297 578.935 530.073 579.443 527.052 568.586C518.528 538.017 502.705 511.158 498.218 479.333C494.958 456.122 491.249 428.126 505.128 407.488C509.405 401.147 516.942 401.685 521.339 405.514C525.945 404.587 531 406.112 533.782 410.987C535.128 413.35 536.354 415.803 537.491 418.256C547.959 426.212 549.186 443.47 548.438 458.605C549.963 468.894 550.921 479.303 552.027 489.353C554.929 515.525 556.544 543.132 548.558 568.586Z" fill="#EFE750"/>
<path d="M484.549 431.628C484.819 430.282 485.058 428.936 485.237 427.59C484.968 428.936 484.729 430.282 484.549 431.628Z" fill="#AFA125"/>
<path d="M527.022 733.183C503.692 726.603 487.062 706.802 476.802 684.758C464.33 658.018 461.578 626.163 456.314 596.881C450.96 567.18 442.226 538.316 430.441 510.529C432.355 509.453 434.001 507.867 435.017 505.893C437.231 512.234 439.474 518.605 441.628 524.976C443.034 529.104 446.802 531.945 451.259 531.257C455.386 530.629 459.036 527.07 458.856 522.643C458.108 504.188 460.591 485.883 465.885 468.445C466.663 467.638 467.261 466.651 467.62 465.484C468.188 463.63 468.727 461.775 469.265 459.891C469.086 469.821 469.504 479.721 470.342 489.532C469.534 490.549 468.876 491.746 468.517 493.121C466.394 500.928 464.988 508.795 464.18 516.631C463.851 517.199 463.552 517.798 463.313 518.396C462.745 518.815 462.206 519.293 461.698 519.831C461.398 520.131 461.189 520.49 460.92 520.819C460.86 520.878 460.86 520.878 460.83 520.938C460.77 520.998 460.741 521.028 460.651 521.118C459.694 522.165 459.185 522.823 458.856 524.228C458.258 526.741 458.258 529.433 458.138 532.005C457.839 538.197 458.108 544.418 458.378 550.609C458.677 557.07 458.437 563.62 459.305 570.051C462.715 595.086 468.338 619.643 474.739 644.08C477.311 653.89 480.003 663.671 482.725 673.452C482.545 674.23 482.336 675.037 482.156 675.815C481.11 680.272 483.084 683.651 486.045 685.476C486.075 685.596 486.105 685.685 486.135 685.805C488.617 694.658 502.944 695.526 504.948 685.805C508.089 670.551 512.815 655.595 519.485 641.508C522.805 634.479 526.663 627.779 530.612 621.079C534.679 614.199 538.089 606.602 537.64 598.436C536.803 582.494 525.287 570.41 518.617 556.651C512.127 543.281 508.448 528.506 504.739 514.119C499.804 495.006 494.898 475.893 489.993 456.81C489.066 453.191 486.763 450.978 483.981 449.961C483.712 443.889 483.682 437.637 484.489 431.595C483.323 437.548 481.618 443.47 480.212 449.303C476.623 449.303 473.064 451.007 471 454.088C471.12 453.729 471.209 453.4 471.329 453.041C475.187 443.769 479.853 434.826 485.357 426.301C485.297 426.72 485.267 427.109 485.207 427.528C485.327 427.019 485.447 426.511 485.566 426.002C485.656 425.883 485.716 425.763 485.805 425.643C486.045 425.344 486.284 425.075 486.553 424.776C488.557 422.503 490.711 420.379 492.894 418.255C497.829 413.5 503.423 409.94 507.79 404.437C509.943 401.715 508.986 395.942 504.47 396.451C500.312 396.929 495.975 397.647 492.146 399.442C489.006 400.937 486.075 403.001 483.323 405.095C481.349 406.59 479.494 408.205 477.7 409.851C447.729 413.769 419.255 392.293 402.415 369.501C382.824 342.971 373.222 311.624 368.138 279.441C364.937 259.251 364.847 238.433 359.703 218.603C359.464 217.675 358.177 217.735 357.908 218.603C357.34 220.367 356.891 222.192 356.413 223.987C355.904 221.085 355.366 218.214 355.336 215.193C355.336 214.984 355.067 214.954 354.977 215.133C354.528 216.449 354.02 217.705 353.481 218.962C353.422 218.393 353.332 217.825 353.182 217.257C351.298 209.988 343.671 207.626 337.778 210.886C336.073 209.57 334.428 208.194 333.561 207.566C329.762 204.904 325.934 202.272 322.075 199.639C318.037 196.888 314.089 193.897 309.962 191.235C308.227 188.602 305.804 187.496 303.351 187.436C301.736 186.628 300.061 185.881 298.356 185.252C294.797 183.996 290.43 186.09 288.605 189.231C286.601 192.67 287.379 196.828 289.951 199.699C292.883 203.019 296.442 205.562 300.121 207.984C317.619 238.164 331.467 270.438 346.363 301.993C344.628 300.348 342.355 299.301 339.932 299.122C337.12 288.055 333.023 277.377 327.758 267.447C321.926 256.439 314.628 245.941 306.103 236.878C305.714 236.459 304.937 236.878 305.116 237.446C305.744 239.331 306.432 241.215 307.09 243.129C306.013 241.724 305.026 240.228 304.338 238.553C304.249 238.344 303.949 238.493 304.069 238.673C306.342 242.352 306.283 246.18 307 250.278C307.688 254.226 308.795 258.204 309.692 262.093C311.367 269.122 312.803 276.24 313.94 283.389C316.033 296.43 317.11 309.71 316.721 322.931C316.093 343.958 310.38 365.344 296.173 380.419C276.821 385.204 258.426 394.088 242.663 406.261C233.75 413.141 225.913 422.233 216.91 428.425C207.399 434.945 196.032 437.518 184.876 440.21C149.193 448.764 112.074 452.383 76.3007 445.474C65.5329 442.932 54.9446 439.611 44.6853 435.454C31.2256 429.98 17.8556 422.891 7.86546 412.154C-3.20143 400.249 -9.63216 384.546 -15.2853 369.531C-18.3062 361.455 -21.2675 353.35 -22.7032 344.825C-23.3911 340.727 -24.4081 336.779 -24.5576 332.622C-24.6174 330.438 -24.6771 328.643 -25.1557 326.52C-25.6642 324.396 -26.3223 321.944 -26.3821 319.76C-26.3821 319.611 -26.5316 319.581 -26.6512 319.64C-27.8775 320.687 -29.1638 321.674 -30.3603 322.751C-30.6295 322.033 -30.8985 321.345 -31.1378 320.627C-31.2275 320.388 -31.3772 320.209 -31.4669 319.999C-30.7491 319.76 -30.0611 319.491 -29.3432 319.222C-25.425 317.846 -21.2375 313.898 -21.746 309.261C-24.6174 283.508 -9.00416 259.341 7.77564 240.258C24.3461 221.414 45.3433 205.651 68.5838 196.02C74.7752 193.448 81.1761 191.444 87.6667 189.829C95.264 189.29 102.951 189.26 110.698 189.919C117.218 190.457 122.153 191.205 129.093 192.79C135.643 194.285 142.104 196.2 148.415 198.563C149.731 199.071 151.047 199.58 152.333 200.118C152.602 200.238 153.111 200.447 153.171 200.477C154.008 200.866 154.876 201.225 155.713 201.643C158.764 203.049 161.755 204.575 164.686 206.19C167.617 207.805 170.519 209.54 173.33 211.364C174.736 212.292 176.142 213.219 177.518 214.206C178.116 214.625 178.744 215.073 179.342 215.522C179.582 215.701 182.004 217.526 180.748 216.539C185.803 220.487 192.563 221.055 196.87 215.432C198.754 213.009 199.323 210.407 199.023 207.895C210.868 194.944 219.901 180.198 226.481 163.866C227.768 160.636 226.631 156.808 224.477 153.966C224.627 153.278 224.747 152.59 224.866 151.902C234.408 134.704 232.224 107.665 215.265 95.9995C210.719 92.8888 205.006 91.6326 199.712 93.0085C195.913 89.3594 191.725 86.129 187.448 83.1679C181.526 79.0701 174.377 77.1259 167.857 81.2536C167.408 81.5527 167.019 81.8817 166.631 82.2107C165.883 81.8817 165.135 81.5228 164.357 81.2237C160.888 79.8478 157.179 79.0402 153.5 78.5018C148.953 77.8438 142.882 77.3653 139.711 81.4331C138.844 82.5697 138.365 83.7361 138.216 84.9026C137.408 84.6634 136.57 84.4241 135.763 84.1848C121.854 80.3264 107.826 78.8907 93.4095 79.8179C92.6617 79.8777 92.4224 81.0143 93.23 81.1938C106.63 84.2147 120.329 88.3424 132.831 94.0553C139.98 97.3156 148.206 102.191 152.782 109.13C152.842 109.369 152.902 109.579 152.961 109.818C153.021 110.028 153.231 111.433 153.32 111.792C153.38 112.54 153.47 113.288 153.47 114.036C153.53 115.89 153.44 117.744 153.26 119.599C153.171 119.988 152.931 121.483 152.902 121.633C152.752 122.351 152.573 123.039 152.393 123.756C151.885 125.701 151.256 127.615 150.509 129.469C150.389 129.739 150.18 130.157 150.12 130.277C149.611 131.234 149.133 132.221 148.594 133.178C147.607 134.883 146.531 136.588 145.364 138.173C145.155 138.383 144.018 139.729 143.988 139.759C143.211 140.626 142.403 141.463 141.565 142.271C140.22 143.587 138.784 144.843 137.318 146.04C136.959 146.279 135.314 147.535 135.464 147.416C134.656 147.984 133.819 148.552 132.981 149.091C130.798 150.496 128.524 151.783 126.191 152.979C119.013 156.658 111.087 159.26 102.442 161.474C82.6118 166.588 61.9138 168.562 42.7113 176.01C25.1538 182.83 9.3609 193.807 -3.62026 207.416C-3.70999 207.506 -3.79959 207.596 -3.85941 207.685C-4.36789 207.895 -4.8764 208.104 -5.38488 208.284C-15.4348 211.723 -24.9165 209.33 -31.7959 201.135C-38.5856 193.029 -40.6196 181.902 -39.124 171.643C-37.0303 157.256 -29.3433 143.617 -21.8955 131.384C-17.9474 124.893 -13.3711 118.732 -8.46575 112.929C-6.25237 110.297 -3.82965 107.874 -1.76582 105.152C0.956035 101.623 3.43867 97.5549 7.08776 94.8928C7.26722 94.7732 7.05785 94.5039 6.9083 94.6535C4.03689 97.1361 0.477598 98.7213 -2.75274 100.695C-4.36791 101.682 -5.86352 102.789 -7.32913 103.956C-9.90144 103.148 -12.4139 103.627 -15.1357 104.344C-19.1437 105.421 -22.7329 106.528 -26.4718 108.293C-33.74 111.673 -40.2008 116.728 -46.3923 121.812C-46.5418 121.932 -46.7212 122.081 -46.8707 122.231C-46.7511 122.081 -46.6315 121.932 -46.5118 121.782C-45.5248 120.377 -44.807 118.731 -44.3284 116.997C-43.461 116.757 -42.6234 116.428 -41.8159 115.95C-37.5985 113.318 -33.77 110.087 -30.4798 106.349C-30.0611 106.049 -29.6722 105.78 -29.2534 105.481C-28.2963 104.853 -27.3392 104.255 -26.3522 103.716C-25.754 103.387 -25.1259 103.058 -24.4977 102.759C-24.3482 102.699 -23.7798 102.46 -23.5106 102.37C-23.2115 102.281 -22.9424 102.191 -22.8527 102.161C-22.3143 102.012 -21.8057 101.862 -21.2674 101.712C-21.1776 101.683 -20.9683 101.653 -20.729 101.593C-20.5196 101.593 -19.3232 101.413 -19.2035 101.383C-15.3152 101.174 -11.8455 99.4392 -9.81158 95.9995C-7.98703 92.8888 -7.5982 88.1031 -9.81158 85.0223C-12.4437 81.3732 -15.6741 78.9804 -19.5924 77.455C-20.1308 76.9166 -20.7291 76.4081 -21.3871 75.9894C-23.3014 74.763 -25.3652 73.8358 -27.5187 72.9983C-28.2665 69.3791 -32.1548 66.6573 -35.5347 65.9993C-35.5347 65.9394 -35.5347 65.8497 -35.5347 65.7899C-35.8937 57.385 -45.2855 53.377 -51.3873 57.6542C-52.9426 54.7828 -54.8868 52.1806 -57.5488 50.356C-59.6725 48.9203 -61.8858 49.6082 -63.3215 51.1636C-66.2228 46.4377 -70.1412 42.699 -74.9867 39.6182C-75.9738 38.9901 -76.9907 38.4516 -77.9778 37.9133C-82.3746 30.6749 -88.6558 24.8124 -96.3129 20.8942C-106.482 15.6897 -117.848 13.5362 -129.005 11.5621C-174.768 3.45635 -225.676 4.41352 -265.038 32.3499C-267.58 34.1446 -270.332 35.9691 -272.576 38.1227C-274.759 40.2164 -276.195 43.0878 -277.63 45.7199C-278.408 47.1257 -278.767 48.711 -278.737 50.2963C-281.429 52.3601 -284.121 54.5136 -286.753 56.6672C-289.116 58.6413 -291.509 60.6453 -293.872 62.7091C-296.683 64.5037 -299.435 66.418 -302.037 68.0032C-308.199 71.7121 -314.36 75.3912 -320.552 79.0701C-320.791 78.8907 -321.031 78.7112 -321.3 78.5318C-324.62 76.5876 -330.273 76.7372 -332.815 80.0273C-336.494 84.7532 -340.413 89.2397 -344.57 93.5169C-351.958 98.0334 -359.346 102.58 -366.764 107.126C-381.091 115.92 -395.568 124.534 -409.865 133.418C-416.804 137.725 -423.773 142.002 -430.772 146.249C-437.502 150.347 -444.83 154.026 -450.753 159.29C-457.482 165.272 -460.922 174.515 -464.9 182.381C-469.417 191.265 -473.993 200.088 -478.42 209.031C-480.872 213.967 -478.42 219.051 -473.544 220.457C-473.754 221.564 -473.933 222.7 -474.053 223.867C-474.711 231.135 -464.122 233.229 -460.772 227.456C-458.649 223.777 -457.542 219.799 -456.256 215.761C-455.09 212.082 -456.944 209.001 -459.815 207.326C-457.572 203.049 -455.359 198.742 -453.115 194.465C-451.171 190.726 -449.197 186.957 -447.253 183.219C-445.488 179.839 -443.903 176.1 -441.54 173.109C-437.382 167.845 -430.054 164.764 -424.461 161.354C-422.128 159.918 -419.795 158.453 -417.462 157.017C-416.086 158.034 -414.351 158.453 -412.377 157.824C-407.891 156.359 -403.464 154.654 -399.067 152.829C-397.482 153.577 -395.657 153.787 -393.683 153.009C-385.667 149.898 -377.651 146.758 -369.665 143.617C-368.558 144.185 -367.302 144.455 -365.896 144.305C-346.544 142.181 -327.701 138.383 -308.887 133.418C-306.255 132.73 -304.161 130.726 -303.084 128.243C-301.08 128.512 -299.046 128.602 -297.012 128.482C-289.236 128.064 -281.399 126.688 -273.712 125.521C-258.936 123.248 -244.19 120.347 -229.205 119.868C-206.084 119.12 -184.16 125.312 -164.479 137.276C-153.292 144.096 -144.409 151.543 -135.436 161.892C-131.428 166.499 -128.586 170.357 -124.907 176.369C-123.202 179.151 -121.617 181.992 -120.122 184.923C-119.374 186.389 -118.686 187.855 -117.998 189.35C-117.789 189.829 -117.549 190.337 -117.34 190.846C-117.28 191.025 -116.652 192.581 -116.592 192.76C-114.199 198.922 -108.217 202.75 -101.607 199.939C-94.9369 197.127 -93.7107 190.307 -96.3129 184.206C-97.0906 182.321 -97.9879 180.527 -98.8852 178.672C-96.7615 176.848 -94.9669 174.634 -93.6808 172.301C-90.7495 167.007 -88.5062 161.324 -85.545 156.03C-82.8531 151.214 -79.9219 146.548 -76.6317 142.092C-71.3077 138.861 -65.9835 135.631 -60.6594 132.43C-58.3863 131.055 -55.9936 129.739 -53.7204 128.273C-62.873 136.857 -70.8591 146.488 -77.4394 157.226C-96.1335 187.735 -104.419 223.119 -105.854 258.653C-106.722 280.517 -104.748 302.322 -101.278 323.918C-101.128 324.905 -100.68 325.832 -100.111 326.729C-100.74 327.387 -101.338 328.105 -101.876 328.943C-106.811 336.719 -103.282 345.902 -95.9241 349.88C-95.9839 350.927 -95.8344 352.004 -95.3857 352.991C-93.2022 357.687 -88.4764 361.066 -84.7376 364.626C-80.9389 368.245 -77.0206 371.625 -73.1323 375.124C-65.3555 382.153 -57.9676 389.661 -51.0583 397.527C-37.9276 412.453 -26.5915 429.562 -17.4389 448.076C-12.1747 458.664 -8.58538 467.757 -4.90639 479.542C-3.59033 483.759 0.806577 488.007 5.62217 487.558C10.0489 487.139 14.4457 486.541 18.8426 485.883C19.7399 486.481 20.7569 486.99 21.8636 487.438C15.3431 487.977 12.1725 497.219 16.8087 502.394C35.413 523.032 41.6345 551.925 62.1531 571.278C64.0375 573.072 67.3575 574.418 69.9597 573.341C81.7744 568.406 93.9777 564.907 106.48 562.992C96.1911 567.958 85.214 571.218 73.8181 572.833C68.4342 573.611 66.9388 580.52 69.0624 584.558C75.9718 597.748 83.0604 610.819 90.0595 623.95C93.4992 630.381 96.7894 636.901 100.349 643.242C103.549 648.895 108.126 654.01 115.005 654.578C121.974 655.177 128.824 650.989 135.314 648.895C141.775 646.802 148.385 645.157 155.055 643.96C168.186 641.597 181.645 641.358 194.896 642.734C196.69 642.913 198.156 642.435 199.323 641.537C200.908 642.195 202.493 642.853 204.049 643.511C212.663 647.071 219.034 632.145 210.449 628.347C199.143 623.322 187.717 618.506 175.873 614.827C170.1 613.033 164.238 611.537 158.255 610.49C153.589 609.653 148.864 609.084 144.317 607.679C135.733 605.017 133.071 597.898 133.968 589.463C134.506 584.199 136.511 579.353 138.574 574.538C139.173 573.102 141.775 567.658 140.818 565.026C142.343 563.291 144.138 561.616 144.616 559.313C144.556 559.313 144.497 559.313 144.437 559.343C144.796 557.758 144.108 555.784 142.104 556.023C139.083 556.382 137.019 558.386 134.656 560.181C132.084 562.125 129.512 564.099 127.208 566.402C126.55 567.06 125.922 567.748 125.294 568.436C126.132 566.073 125.563 563.441 124.158 561.377C126.311 561.317 128.435 561.258 130.588 561.287C134.177 561.347 137.348 558.476 137.767 554.976C138.156 551.776 136.182 547.469 132.532 546.96C122.034 545.525 111.296 543.162 101.485 539.064C94.1872 536.013 90.568 530.779 91.3456 522.793C92.0934 515.136 97.0586 508.735 103.041 504.248C106.51 501.646 110.189 499.223 113.958 497.1C118.355 494.647 122.363 491.237 127.119 489.442C127.298 489.383 127.238 489.113 127.029 489.143C125.055 489.502 122.961 489.652 120.897 489.712C140.848 487.02 160.559 482.713 179.761 476.671C182.393 475.833 184.248 474.188 185.355 472.184C191.456 472.094 197.678 470.569 203.54 469.313C210.3 467.847 217 466.022 223.58 463.869C233.899 460.489 243.979 456.331 253.7 451.426C262.284 449.452 270.809 447.328 279.273 444.936C287.798 442.513 296.233 439.791 304.608 436.92C306.043 436.77 307.479 436.62 308.945 436.441C316.572 435.364 324.319 434.945 332.006 435.274C344.897 435.813 358.357 440.27 368.586 448.196C378.606 455.943 386.443 466.471 392.963 477.209C400.411 489.502 406.722 502.573 412.465 515.734C424.698 543.76 433.193 573.371 438.547 603.461C443.901 633.701 447.221 664.598 459.933 692.924C471.897 719.514 493.253 743.353 521.997 751.458C533.662 754.479 538.628 736.443 527.022 733.183ZM516.583 594.369C517.152 596.043 517.481 597.569 517.6 598.915C517.541 598.915 517.481 598.915 517.451 598.915C516.464 595.834 515.477 592.753 514.52 589.673C515.357 591.288 516.075 592.843 516.583 594.369ZM-91.7365 66.2983C-91.7664 67.1657 -91.8562 68.0631 -91.9459 68.9604C-92.0356 69.2894 -92.3048 70.9345 -92.3048 70.9644C-92.6638 72.6992 -93.1424 74.4041 -93.7107 76.0791C-94.4286 78.1429 -94.8174 78.8907 -96.3429 81.4929C-100.201 88.1031 -105.794 93.4571 -112.285 97.6146C-120.062 102.58 -127.569 105.661 -136.842 107.395C-147.25 109.34 -156.283 105.152 -166.094 102.46C-176.353 99.6486 -187.121 98.4223 -197.739 98.2428C-219.185 97.9138 -240.392 101.832 -261.658 103.956C-272.067 104.973 -282.596 105.661 -293.034 105.092C-295.756 104.943 -299.435 104.853 -301.439 102.909C-301.17 103.178 -301.768 101.892 -301.798 101.264C-301.828 100.067 -300.991 98.1231 -300.303 96.8071C-297.97 92.3205 -294.38 88.6115 -291 84.9026C-287.321 80.8647 -283.553 76.9166 -279.664 73.088C-273.473 66.9564 -266.982 61.094 -260.402 55.3511C-259.923 55.1118 -259.445 54.8426 -258.996 54.5435C-256.902 53.1676 -255.556 51.8516 -253.104 50.1766C-249.066 47.3949 -244.878 44.8824 -240.511 42.6092C-236.503 40.5155 -233.303 39.0797 -229.654 37.7039C-225.048 35.9691 -220.352 34.4735 -215.566 33.2173C-195.347 27.9231 -174.379 27.5343 -153.203 29.7178C-143.033 30.7647 -132.864 32.4994 -122.814 34.7128C-118.506 35.6699 -114.319 36.8664 -110.132 38.2722C-108.995 38.661 -107.2 39.4686 -105.166 40.5454C-103.192 41.6222 -101.517 42.669 -100.56 43.5065C-99.7227 44.2244 -98.9451 44.9722 -98.1973 45.7797C-98.1674 45.8096 -97.0308 47.1855 -96.8812 47.335C-96.0138 48.5913 -95.2061 49.9073 -94.5182 51.2533C-94.4883 51.3131 -93.8004 52.9284 -93.7107 53.1078C-93.4415 53.8855 -93.1424 54.6931 -92.933 55.5006C-92.6339 56.5176 -92.3946 57.5345 -92.1852 58.5515C-92.0955 59.06 -92.0057 59.5385 -91.916 60.047C-91.916 60.1367 -91.886 60.2565 -91.886 60.4957C-91.7066 62.41 -91.6468 64.3541 -91.7365 66.2983ZM-41.098 139.579C-39.1239 137.186 -37.12 134.853 -35.0263 132.58C-37.0602 135.212 -38.9445 137.964 -40.7391 140.746C-40.8289 140.327 -40.9485 139.938 -41.098 139.579ZM32.1827 489.532C32.6015 489.592 32.9903 489.652 33.3493 489.682C37.2676 490.19 41.1858 490.639 45.1041 491.028C40.7671 490.908 36.4599 490.459 32.1827 489.532ZM121.914 572.205C121.167 573.132 120.478 574.119 119.791 575.106C119.491 574.747 119.192 574.388 118.833 574.089C119.88 573.401 120.897 572.773 121.914 572.205ZM99.9002 493.959C99.6011 493.181 99.2122 492.433 98.7636 491.775C102.024 491.536 105.314 491.267 108.574 490.938C105.583 491.686 102.682 492.673 99.9002 493.959ZM373.282 413.589C371.607 412.872 369.872 412.213 368.078 411.705C370.53 410.628 372.953 409.522 375.316 408.295C374.149 409.91 373.491 411.735 373.282 413.589ZM398.497 393.161C398.586 392.592 398.586 392.024 398.557 391.426C399.843 392.802 401.129 394.177 402.475 395.494C398.437 397.318 395.356 401.595 397.181 406.052C399.035 410.568 400.83 415.115 402.654 419.631C399.484 415.264 396.074 411.017 392.335 406.979C389.972 404.407 386.443 403.45 383.063 403.868C383.302 403.719 383.541 403.599 383.781 403.45C384.828 403.45 385.874 403.45 386.891 403.39C392.814 403.031 397.689 399.173 398.497 393.161ZM353.511 316.889C355.067 320.059 358.028 321.046 360.869 320.568C361.886 324.336 363.023 328.105 364.249 331.814C369.962 348.893 378.277 365.493 389.135 380.06C386.174 379.461 383.123 379.043 380.072 378.744C375.137 354.277 358.925 333.908 350.76 311.236C351.687 313.09 352.584 315.004 353.511 316.889ZM349.533 228.982C348.785 231.733 348.337 234.545 347.978 237.386C347.918 234.994 347.888 232.601 347.948 230.208C348.516 229.849 349.055 229.43 349.533 228.982ZM347.2 420.469C347.35 421.067 347.589 421.635 347.948 422.144C346.662 421.994 345.346 421.875 344.06 421.755C345.107 421.336 346.153 420.887 347.2 420.469Z" fill="#AFA125"/>
<path d="M641.101 425.136C640.951 404.468 639.575 383.8 636.973 363.281C634.311 342.224 630.961 320.958 625.188 300.499C623.364 294.039 617.322 292.513 612.506 294.308C609.336 288.415 605.746 282.852 601.499 277.588C598.628 274.028 594.949 271.008 591.719 267.777C588.668 264.726 583.822 263.44 580.712 267.358C577.661 271.217 580.951 276.302 584.69 276.062C585.168 276.69 585.617 277.349 586.065 278.007C586.963 279.442 587.531 280.908 588.189 282.463C589.745 286.082 591.778 289.552 593.543 293.081C596.773 299.542 599.615 306.033 601.858 312.912C606.465 326.97 609.515 341.866 611.101 355.834C614.72 387.778 613.733 420.47 612.357 452.505C609.874 509.514 602.187 566.105 583.523 620.422C579.425 622.546 574.999 622.875 571.798 620.123C572.935 612.316 573.772 604.45 574.61 596.733C576.225 581.778 576.674 566.613 576.524 551.598C576.225 521.239 572.995 491.029 565.457 461.597C563.393 453.492 560.971 445.535 558.099 437.669C555.108 429.473 550.322 421.368 548.558 412.873C548.528 412.694 548.199 412.783 548.259 412.963C551.13 420.022 551.309 428.247 552.267 435.725C553.194 442.963 554.001 450.231 554.929 457.47C555.886 465.037 556.633 472.634 557.262 480.262C556.574 489.025 555.736 497.789 555.497 506.553C554.989 524.17 554.899 541.817 554.958 559.435C554.48 561.259 554.031 563.054 553.583 564.938C552.895 567.959 551.519 570.591 550.711 573.552C548.976 579.864 547.421 586.205 545.836 592.546C542.665 605.108 538.747 617.611 534.32 629.784C530.043 641.599 524.659 652.815 518.557 663.882C514.699 670.881 508.328 680.064 507.849 688.648C505.845 689.456 504.081 690.742 502.914 692.297C499.504 696.873 499.804 703.065 503.812 707.252C516.882 720.981 537.79 731.779 555.736 719.994C557.501 718.828 559.146 717.542 560.671 716.166C561.688 715.926 562.705 715.508 563.722 714.82C568.717 711.47 572.516 706.744 576.285 702.108C580.053 697.442 583.673 692.686 587.053 687.751C593.244 678.718 598.688 669.206 603.324 659.276C612.955 638.727 619.176 616.504 621.001 593.892C621.509 587.7 621.36 581.299 620.702 575.138C620.672 574.928 620.642 574.659 620.642 574.45C624.231 561.798 627.402 548.996 630.034 536.104C637.422 499.673 641.4 462.345 641.101 425.136Z" fill="#AFA125"/>
<path d="M511.559 655.954C527.351 630.979 544.849 598.018 527.471 569.124C525.258 565.475 521.758 564.249 518.378 564.817C518.348 564.757 518.318 564.697 518.289 564.637C516.823 561.975 515.088 559.104 513.054 556.831C512.964 556.741 512.875 556.621 512.785 556.532C511.828 552.284 510.631 548.127 509.196 544.029C510.96 541.606 511.17 537.778 510.063 534.936C508.837 531.796 507.192 528.864 505.606 525.903C504.918 524.617 504.29 523.331 503.662 522.045C503.363 521.447 503.094 520.848 502.825 520.22C502.645 519.802 502.466 519.413 502.286 518.994C502.256 518.904 502.227 518.874 502.197 518.815C500.97 515.883 499.864 512.892 498.757 509.901C498.338 508.765 497.949 507.688 497.531 506.611C497.71 504.099 497.172 501.437 496.215 498.984C494.36 494.228 492.864 489.323 491.758 484.328C490.741 479.811 489.903 475.175 489.395 470.569C489.096 467.727 488.886 464.916 488.318 462.104C487.84 459.861 487.72 457.378 486.523 455.374C484.46 451.994 479.195 453.43 479.136 457.378C479.136 457.887 478.418 459.293 478.208 459.951C477.939 460.818 477.7 461.685 477.461 462.553C476.862 464.886 476.713 467.249 476.593 469.642C476.474 472.782 476.474 475.893 476.713 479.004C474.32 479.392 472.047 480.798 470.491 483.072C467.979 486.721 467.201 490.968 467.62 495.215C467.5 495.155 467.381 495.095 467.291 495.066C463.403 493.361 460.621 498.176 464.001 500.719C464.18 500.838 464.33 500.988 464.479 501.137C464.659 501.556 464.898 501.975 465.227 502.334C480.9 520.549 489.993 543.251 492.027 566.97C493.194 580.46 492.057 593.95 489.305 607.17C487.87 613.99 486.045 620.72 483.832 627.33C481.588 634.09 478.777 640.67 476.892 647.549C472.585 663.133 474.171 679.853 482.396 693.911C486.224 700.491 495.736 700.252 499.624 693.911C503.752 687.181 508.926 680.451 510.931 672.704C511.918 668.935 510.542 665.885 508.179 664.09C508.867 661.966 509.555 659.843 510.213 657.689C510.602 657.21 511.11 656.642 511.559 655.954Z" fill="#8C7F1E"/>
<path d="M611.878 688.079C609.724 681.349 601.2 680.511 597.371 686.194C596.952 686.822 596.623 687.54 596.264 688.228C595.666 688.139 595.068 688.138 594.47 688.168C595.277 686.792 596.085 685.447 596.803 684.011C600.452 676.922 591.987 670.731 586.065 675.726C575.536 684.609 558.158 697.889 544.071 688.049C538.328 684.011 535.516 676.414 534.2 669.803C532.346 660.441 532.346 651.468 532.764 641.987C532.764 641.777 532.495 641.658 532.376 641.807C526.752 648.238 523.672 656.912 523.223 665.765C521.458 665.526 519.604 665.676 517.779 666.423C512.934 668.457 510.96 673.123 510.122 677.999C509.464 681.827 509.075 685.686 509.404 689.544C509.434 689.993 509.494 690.412 509.524 690.86C505.157 691.189 500.94 693.343 498.487 697.112C493.94 704.141 497.5 713.622 505.546 716.015C506.144 716.195 506.772 716.314 507.4 716.374C508.357 717.84 509.584 719.156 511.199 720.232C513.831 721.967 516.732 722.057 519.275 721.1C519.364 721.309 519.424 721.489 519.514 721.698C522.027 727.202 529.055 727.65 533.632 724.689C536.383 727.441 540.631 728.338 544.13 726.932C547.989 729.236 553.193 728.907 555.915 723.852C556.453 722.835 557.022 721.878 557.62 720.95C559.175 721.13 560.82 720.801 562.436 719.844C569.883 715.447 576.673 710.093 582.565 703.871C582.476 704.589 582.386 705.307 582.356 705.995C582.326 706.354 582.356 706.713 582.416 707.072C581.848 707.58 581.519 708.328 581.728 709.166C582.177 710.96 583.104 712.635 584.121 714.25C583.971 715.267 584.181 716.524 584.3 717.481C584.659 720.292 585.407 723.104 586.005 725.856C587.112 730.881 587.71 736.025 588.189 741.17C588.667 746.494 588.637 751.878 588.069 757.202C587.8 759.774 587.291 762.287 586.783 764.829C586.155 767.85 585.018 770.931 585.078 774.011C585.197 781.07 594.141 783.045 597.88 777.481C601.289 772.426 601.648 764.201 602.067 758.279C602.187 756.574 602.217 754.869 602.217 753.194C604.879 752.685 607.541 750.861 607.93 748.049C608.019 747.391 608.079 746.733 608.169 746.105H608.199C608.199 746.015 608.199 745.926 608.199 745.866C609.455 736.294 610.412 726.693 611.459 717.122C612.506 707.58 614.809 697.321 611.878 688.079Z" fill="#8C7F1E"/>
<path d="M206.98 91.6346C204.198 87.9556 199.592 86.0414 195.285 88.5539C191.157 90.9766 190.05 96.1511 192.204 100.249C203.42 121.605 206.77 148.794 193.041 169.821C187.209 178.764 178.326 186.092 168.455 190.16C163.849 192.074 158.854 193.33 153.889 193.63C148.086 193.959 142.104 193.749 136.6 195.783C135.882 196.052 135.643 196.86 136.152 197.428C143.151 205.684 154.577 205.534 164.417 203.709C164.656 203.679 164.896 203.59 165.135 203.56C165.195 206.85 166.9 210.2 169.771 211.755C171.267 212.563 172.762 213.37 174.258 214.178C178.116 216.272 181.825 215.434 184.487 213.311C185.833 212.892 187.119 212.174 188.136 211.097C203.54 195.095 223.431 178.375 228.874 155.882C234.767 131.655 220.948 110.119 206.98 91.6346Z" fill="#8C7F1E"/>
<path d="M117.847 637.56C105.972 616.443 92.6918 596.014 80.0995 575.316C67.7763 555.066 55.4531 534.817 43.1299 514.597C31.1956 495.006 19.2015 475.445 6.51948 456.332C-5.77374 437.787 -19.5924 420.23 -31.4669 401.446C-37.8977 391.246 -44.2686 381.316 -48.2766 369.86C-52.4043 358.046 -53.9297 346.052 -53.511 333.579C-53.3315 328.045 -61.497 326.939 -63.172 331.994C-68.7952 330.289 -75.3754 333.818 -77.858 338.903C-78.0674 339.322 -78.217 339.77 -78.3666 340.189C-78.5161 340.249 -78.6358 340.339 -78.7854 340.399C-79.1443 340.518 -79.5032 340.668 -79.8322 340.787C-83.6607 340.159 -87.9378 341.326 -91.3177 343.09C-92.7235 343.838 -93.92 345.065 -94.7575 346.5C-95.2062 346.47 -95.6249 346.411 -96.0736 346.381C-99.0646 346.291 -101.338 350.718 -98.7057 352.782C-97.599 353.649 -96.4923 354.516 -95.3557 355.384C-93.92 358.494 -91.0485 360.917 -87.6088 361.336C-85.6647 363.071 -83.7205 364.835 -81.8361 366.63C-79.1741 369.142 -76.6617 371.864 -74.2389 374.616C-73.6108 375.334 -72.9827 376.082 -72.3545 376.83C-72.2947 376.889 -72.1751 377.069 -72.0256 377.248C-71.8461 377.488 -71.6068 377.817 -71.5768 377.846C-70.4402 379.402 -69.3634 381.017 -68.3465 382.662C-66.1929 386.192 -61.9756 387.747 -58.1171 386.491C-56.6515 390.529 -55.0065 394.507 -53.3315 398.395C-44.2985 419.033 -29.7919 436.74 -17.1995 455.285C9.48064 494.527 33.2895 535.744 57.8161 576.303C72.1432 599.992 85.8422 624.249 100.977 647.43C107.826 657.869 124.068 648.597 117.847 637.56Z" fill="#8C7F1E"/>
<path d="M261.148 171.197C259.892 162.344 259.024 151.157 250.799 145.953C250.141 145.534 249.124 145.654 248.615 146.222C248.017 146.88 247.509 147.598 247.06 148.316C246.252 147.897 245.355 147.628 244.398 147.508C240.45 147.03 236.083 149.393 235.156 153.52C229.323 180.2 213.829 203.89 193.67 222.045C171.237 242.265 143.899 255.515 116.052 266.552C99.0328 273.312 81.6248 279.085 64.2468 284.857C58.175 286.861 56.1112 292.574 57.3974 297.39C56.5898 297.39 55.7523 297.36 54.9447 297.42C52.2527 297.599 49.8001 298.736 47.2577 299.543C44.0572 300.56 43.7283 304.539 46.3604 306.363C48.2747 307.709 50.189 309.205 52.4024 309.982C54.855 310.85 57.7263 311.119 60.2986 311.388C65.1441 311.926 70.1692 312.136 75.0446 311.926C84.6758 311.508 94.3368 310.042 103.729 307.918C114.048 305.615 124.128 302.385 133.998 298.556C140.698 297.51 147.308 296.014 153.799 294.1C168.694 289.643 183.141 283.093 196.332 274.867C209.702 266.522 222.145 256.413 232.942 244.897C244.458 232.634 255.016 218.247 259.473 201.796C262.135 191.896 262.583 181.397 261.148 171.197ZM204.557 234.847C199.891 239.932 194.806 244.717 189.452 249.234C189.243 248.875 189.004 248.516 188.764 248.187C194.238 243.97 199.502 239.543 204.557 234.847Z" fill="#FFF59C"/>
<path d="M568.628 265.829C566.116 254.254 552.267 251.143 542.576 248.122C531.21 244.592 519.665 241.99 507.97 239.777C480.691 234.662 453.203 230.355 425.775 226.018C419.434 225.001 414.499 228.321 412.764 232.957C411.299 232.09 409.803 231.282 408.248 230.594C407.201 230.146 405.705 230.624 405.795 232C406.304 241.871 413.422 250.455 420.601 256.796C429.155 264.363 438.876 269.927 449.375 274.294C459.664 278.601 470.372 281.711 481.11 284.643C491.967 287.604 502.915 290.086 514.131 291.253C524.989 292.389 536.265 291.971 546.823 288.98C557.262 286.078 571.529 279.199 568.628 265.829ZM543.922 271.362C542.277 271.931 540.602 272.379 538.927 272.798C539.017 272.559 539.106 272.379 539.166 272.14C539.585 270.615 539.585 268.91 539.256 267.265C541.858 267.923 544.46 268.641 547.063 269.388C547.362 269.478 547.691 269.568 548.02 269.657C546.704 270.315 545.328 270.884 543.922 271.362Z" fill="#FFF59C"/>
<path d="M445.217 796.625C444.349 795.249 443.303 794.173 442.196 793.335C436.483 752.657 427.899 712.367 416.054 673.035C410.072 653.144 403.252 633.493 395.595 614.171C388.596 596.464 381.059 578.189 370.919 562.007C360.51 545.347 345.794 530.033 325.844 525.905C320.34 524.768 314.059 527.251 311.995 532.695C294.617 529.255 275.804 531.169 259.233 536.045C254.896 537.331 256.003 543.283 260.25 543.612C278.974 545.108 298.476 543.134 316.572 549.385C334.877 555.696 344.837 571.309 351.477 588.627C359.822 610.432 367.001 632.745 374.688 654.789C382.704 677.761 390.72 700.702 398.736 723.673C407.051 747.482 415.336 771.261 423.651 795.07C420.66 796.775 417.729 798.689 414.828 800.484C410.042 803.415 405.316 806.466 400.74 809.696C391.527 816.187 382.644 823.335 375.136 831.74C359.104 849.716 350.969 871.94 343.641 894.492C341.487 901.192 339.333 907.773 338.287 914.742C337.688 918.69 336.941 923.535 337.629 927.872C335.625 929.069 334.01 931.013 333.202 933.406C328.237 947.943 322.793 962.329 315.645 975.939C312.055 982.758 308.406 989.488 304.069 995.889C302.005 998.97 299.822 1001.96 297.698 1005.01C296.532 1006.66 295.096 1008.24 294.049 1009.95C293.241 1011.23 293.152 1013.36 292.015 1014.31C291.118 1015.09 290.819 1016.53 291.148 1017.63C291.716 1019.55 292.823 1020.6 294.199 1021.1C293.301 1022.51 292.464 1023.98 291.566 1025.38C287.08 1032.35 294.318 1040.75 301.796 1039.17C302.394 1040.25 303.052 1041.32 303.83 1042.34C302.394 1041.95 300.839 1041.86 299.194 1042.31C297.668 1042.73 296.233 1043.63 295.066 1044.79C292.344 1037.26 288.037 1030.47 282.803 1023.97C281.546 1022.45 279.483 1024.39 280.23 1025.95C283.132 1032.11 284.597 1038.87 285.046 1045.66C285.435 1051.76 285.824 1058.1 285.016 1064.17C283.341 1076.8 277.897 1088.4 271.676 1099.38C261.058 1118.16 241.975 1141.1 217.538 1132.91C213.32 1131.5 208.535 1134.55 207.428 1138.65C206.142 1143.35 209.043 1147.12 213.171 1148.76C225.853 1153.85 237.01 1162.46 245.654 1172.99C254.747 1184.12 258.994 1198.62 270.151 1208.1C274.488 1211.78 283.371 1211.27 284.448 1204.34C288.904 1175.65 295.664 1147.33 304.727 1119.75C310.47 1102.28 320.011 1080.92 316.392 1061.96C320.34 1061.63 323.391 1058.97 324.827 1055.05C326.771 1049.7 327.31 1043.54 328.476 1037.97C329.672 1032.26 330.929 1026.58 332.275 1020.89C334.967 1009.29 337.808 997.743 340.889 986.228C343.79 975.281 346.901 964.393 350.101 953.506C351.567 948.451 353.212 943.426 354.887 938.431C355.725 936.008 356.891 933.585 357.459 931.103C358.147 928.082 357.579 925.898 357.25 922.937C357.19 922.489 357.071 922.07 356.891 921.681C357.31 920.216 357.758 918.78 358.237 917.404C360.69 910.465 363.112 903.496 365.685 896.586C370.441 883.784 374.837 872.149 382.225 860.305C385.934 854.353 388.656 850.943 393.621 845.858C397.898 841.491 403.462 836.765 407.141 834.043C412.495 830.125 418.058 826.506 423.741 823.066C429.394 819.656 435.586 816.815 440.94 812.986C445.994 809.307 448.926 802.368 445.217 796.625Z" fill="#AFA125"/>
<path d="M338.825 658.737C333.142 652.784 327.549 647.251 320.789 642.435C314.298 637.829 307.209 634.3 299.822 631.428C292.434 628.527 284.717 626.852 276.85 625.895C275.803 625.775 274.727 625.656 273.62 625.566C269.911 624.04 266.202 622.186 262.074 622.635C257.438 623.113 253.4 625.117 251.546 629.723C249.781 634.09 250.679 638.846 253.939 642.316C258.814 647.52 267.817 649.255 274.368 651.857C280.23 654.19 284.597 656.075 290.609 658.826C296.501 661.518 302.304 664.33 308.077 667.291C313.79 670.222 319.353 673.782 325.186 676.414C330.3 678.717 336.133 678.298 339.692 673.512C343.102 668.996 342.803 662.864 338.825 658.737Z" fill="#FFF59C"/>
<path d="M85.0339 79.0979C78.992 77.7819 72.6809 77.1537 66.4894 77.4827C53.5381 78.2006 40.7065 82.2086 30.0285 89.6563C29.7892 89.5666 29.5499 89.4469 29.2807 89.3871C25.9905 88.4598 21.4741 90.5237 20.8759 94.1728C20.3973 97.0741 18.8719 99.8259 18.6326 103.086C18.3933 106.227 19.201 109.427 20.8162 112.119C23.8072 117.114 29.8192 120.225 35.3227 121.511C46.8083 124.173 60.0288 122.498 71.0358 118.669C76.8684 116.636 82.5812 114.003 87.7857 110.653C93.8276 106.705 101.186 101.501 101.006 93.3951C100.827 84.2126 92.691 80.743 85.0339 79.0979ZM52.2819 102.817C52.2221 102.817 52.1922 102.817 52.1623 102.847C51.8034 102.877 51.4146 102.937 51.0556 102.966C51.3248 102.847 51.4743 102.757 51.5641 102.697C51.6837 102.667 51.8334 102.608 52.0427 102.518C52.97 102.159 53.8972 101.83 54.8244 101.501C57.0079 100.783 59.2511 100.155 61.5243 99.6763C62.4815 99.4669 63.4685 99.2875 64.4555 99.1379C64.6649 99.108 64.7846 99.0781 64.9042 99.0482C65.0239 99.0482 65.1733 99.0482 65.5322 99.0182C65.8313 98.9883 66.1306 98.9884 66.4596 98.9585C66.1007 99.0781 65.3828 99.3473 65.2931 99.4071C61.0458 100.992 56.7087 102.099 52.2819 102.817Z" fill="#FFF59C"/>
<path d="M116.5 683.082C114.197 679.164 111.924 675.245 109.591 671.357C105.104 663.76 100.558 656.192 95.9817 648.625C86.5898 633.131 76.9884 617.727 67.2675 602.413C45.7319 568.614 23.3589 535.324 0.208124 502.602C-1.70615 499.91 -4.57754 498.085 -7.62842 497.756C-7.50878 495.094 -7.06006 492.432 -6.07301 489.89C-5.02614 487.228 -8.40619 485.373 -10.5298 486.45C-13.3713 487.916 -15.9436 489.68 -17.7981 492.253C-19.9217 495.274 -21.5368 498.414 -22.6136 501.944C-24.8569 509.332 -23.3615 517.407 -21.5668 524.825C-17.828 540.409 -10.9486 555.693 -4.33833 570.229C9.30086 600.379 26.8284 628.675 45.9412 655.654C55.4827 669.143 65.084 683.112 76.0312 695.495C81.5048 701.686 88.474 706.442 96.8191 707.309C104.805 708.147 113.15 704.946 117.726 698.187C121.405 692.803 119.491 688.197 116.5 683.082Z" fill="#FFF59C"/>
<path d="M231.356 506.763C221.935 504.699 212.094 504.848 202.762 507.241C193.699 509.544 185.414 514.001 178.205 519.893C170.548 526.174 163.908 534.789 165.404 545.138C166.211 550.641 175.184 551.628 177.458 546.723C178.026 545.497 178.834 544.42 179.731 543.373C181.526 545.467 184.128 546.932 187.089 547.052C192.383 547.291 197.498 544.988 202.463 543.433C207.278 541.937 212.154 540.651 217.059 539.425C221.606 538.288 226.152 537.211 230.758 536.344C231.775 536.165 230.16 536.314 231.895 536.165C233.031 536.075 234.168 536.045 235.305 536.015C235.843 536.015 236.082 535.985 236.202 535.955C236.352 536.015 236.561 536.075 236.92 536.165C237.279 536.254 239.851 537.331 238.535 536.673C245.444 540.173 254.417 535.955 254.328 527.61C254.208 515.137 242.064 509.096 231.356 506.763Z" fill="#FFF59C"/>
<path d="M650.852 392.383C647.292 346.68 634.072 299.211 598.149 268.194C559.146 234.515 506.683 226.02 457.151 220.846C429.275 217.915 401.219 215.701 373.88 209.151C349.144 203.199 325.395 193.687 303.441 180.856C292.943 174.724 282.833 167.904 273.291 160.337C266.322 152.829 259.832 145.053 253.849 136.678C252.354 134.494 250.858 132.311 249.363 130.127C246.761 126.209 244.188 122.291 241.586 118.372C239.642 115.471 237.668 112.57 235.694 109.669C235.425 109.25 235.096 108.861 234.796 108.442C233.839 106.767 232.822 105.122 231.626 103.507C222.264 91.0941 209.103 82.7491 194.507 77.7241C178.146 72.1009 160.529 70.8148 143.39 69.738C125.444 68.6014 107.408 68.2126 89.4314 69.1398C61.6146 70.5755 33.1697 75.421 6.5792 84.8129C-25.3054 59.4787 -57.8481 33.9351 -95.4157 17.5442C-134.27 0.614807 -176.772 -5.90565 -217.989 6.26793C-257.74 18.0228 -292.047 42.6091 -326.026 65.4608C-364.341 91.2436 -402.657 117.027 -440.972 142.809C-483.804 171.643 -526.666 200.477 -569.497 229.311C-569.797 229.52 -570.036 229.729 -570.275 229.969C-572.1 230.088 -573.894 230.118 -575.719 230.268C-613.197 233.109 -649.329 242.561 -683.696 257.696C-745.611 284.944 -804.475 327.507 -833.398 390.409C-860.587 449.512 -862.8 517.14 -851.823 580.43C-839.081 653.801 -809.051 722.595 -783.657 792.167C-781.443 798.238 -779.32 804.34 -777.166 810.442C-784.135 875.946 -792.66 941.271 -802.53 1006.45C-809.38 1051.55 -816.02 1099.2 -802.949 1143.85C-790.536 1186.3 -759.609 1217.08 -723.477 1240.7C-704.992 1252.79 -685.461 1263.17 -666.049 1273.64C-642.509 1286.35 -618.969 1299.03 -595.46 1311.74C-548.381 1337.14 -501.331 1362.53 -454.252 1387.92L-426.465 1402.94C-426.346 1403 -426.286 1403.09 -426.166 1403.15C-420.663 1406.38 -415.159 1409.64 -409.656 1412.87C-400.742 1425.82 -390.453 1437.79 -378.519 1448.19C-363.055 1461.68 -344.062 1473.14 -323.872 1478.52C-323.274 1479.42 -322.496 1480.17 -321.509 1480.65C-271.768 1504.81 -222.296 1529.61 -173.153 1555C-159.604 1562 -146.114 1569.03 -132.624 1576.12C-129.215 1581.45 -125.266 1586.41 -120.84 1590.93C-121.079 1591.02 -121.318 1591.11 -121.558 1591.23C-104.628 1607.83 -77.8881 1615.15 -54.7074 1615.06C-14.3581 1614.89 23.4787 1597.39 55.4231 1573.85C89.3117 1548.84 117.816 1517.68 144.915 1485.67C171.117 1454.68 195.763 1422.32 218.944 1389C219.662 1388.82 220.409 1388.58 221.157 1388.16C266.831 1361.81 311.278 1333.37 355.426 1304.56C399.903 1275.55 444.649 1246.84 488.737 1217.23C508.986 1203.62 528.727 1188.87 544.61 1170.21C559.056 1153.22 570.602 1134.01 579.396 1113.53C599.047 1067.73 605.178 1017.99 606.495 968.549C607.212 942.198 606.764 915.817 606.345 889.436C605.926 862.965 604.879 836.494 601.051 810.292C600.124 803.862 598.987 797.461 597.671 791.09C597.432 789.923 596.833 788.936 596.056 788.099C613.464 759.744 624.83 727.201 620.941 693.671C619.715 683.083 617.023 673.153 612.866 663.342C612.836 663.282 612.776 663.223 612.746 663.163C616.215 653.352 619.356 643.422 622.317 633.462C630.273 606.542 636.465 579.114 641.041 551.417C645.707 523.271 648.818 494.856 650.493 466.351C652.048 441.735 652.766 416.969 650.852 392.383ZM241.197 149.868C241.437 148.373 241.646 146.877 241.796 145.352C267.519 182.919 292.374 221.115 315.674 260.238C342.414 305.164 367.121 351.375 388.477 399.113C388.716 399.621 388.925 400.13 389.135 400.638C340.799 402.014 296.293 424.686 252.593 443.47C227.468 454.268 201.865 462.672 175.334 469.253C148.624 475.893 121.645 482.174 94.2469 485.105C63.6784 488.336 32.691 487.349 3.34881 477.568C3.19926 477.508 3.07957 477.508 2.93002 477.478C-11.0083 454.656 -25.0961 431.895 -40.4402 410.03C-56.3526 387.298 -74.2989 365.344 -96.1336 348.115C-29.4032 326.43 37.3271 304.416 101.844 276.659C133.46 263.05 165.374 248.752 192.294 226.948C216.132 207.685 236.142 180.646 241.197 149.868ZM511.768 555.724C518.348 568.346 526.304 580.161 535.308 591.198C535.397 591.288 535.517 591.377 535.607 591.467C534.47 595.954 533.244 600.41 531.928 604.837C522.566 636.243 508.777 666.124 491.16 693.701C481.199 677.789 476.892 658.586 473.811 640.191C469.564 614.887 465.945 589.583 460.292 564.548C459.783 562.304 459.215 560.091 458.707 557.848C458.707 557.788 458.736 557.728 458.736 557.668C462.924 524.079 471.359 490.968 483.502 459.412C484.789 456.092 486.105 452.742 487.48 449.392C486.314 486.122 494.719 523.002 511.768 555.724ZM502.167 453.849C502.286 441.197 503.662 428.634 506.264 416.251C509.824 412.064 514.011 407.847 519.874 409.97C525.736 412.064 530.133 417.597 533.064 422.862C540.632 436.351 543.383 452.114 544.969 467.309C546.584 482.742 547.122 498.326 546.674 513.849C546.075 533.68 543.772 553.421 539.884 572.833C514.938 538.615 501.778 496.112 502.167 453.849ZM475.845 697.32C486.583 716.882 506.055 734.41 528.697 737.939C529.475 738.059 530.253 738.118 531.03 738.208C507.67 754.27 484.31 770.362 460.95 786.424C458.378 788.189 455.805 789.953 453.233 791.718C445.726 754.988 437.081 718.467 427.181 682.305C421.797 662.594 416.054 643.003 410.012 623.501C404.449 605.525 399.095 587.34 390.929 570.32C383.482 554.767 373.133 540.799 359.164 530.569C344.419 519.772 326.861 516.123 308.855 518.037C288.875 520.161 269.014 524.827 249.333 528.655C229.562 532.514 209.821 536.462 190.11 540.589C146.53 549.652 103.1 559.373 59.8199 569.722C48.424 551.357 37.058 532.992 25.6621 514.627C21.8635 508.525 18.1246 502.364 14.3559 496.232C63.8877 508.077 116.111 498.864 164.985 487.229C192.114 480.798 218.794 473.47 244.637 462.942C268.775 453.101 292.284 441.705 316.632 432.373C341.996 422.652 368.347 415.324 395.625 415.593C413.482 457.438 428.557 500.479 439.983 544.538C446.473 569.603 451.767 594.967 455.686 620.54C459.753 646.682 462.894 673.721 475.845 697.32ZM65.5327 1280.87C111.266 1286.89 157.508 1277.64 200.31 1261.49C220.051 1254.04 239.253 1245.22 258.067 1235.65C257.409 1236.88 256.721 1238.13 256.033 1239.36C248.346 1252.82 238.745 1264.66 226.601 1274.35C214.338 1284.19 200.16 1291.61 186.102 1298.49C156.102 1313.18 124.785 1326.16 91.7344 1332.05C62.8707 1337.2 33.0201 1335.91 5.68192 1324.78C-17.5586 1315.33 -38.6754 1298.82 -50.5798 1276.45C-53.4213 1271.12 -55.5749 1265.56 -57.2499 1259.73C-57.4892 1258.86 -57.8481 1258.17 -58.2967 1257.54C-53.0624 1248.39 -47.5887 1239.36 -41.9955 1230.42C-13.4907 1259.52 25.5124 1275.61 65.5327 1280.87ZM-33.7104 1217.43C-26.4421 1206.25 -18.9046 1195.21 -11.1877 1184.32C-10.4698 1184.17 -9.72207 1183.93 -8.97431 1183.55C12.651 1171.76 34.8148 1160.96 57.457 1151.27C79.0524 1142.03 101.754 1133.12 125.264 1130.48C141.476 1128.66 157.747 1130.04 173.151 1134.94C173.33 1135.48 173.57 1136.02 173.929 1136.5C198.126 1168.44 204.138 1211.51 189.542 1248.87C189.452 1249.11 189.422 1249.38 189.362 1249.62C172.762 1255.57 155.743 1260.45 138.305 1263.71C98.4643 1271.15 56.4999 1269 18.7528 1253.51C-1.01805 1245.28 -19.0542 1233.08 -33.7104 1217.43ZM207.398 1242.65C216.671 1210.79 212.962 1175.35 197.588 1145.95C209.343 1152.89 220.051 1161.53 229.652 1171.28C242.813 1184.65 253.79 1199.91 262.882 1216.27C244.817 1225.84 226.332 1234.87 207.398 1242.65ZM197.229 1128.69C178.325 1119.18 157.478 1114.06 136.241 1114.69C110.728 1115.44 86.1412 1123.4 62.7213 1132.97C44.3263 1140.47 26.2304 1148.76 8.46357 1157.64C15.7617 1148.04 23.2094 1138.53 30.8366 1129.17C55.2137 1099.14 80.9667 1070.24 107.557 1042.13C131.067 1017.24 156.162 993.793 179.611 968.878C180.21 969.057 180.838 969.177 181.496 969.237C202.284 970.613 222.533 977.343 240.21 988.38C260.131 1000.82 274.518 1019.37 289.622 1036.95C298.566 1047.36 307.509 1057.77 316.422 1068.18C308.825 1094.71 300.779 1121.15 292.075 1147.35C286.512 1164.1 280.739 1180.79 274.637 1197.36C273.949 1199.25 273.231 1201.13 272.514 1203.02C254.448 1172.33 229.113 1144.72 197.229 1128.69ZM276.821 999.476C260.968 982.517 241.377 969.656 219.482 961.909C210.569 958.768 201.357 956.615 192.024 955.329C212.304 931.969 229.054 904.511 228.814 873.254C271.497 889.167 312.654 908.967 351.806 932.208C351.118 935.199 350.43 938.19 349.713 941.121C341.308 975.817 332.514 1010.42 323.003 1044.85C322.464 1046.85 321.866 1048.83 321.328 1050.83C306.701 1033.57 292.255 1016.02 276.821 999.476ZM230.609 858.03C229.532 857.641 228.396 857.611 227.289 857.85C223.969 839.605 215.743 822.616 206.501 806.673C195.374 787.501 183.291 768.866 171.625 750.023C165.703 740.481 159.811 730.94 153.889 721.428C206.74 757.261 270.45 774.37 333.202 784.569C356.323 788.338 379.563 791.299 402.804 794.29C406.812 794.799 410.281 790.492 410.281 786.813C410.281 785.407 409.893 784.21 409.295 783.193C409.444 781.638 409.175 779.963 408.487 778.408C390.959 737.879 361.767 702.884 325.695 677.55C286.332 649.912 238.655 635.286 190.619 635.107C162.921 635.017 135.135 639.683 109.053 649.075L68.1649 583.122C142.283 565.505 216.82 549.682 291.716 535.804C308.586 532.663 326.353 529.642 342.325 537.748C356.024 544.687 366.343 556.472 373.82 569.692C382.435 584.917 387.549 601.727 392.784 618.327C398.706 637.111 404.329 655.954 409.683 674.918C421.378 716.493 431.458 758.517 439.983 800.841C432.505 805.955 425.087 811.1 417.729 816.364C404.718 825.666 392.245 835.746 382.465 848.488C367.39 868.169 360.839 892.696 355.306 916.953C315.495 893.683 273.77 873.972 230.609 858.03ZM284.538 759.833C280.709 731.269 283.371 702.076 291.776 674.559C316.901 687.54 339.513 705.337 358.267 726.723C371.787 742.126 383.063 759.445 391.887 777.899C356.084 773.263 319.832 768.208 284.538 759.833ZM269.194 755.945C239.492 747.959 210.659 737.341 183.53 722.236C166.301 712.635 150.09 701.388 135.434 688.198C134.417 687.271 133.31 686.732 132.173 686.463C127.148 678.357 122.124 670.222 117.069 662.116C160.439 647.46 207.787 646.173 251.875 658.736C260.849 661.308 269.612 664.479 278.137 668.158C269.074 696.513 266.202 726.364 269.194 755.945ZM0.26812 261.793C8.43369 248.663 19.2013 236.908 31.7039 227.815C58.1448 208.583 91.2857 200.656 123.559 206.638C140.13 209.719 155.773 216 169.741 225.243C151.555 237.686 131.336 247.257 111.356 256.26C70.7372 274.535 29.012 290.208 -13.102 304.775C-15.8837 290.119 -7.14969 273.758 0.26812 261.793ZM62.6315 86.4879C96.3107 81.9415 131.426 82.45 165.135 86.5477C190.409 89.5986 223.221 101.024 227.139 130.397C229.084 144.813 224.298 160.367 217.837 173.139C211.317 186.03 202.373 197.426 191.965 207.416C188.854 210.377 185.654 213.189 182.333 215.911C151.825 193.448 111.864 185.043 74.8051 192.521C39.9892 199.52 9.00201 221.594 -10.5595 251.026C-16.0331 259.251 -20.46 268.134 -23.9595 277.377C-27.818 287.576 -30.0613 299.002 -27.3394 309.71C-45.8241 315.991 -64.3984 322.123 -82.943 328.195C-88.8952 330.139 -94.8474 332.083 -100.8 333.997C-109.145 280.368 -109.324 221.175 -81.8064 172.899C-52.2847 120.975 5.41266 94.2347 62.6315 86.4879ZM-336.973 90.8549C-319.266 78.9206 -301.679 66.8068 -283.702 55.2614C-267.252 44.703 -250.292 34.5931 -232.167 27.1454C-214.31 19.7874 -195.436 15.0317 -176.084 14.6728C-155.626 14.3138 -135.466 18.4415 -116.233 25.2611C-76.4224 39.349 -42.2348 65.1318 -9.36316 91.124C-36.9706 103.208 -61.8861 120.735 -80.9989 145.053C-92.6939 159.948 -101.338 176.369 -107.5 193.657C-115.516 176.608 -127.3 161.324 -141.807 149.27C-163.432 131.324 -189.245 121.483 -217.181 119.33C-249.036 116.877 -281.609 122.769 -312.835 128.512C-343.942 134.225 -374.72 141.643 -405.019 150.706C-418.719 154.833 -432.328 159.29 -445.817 164.106C-409.536 139.669 -373.255 115.262 -336.973 90.8549ZM-501.87 201.823C-500.793 201.733 -499.716 201.464 -498.669 200.985C-443.096 176.549 -384.8 158.183 -325.308 146.07C-295.876 140.088 -265.607 134.434 -235.517 133.806C-208.507 133.238 -182.545 138.682 -160.052 154.086C-138.636 168.742 -122.365 190.846 -115.037 215.761C-114.858 216.359 -114.648 216.898 -114.379 217.376C-121.976 251.085 -121.797 286.948 -117.609 321.046C-117.041 325.593 -116.413 330.139 -115.725 334.685C-129.813 326.43 -144.798 320.837 -160.202 317.427C-160.292 317.248 -160.322 317.068 -160.411 316.889C-179.225 281.176 -211.498 253.867 -249.545 240.617C-290.971 226.2 -336.046 228.324 -379.057 231.823C-405.977 234.007 -432.866 236.519 -459.756 239.181C-460.683 238.972 -461.61 238.762 -462.567 238.583C-488.948 233.229 -515.868 229.939 -542.817 229.46C-529.178 220.218 -515.539 211.035 -501.87 201.823ZM-179.225 314.316C-201.508 311.983 -224.42 313.838 -246.823 318.743C-247.361 318.055 -248.049 317.487 -248.857 317.098C-303.563 292.183 -358.838 266.998 -416.595 250.039C-407.771 249.231 -398.948 248.453 -390.124 247.676C-368.648 245.851 -347.113 244.116 -325.547 244.206C-285.706 244.415 -245.537 251.953 -213.263 276.719C-199.773 287.098 -188.318 299.929 -179.225 314.316ZM-831.125 606.572C-845.691 545.315 -849.191 479.452 -828.792 419.063C-818.861 389.691 -802.889 362.771 -781.294 340.488C-758.113 316.53 -729.967 297.895 -700.565 282.432C-668.83 265.742 -634.882 253.538 -599.408 247.945C-563.844 242.352 -527.084 243.279 -491.551 248.543C-482.697 249.859 -473.903 251.444 -465.17 253.239C-464.063 253.957 -462.777 254.376 -461.401 254.226C-461.221 254.196 -461.012 254.196 -460.833 254.166C-398.409 267.626 -339.007 292.661 -280.921 318.863C-276.793 320.717 -272.695 322.602 -268.598 324.456C-291.479 331.515 -313.374 341.445 -333.085 353.021C-364.431 371.445 -392.637 395.643 -415.279 424.088C-420.304 430.399 -425 436.979 -429.516 443.649C-429.905 443.38 -430.294 443.111 -430.772 442.872C-474.173 421.695 -523.046 418.824 -570.544 421.157C-612.838 423.25 -658.87 427.348 -695.092 451.486C-730.057 474.786 -747.136 513.461 -754.494 553.6C-758.173 573.67 -759.908 594.01 -761.194 614.349C-762.839 640.072 -764.364 665.795 -766.279 691.518C-768.402 719.753 -770.915 747.929 -773.667 776.075C-794.514 720.142 -817.276 664.778 -831.125 606.572ZM-623.546 803.024C-598.361 785.676 -574.971 765.157 -553.017 743.921C-542.189 733.452 -531.78 722.595 -521.671 711.408C-522.448 731.867 -521.431 752.416 -518.291 772.934C-506.297 851.24 -460.503 917.671 -410.762 977.103C-406.066 982.727 -401.251 988.29 -396.465 993.853C-399.157 992.507 -401.849 991.251 -404.631 990.055C-422.996 982.368 -442.527 978.419 -461.999 974.621C-482.039 970.703 -501.84 966.336 -521.162 959.576C-540.843 952.696 -559.806 944.082 -578.53 934.93C-596.267 926.256 -614.303 917.641 -630.934 906.933C-660.784 887.671 -680.077 857.431 -694.852 825.696C-669.518 828.269 -644.304 817.321 -623.546 803.024ZM-702.121 809.156C-716.478 774.22 -724.524 736.204 -721.443 698.367C-718.811 665.735 -706.518 633.013 -685.76 607.559C-675.47 594.967 -663.267 584.019 -649.179 575.824C-633.835 566.911 -614.932 559.732 -596.925 562.933C-562.827 568.945 -548.949 607.709 -540.724 636.782C-535.13 656.523 -531.152 676.682 -528.909 697.081C-548.022 718.587 -568.451 738.866 -590.166 757.68C-600.933 767.012 -612 776.135 -623.456 784.629C-634.672 792.944 -646.637 800.93 -659.797 805.836C-673.407 810.921 -688.003 812.835 -702.121 809.156ZM-525.798 634.508C-530.524 617.519 -536.267 600.44 -545.419 585.246C-553.735 571.457 -565.16 559.014 -580.175 552.524C-598.75 544.508 -619.657 546.721 -638.112 553.989C-704.543 580.191 -739.18 653.292 -736.937 721.787C-735.591 762.466 -723.237 802.067 -705.201 838.319C-696.378 856.085 -686.328 873.463 -673.766 888.867C-661.203 904.271 -645.38 916.176 -628.242 926.046C-610.624 936.186 -592.2 945.099 -573.805 953.713C-554.841 962.627 -535.459 970.852 -515.479 977.193C-496.127 983.325 -476.266 986.914 -456.436 990.922C-437.293 994.781 -417.881 999.267 -400.473 1008.42C-368.229 1025.35 -345.258 1055.02 -325.996 1085.08C-311.1 1108.32 -297.611 1132.49 -285.467 1157.28C-284.241 1160.04 -283.044 1162.82 -281.878 1165.6C-299.974 1150.7 -320.283 1138.56 -342.566 1130.87C-361.47 1124.35 -381.899 1121.18 -401.909 1122.35C-420.573 1123.43 -440.344 1127.7 -456.316 1137.87C-466.366 1144.3 -473.903 1152.98 -477.881 1163.3C-484.432 1144.93 -492.239 1127.04 -502.109 1110.24C-510.813 1095.4 -521.222 1081.43 -533.306 1069.2C-546.795 1055.56 -562.558 1044.7 -578.59 1034.32C-595.041 1023.67 -611.701 1013.3 -625.968 999.746C-640.505 985.957 -652.738 970.045 -664.583 953.983C-689.678 919.885 -713.247 884.68 -735.202 848.488C-744.205 833.623 -752.879 818.578 -761.373 803.413C-759.25 782.715 -757.216 762.017 -755.391 741.319C-751.114 692.714 -748.99 643.96 -744.863 595.326C-741.692 557.967 -735.471 517.319 -711.692 486.93C-686.089 454.208 -644.513 443.051 -604.971 438.774C-560.494 433.988 -513.326 432.224 -469.806 444.098C-458.978 447.059 -448.42 450.918 -438.34 455.853C-438.071 455.973 -437.831 456.032 -437.562 456.122C-452.517 480.26 -464.96 506.073 -476.266 532.005C-495.409 575.944 -510.813 622.484 -517.812 670.012C-519.906 658.078 -522.538 646.203 -525.798 634.508ZM-358.06 1215.43C-366.824 1204.24 -378.399 1196.38 -391.709 1191.5C-405.378 1186.48 -421.47 1183.7 -435.977 1185.25C-446.117 1186.33 -456.226 1189.95 -463.973 1196.44C-465.678 1189.38 -466.845 1182.05 -465.798 1174.84C-464.691 1167.21 -460.713 1160.81 -455.12 1155.67C-443.484 1144.93 -426.376 1140.24 -411.061 1138.14C-392.936 1135.69 -374.271 1137.39 -356.654 1142.18C-320.522 1152.02 -289.804 1174.96 -265.038 1202.51C-251.07 1236.58 -239.674 1271.78 -231.09 1307.55C-266.833 1315.12 -303.952 1309.05 -338.02 1296.76C-338.289 1296.67 -338.528 1296.55 -338.798 1296.46C-336.225 1268.07 -340.024 1238.43 -358.06 1215.43ZM-353.304 1290.69C-365.837 1285.39 -378.04 1279.38 -390.034 1272.98C-398.559 1268.43 -406.964 1263.68 -415.309 1258.86C-423.056 1254.37 -431.012 1250.01 -438.101 1244.56C-444.681 1239.48 -450.095 1233.41 -453.953 1226.05C-456.047 1222.07 -457.692 1217.85 -459.128 1213.58C-446.984 1194.19 -416.595 1198.98 -398.14 1205.08C-375.677 1212.53 -361.38 1231.52 -355.847 1254.02C-352.915 1265.98 -352.497 1278.39 -353.304 1290.69ZM-722.759 932.776C-723.327 917.94 -724.913 903.075 -727.784 888.508C-722.938 896.046 -718.033 903.524 -713.038 910.971C-701.253 928.559 -689.05 945.877 -676.487 962.896C-664.553 979.078 -652.23 995.199 -637.723 1009.2C-609.667 1036.27 -572.489 1051.28 -544.851 1078.8C-520.624 1102.91 -504.472 1133.77 -492.867 1165.63C-478.3 1205.62 -470.194 1247.46 -459.845 1288.62C-535.22 1244.26 -608.561 1196.47 -679.478 1145.29C-694.643 1134.34 -711.513 1123.43 -722.52 1107.99C-734.574 1091.15 -735.65 1071.71 -733.347 1051.7C-731.044 1031.57 -727.006 1011.71 -724.942 991.52C-722.968 972.019 -722.011 952.367 -722.759 932.776ZM-549.607 1319.49C-594.084 1295.5 -638.83 1271.93 -683.008 1247.4C-717.943 1228.02 -754.135 1205.59 -775.192 1170.47C-798.223 1132.07 -797.475 1085.65 -792.51 1042.58C-789.788 1018.92 -785.721 995.409 -782.311 971.839C-778.632 946.505 -775.162 921.141 -771.962 895.717C-769.24 874.211 -766.727 852.676 -764.364 831.11C-747.854 859.735 -740.077 892.427 -738.103 925.448C-736.937 945.009 -737.535 964.631 -739.27 984.132C-741.004 1003.87 -744.474 1023.32 -747.226 1042.94C-750.277 1064.47 -751.174 1086.7 -740.945 1106.59C-732.031 1123.9 -716.448 1136.53 -701.074 1147.92C-664.673 1174.9 -627.225 1200.59 -589.388 1225.51C-546.406 1253.84 -502.647 1280.96 -458.2 1306.9C-457.034 1307.58 -455.867 1307.88 -454.761 1307.94C-449.347 1327.56 -443.155 1346.98 -435.139 1365.82C-432.178 1372.82 -428.918 1379.7 -425.418 1386.49C-466.785 1364.21 -508.181 1341.83 -549.607 1319.49ZM-317.112 1464.82C-349.745 1457.29 -376.724 1433.54 -395.777 1406.68C-395.807 1406.59 -395.837 1406.5 -395.867 1406.41C-396.465 1405.57 -397.063 1404.76 -397.572 1403.93C-397.931 1403.36 -398.29 1402.73 -398.649 1402.1C-398.828 1401.95 -399.007 1401.8 -399.217 1401.68C-429.367 1356.34 -441.51 1303.13 -453.744 1250.58C-442.408 1261.37 -428.021 1268.91 -414.501 1276.54C-396.525 1286.74 -378.19 1296.31 -359.167 1304.38C-317.92 1321.82 -272.217 1331.45 -227.889 1322.09C-220.98 1356.07 -218.647 1392.68 -235.277 1424.03C-242.725 1438.05 -253.373 1450.5 -267.281 1458.42C-282.416 1467.1 -300.213 1468.71 -317.112 1464.82ZM-271.708 1488.45C-275.836 1486.42 -279.964 1484.39 -284.121 1482.38C-267.67 1477.69 -252.416 1468.95 -239.943 1457.23C-223.134 1441.43 -212.396 1420.29 -207.909 1397.76C-202.884 1372.61 -204.888 1346.92 -210.003 1321.91C-215.237 1296.34 -223.044 1271.15 -231.419 1246.45C-240.93 1218.39 -251.937 1190.87 -264.231 1163.92C-264.739 1162.85 -265.547 1162.04 -266.534 1161.44C-270.542 1152.83 -274.669 1144.3 -279.006 1135.87C-297.042 1098.45 -319.206 1063.13 -345.169 1030.52C-353.095 1020.56 -361.38 1010.93 -369.994 1001.54C-417.432 947.552 -465.588 890.901 -490.205 822.496C-517.812 745.775 -507.912 663.402 -482.039 587.698C-468.849 549.114 -452.039 511.307 -431.909 475.833C-413.215 442.872 -389.556 413.649 -360.064 389.781C-332.546 367.497 -300.572 350.388 -266.803 339.77C-229.564 328.075 -188.437 323.17 -150.63 335.194C-117.131 345.842 -90.5104 369.95 -68.8253 396.809C-45.2558 426.002 -26.4421 458.934 -6.73102 490.758L135.314 719.903L170.997 777.451C181.795 794.889 193.37 812.117 202.373 830.572C210.778 847.86 216.402 867.242 213.022 886.534C209.971 904.002 201.117 919.705 190.499 933.703C179.432 948.27 166.271 961.161 153.29 973.993C140.1 987.064 127.029 1000.25 114.108 1013.59C87.6966 1040.9 61.9735 1068.87 37.4169 1097.88C-10.9185 1154.98 -55.0366 1216.15 -89.0448 1282.94C-105.795 1315.84 -120.122 1350.06 -131.189 1385.32C-139.235 1410.96 -145.994 1437.34 -149.015 1464.11C-158.108 1444.4 -165.376 1424.03 -171.328 1403.27C-171.149 1402.58 -171.059 1401.83 -171.089 1401.03C-172.824 1365.58 -172.645 1330.08 -170.461 1294.66C-168.547 1263.56 -165.915 1232.03 -159.095 1201.55C-153.352 1175.8 -143.99 1149.72 -126.014 1129.83C-115.815 1118.55 -103.312 1110.3 -90.2711 1102.64C-77.2002 1094.95 -63.8303 1087.8 -50.3406 1080.92C3.07958 1053.67 59.102 1030.46 108.066 995.319C114.347 990.803 120.508 986.106 126.52 981.231C131.994 976.804 140.339 971.72 140.608 963.883C140.877 955.897 132.383 949.915 127.119 945.069C121.136 939.596 114.885 934.391 108.484 929.396C95.9818 919.735 82.4323 909.565 67.6864 903.583C65.2038 902.596 62.6913 901.908 60.1788 901.43C59.1918 879.296 57.7861 856.773 48.8727 836.165C41.2455 818.548 27.7558 803.264 9.54031 796.384C-11.4868 788.428 -34.8469 793.812 -55.6945 799.555C-78.3966 805.806 -100.949 812.715 -123.262 820.223C-131.757 823.064 -140.222 826.055 -148.656 829.076C-144.708 825.547 -140.969 821.778 -137.47 817.68C-123.92 801.947 -114.11 783.672 -106.154 764.589C-97.7487 744.459 -90.9292 723.432 -85.6949 702.256C-80.1016 679.584 -76.7217 656.014 -78.1873 632.624C-79.6529 609.802 -85.7545 587.669 -94.3688 566.552C-102.534 546.512 -112.345 527.07 -126.702 510.709C-138.397 497.369 -152.904 486.302 -168.637 478.166C-200.671 461.596 -238.418 456.122 -273.652 464.347C-293.274 468.924 -312.058 477.897 -329.226 488.306C-345.258 498.027 -360.214 509.632 -373.703 522.643C-400.742 548.755 -421.889 580.789 -435.229 615.904C-451.411 658.497 -455 705.337 -448.479 750.262C-445.249 772.486 -439.895 795.666 -429.935 815.886C-421.859 832.247 -408.579 843.822 -392.786 851.988C-392.577 852.107 -392.397 852.257 -392.158 852.377C-391.799 852.526 -391.44 852.676 -391.081 852.825C-389.496 853.603 -387.941 854.381 -386.325 855.098C-385.637 855.398 -384.92 855.667 -384.232 855.966C-384.172 855.876 -384.142 855.757 -384.082 855.667C-367.392 862.187 -350.223 867.182 -332.606 870.413C-332.726 870.652 -332.845 870.891 -332.965 871.13C-302.755 874.869 -271.499 873.164 -241.917 868.738C-229.983 866.943 -218.049 864.341 -206.473 860.692C-201.807 903.374 -198.308 946.206 -196.065 989.098C-194.898 1011.83 -194.06 1034.56 -193.582 1057.32C-193.133 1078.77 -191.997 1100.6 -193.881 1121.99C-194.778 1132.19 -196.932 1142.27 -200.91 1151.75C-204.739 1160.9 -209.584 1169.64 -212.844 1179.03C-219.784 1199.25 -216.254 1220.84 -214.011 1241.54C-209.644 1281.98 -204.888 1322.45 -196.752 1362.32C-187.719 1406.53 -174.23 1449.99 -152.964 1489.92C-152.365 1491.06 -151.588 1491.89 -150.75 1492.49C-150.75 1497.04 -150.66 1501.61 -150.391 1506.19C-150.152 1510.29 -149.763 1514.39 -149.314 1518.45C-149.314 1518.99 -149.285 1519.56 -149.195 1520.13C-149.105 1520.7 -148.985 1521.27 -148.896 1521.83C-147.968 1529.4 -146.682 1536.91 -145.067 1544.36C-145.067 1544.98 -145.037 1545.64 -144.888 1546.33C-144.349 1548.9 -143.661 1551.45 -142.884 1553.99C-185.536 1531.7 -228.517 1509.84 -271.708 1488.45ZM-107.559 578.994C-109.264 596.103 -119.972 610.7 -130.83 623.352C-143.033 637.589 -156.433 650.869 -166.483 666.812C-186.254 698.248 -194.39 737.071 -189.843 773.831C-187.45 793.154 -181.917 811.818 -172.914 829.046C-187.6 838.618 -203.961 845.078 -220.92 849.385C-238.627 853.902 -256.783 856.145 -275.028 857.222C-290.731 858.149 -306.584 858.329 -322.317 857.072C-343.643 853.723 -364.67 847.92 -384.561 839.485C-384.71 839.425 -384.89 839.365 -385.069 839.306C-391.41 836.135 -397.422 832.367 -402.716 827.641C-417.881 814.031 -423.714 793.244 -428.529 774.131C-439.207 731.777 -439.596 686.613 -428.559 644.289C-410.613 575.465 -360.483 516.392 -295.457 487.528C-263.932 473.53 -228.966 471.975 -196.214 482.742C-180.84 487.797 -166.064 495.574 -153.502 505.774C-139.235 517.349 -128.168 531.556 -119.494 547.738C-114.648 556.741 -110.341 566.133 -106.632 575.734C-107.111 576.721 -107.44 577.828 -107.559 578.994ZM-98.4665 601.098C-98.0477 602.714 -97.6291 604.299 -97.2402 605.914C-92.2452 627.061 -91.6769 648.806 -94.6081 670.311C-97.6291 692.355 -103.85 713.951 -110.969 734.978C-116.981 752.805 -123.95 770.392 -133.552 786.633C-140.91 799.076 -149.943 810.502 -160.83 819.954C-175.546 790.522 -179.674 756.154 -173.153 723.911C-169.594 706.353 -163.133 689.544 -153.562 674.379C-144.02 659.185 -131.099 646.682 -119.524 633.073C-111.089 623.172 -103.491 612.704 -98.4665 601.098ZM-66.9409 818.309C-47.6486 812.715 -26.7411 805.268 -6.34217 807.78C11.1256 809.934 24.346 821.539 32.5415 836.584C43.2196 856.145 44.2664 879.206 45.2235 901.011C35.8017 901.998 26.3799 904.84 17.4068 907.023C-46.512 922.666 -108.606 945.697 -167.351 975.339C-172.076 977.732 -176.772 980.244 -181.468 982.727C-183.711 942.168 -187.002 901.669 -191.399 861.26C-150.66 844.899 -109.145 830.512 -66.9409 818.309ZM-190.382 1164.82C-185.925 1155.19 -182.276 1145.41 -180.511 1134.91C-176.922 1113.79 -177.999 1092.05 -178.328 1070.72C-178.657 1048.47 -179.345 1026.22 -180.362 1003.99C-180.421 1002.38 -180.541 1000.76 -180.631 999.177C-124.608 968.998 -65.2959 945.099 -3.97931 928.08C11.5443 923.773 27.1875 919.615 43.0102 916.505C50.9963 914.919 58.2047 915.248 65.5627 918.927C72.3224 922.307 78.7532 926.525 85.0045 930.742C97.9857 939.476 110.159 949.346 121.435 960.204C122.303 961.041 123.38 962.417 124.427 963.315C123.499 964.062 122.572 965.109 121.765 965.827C120.179 967.173 118.564 968.519 116.949 969.865C111.445 974.352 105.822 978.659 100.05 982.786C52.0731 1017.12 -2.66326 1040.06 -55.0366 1066.6C-68.1673 1073.27 -81.2081 1080.15 -93.9799 1087.53C-107.23 1095.16 -120.391 1103.3 -131.428 1113.97C-150.989 1132.88 -162.864 1158.18 -170.102 1184.05C-178.088 1212.56 -181.169 1242.41 -183.682 1271.81C-185.446 1292.21 -186.523 1312.64 -186.942 1333.1C-191.488 1306.42 -194.778 1279.53 -197.74 1252.85C-198.846 1242.83 -200.013 1232.81 -200.97 1222.76C-201.957 1212.65 -202.765 1202.18 -200.79 1192.13C-198.906 1182.41 -194.509 1173.71 -190.382 1164.82ZM162.742 1440.27C137.109 1472.96 110.219 1505.32 79.9796 1533.86C52.1029 1560.18 19.8295 1584.17 -17.5586 1594.73C-41.7562 1601.58 -72.1453 1603.4 -95.5054 1591.53C-96.0438 1590.84 -96.7018 1590.18 -97.5393 1589.64C-109.833 1581.89 -118.866 1571.63 -124.399 1558.15C-128.527 1548.04 -130.919 1537.33 -132.864 1526.59C-137.32 1495.96 -135.645 1464.91 -128.856 1434.08C-126.642 1424.03 -124.1 1414.01 -121.258 1404.08C-114.917 1425.1 -99.8724 1443.56 -81.1484 1454.98C-51.208 1473.26 -13.1617 1473.74 19.8894 1464.67C55.1539 1454.98 86.7095 1435.12 116.889 1415.05C147.129 1394.95 176.292 1373.18 204.198 1349.97C222.473 1334.74 240.21 1318.86 257.349 1302.38C250.529 1313.63 243.62 1324.84 236.501 1335.91C213.53 1371.8 189.033 1406.74 162.742 1440.27ZM591.928 948.928C591.599 997.742 588.159 1047.18 571.439 1093.46C564.111 1113.76 554.121 1133.21 541.29 1150.61C527.74 1168.98 510.452 1183.93 491.877 1197.04C471.06 1211.72 449.404 1225.27 428.108 1239.21C406.064 1253.66 384.02 1268.1 361.946 1282.52C321.029 1309.29 279.961 1335.91 237.967 1360.98C257.708 1331.12 276.312 1300.53 293.989 1269.45C352.973 1221.26 411.956 1173.08 470.94 1124.89C497.979 1102.79 526.962 1081.58 549.365 1054.51C560.133 1041.5 569.136 1027.23 574.969 1011.32C581.609 993.195 583.105 973.544 582.955 954.371C582.776 931.639 581.37 908.877 580.442 886.175C579.515 862.965 578.558 839.784 577.631 816.574C577.601 815.826 577.451 815.168 577.272 814.54C578.498 813.014 579.754 811.549 580.951 809.993C582.357 808.169 583.763 806.314 585.138 804.43C588.967 826.504 590.433 848.907 591.12 871.28C591.838 897.182 592.108 923.085 591.928 948.928ZM507.102 931.58C514.31 913.274 519.993 894.401 524.151 875.198C524.36 874.211 524.36 873.314 524.241 872.447C537.341 858.748 550.652 845.258 563.244 831.11C564.739 867.093 566.295 903.045 567.611 939.027C568.299 957.721 568.658 976.774 564.231 995.08C560.432 1010.81 552.955 1025.11 543.383 1038.06C523.104 1065.46 494.599 1086.34 468.457 1107.69C436.842 1133.51 405.256 1159.32 373.641 1185.13C353.601 1201.49 333.561 1217.85 313.521 1234.24C328.596 1206.37 342.983 1178.1 356.742 1149.57C365.117 1132.19 373.163 1114.66 381.238 1097.1C381.508 1096.95 381.777 1096.87 382.016 1096.66C438.098 1054.36 481.409 996.934 507.102 931.58ZM395.416 1066.57C402.445 1051.64 409.623 1036.8 417.191 1022.18C438.308 981.411 463.253 942.766 492.565 907.412C496.244 902.985 500.013 898.648 503.872 894.371C487.57 951.081 457.45 1003.57 416.563 1046.23C409.803 1053.29 402.744 1060.08 395.416 1066.57ZM581.489 783.702C558.428 819.355 525.736 847.352 497.59 878.788C468.398 911.39 442.495 947.013 420.571 984.88C397.54 1024.66 379.055 1066.8 359.733 1108.47C336.821 1157.85 312.325 1206.52 285.674 1253.99C284.508 1254.28 283.341 1254.91 282.294 1256.05C235.006 1306.24 182.603 1351.55 125.952 1390.89C97.8959 1410.36 68.7033 1430.37 36.8486 1443.17C6.60909 1455.31 -27.6385 1460.61 -58.9549 1449.18C-88.3868 1438.44 -111.807 1409.58 -109.384 1377.34C-109.234 1375.48 -110.012 1373.81 -111.238 1372.46C-105.466 1355.86 -99.0049 1339.53 -91.8862 1323.53C-84.4983 1306.96 -76.4524 1290.69 -67.8382 1274.74C-47.7383 1323.56 7.56622 1349.82 58.7132 1349.91C93.1103 1349.97 126.79 1340.4 158.345 1327.36C174.258 1320.78 189.99 1313.6 205.215 1305.52C219.632 1297.89 233.6 1289.04 245.385 1277.7C260.878 1262.84 271.317 1244.29 279.782 1224.79C280.35 1223.98 280.769 1223.06 280.948 1222.07C284.897 1212.71 288.426 1203.14 291.836 1193.72C304.129 1159.71 315.256 1125.28 325.485 1090.58C335.804 1055.65 345.256 1020.47 354.199 985.179C358.626 967.652 362.933 950.064 367.15 932.477C371.099 916.086 374.479 899.396 380.311 883.543C385.755 868.768 394.07 855.906 405.526 845.108C417.221 834.101 430.77 825.308 443.931 816.245C474.828 795.008 505.696 773.742 536.594 752.505C544.161 747.301 551.728 742.097 559.296 736.892C560.791 735.875 561.898 734.41 562.466 732.824C573.593 727.5 583.374 718.946 591.001 708.657C596.475 701.269 600.752 693.133 604.431 684.698C612.417 718.467 599.854 755.257 581.489 783.702ZM632.576 503.799C626.864 558.386 615.318 612.614 596.564 664.269C588.608 686.194 577.631 709.345 555.467 719.903C536.055 729.175 515.058 720.561 500.91 706.174C538.089 650.062 559.086 583.601 561.539 516.392C562.167 499.582 561.599 482.742 559.774 466.022C557.92 448.734 554.749 431.296 546.285 415.892C538.717 402.104 522.805 389.093 506.533 396.75C498.727 400.429 493.044 408.355 488.348 415.324C483.532 422.443 479.644 430.1 476.204 437.936C464.21 465.125 455.446 493.6 449.524 522.673C439.683 487.887 427.6 453.759 413.781 420.349C394.1 372.911 371.099 326.939 345.794 282.282C327.938 250.786 308.975 219.919 289.264 189.56C301.557 197.217 314.418 203.976 327.878 209.629C352.345 219.949 377.918 226.17 404.18 229.819C454.25 236.788 507.221 236.31 554.031 257.756C574.281 267.028 592.796 280.308 605.926 298.494C618.758 316.231 626.505 336.839 631.081 358.135C635.807 380.09 637.123 402.612 637.063 425.015C636.973 451.336 635.328 477.658 632.576 503.799Z" fill="black"/>
</svg>
