<svg width="65" height="65" viewBox="0 0 65 65" fill="none" xmlns="http://www.w3.org/2000/svg">
<path d="M24.375 39.6094C26.0577 39.6094 27.4219 38.2452 27.4219 36.5625C27.4219 34.8798 26.0577 33.5156 24.375 33.5156C22.6923 33.5156 21.3281 34.8798 21.3281 36.5625C21.3281 38.2452 22.6923 39.6094 24.375 39.6094Z" fill="black"/>
<path d="M40.625 39.6094C42.3077 39.6094 43.6719 38.2452 43.6719 36.5625C43.6719 34.8798 42.3077 33.5156 40.625 33.5156C38.9423 33.5156 37.5781 34.8798 37.5781 36.5625C37.5781 38.2452 38.9423 39.6094 40.625 39.6094Z" fill="black"/>
<path d="M18.8911 20.3118C23.2945 18.9317 27.886 18.2464 32.5005 18.2805C37.1149 18.2464 41.7065 18.9317 46.1098 20.3118" stroke="black" stroke-width="4" stroke-linecap="round" stroke-linejoin="round"/>
<path d="M46.1098 44.6875C41.7065 46.0676 37.1149 46.7529 32.5005 46.7187C27.886 46.7529 23.2945 46.0676 18.8911 44.6875" stroke="black" stroke-width="4" stroke-linecap="round" stroke-linejoin="round"/>
<path d="M39.355 46.2351L42.4273 52.3289C42.625 52.7444 42.9612 53.0782 43.3782 53.2728C43.7952 53.4674 44.267 53.5107 44.7124 53.3953C50.9331 51.8718 56.3159 49.2312 60.2261 45.8289C60.5209 45.5688 60.735 45.2297 60.843 44.8517C60.951 44.4737 60.9484 44.0726 60.8355 43.6961L52.2281 14.9539C52.1443 14.6597 51.9927 14.3893 51.7854 14.1644C51.5782 13.9395 51.321 13.7664 51.0347 13.6589C48.6029 12.6613 46.088 11.8796 43.5191 11.323C43.0254 11.2149 42.5092 11.2923 42.069 11.5405C41.6288 11.7887 41.2953 12.1903 41.1324 12.6687L39.1265 18.7371" stroke="black" stroke-width="3" stroke-linecap="round" stroke-linejoin="round"/>
<path d="M25.6443 46.2351L22.5721 52.3289C22.3744 52.7444 22.0382 53.0782 21.6212 53.2728C21.2041 53.4674 20.7324 53.5107 20.2869 53.3953C14.0662 51.8718 8.68339 49.2312 4.77324 45.8289C4.47845 45.5688 4.26437 45.2297 4.15637 44.8517C4.04837 44.4737 4.05097 44.0726 4.16386 43.6961L12.7713 14.9539C12.8551 14.6597 13.0067 14.3893 13.2139 14.1644C13.4212 13.9395 13.6783 13.7664 13.9646 13.6589C16.3965 12.6613 18.9114 11.8796 21.4803 11.323C21.9739 11.2149 22.4901 11.2923 22.9304 11.5405C23.3706 11.7887 23.704 12.1903 23.867 12.6687L25.8728 18.7371" stroke="black" stroke-width="3" stroke-linecap="round" stroke-linejoin="round"/>
<path d="M24.375 39.6094C26.0577 39.6094 27.4219 38.2452 27.4219 36.5625C27.4219 34.8798 26.0577 33.5156 24.375 33.5156C22.6923 33.5156 21.3281 34.8798 21.3281 36.5625C21.3281 38.2452 22.6923 39.6094 24.375 39.6094Z" fill="black"/>
<path d="M40.625 39.6094C42.3077 39.6094 43.6719 38.2452 43.6719 36.5625C43.6719 34.8798 42.3077 33.5156 40.625 33.5156C38.9423 33.5156 37.5781 34.8798 37.5781 36.5625C37.5781 38.2452 38.9423 39.6094 40.625 39.6094Z" fill="black"/>
<path d="M18.8911 20.3118C23.2945 18.9317 27.886 18.2464 32.5005 18.2805C37.1149 18.2464 41.7065 18.9317 46.1098 20.3118" stroke="black" stroke-width="3" stroke-linecap="round" stroke-linejoin="round"/>
<path d="M46.1098 44.6875C41.7065 46.0676 37.1149 46.7529 32.5005 46.7187C27.886 46.7529 23.2945 46.0676 18.8911 44.6875" stroke="black" stroke-width="3" stroke-linecap="round" stroke-linejoin="round"/>
<path d="M39.355 46.2351L42.4273 52.3289C42.625 52.7444 42.9612 53.0782 43.3782 53.2728C43.7952 53.4674 44.267 53.5107 44.7124 53.3953C50.9331 51.8718 56.3159 49.2312 60.2261 45.8289C60.5209 45.5688 60.735 45.2297 60.843 44.8517C60.951 44.4737 60.9484 44.0726 60.8355 43.6961L52.2281 14.9539C52.1443 14.6597 51.9927 14.3893 51.7854 14.1644C51.5782 13.9395 51.321 13.7664 51.0347 13.6589C48.6029 12.6613 46.088 11.8796 43.5191 11.323C43.0254 11.2149 42.5092 11.2923 42.069 11.5405C41.6288 11.7887 41.2953 12.1903 41.1324 12.6687L39.1265 18.7371" stroke="black" stroke-width="3" stroke-linecap="round" stroke-linejoin="round"/>
<path d="M25.6443 46.2351L22.5721 52.3289C22.3744 52.7444 22.0382 53.0782 21.6212 53.2728C21.2041 53.4674 20.7324 53.5107 20.2869 53.3953C14.0662 51.8718 8.68339 49.2312 4.77324 45.8289C4.47845 45.5688 4.26437 45.2297 4.15637 44.8517C4.04837 44.4737 4.05097 44.0726 4.16386 43.6961L12.7713 14.9539C12.8551 14.6597 13.0067 14.3893 13.2139 14.1644C13.4212 13.9395 13.6783 13.7664 13.9646 13.6589C16.3965 12.6613 18.9114 11.8796 21.4803 11.323C21.9739 11.2149 22.4901 11.2923 22.9304 11.5405C23.3706 11.7887 23.704 12.1903 23.867 12.6687L25.8728 18.7371" stroke="black" stroke-width="3" stroke-linecap="round" stroke-linejoin="round"/>
</svg>
