<svg width="65" height="65" viewBox="0 0 65 65" fill="none" xmlns="http://www.w3.org/2000/svg">
<path d="M24.375 39.6094C26.0577 39.6094 27.4219 38.2452 27.4219 36.5625C27.4219 34.8798 26.0577 33.5156 24.375 33.5156C22.6923 33.5156 21.3281 34.8798 21.3281 36.5625C21.3281 38.2452 22.6923 39.6094 24.375 39.6094Z" fill="white"/>
<path d="M40.625 39.6094C42.3077 39.6094 43.6719 38.2452 43.6719 36.5625C43.6719 34.8798 42.3077 33.5156 40.625 33.5156C38.9423 33.5156 37.5781 34.8798 37.5781 36.5625C37.5781 38.2452 38.9423 39.6094 40.625 39.6094Z" fill="white"/>
<path d="M18.8911 20.3118C23.2945 18.9317 27.886 18.2464 32.5005 18.2805C37.1149 18.2464 41.7065 18.9317 46.1099 20.3118" stroke="white" stroke-width="4" stroke-linecap="round" stroke-linejoin="round"/>
<path d="M46.1099 44.6875C41.7065 46.0676 37.1149 46.7529 32.5005 46.7187C27.886 46.7529 23.2945 46.0676 18.8911 44.6875" stroke="white" stroke-width="4" stroke-linecap="round" stroke-linejoin="round"/>
<path d="M39.355 46.2351L42.4272 52.3289C42.6249 52.7444 42.9611 53.0782 43.3782 53.2728C43.7952 53.4674 44.2669 53.5107 44.7124 53.3953C50.9331 51.8718 56.3159 49.2312 60.2261 45.8289C60.5209 45.5688 60.7349 45.2297 60.8429 44.8517C60.9509 44.4737 60.9483 44.0726 60.8354 43.6961L52.228 14.9539C52.1443 14.6597 51.9926 14.3893 51.7854 14.1644C51.5781 13.9395 51.321 13.7664 51.0347 13.6589C48.6029 12.6613 46.0879 11.8796 43.519 11.323C43.0254 11.2149 42.5092 11.2923 42.069 11.5405C41.6287 11.7887 41.2953 12.1903 41.1323 12.6687L39.1265 18.7371" stroke="white" stroke-width="3" stroke-linecap="round" stroke-linejoin="round"/>
<path d="M25.6442 46.2351L22.572 52.3289C22.3743 52.7444 22.0381 53.0782 21.6211 53.2728C21.2041 53.4674 20.7323 53.5107 20.2868 53.3953C14.0661 51.8718 8.6833 49.2312 4.77315 45.8289C4.47835 45.5688 4.26428 45.2297 4.15628 44.8517C4.04828 44.4737 4.05088 44.0726 4.16377 43.6961L12.7712 14.9539C12.855 14.6597 13.0066 14.3893 13.2138 14.1644C13.4211 13.9395 13.6782 13.7664 13.9646 13.6589C16.3964 12.6613 18.9113 11.8796 21.4802 11.323C21.9738 11.2149 22.49 11.2923 22.9303 11.5405C23.3705 11.7887 23.7039 12.1903 23.8669 12.6687L25.8728 18.7371" stroke="white" stroke-width="3" stroke-linecap="round" stroke-linejoin="round"/>
<path d="M24.375 39.6094C26.0577 39.6094 27.4219 38.2452 27.4219 36.5625C27.4219 34.8798 26.0577 33.5156 24.375 33.5156C22.6923 33.5156 21.3281 34.8798 21.3281 36.5625C21.3281 38.2452 22.6923 39.6094 24.375 39.6094Z" fill="white"/>
<path d="M40.625 39.6094C42.3077 39.6094 43.6719 38.2452 43.6719 36.5625C43.6719 34.8798 42.3077 33.5156 40.625 33.5156C38.9423 33.5156 37.5781 34.8798 37.5781 36.5625C37.5781 38.2452 38.9423 39.6094 40.625 39.6094Z" fill="white"/>
<path d="M18.8911 20.3118C23.2945 18.9317 27.886 18.2464 32.5005 18.2805C37.1149 18.2464 41.7065 18.9317 46.1099 20.3118" stroke="white" stroke-width="3" stroke-linecap="round" stroke-linejoin="round"/>
<path d="M46.1099 44.6875C41.7065 46.0676 37.1149 46.7529 32.5005 46.7187C27.886 46.7529 23.2945 46.0676 18.8911 44.6875" stroke="white" stroke-width="3" stroke-linecap="round" stroke-linejoin="round"/>
<g filter="url(#filter0_d_8018_5439)">
<path d="M39.355 46.2351L42.4272 52.3289C42.6249 52.7444 42.9611 53.0782 43.3782 53.2728C43.7952 53.4674 44.2669 53.5107 44.7124 53.3953C50.9331 51.8718 56.3159 49.2312 60.2261 45.8289C60.5209 45.5688 60.7349 45.2297 60.8429 44.8517C60.9509 44.4737 60.9483 44.0726 60.8354 43.6961L52.228 14.9539C52.1443 14.6597 51.9926 14.3893 51.7854 14.1644C51.5781 13.9395 51.321 13.7664 51.0347 13.6589C48.6029 12.6613 46.0879 11.8796 43.519 11.323C43.0254 11.2149 42.5092 11.2923 42.069 11.5405C41.6287 11.7887 41.2953 12.1903 41.1323 12.6687L39.1265 18.7371" stroke="white" stroke-width="3" stroke-linecap="round" stroke-linejoin="round" shape-rendering="crispEdges"/>
</g>
<g filter="url(#filter1_d_8018_5439)">
<path d="M25.6442 46.2351L22.572 52.3289C22.3743 52.7444 22.0381 53.0782 21.6211 53.2728C21.2041 53.4674 20.7323 53.5107 20.2868 53.3953C14.0661 51.8718 8.6833 49.2312 4.77315 45.8289C4.47835 45.5688 4.26428 45.2297 4.15628 44.8517C4.04828 44.4737 4.05088 44.0726 4.16377 43.6961L12.7712 14.9539C12.855 14.6597 13.0066 14.3893 13.2138 14.1644C13.4211 13.9395 13.6782 13.7664 13.9646 13.6589C16.3964 12.6613 18.9113 11.8796 21.4802 11.323C21.9738 11.2149 22.49 11.2923 22.9303 11.5405C23.3705 11.7887 23.7039 12.1903 23.8669 12.6687L25.8728 18.7371" stroke="white" stroke-width="3" stroke-linecap="round" stroke-linejoin="round" shape-rendering="crispEdges"/>
</g>
<defs>
<filter id="filter0_d_8018_5439" x="37.626" y="9.77539" width="24.7961" height="46.1836" filterUnits="userSpaceOnUse" color-interpolation-filters="sRGB">
<feFlood flood-opacity="0" result="BackgroundImageFix"/>
<feColorMatrix in="SourceAlpha" type="matrix" values="0 0 0 0 0 0 0 0 0 0 0 0 0 0 0 0 0 0 127 0" result="hardAlpha"/>
<feOffset dy="1"/>
<feComposite in2="hardAlpha" operator="out"/>
<feColorMatrix type="matrix" values="0 0 0 0 0 0 0 0 0 0 0 0 0 0 0 0 0 0 0.25 0"/>
<feBlend mode="normal" in2="BackgroundImageFix" result="effect1_dropShadow_8018_5439"/>
<feBlend mode="normal" in="SourceGraphic" in2="effect1_dropShadow_8018_5439" result="shape"/>
</filter>
<filter id="filter1_d_8018_5439" x="2.57715" y="9.77539" width="24.7959" height="46.1836" filterUnits="userSpaceOnUse" color-interpolation-filters="sRGB">
<feFlood flood-opacity="0" result="BackgroundImageFix"/>
<feColorMatrix in="SourceAlpha" type="matrix" values="0 0 0 0 0 0 0 0 0 0 0 0 0 0 0 0 0 0 127 0" result="hardAlpha"/>
<feOffset dy="1"/>
<feComposite in2="hardAlpha" operator="out"/>
<feColorMatrix type="matrix" values="0 0 0 0 0 0 0 0 0 0 0 0 0 0 0 0 0 0 0.25 0"/>
<feBlend mode="normal" in2="BackgroundImageFix" result="effect1_dropShadow_8018_5439"/>
<feBlend mode="normal" in="SourceGraphic" in2="effect1_dropShadow_8018_5439" result="shape"/>
</filter>
</defs>
</svg>
