<svg width="370" height="314" viewBox="0 0 370 314" fill="none" xmlns="http://www.w3.org/2000/svg">
<path d="M75.0108 255.031L144.333 255.031C144.415 255.031 144.494 255.064 144.552 255.122C144.61 255.18 144.643 255.258 144.643 255.34L144.643 313.59C144.641 313.672 144.608 313.749 144.55 313.807C144.493 313.865 144.415 313.898 144.333 313.899L75.0108 313.899C74.9288 313.899 74.8502 313.867 74.7922 313.809C74.7342 313.751 74.7017 313.672 74.7017 313.59L74.7017 255.34C74.7017 255.258 74.7342 255.18 74.7922 255.122C74.8502 255.064 74.9288 255.031 75.0108 255.031ZM144.024 255.649L75.3199 255.649L75.3199 313.281L144.024 313.281L144.024 255.649Z" fill="white"/>
<path d="M0.309211 255.031L69.6257 255.031C69.7077 255.031 69.7863 255.064 69.8443 255.122C69.9022 255.18 69.9348 255.258 69.9348 255.34L69.9348 313.59C69.9348 313.672 69.9022 313.751 69.8443 313.809C69.7863 313.867 69.7077 313.899 69.6257 313.899L0.309204 313.899C0.227226 313.899 0.148582 313.867 0.0906143 313.809C0.0326386 313.751 9.15792e-05 313.672 9.15887e-05 313.59L9.83751e-05 255.34C9.83846e-05 255.258 0.0326454 255.18 0.0906212 255.122C0.148589 255.064 0.227233 255.031 0.309211 255.031ZM69.3166 255.649L0.618331 255.649L0.618324 313.281L69.3166 313.281L69.3166 255.649Z" fill="white"/>
<path d="M75.0108 191L144.333 191C144.415 191 144.494 191.032 144.552 191.09C144.61 191.148 144.643 191.227 144.643 191.309L144.643 249.559C144.641 249.641 144.608 249.718 144.55 249.776C144.493 249.834 144.415 249.867 144.333 249.868L75.0108 249.868C74.9288 249.868 74.8502 249.836 74.7922 249.778C74.7342 249.72 74.7016 249.641 74.7016 249.559L74.7017 191.309C74.7017 191.227 74.7342 191.148 74.7922 191.09C74.8502 191.032 74.9288 191 75.0108 191ZM144.024 191.618L75.3199 191.618L75.3199 249.25L144.024 249.25L144.024 191.618Z" fill="white"/>
<path d="M0.309211 191L69.6257 191C69.7077 191 69.7863 191.032 69.8443 191.09C69.9022 191.148 69.9348 191.227 69.9348 191.309L69.9348 249.559C69.9348 249.641 69.9022 249.72 69.8443 249.778C69.7863 249.836 69.7077 249.868 69.6257 249.868L0.309204 249.868C0.227226 249.868 0.148582 249.836 0.0906143 249.778C0.0326386 249.72 9.15792e-05 249.641 9.15887e-05 249.559L9.83751e-05 191.309C9.83846e-05 191.227 0.0326454 191.148 0.0906212 191.09C0.148589 191.032 0.227233 191 0.309211 191ZM69.3166 191.618L0.618331 191.618L0.618324 249.25L69.3166 249.25L69.3166 191.618Z" fill="white"/>
<path d="M44.507 267.699C44.5885 267.7 44.6663 267.733 44.7233 267.792C44.7804 267.85 44.8123 267.929 44.8123 268.011C44.8123 268.093 44.7804 268.172 44.7233 268.23L8.92755 304.026C8.89872 304.055 8.86449 304.078 8.82684 304.094C8.78918 304.109 8.74883 304.117 8.70807 304.117C8.66731 304.117 8.62694 304.109 8.58928 304.094C8.55162 304.078 8.51741 304.055 8.48859 304.026C8.45977 303.997 8.4369 303.963 8.42131 303.926C8.40571 303.888 8.39769 303.848 8.39769 303.807C8.39769 303.766 8.40571 303.726 8.42131 303.688C8.4369 303.65 8.45977 303.616 8.48859 303.587L44.2844 267.792C44.3434 267.732 44.4234 267.699 44.507 267.699Z" fill="white"/>
<path d="M47.3938 270.148C47.4343 270.147 47.4745 270.155 47.5118 270.171C47.5491 270.187 47.5826 270.211 47.6102 270.241C47.6398 270.268 47.6633 270.302 47.6794 270.339C47.6956 270.376 47.7039 270.416 47.7039 270.457C47.7039 270.498 47.6956 270.538 47.6794 270.575C47.6633 270.612 47.6398 270.646 47.6102 270.673L37.3846 280.905C37.3264 280.963 37.2474 280.996 37.1651 280.996C37.0828 280.996 37.0038 280.963 36.9456 280.905C36.8874 280.847 36.8547 280.768 36.8547 280.686C36.8547 280.603 36.8874 280.524 36.9456 280.466L47.1774 270.241C47.2055 270.212 47.2391 270.188 47.2762 270.172C47.3134 270.156 47.3534 270.148 47.3938 270.148Z" fill="white"/>
<path d="M106.534 292.379C106.575 292.378 106.615 292.386 106.652 292.402C106.69 292.418 106.723 292.442 106.751 292.471C106.78 292.5 106.803 292.534 106.818 292.572C106.834 292.61 106.842 292.65 106.842 292.691C106.842 292.732 106.834 292.772 106.818 292.81C106.803 292.847 106.78 292.881 106.751 292.91L95.1899 304.471C95.1321 304.528 95.0544 304.56 94.9735 304.56C94.8926 304.56 94.8149 304.528 94.7571 304.471C94.7281 304.442 94.7051 304.408 94.6894 304.371C94.6738 304.333 94.6657 304.293 94.6657 304.252C94.6657 304.211 94.6738 304.171 94.6894 304.133C94.7051 304.095 94.7281 304.061 94.7571 304.032L106.318 292.471C106.346 292.442 106.379 292.418 106.416 292.402C106.454 292.386 106.494 292.378 106.534 292.379Z" fill="white"/>
<path d="M91.4188 306.61C91.499 306.612 91.5758 306.643 91.6352 306.697C91.6922 306.755 91.7241 306.834 91.7241 306.916C91.7241 306.998 91.6922 307.077 91.6352 307.135L88.7419 310.029C88.6841 310.085 88.6064 310.117 88.5255 310.117C88.4446 310.117 88.3669 310.085 88.3091 310.029C88.2801 310 88.2571 309.966 88.2414 309.928C88.2257 309.891 88.2177 309.85 88.2177 309.809C88.2177 309.769 88.2257 309.728 88.2414 309.69C88.2571 309.653 88.2801 309.619 88.3091 309.59L91.1962 306.697C91.2572 306.641 91.3365 306.61 91.4188 306.61Z" fill="white"/>
<path d="M36.7234 213.676C36.8039 213.677 36.8811 213.708 36.9398 213.763C36.9688 213.792 36.9918 213.826 37.0075 213.863C37.0232 213.901 37.0313 213.941 37.0313 213.982C37.0313 214.023 37.0232 214.064 37.0075 214.101C36.9918 214.139 36.9688 214.173 36.9398 214.202L20.9337 230.208C20.905 230.237 20.8708 230.26 20.8331 230.276C20.7954 230.291 20.755 230.299 20.7142 230.299C20.6734 230.299 20.633 230.291 20.5954 230.276C20.5577 230.26 20.5235 230.237 20.4948 230.208C20.4381 230.15 20.4064 230.072 20.4064 229.991C20.4064 229.911 20.4381 229.833 20.4948 229.775L36.5071 213.763C36.5664 213.709 36.6433 213.678 36.7234 213.676Z" fill="white"/>
<path d="M46.2815 204.114C46.3651 204.114 46.4451 204.148 46.5041 204.207C46.5611 204.266 46.593 204.344 46.593 204.426C46.593 204.508 46.5611 204.587 46.5041 204.646L40.7236 210.426C40.6648 210.483 40.5861 210.515 40.5041 210.515C40.4222 210.515 40.3435 210.483 40.2846 210.426C40.2557 210.397 40.2327 210.363 40.217 210.326C40.2013 210.288 40.1932 210.248 40.1932 210.207C40.1932 210.166 40.2013 210.126 40.217 210.088C40.2327 210.05 40.2557 210.016 40.2846 209.987L46.0651 204.207C46.0932 204.178 46.1268 204.154 46.164 204.139C46.2011 204.123 46.2411 204.114 46.2815 204.114Z" fill="white"/>
<path d="M50.5104 218.567C50.5709 218.568 50.6298 218.587 50.6799 218.621C50.7299 218.655 50.7689 218.703 50.7919 218.759C50.8149 218.815 50.8211 218.876 50.8095 218.936C50.7979 218.995 50.7691 219.05 50.7268 219.093L44.9463 224.873C44.9176 224.902 44.8834 224.925 44.8457 224.941C44.808 224.957 44.7676 224.965 44.7268 224.965C44.686 224.965 44.6456 224.957 44.608 224.941C44.5703 224.925 44.5361 224.902 44.5074 224.873C44.4503 224.815 44.4184 224.736 44.4184 224.654C44.4184 224.572 44.4503 224.493 44.5074 224.434L50.2878 218.66C50.3468 218.601 50.4269 218.568 50.5104 218.567Z" fill="white"/>
<path d="M225.011 255.031L294.333 255.031C294.415 255.031 294.494 255.064 294.552 255.122C294.61 255.18 294.643 255.258 294.643 255.34L294.643 313.59C294.641 313.672 294.608 313.749 294.55 313.807C294.493 313.865 294.415 313.898 294.333 313.899L225.011 313.899C224.929 313.899 224.85 313.867 224.792 313.809C224.734 313.751 224.702 313.672 224.702 313.59L224.702 255.34C224.702 255.258 224.734 255.18 224.792 255.122C224.85 255.064 224.929 255.031 225.011 255.031ZM294.024 255.649L225.32 255.649L225.32 313.281L294.024 313.281L294.024 255.649Z" fill="white"/>
<path d="M150.309 255.031L219.626 255.031C219.708 255.031 219.786 255.064 219.844 255.122C219.902 255.18 219.935 255.258 219.935 255.34L219.935 313.59C219.935 313.672 219.902 313.751 219.844 313.809C219.786 313.867 219.708 313.899 219.626 313.899L150.309 313.899C150.227 313.899 150.149 313.867 150.091 313.809C150.033 313.751 150 313.672 150 313.59L150 255.34C150 255.258 150.033 255.18 150.091 255.122C150.149 255.064 150.227 255.031 150.309 255.031ZM219.317 255.649L150.618 255.649L150.618 313.281L219.317 313.281L219.317 255.649Z" fill="white"/>
<path d="M225.011 191L294.333 191C294.415 191 294.494 191.032 294.552 191.09C294.61 191.148 294.643 191.227 294.643 191.309L294.643 249.559C294.641 249.641 294.608 249.718 294.55 249.776C294.493 249.834 294.415 249.867 294.333 249.868L225.011 249.868C224.929 249.868 224.85 249.836 224.792 249.778C224.734 249.72 224.702 249.641 224.702 249.559L224.702 191.309C224.702 191.227 224.734 191.148 224.792 191.09C224.85 191.032 224.929 191 225.011 191ZM294.024 191.618L225.32 191.618L225.32 249.25L294.024 249.25L294.024 191.618Z" fill="white"/>
<path d="M300.011 255L369.333 255C369.415 255 369.494 255.032 369.552 255.09C369.61 255.148 369.643 255.227 369.643 255.309L369.643 313.559C369.641 313.641 369.608 313.718 369.55 313.776C369.493 313.834 369.415 313.867 369.333 313.868L300.011 313.868C299.929 313.868 299.85 313.836 299.792 313.778C299.734 313.72 299.702 313.641 299.702 313.559L299.702 255.309C299.702 255.227 299.734 255.148 299.792 255.09C299.85 255.032 299.929 255 300.011 255ZM369.024 255.618L300.32 255.618L300.32 313.25L369.024 313.25L369.024 255.618Z" fill="white"/>
<path d="M150.309 191L219.626 191C219.708 191 219.786 191.032 219.844 191.09C219.902 191.148 219.935 191.227 219.935 191.309L219.935 249.559C219.935 249.641 219.902 249.72 219.844 249.778C219.786 249.836 219.708 249.868 219.626 249.868L150.309 249.868C150.227 249.868 150.149 249.836 150.091 249.778C150.033 249.72 150 249.641 150 249.559L150 191.309C150 191.227 150.033 191.148 150.091 191.09C150.149 191.032 150.227 191 150.309 191ZM219.317 191.618L150.618 191.618L150.618 249.25L219.317 249.25L219.317 191.618Z" fill="white"/>
<path d="M194.507 267.699C194.588 267.7 194.666 267.733 194.723 267.792C194.78 267.85 194.812 267.929 194.812 268.011C194.812 268.093 194.78 268.172 194.723 268.23L158.928 304.026C158.899 304.055 158.864 304.078 158.827 304.094C158.789 304.109 158.749 304.117 158.708 304.117C158.667 304.117 158.627 304.109 158.589 304.094C158.552 304.078 158.517 304.055 158.489 304.026C158.46 303.997 158.437 303.963 158.421 303.926C158.406 303.888 158.398 303.848 158.398 303.807C158.398 303.766 158.406 303.726 158.421 303.688C158.437 303.65 158.46 303.616 158.489 303.587L194.284 267.792C194.343 267.732 194.423 267.699 194.507 267.699Z" fill="white"/>
<path d="M197.394 270.148C197.434 270.147 197.475 270.155 197.512 270.171C197.549 270.187 197.583 270.211 197.61 270.241C197.64 270.268 197.663 270.302 197.679 270.339C197.696 270.376 197.704 270.416 197.704 270.457C197.704 270.498 197.696 270.538 197.679 270.575C197.663 270.612 197.64 270.646 197.61 270.673L187.385 280.905C187.326 280.963 187.247 280.996 187.165 280.996C187.083 280.996 187.004 280.963 186.946 280.905C186.887 280.847 186.855 280.768 186.855 280.686C186.855 280.603 186.887 280.524 186.946 280.466L197.177 270.241C197.205 270.212 197.239 270.188 197.276 270.172C197.313 270.156 197.353 270.148 197.394 270.148Z" fill="white"/>
<path d="M256.534 292.379C256.575 292.378 256.615 292.386 256.652 292.402C256.69 292.418 256.723 292.442 256.751 292.471C256.78 292.5 256.803 292.534 256.818 292.572C256.834 292.61 256.842 292.65 256.842 292.691C256.842 292.732 256.834 292.772 256.818 292.81C256.803 292.847 256.78 292.881 256.751 292.91L245.19 304.471C245.132 304.528 245.054 304.56 244.973 304.56C244.893 304.56 244.815 304.528 244.757 304.471C244.728 304.442 244.705 304.408 244.689 304.371C244.674 304.333 244.666 304.293 244.666 304.252C244.666 304.211 244.674 304.171 244.689 304.133C244.705 304.095 244.728 304.061 244.757 304.032L256.318 292.471C256.346 292.442 256.379 292.418 256.416 292.402C256.454 292.386 256.494 292.378 256.534 292.379Z" fill="white"/>
<path d="M241.419 306.61C241.499 306.612 241.576 306.643 241.635 306.697C241.692 306.755 241.724 306.834 241.724 306.916C241.724 306.998 241.692 307.077 241.635 307.135L238.742 310.029C238.684 310.085 238.606 310.117 238.525 310.117C238.445 310.117 238.367 310.085 238.309 310.029C238.28 310 238.257 309.966 238.241 309.928C238.226 309.891 238.218 309.85 238.218 309.809C238.218 309.769 238.226 309.728 238.241 309.69C238.257 309.653 238.28 309.619 238.309 309.59L241.196 306.697C241.257 306.641 241.336 306.61 241.419 306.61Z" fill="white"/>
<path d="M186.723 213.676C186.804 213.677 186.881 213.708 186.94 213.763C186.969 213.792 186.992 213.826 187.007 213.863C187.023 213.901 187.031 213.941 187.031 213.982C187.031 214.023 187.023 214.064 187.007 214.101C186.992 214.139 186.969 214.173 186.94 214.202L170.934 230.208C170.905 230.237 170.871 230.26 170.833 230.276C170.795 230.291 170.755 230.299 170.714 230.299C170.673 230.299 170.633 230.291 170.595 230.276C170.558 230.26 170.523 230.237 170.495 230.208C170.438 230.15 170.406 230.072 170.406 229.991C170.406 229.911 170.438 229.833 170.495 229.775L186.507 213.763C186.566 213.709 186.643 213.678 186.723 213.676Z" fill="white"/>
<path d="M196.282 204.114C196.365 204.114 196.445 204.148 196.504 204.207C196.561 204.266 196.593 204.344 196.593 204.426C196.593 204.508 196.561 204.587 196.504 204.646L190.724 210.426C190.665 210.483 190.586 210.515 190.504 210.515C190.422 210.515 190.343 210.483 190.285 210.426C190.256 210.397 190.233 210.363 190.217 210.326C190.201 210.288 190.193 210.248 190.193 210.207C190.193 210.166 190.201 210.126 190.217 210.088C190.233 210.05 190.256 210.016 190.285 209.987L196.065 204.207C196.093 204.178 196.127 204.154 196.164 204.139C196.201 204.123 196.241 204.114 196.282 204.114Z" fill="white"/>
<path d="M200.51 218.567C200.571 218.568 200.63 218.587 200.68 218.621C200.73 218.655 200.769 218.703 200.792 218.759C200.815 218.815 200.821 218.876 200.809 218.936C200.798 218.995 200.769 219.05 200.727 219.093L194.946 224.873C194.918 224.902 194.883 224.925 194.846 224.941C194.808 224.957 194.768 224.965 194.727 224.965C194.686 224.965 194.646 224.957 194.608 224.941C194.57 224.925 194.536 224.902 194.507 224.873C194.45 224.815 194.418 224.736 194.418 224.654C194.418 224.572 194.45 224.493 194.507 224.434L200.288 218.66C200.347 218.601 200.427 218.568 200.51 218.567Z" fill="white"/>
<path d="M75.0108 127.841L144.333 127.841C144.415 127.841 144.494 127.873 144.552 127.931C144.61 127.989 144.643 128.068 144.643 128.15L144.643 186.4C144.641 186.481 144.608 186.559 144.55 186.617C144.493 186.674 144.415 186.707 144.333 186.709L75.0108 186.709C74.9288 186.709 74.8502 186.676 74.7922 186.618C74.7342 186.56 74.7017 186.482 74.7017 186.4L74.7017 128.15C74.7017 128.068 74.7342 127.989 74.7922 127.931C74.8502 127.873 74.9288 127.841 75.0108 127.841ZM144.024 128.459L75.3199 128.459L75.3199 186.091L144.024 186.091L144.024 128.459Z" fill="white"/>
<path d="M0.309211 127.841L69.6257 127.841C69.7077 127.841 69.7863 127.873 69.8443 127.931C69.9022 127.989 69.9348 128.068 69.9348 128.15L69.9348 186.4C69.9348 186.482 69.9022 186.56 69.8443 186.618C69.7863 186.676 69.7077 186.709 69.6257 186.709L0.309204 186.709C0.227226 186.709 0.148582 186.676 0.0906143 186.618C0.0326386 186.56 9.15792e-05 186.482 9.15887e-05 186.4L9.83751e-05 128.15C9.83846e-05 128.068 0.0326454 127.989 0.0906212 127.931C0.148589 127.873 0.227233 127.841 0.309211 127.841ZM69.3166 128.459L0.618331 128.459L0.618324 186.091L69.3166 186.091L69.3166 128.459Z" fill="white"/>
<path d="M75.0108 63.8094L144.333 63.8094C144.415 63.8094 144.494 63.842 144.552 63.9C144.61 63.9579 144.643 64.0366 144.643 64.1185L144.643 122.369C144.641 122.45 144.608 122.528 144.55 122.585C144.493 122.643 144.415 122.676 144.333 122.678L75.0108 122.678C74.9288 122.678 74.8502 122.645 74.7922 122.587C74.7342 122.529 74.7016 122.451 74.7016 122.369L74.7017 64.1185C74.7017 64.0366 74.7342 63.9579 74.7922 63.9C74.8502 63.842 74.9288 63.8094 75.0108 63.8094ZM144.024 64.4277L75.3199 64.4277L75.3199 122.059L144.024 122.059L144.024 64.4277Z" fill="white"/>
<path d="M0.309592 -0.000149526L69.6323 -0.000144979C69.7143 -0.000144973 69.7929 0.0324287 69.8509 0.0903969C69.9088 0.148369 69.9414 0.22699 69.9414 0.308971L69.9414 58.559C69.9398 58.6405 69.9067 58.7182 69.8491 58.7759C69.7915 58.8335 69.7138 58.8666 69.6323 58.8682L0.309586 58.8682C0.227608 58.8682 0.148987 58.8356 0.0910111 58.7776C0.0330429 58.7196 0.000473049 58.641 0.000473058 58.559L0.000479845 0.308967C0.000479854 0.226985 0.0330497 0.148364 0.0910179 0.0903923C0.148994 0.0324242 0.227615 -0.000149532 0.309592 -0.000149526ZM69.3232 0.618092L0.618713 0.618087L0.618706 58.2499L69.3232 58.2499L69.3232 0.618092Z" fill="white"/>
<path d="M0.309211 63.8094L69.6257 63.8094C69.7077 63.8094 69.7863 63.842 69.8443 63.9C69.9022 63.9579 69.9348 64.0365 69.9348 64.1185L69.9348 122.369C69.9348 122.451 69.9022 122.529 69.8443 122.587C69.7863 122.645 69.7077 122.678 69.6257 122.678L0.309204 122.678C0.227226 122.678 0.148582 122.645 0.0906143 122.587C0.0326386 122.529 9.15792e-05 122.451 9.15887e-05 122.369L9.83751e-05 64.1185C9.83846e-05 64.0365 0.0326454 63.9579 0.0906212 63.8999C0.148589 63.842 0.227233 63.8094 0.309211 63.8094ZM69.3166 64.4276L0.618331 64.4276L0.618324 122.059L69.3166 122.059L69.3166 64.4276Z" fill="white"/>
<path d="M44.507 140.508C44.5885 140.509 44.6663 140.542 44.7233 140.601C44.7804 140.659 44.8123 140.738 44.8123 140.82C44.8123 140.902 44.7804 140.981 44.7233 141.04L8.92755 176.835C8.89872 176.864 8.86449 176.887 8.82684 176.903C8.78918 176.918 8.74883 176.926 8.70807 176.926C8.66731 176.926 8.62694 176.918 8.58928 176.903C8.55162 176.887 8.51741 176.864 8.48859 176.835C8.45977 176.807 8.4369 176.772 8.42131 176.735C8.40571 176.697 8.39769 176.657 8.39769 176.616C8.39769 176.575 8.40571 176.535 8.42131 176.497C8.4369 176.459 8.45977 176.425 8.48859 176.396L44.2844 140.601C44.3434 140.541 44.4234 140.508 44.507 140.508Z" fill="white"/>
<path d="M47.3938 142.957C47.4343 142.956 47.4745 142.964 47.5118 142.98C47.5491 142.996 47.5826 143.02 47.6102 143.05C47.6398 143.077 47.6633 143.111 47.6794 143.148C47.6956 143.185 47.7039 143.226 47.7039 143.266C47.7039 143.307 47.6956 143.347 47.6794 143.384C47.6633 143.421 47.6398 143.455 47.6102 143.482L37.3846 153.714C37.3264 153.772 37.2474 153.805 37.1651 153.805C37.0828 153.805 37.0038 153.772 36.9456 153.714C36.8874 153.656 36.8547 153.577 36.8547 153.495C36.8547 153.412 36.8874 153.334 36.9456 153.275L47.1774 143.05C47.2055 143.021 47.2391 142.997 47.2762 142.981C47.3134 142.966 47.3534 142.957 47.3938 142.957Z" fill="white"/>
<path d="M106.534 165.188C106.575 165.188 106.615 165.196 106.652 165.212C106.69 165.228 106.723 165.251 106.751 165.281C106.78 165.31 106.803 165.344 106.818 165.381C106.834 165.419 106.842 165.46 106.842 165.5C106.842 165.541 106.834 165.582 106.818 165.619C106.803 165.657 106.78 165.691 106.751 165.72L95.1899 177.281C95.1321 177.337 95.0544 177.369 94.9735 177.369C94.8926 177.369 94.8149 177.337 94.7571 177.281C94.7281 177.252 94.7051 177.218 94.6894 177.18C94.6738 177.143 94.6657 177.102 94.6657 177.061C94.6657 177.02 94.6738 176.98 94.6894 176.942C94.7051 176.905 94.7281 176.871 94.7571 176.842L106.318 165.281C106.346 165.251 106.379 165.228 106.416 165.212C106.454 165.196 106.494 165.188 106.534 165.188Z" fill="white"/>
<path d="M91.4188 179.42C91.499 179.421 91.5758 179.452 91.6352 179.506C91.6922 179.565 91.7241 179.644 91.7241 179.726C91.7241 179.808 91.6922 179.886 91.6352 179.945L88.7419 182.838C88.6841 182.895 88.6064 182.927 88.5255 182.927C88.4446 182.927 88.3669 182.895 88.3091 182.838C88.2801 182.81 88.2571 182.775 88.2414 182.738C88.2257 182.7 88.2177 182.66 88.2177 182.619C88.2177 182.578 88.2257 182.538 88.2414 182.5C88.2571 182.462 88.2801 182.428 88.3091 182.399L91.1962 179.506C91.2572 179.451 91.3365 179.42 91.4188 179.42Z" fill="white"/>
<path d="M36.7234 86.4858C36.8039 86.4866 36.8811 86.5175 36.9398 86.5724C36.9688 86.6011 36.9918 86.6353 37.0075 86.673C37.0232 86.7107 37.0313 86.7511 37.0313 86.7919C37.0313 86.8327 37.0232 86.8731 37.0075 86.9108C36.9918 86.9484 36.9688 86.9826 36.9398 87.0114L20.9337 103.017C20.905 103.046 20.8708 103.069 20.8331 103.085C20.7954 103.101 20.755 103.109 20.7142 103.109C20.6734 103.109 20.633 103.101 20.5954 103.085C20.5577 103.069 20.5235 103.046 20.4948 103.017C20.4381 102.96 20.4064 102.882 20.4064 102.801C20.4064 102.72 20.4381 102.642 20.4948 102.585L36.5071 86.5724C36.5664 86.5185 36.6433 86.4878 36.7234 86.4858Z" fill="white"/>
<path d="M46.2813 76.9236C46.3648 76.9238 46.4449 76.9572 46.5039 77.0163C46.5609 77.0752 46.5928 77.1539 46.5928 77.2358C46.5928 77.3177 46.5609 77.3965 46.5039 77.4553L40.7234 83.2358C40.6645 83.2928 40.5858 83.3247 40.5039 83.3247C40.4219 83.3247 40.3432 83.2928 40.2844 83.2358C40.2554 83.2071 40.2324 83.1729 40.2167 83.1352C40.201 83.0975 40.193 83.0571 40.193 83.0163C40.193 82.9755 40.201 82.9351 40.2167 82.8974C40.2324 82.8598 40.2554 82.8256 40.2844 82.7968L46.0649 77.0163C46.0929 76.9872 46.1266 76.964 46.1637 76.9481C46.2009 76.9322 46.2408 76.9238 46.2813 76.9236Z" fill="white"/>
<path d="M50.5104 91.377C50.5709 91.3778 50.6298 91.3964 50.6799 91.4305C50.7299 91.4645 50.7689 91.5124 50.7919 91.5684C50.8149 91.6243 50.8211 91.6858 50.8095 91.7452C50.7979 91.8046 50.7691 91.8593 50.7268 91.9025L44.9463 97.683C44.9176 97.712 44.8834 97.7349 44.8457 97.7506C44.808 97.7663 44.7676 97.7744 44.7268 97.7744C44.686 97.7744 44.6456 97.7663 44.608 97.7506C44.5703 97.7349 44.5361 97.712 44.5074 97.683C44.4503 97.6242 44.4184 97.5454 44.4184 97.4635C44.4184 97.3816 44.4503 97.3028 44.5074 97.244L50.2878 91.4697C50.3468 91.4106 50.4269 91.3772 50.5104 91.377Z" fill="white"/>
</svg>
