<svg width="370" height="315" viewBox="0 0 370 315" fill="none" xmlns="http://www.w3.org/2000/svg">
<path d="M300.011 256.031L369.333 256.031C369.415 256.031 369.494 256.064 369.552 256.122C369.61 256.18 369.643 256.258 369.643 256.34L369.643 314.59C369.641 314.672 369.608 314.749 369.55 314.807C369.493 314.865 369.415 314.898 369.333 314.899L300.011 314.899C299.929 314.899 299.85 314.867 299.792 314.809C299.734 314.751 299.702 314.672 299.702 314.59L299.702 256.34C299.702 256.258 299.734 256.18 299.792 256.122C299.85 256.064 299.929 256.031 300.011 256.031ZM369.024 256.649L300.32 256.649L300.32 314.281L369.024 314.281L369.024 256.649Z" fill="white"/>
<path d="M225.309 256.031L294.626 256.031C294.708 256.031 294.786 256.064 294.844 256.122C294.902 256.18 294.935 256.258 294.935 256.34L294.935 314.59C294.935 314.672 294.902 314.751 294.844 314.809C294.786 314.867 294.708 314.899 294.626 314.899L225.309 314.899C225.227 314.899 225.149 314.867 225.091 314.809C225.033 314.751 225 314.672 225 314.59L225 256.34C225 256.258 225.033 256.18 225.091 256.122C225.149 256.064 225.227 256.031 225.309 256.031ZM294.317 256.649L225.618 256.649L225.618 314.281L294.317 314.281L294.317 256.649Z" fill="white"/>
<path d="M300.011 192L369.333 192C369.415 192 369.494 192.032 369.552 192.09C369.61 192.148 369.643 192.227 369.643 192.309L369.643 250.559C369.641 250.641 369.608 250.718 369.55 250.776C369.493 250.834 369.415 250.867 369.333 250.868L300.011 250.868C299.929 250.868 299.85 250.836 299.792 250.778C299.734 250.72 299.702 250.641 299.702 250.559L299.702 192.309C299.702 192.227 299.734 192.148 299.792 192.09C299.85 192.032 299.929 192 300.011 192ZM369.024 192.618L300.32 192.618L300.32 250.25L369.024 250.25L369.024 192.618Z" fill="white"/>
<path d="M225.309 192L294.626 192C294.708 192 294.786 192.032 294.844 192.09C294.902 192.148 294.935 192.227 294.935 192.309L294.935 250.559C294.935 250.641 294.902 250.72 294.844 250.778C294.786 250.836 294.708 250.868 294.626 250.868L225.309 250.868C225.227 250.868 225.149 250.836 225.091 250.778C225.033 250.72 225 250.641 225 250.559L225 192.309C225 192.227 225.033 192.148 225.091 192.09C225.149 192.032 225.227 192 225.309 192ZM294.317 192.618L225.618 192.618L225.618 250.25L294.317 250.25L294.317 192.618Z" fill="white"/>
<path d="M269.507 268.699C269.588 268.7 269.666 268.733 269.723 268.792C269.78 268.85 269.812 268.929 269.812 269.011C269.812 269.093 269.78 269.172 269.723 269.23L233.928 305.026C233.899 305.055 233.864 305.078 233.827 305.094C233.789 305.109 233.749 305.117 233.708 305.117C233.667 305.117 233.627 305.109 233.589 305.094C233.552 305.078 233.517 305.055 233.489 305.026C233.46 304.997 233.437 304.963 233.421 304.926C233.406 304.888 233.398 304.848 233.398 304.807C233.398 304.766 233.406 304.726 233.421 304.688C233.437 304.65 233.46 304.616 233.489 304.587L269.284 268.792C269.343 268.732 269.423 268.699 269.507 268.699V268.699Z" fill="white"/>
<path d="M272.394 271.148C272.434 271.147 272.475 271.155 272.512 271.171C272.549 271.187 272.583 271.211 272.61 271.241C272.64 271.268 272.663 271.302 272.679 271.339C272.696 271.376 272.704 271.416 272.704 271.457C272.704 271.498 272.696 271.538 272.679 271.575C272.663 271.612 272.64 271.646 272.61 271.673L262.385 281.905C262.326 281.963 262.247 281.996 262.165 281.996C262.083 281.996 262.004 281.963 261.946 281.905C261.887 281.847 261.855 281.768 261.855 281.686C261.855 281.603 261.887 281.524 261.946 281.466L272.177 271.241C272.205 271.212 272.239 271.188 272.276 271.172C272.313 271.156 272.353 271.148 272.394 271.148Z" fill="white"/>
<path d="M331.534 293.379C331.575 293.378 331.615 293.386 331.652 293.402C331.69 293.418 331.723 293.442 331.751 293.471C331.78 293.5 331.803 293.534 331.818 293.572C331.834 293.61 331.842 293.65 331.842 293.691C331.842 293.732 331.834 293.772 331.818 293.81C331.803 293.847 331.78 293.881 331.751 293.91L320.19 305.471C320.132 305.528 320.054 305.56 319.973 305.56C319.893 305.56 319.815 305.528 319.757 305.471C319.728 305.442 319.705 305.408 319.689 305.371C319.674 305.333 319.666 305.293 319.666 305.252C319.666 305.211 319.674 305.171 319.689 305.133C319.705 305.095 319.728 305.061 319.757 305.032L331.318 293.471C331.346 293.442 331.379 293.418 331.416 293.402C331.454 293.386 331.494 293.378 331.534 293.379V293.379Z" fill="white"/>
<path d="M316.419 307.61C316.499 307.612 316.576 307.643 316.635 307.697C316.692 307.755 316.724 307.834 316.724 307.916C316.724 307.998 316.692 308.077 316.635 308.135L313.742 311.029C313.684 311.085 313.606 311.117 313.525 311.117C313.445 311.117 313.367 311.085 313.309 311.029C313.28 311 313.257 310.966 313.241 310.928C313.226 310.891 313.218 310.85 313.218 310.809C313.218 310.769 313.226 310.728 313.241 310.69C313.257 310.653 313.28 310.619 313.309 310.59L316.196 307.697C316.257 307.641 316.336 307.61 316.419 307.61V307.61Z" fill="white"/>
<path d="M261.723 214.676C261.804 214.677 261.881 214.708 261.94 214.763C261.969 214.792 261.992 214.826 262.007 214.863C262.023 214.901 262.031 214.941 262.031 214.982C262.031 215.023 262.023 215.064 262.007 215.101C261.992 215.139 261.969 215.173 261.94 215.202L245.934 231.208C245.905 231.237 245.871 231.26 245.833 231.276C245.795 231.291 245.755 231.299 245.714 231.299C245.673 231.299 245.633 231.291 245.595 231.276C245.558 231.26 245.523 231.237 245.495 231.208C245.438 231.15 245.406 231.072 245.406 230.991C245.406 230.911 245.438 230.833 245.495 230.775L261.507 214.763C261.566 214.709 261.643 214.678 261.723 214.676V214.676Z" fill="white"/>
<path d="M271.282 205.114C271.365 205.114 271.445 205.148 271.504 205.207C271.561 205.266 271.593 205.344 271.593 205.426C271.593 205.508 271.561 205.587 271.504 205.646L265.724 211.426C265.665 211.483 265.586 211.515 265.504 211.515C265.422 211.515 265.343 211.483 265.285 211.426C265.256 211.397 265.233 211.363 265.217 211.326C265.201 211.288 265.193 211.248 265.193 211.207C265.193 211.166 265.201 211.126 265.217 211.088C265.233 211.05 265.256 211.016 265.285 210.987L271.065 205.207C271.093 205.178 271.127 205.154 271.164 205.139C271.201 205.123 271.241 205.114 271.282 205.114V205.114Z" fill="white"/>
<path d="M275.51 219.567C275.571 219.568 275.63 219.587 275.68 219.621C275.73 219.655 275.769 219.703 275.792 219.759C275.815 219.815 275.821 219.876 275.809 219.936C275.798 219.995 275.769 220.05 275.727 220.093L269.946 225.873C269.918 225.902 269.883 225.925 269.846 225.941C269.808 225.957 269.768 225.965 269.727 225.965C269.686 225.965 269.646 225.957 269.608 225.941C269.57 225.925 269.536 225.902 269.507 225.873C269.45 225.815 269.418 225.736 269.418 225.654C269.418 225.572 269.45 225.493 269.507 225.434L275.288 219.66C275.347 219.601 275.427 219.568 275.51 219.567V219.567Z" fill="white"/>
<path d="M151.011 256.031L220.333 256.031C220.415 256.031 220.494 256.064 220.552 256.122C220.61 256.18 220.643 256.258 220.643 256.34L220.643 314.59C220.641 314.672 220.608 314.749 220.55 314.807C220.493 314.865 220.415 314.898 220.333 314.899L151.011 314.899C150.929 314.899 150.85 314.867 150.792 314.809C150.734 314.751 150.702 314.672 150.702 314.59L150.702 256.34C150.702 256.258 150.734 256.18 150.792 256.122C150.85 256.064 150.929 256.031 151.011 256.031ZM220.024 256.649L151.32 256.649L151.32 314.281L220.024 314.281L220.024 256.649Z" fill="white"/>
<path d="M76.3092 256.031L145.626 256.031C145.708 256.031 145.786 256.064 145.844 256.122C145.902 256.18 145.935 256.258 145.935 256.34L145.935 314.59C145.935 314.672 145.902 314.751 145.844 314.809C145.786 314.867 145.708 314.899 145.626 314.899L76.3092 314.899C76.2272 314.899 76.1486 314.867 76.0906 314.809C76.0326 314.751 76.0001 314.672 76.0001 314.59L76.0001 256.34C76.0001 256.258 76.0326 256.18 76.0906 256.122C76.1486 256.064 76.2272 256.031 76.3092 256.031ZM145.317 256.649L76.6183 256.649L76.6183 314.281L145.317 314.281L145.317 256.649Z" fill="white"/>
<path d="M151.011 192L220.333 192C220.415 192 220.494 192.032 220.552 192.09C220.61 192.148 220.643 192.227 220.643 192.309L220.643 250.559C220.641 250.641 220.608 250.718 220.55 250.776C220.493 250.834 220.415 250.867 220.333 250.868L151.011 250.868C150.929 250.868 150.85 250.836 150.792 250.778C150.734 250.72 150.702 250.641 150.702 250.559L150.702 192.309C150.702 192.227 150.734 192.148 150.792 192.09C150.85 192.032 150.929 192 151.011 192ZM220.024 192.618L151.32 192.618L151.32 250.25L220.024 250.25L220.024 192.618Z" fill="white"/>
<path d="M1.01077 256L70.3335 256C70.4155 256 70.4941 256.032 70.552 256.09C70.61 256.148 70.6426 256.227 70.6426 256.309L70.6426 314.559C70.641 314.641 70.6079 314.718 70.5503 314.776C70.4927 314.834 70.4149 314.867 70.3335 314.868L1.01076 314.868C0.928778 314.868 0.850157 314.836 0.792187 314.778C0.734216 314.72 0.701644 314.641 0.701644 314.559L0.701651 256.309C0.701651 256.227 0.734223 256.148 0.792193 256.09C0.850164 256.032 0.928785 256 1.01077 256ZM70.0243 256.618L1.31989 256.618L1.31988 314.25L70.0243 314.25L70.0243 256.618Z" fill="white"/>
<path d="M76.309 192L145.625 192C145.707 192 145.786 192.032 145.844 192.09C145.902 192.148 145.935 192.227 145.935 192.309L145.935 250.559C145.935 250.641 145.902 250.72 145.844 250.778C145.786 250.836 145.707 250.868 145.625 250.868L76.309 250.868C76.227 250.868 76.1483 250.836 76.0904 250.778C76.0324 250.72 75.9998 250.641 75.9998 250.559L75.9999 192.309C75.9999 192.227 76.0324 192.148 76.0904 192.09C76.1483 192.032 76.227 192 76.309 192ZM145.316 192.618L76.6181 192.618L76.6181 250.25L145.316 250.25L145.316 192.618Z" fill="white"/>
<path d="M120.507 268.699C120.588 268.7 120.666 268.733 120.723 268.792C120.78 268.85 120.812 268.929 120.812 269.011C120.812 269.093 120.78 269.172 120.723 269.23L84.9275 305.026C84.8987 305.055 84.8645 305.078 84.8268 305.094C84.7892 305.109 84.7488 305.117 84.7081 305.117C84.6673 305.117 84.6269 305.109 84.5893 305.094C84.5516 305.078 84.5174 305.055 84.4886 305.026C84.4598 304.997 84.4369 304.963 84.4213 304.926C84.4057 304.888 84.3977 304.848 84.3977 304.807C84.3977 304.766 84.4057 304.726 84.4213 304.688C84.4369 304.65 84.4598 304.616 84.4886 304.587L120.284 268.792C120.343 268.732 120.423 268.699 120.507 268.699V268.699Z" fill="white"/>
<path d="M123.394 271.148C123.434 271.147 123.475 271.155 123.512 271.171C123.549 271.187 123.583 271.211 123.61 271.241C123.64 271.268 123.663 271.302 123.679 271.339C123.696 271.376 123.704 271.416 123.704 271.457C123.704 271.498 123.696 271.538 123.679 271.575C123.663 271.612 123.64 271.646 123.61 271.673L113.385 281.905C113.326 281.963 113.247 281.996 113.165 281.996C113.083 281.996 113.004 281.963 112.946 281.905C112.887 281.847 112.855 281.768 112.855 281.686C112.855 281.603 112.887 281.524 112.946 281.466L123.177 271.241C123.205 271.212 123.239 271.188 123.276 271.172C123.313 271.156 123.353 271.148 123.394 271.148Z" fill="white"/>
<path d="M182.534 293.379C182.575 293.378 182.615 293.386 182.652 293.402C182.69 293.418 182.723 293.442 182.751 293.471C182.78 293.5 182.803 293.534 182.818 293.572C182.834 293.61 182.842 293.65 182.842 293.691C182.842 293.732 182.834 293.772 182.818 293.81C182.803 293.847 182.78 293.881 182.751 293.91L171.19 305.471C171.132 305.528 171.054 305.56 170.973 305.56C170.893 305.56 170.815 305.528 170.757 305.471C170.728 305.442 170.705 305.408 170.689 305.371C170.674 305.333 170.666 305.293 170.666 305.252C170.666 305.211 170.674 305.171 170.689 305.133C170.705 305.095 170.728 305.061 170.757 305.032L182.318 293.471C182.346 293.442 182.379 293.418 182.416 293.402C182.454 293.386 182.494 293.378 182.534 293.379V293.379Z" fill="white"/>
<path d="M167.419 307.61C167.499 307.612 167.576 307.643 167.635 307.697C167.692 307.755 167.724 307.834 167.724 307.916C167.724 307.998 167.692 308.077 167.635 308.135L164.742 311.029C164.684 311.085 164.606 311.117 164.525 311.117C164.445 311.117 164.367 311.085 164.309 311.029C164.28 311 164.257 310.966 164.241 310.928C164.226 310.891 164.218 310.85 164.218 310.809C164.218 310.769 164.226 310.728 164.241 310.69C164.257 310.653 164.28 310.619 164.309 310.59L167.196 307.697C167.257 307.641 167.336 307.61 167.419 307.61V307.61Z" fill="white"/>
<path d="M112.723 214.676C112.804 214.677 112.881 214.708 112.94 214.763C112.969 214.792 112.992 214.826 113.007 214.863C113.023 214.901 113.031 214.941 113.031 214.982C113.031 215.023 113.023 215.064 113.007 215.101C112.992 215.139 112.969 215.173 112.94 215.202L96.9337 231.208C96.905 231.237 96.8708 231.26 96.8331 231.276C96.7954 231.291 96.755 231.299 96.7142 231.299C96.6734 231.299 96.633 231.291 96.5954 231.276C96.5577 231.26 96.5235 231.237 96.4948 231.208C96.4381 231.15 96.4064 231.072 96.4064 230.991C96.4064 230.911 96.4381 230.833 96.4948 230.775L112.507 214.763C112.566 214.709 112.643 214.678 112.723 214.676V214.676Z" fill="white"/>
<path d="M122.282 205.114C122.365 205.114 122.445 205.148 122.504 205.207C122.561 205.266 122.593 205.344 122.593 205.426C122.593 205.508 122.561 205.587 122.504 205.646L116.724 211.426C116.665 211.483 116.586 211.515 116.504 211.515C116.422 211.515 116.343 211.483 116.285 211.426C116.256 211.397 116.233 211.363 116.217 211.326C116.201 211.288 116.193 211.248 116.193 211.207C116.193 211.166 116.201 211.126 116.217 211.088C116.233 211.05 116.256 211.016 116.285 210.987L122.065 205.207C122.093 205.178 122.127 205.154 122.164 205.139C122.201 205.123 122.241 205.114 122.282 205.114V205.114Z" fill="white"/>
<path d="M126.51 219.567C126.571 219.568 126.63 219.587 126.68 219.621C126.73 219.655 126.769 219.703 126.792 219.759C126.815 219.815 126.821 219.876 126.809 219.936C126.798 219.995 126.769 220.05 126.727 220.093L120.946 225.873C120.918 225.902 120.883 225.925 120.846 225.941C120.808 225.957 120.768 225.965 120.727 225.965C120.686 225.965 120.646 225.957 120.608 225.941C120.57 225.925 120.536 225.902 120.507 225.873C120.45 225.815 120.418 225.736 120.418 225.654C120.418 225.572 120.45 225.493 120.507 225.434L126.288 219.66C126.347 219.601 126.427 219.568 126.51 219.567V219.567Z" fill="white"/>
<path d="M300.011 128.841L369.333 128.841C369.415 128.841 369.494 128.873 369.552 128.931C369.61 128.989 369.643 129.068 369.643 129.15L369.643 187.4C369.641 187.481 369.608 187.559 369.55 187.617C369.493 187.674 369.415 187.707 369.333 187.709L300.011 187.709C299.929 187.709 299.85 187.676 299.792 187.618C299.734 187.56 299.702 187.482 299.702 187.4L299.702 129.15C299.702 129.068 299.734 128.989 299.792 128.931C299.85 128.873 299.929 128.841 300.011 128.841ZM369.024 129.459L300.32 129.459L300.32 187.091L369.024 187.091L369.024 129.459Z" fill="white"/>
<path d="M225.309 128.841L294.626 128.841C294.708 128.841 294.786 128.873 294.844 128.931C294.902 128.989 294.935 129.068 294.935 129.15L294.935 187.4C294.935 187.482 294.902 187.56 294.844 187.618C294.786 187.676 294.708 187.709 294.626 187.709L225.309 187.709C225.227 187.709 225.149 187.676 225.091 187.618C225.033 187.56 225 187.482 225 187.4L225 129.15C225 129.068 225.033 128.989 225.091 128.931C225.149 128.873 225.227 128.841 225.309 128.841ZM294.317 129.459L225.618 129.459L225.618 187.091L294.317 187.091L294.317 129.459Z" fill="white"/>
<path d="M300.011 64.8094L369.333 64.8094C369.415 64.8094 369.494 64.842 369.552 64.9C369.61 64.9579 369.643 65.0366 369.643 65.1185L369.643 123.369C369.641 123.45 369.608 123.528 369.55 123.585C369.493 123.643 369.415 123.676 369.333 123.678L300.011 123.678C299.929 123.678 299.85 123.645 299.792 123.587C299.734 123.529 299.702 123.451 299.702 123.369L299.702 65.1185C299.702 65.0366 299.734 64.9579 299.792 64.9C299.85 64.842 299.929 64.8094 300.011 64.8094ZM369.024 65.4277L300.32 65.4277L300.32 123.059L369.024 123.059L369.024 65.4277Z" fill="white"/>
<path d="M300.011 0.809421L369.333 0.809426C369.415 0.809426 369.494 0.841998 369.552 0.899969C369.61 0.95794 369.643 1.03656 369.643 1.11854L369.643 59.3686C369.641 59.4501 369.608 59.5278 369.55 59.5854C369.493 59.6431 369.415 59.6762 369.333 59.6777L300.011 59.6777C299.929 59.6777 299.85 59.6452 299.792 59.5872C299.734 59.5292 299.702 59.4506 299.702 59.3686L299.702 1.11854C299.702 1.03656 299.734 0.957935 299.792 0.899964C299.85 0.841994 299.929 0.809421 300.011 0.809421ZM369.024 1.42766L300.32 1.42766L300.32 59.0595L369.024 59.0595L369.024 1.42766Z" fill="white"/>
<path d="M225.309 64.8094L294.626 64.8094C294.708 64.8094 294.786 64.842 294.844 64.9C294.902 64.9579 294.935 65.0365 294.935 65.1185L294.935 123.369C294.935 123.451 294.902 123.529 294.844 123.587C294.786 123.645 294.708 123.678 294.626 123.678L225.309 123.678C225.227 123.678 225.149 123.645 225.091 123.587C225.033 123.529 225 123.451 225 123.369L225 65.1185C225 65.0365 225.033 64.9579 225.091 64.8999C225.149 64.842 225.227 64.8094 225.309 64.8094ZM294.317 65.4276L225.618 65.4276L225.618 123.059L294.317 123.059L294.317 65.4276Z" fill="white"/>
<path d="M269.507 141.508C269.588 141.509 269.666 141.542 269.723 141.601C269.78 141.659 269.812 141.738 269.812 141.82C269.812 141.902 269.78 141.981 269.723 142.04L233.928 177.835C233.899 177.864 233.864 177.887 233.827 177.903C233.789 177.918 233.749 177.926 233.708 177.926C233.667 177.926 233.627 177.918 233.589 177.903C233.552 177.887 233.517 177.864 233.489 177.835C233.46 177.807 233.437 177.772 233.421 177.735C233.406 177.697 233.398 177.657 233.398 177.616C233.398 177.575 233.406 177.535 233.421 177.497C233.437 177.459 233.46 177.425 233.489 177.396L269.284 141.601C269.343 141.541 269.423 141.508 269.507 141.508V141.508Z" fill="white"/>
<path d="M272.394 143.957C272.434 143.956 272.475 143.964 272.512 143.98C272.549 143.996 272.583 144.02 272.61 144.05C272.64 144.077 272.663 144.111 272.679 144.148C272.696 144.185 272.704 144.226 272.704 144.266C272.704 144.307 272.696 144.347 272.679 144.384C272.663 144.421 272.64 144.455 272.61 144.482L262.385 154.714C262.326 154.772 262.247 154.805 262.165 154.805C262.083 154.805 262.004 154.772 261.946 154.714C261.887 154.656 261.855 154.577 261.855 154.495C261.855 154.412 261.887 154.334 261.946 154.275L272.177 144.05C272.205 144.021 272.239 143.997 272.276 143.981C272.313 143.966 272.353 143.957 272.394 143.957Z" fill="white"/>
<path d="M331.534 166.188C331.575 166.188 331.615 166.196 331.652 166.212C331.69 166.228 331.723 166.251 331.751 166.281C331.78 166.31 331.803 166.344 331.818 166.381C331.834 166.419 331.842 166.46 331.842 166.5C331.842 166.541 331.834 166.582 331.818 166.619C331.803 166.657 331.78 166.691 331.751 166.72L320.19 178.281C320.132 178.337 320.054 178.369 319.973 178.369C319.893 178.369 319.815 178.337 319.757 178.281C319.728 178.252 319.705 178.218 319.689 178.18C319.674 178.143 319.666 178.102 319.666 178.061C319.666 178.02 319.674 177.98 319.689 177.942C319.705 177.905 319.728 177.871 319.757 177.842L331.318 166.281C331.346 166.251 331.379 166.228 331.416 166.212C331.454 166.196 331.494 166.188 331.534 166.188V166.188Z" fill="white"/>
<path d="M316.419 180.42C316.499 180.421 316.576 180.452 316.635 180.506C316.692 180.565 316.724 180.644 316.724 180.726C316.724 180.808 316.692 180.886 316.635 180.945L313.742 183.838C313.684 183.895 313.606 183.927 313.525 183.927C313.445 183.927 313.367 183.895 313.309 183.838C313.28 183.81 313.257 183.775 313.241 183.738C313.226 183.7 313.218 183.66 313.218 183.619C313.218 183.578 313.226 183.538 313.241 183.5C313.257 183.462 313.28 183.428 313.309 183.399L316.196 180.506C316.257 180.451 316.336 180.42 316.419 180.42V180.42Z" fill="white"/>
<path d="M261.723 87.4858C261.804 87.4866 261.881 87.5175 261.94 87.5724C261.969 87.6011 261.992 87.6353 262.007 87.673C262.023 87.7107 262.031 87.7511 262.031 87.7919C262.031 87.8327 262.023 87.8731 262.007 87.9108C261.992 87.9484 261.969 87.9826 261.94 88.0114L245.934 104.017C245.905 104.046 245.871 104.069 245.833 104.085C245.795 104.101 245.755 104.109 245.714 104.109C245.673 104.109 245.633 104.101 245.595 104.085C245.558 104.069 245.523 104.046 245.495 104.017C245.438 103.96 245.406 103.882 245.406 103.801C245.406 103.72 245.438 103.642 245.495 103.585L261.507 87.5724C261.566 87.5185 261.643 87.4878 261.723 87.4858V87.4858Z" fill="white"/>
<path d="M271.281 77.9236C271.365 77.9238 271.445 77.9572 271.504 78.0163C271.561 78.0752 271.593 78.1539 271.593 78.2358C271.593 78.3178 271.561 78.3965 271.504 78.4553L265.723 84.2358C265.665 84.2928 265.586 84.3247 265.504 84.3247C265.422 84.3247 265.343 84.2928 265.284 84.2358C265.255 84.2071 265.232 84.1729 265.217 84.1352C265.201 84.0975 265.193 84.0571 265.193 84.0163C265.193 83.9755 265.201 83.9351 265.217 83.8974C265.232 83.8598 265.255 83.8256 265.284 83.7968L271.065 78.0163C271.093 77.9872 271.127 77.964 271.164 77.9481C271.201 77.9322 271.241 77.9238 271.281 77.9236V77.9236Z" fill="white"/>
<path d="M275.51 92.377C275.571 92.3778 275.63 92.3964 275.68 92.4305C275.73 92.4645 275.769 92.5124 275.792 92.5684C275.815 92.6243 275.821 92.6858 275.809 92.7452C275.798 92.8046 275.769 92.8593 275.727 92.9025L269.946 98.683C269.918 98.712 269.883 98.7349 269.846 98.7506C269.808 98.7663 269.768 98.7744 269.727 98.7744C269.686 98.7744 269.646 98.7663 269.608 98.7506C269.57 98.7349 269.536 98.712 269.507 98.683C269.45 98.6242 269.418 98.5454 269.418 98.4635C269.418 98.3816 269.45 98.3028 269.507 98.244L275.288 92.4697C275.347 92.4106 275.427 92.3772 275.51 92.377V92.377Z" fill="white"/>
</svg>
