<svg width="60" height="60" viewBox="0 0 60 60" fill="none" xmlns="http://www.w3.org/2000/svg">
<path d="M19.6875 56.25C20.4271 56.2531 21.1599 56.1097 21.8438 55.8281C22.5276 55.5466 23.1489 55.1323 23.6719 54.6094C24.1948 54.0864 24.6091 53.4651 24.8906 52.7813C25.1722 52.0974 25.3156 51.3646 25.3125 50.625V39.375" stroke="white" stroke-width="3" stroke-linecap="round" stroke-linejoin="round"/>
<g filter="url(#filter0_d_8071_9105)">
<path d="M40.3125 56.25C39.5729 56.2531 38.8401 56.1097 38.1562 55.8281C37.4724 55.5466 36.851 55.1323 36.3281 54.6094C35.8052 54.0864 35.3909 53.4651 35.1093 52.7813C34.8278 52.0974 34.6844 51.3646 34.6875 50.625V39.375" stroke="white" stroke-width="3" stroke-linecap="round" stroke-linejoin="round" shape-rendering="crispEdges"/>
</g>
<path d="M35.625 39.375H39.375C40.1146 39.3719 40.8474 39.5153 41.5313 39.7969C42.2151 40.0785 42.8364 40.4927 43.3594 41.0157C43.8823 41.5386 44.2966 42.1599 44.5781 42.8438C44.8597 43.5276 45.0031 44.2605 45 45V46.875C44.9969 47.6146 45.1403 48.3474 45.4219 49.0313C45.7034 49.7152 46.1177 50.3365 46.6406 50.8594C47.1636 51.3824 47.7849 51.7966 48.4687 52.0782C49.1526 52.3598 49.8854 52.5032 50.625 52.5001" stroke="white" stroke-width="3" stroke-linecap="round" stroke-linejoin="round"/>
<path d="M24.375 39.375H20.625C19.8854 39.3719 19.1526 39.5153 18.4687 39.7969C17.7849 40.0785 17.1636 40.4927 16.6406 41.0157C16.1177 41.5386 15.7034 42.1599 15.4219 42.8438C15.1403 43.5276 14.9969 44.2605 15 45V46.875C15.0031 47.6146 14.8597 48.3474 14.5781 49.0313C14.2966 49.7152 13.8823 50.3365 13.3594 50.8594C12.8364 51.3824 12.2151 51.7966 11.5313 52.0782C10.8474 52.3598 10.1146 52.5032 9.375 52.5001" stroke="white" stroke-width="3" stroke-linecap="round" stroke-linejoin="round"/>
<path d="M26.2031 15C25.1016 13.2762 23.5839 11.8574 21.7898 10.8744C19.9958 9.89133 17.9832 9.3757 15.9375 9.375C15.0279 10.9495 14.4821 12.7075 14.3402 14.5203C14.1982 16.3331 14.4637 18.1547 15.1172 19.8516C13.8356 21.7407 13.1424 23.9672 13.125 26.25V28.125C13.125 31.1087 14.3103 33.9702 16.42 36.08C18.5298 38.1897 21.3913 39.375 24.375 39.375H35.625C38.6087 39.375 41.4702 38.1897 43.58 36.08C45.6897 33.9702 46.875 31.1087 46.875 28.125V26.25C46.8576 23.9672 46.1644 21.7407 44.8828 19.8516C45.5363 18.1547 45.8018 16.3331 45.6598 14.5203C45.5179 12.7075 44.9721 10.9495 44.0625 9.375C42.0168 9.3757 40.0042 9.89133 38.2102 10.8744C36.4161 11.8574 34.8984 13.2762 33.7969 15H26.2031Z" stroke="white" stroke-width="3" stroke-linecap="round" stroke-linejoin="round"/>
<defs>
<filter id="filter0_d_8071_9105" x="33.1874" y="37.875" width="8.62506" height="20.875" filterUnits="userSpaceOnUse" color-interpolation-filters="sRGB">
<feFlood flood-opacity="0" result="BackgroundImageFix"/>
<feColorMatrix in="SourceAlpha" type="matrix" values="0 0 0 0 0 0 0 0 0 0 0 0 0 0 0 0 0 0 127 0" result="hardAlpha"/>
<feOffset dy="1"/>
<feComposite in2="hardAlpha" operator="out"/>
<feColorMatrix type="matrix" values="0 0 0 0 0 0 0 0 0 0 0 0 0 0 0 0 0 0 0.25 0"/>
<feBlend mode="normal" in2="BackgroundImageFix" result="effect1_dropShadow_8071_9105"/>
<feBlend mode="normal" in="SourceGraphic" in2="effect1_dropShadow_8071_9105" result="shape"/>
</filter>
</defs>
</svg>
