<svg width="486" height="493" viewBox="0 0 486 493" fill="none" xmlns="http://www.w3.org/2000/svg">
<path d="M478.998 380.826H7.03768C5.13935 380.783 3.33508 379.989 2.02219 378.616C0.709306 377.244 -0.00444347 375.406 0.0372849 373.508V8.22868C-0.00444347 6.33035 0.709306 4.49244 2.02219 3.12038C3.33508 1.74771 5.13935 0.952996 7.03768 0.910645H478.998C480.898 0.954864 482.698 1.75019 484.012 3.12225C485.326 4.49368 486.036 6.33035 485.999 8.22868V373.508C486.036 375.406 485.326 377.243 484.012 378.614C482.698 379.986 480.898 380.782 478.998 380.826ZM7.03768 2.21232C6.26477 2.22913 5.50246 2.39855 4.79495 2.70995C4.08743 3.02136 3.44842 3.46978 2.91405 4.02844C2.37967 4.5871 1.96053 5.24542 1.68026 5.96601C1.40062 6.68722 1.26547 7.45577 1.28291 8.22868V373.508C1.26547 374.281 1.40062 375.049 1.68026 375.77C1.96053 376.491 2.37967 377.149 2.91405 377.708C3.44842 378.267 4.08743 378.715 4.79495 379.026C5.50246 379.338 6.26477 379.507 7.03768 379.524H478.998C480.561 379.488 482.044 378.835 483.121 377.706C484.199 376.578 484.784 375.068 484.753 373.508V8.22868C484.784 6.66791 484.199 5.15822 483.121 4.03031C482.044 2.90177 480.561 2.24844 478.998 2.21232H7.03768Z" fill="#4FB9E3"/>
<g opacity="0.6">
<path opacity="0.6" d="M478.998 380.826H7.03765C5.13932 380.783 3.33505 379.989 2.02216 378.616C0.709276 377.244 -0.00447399 375.406 0.0372544 373.508V8.22868C-0.00447399 6.33035 0.709276 4.49244 2.02216 3.12038C3.33505 1.74771 5.13932 0.952996 7.03765 0.910645H478.998C480.898 0.954864 482.698 1.75019 484.012 3.12225C485.326 4.49368 486.036 6.33035 485.999 8.22868V373.508C486.036 375.406 485.326 377.243 484.012 378.614C482.698 379.986 480.898 380.782 478.998 380.826ZM7.03765 2.21232C6.26474 2.22913 5.50243 2.39855 4.79492 2.70995C4.0874 3.02136 3.44839 3.46978 2.91401 4.02844C2.37964 4.5871 1.9605 5.24542 1.68023 5.96601C1.40059 6.68722 1.26544 7.45577 1.28288 8.22868V373.508C1.26544 374.281 1.40059 375.049 1.68023 375.77C1.9605 376.491 2.37964 377.149 2.91401 377.708C3.44839 378.267 4.0874 378.715 4.79492 379.026C5.50243 379.338 6.26474 379.507 7.03765 379.524H478.998C480.561 379.488 482.044 378.835 483.121 377.706C484.199 376.578 484.784 375.068 484.753 373.508V8.22868C484.784 6.66791 484.199 5.15822 483.121 4.03031C482.044 2.90177 480.561 2.24844 478.998 2.21232H7.03765Z" fill="white"/>
</g>
<path d="M455.848 69.9493H30.1876V291.552H455.848V69.9493Z" fill="#4FB9E3"/>
<path d="M455.848 69.9493H30.1876V291.552H455.848V69.9493Z" fill="#514E7F"/>
<path d="M238.3 306.213H29.9447V308.505H238.3V306.213Z" fill="#B2B6BB"/>
<path d="M88.2025 316.477H29.7329V318.769H88.2025V316.477Z" fill="#B2B6BB"/>
<path d="M157.335 316.477H98.8651V318.769H157.335V316.477Z" fill="#B2B6BB"/>
<path d="M93.5338 319.18C94.3939 319.18 95.0908 318.483 95.0908 317.623C95.0908 316.763 94.3939 316.066 93.5338 316.066C92.6737 316.066 91.9768 316.763 91.9768 317.623C91.9768 318.483 92.6737 319.18 93.5338 319.18Z" fill="#B2B6BB"/>
<path d="M266.19 180.28C266.19 184.864 264.831 189.345 262.284 193.156C259.737 196.967 256.118 199.937 251.884 201.691C247.649 203.445 242.989 203.904 238.494 203.01C233.998 202.115 229.869 199.908 226.627 196.667C223.387 193.427 221.18 189.297 220.285 184.801C219.391 180.306 219.85 175.647 221.604 171.411C223.358 167.177 226.329 163.558 230.139 161.011C233.95 158.464 238.431 157.105 243.015 157.105C246.059 157.105 249.072 157.703 251.884 158.868C254.696 160.032 257.252 161.739 259.403 163.892C261.556 166.043 263.263 168.599 264.427 171.411C265.592 174.223 266.19 177.237 266.19 180.28Z" fill="#4FB9E3"/>
<path d="M238.039 173.187V180.293V187.399L252.251 180.293L238.039 173.187Z" fill="white"/>
<path d="M276.086 173.429V180.293V187.156L284.401 180.293L276.086 173.429Z" fill="white"/>
<path d="M288.486 173.429H286.369V187.156H288.486V173.429Z" fill="white"/>
<path d="M209.95 173.429V180.293V187.156L201.629 180.293L209.95 173.429Z" fill="white"/>
<path d="M199.667 173.429H197.55V187.156H199.667V173.429Z" fill="white"/>
<path d="M414.577 309.589H411.569C411.509 309.59 411.45 309.579 411.395 309.555C411.341 309.531 411.291 309.496 411.252 309.452C411.212 309.407 411.183 309.354 411.166 309.298C411.148 309.24 411.143 309.181 411.151 309.121V309.003C411.157 308.936 411.17 308.869 411.189 308.804L411.463 307.06C411.478 306.927 411.478 306.794 411.463 306.661C411.463 306.612 411.463 306.543 411.463 306.468C411.441 306.33 411.386 306.199 411.301 306.088L411.145 305.908C411.064 305.839 411.039 305.796 410.946 305.771H410.815C410.719 305.773 410.624 305.796 410.539 305.841C410.454 305.885 410.38 305.948 410.323 306.026L407.377 309.259C407.297 309.341 407.234 309.439 407.193 309.546C407.151 309.652 407.131 309.767 407.134 309.881V316.626C407.134 316.854 407.224 317.073 407.386 317.234C407.547 317.396 407.766 317.486 407.994 317.486H412.901C413.066 317.485 413.228 317.437 413.367 317.346C413.505 317.255 413.614 317.126 413.68 316.975L415.486 312.871C415.569 312.688 415.628 312.496 415.66 312.298C415.703 312.066 415.72 311.829 415.71 311.594V310.56C415.71 310.416 415.667 310.275 415.586 310.155C415.484 309.979 415.337 309.833 415.159 309.734C414.982 309.634 414.78 309.584 414.577 309.589Z" fill="#6C63FF"/>
<path d="M437.615 314.606H440.629C440.688 314.606 440.745 314.619 440.799 314.643C440.853 314.668 440.9 314.704 440.939 314.747C440.978 314.791 441.007 314.843 441.024 314.899C441.042 314.955 441.047 315.014 441.04 315.073V315.191L441.003 315.391L440.722 317.134C440.704 317.266 440.704 317.401 440.722 317.533C440.722 317.589 440.722 317.651 440.722 317.732C440.746 317.873 440.803 318.006 440.891 318.118L441.053 318.299C441.103 318.361 441.17 318.409 441.246 318.436H441.376C441.472 318.435 441.566 318.412 441.652 318.369C441.737 318.326 441.811 318.264 441.868 318.187L444.814 314.948C444.895 314.866 444.958 314.769 445 314.662C445.042 314.555 445.061 314.44 445.057 314.325V307.612C445.057 307.384 444.967 307.165 444.806 307.004C444.644 306.842 444.426 306.752 444.198 306.752H439.29C439.125 306.753 438.963 306.801 438.825 306.892C438.686 306.983 438.577 307.111 438.511 307.263L436.705 311.367C436.626 311.551 436.568 311.743 436.531 311.94C436.494 312.172 436.479 312.408 436.487 312.644V313.678C436.486 313.824 436.527 313.966 436.606 314.089C436.714 314.256 436.864 314.391 437.041 314.482C437.218 314.572 437.416 314.615 437.615 314.606Z" fill="#868A91"/>
<path d="M3.11406 0.979248H482.847C483.676 0.979248 484.467 1.30747 485.052 1.89166C485.631 2.47524 485.961 3.26746 485.961 4.09331V23.9548H0V4.09331C0 3.26746 0.328215 2.47524 0.91179 1.89166C1.49599 1.30747 2.28821 0.979248 3.11406 0.979248Z" fill="#4FB9E3"/>
<path d="M16.1058 15.8209C17.9562 15.8209 19.4566 14.3205 19.4566 12.4701C19.4566 10.6197 17.9562 9.11938 16.1058 9.11938C14.2555 9.11938 12.7551 10.6197 12.7551 12.4701C12.7551 14.3205 14.2555 15.8209 16.1058 15.8209Z" fill="white"/>
<path d="M26.7559 15.8209C28.6063 15.8209 30.1067 14.3205 30.1067 12.4701C30.1067 10.6197 28.6063 9.11938 26.7559 9.11938C24.9056 9.11938 23.4052 10.6197 23.4052 12.4701C23.4052 14.3205 24.9056 15.8209 26.7559 15.8209Z" fill="white"/>
<path d="M37.406 15.8209C39.2563 15.8209 40.7567 14.3205 40.7567 12.4701C40.7567 10.6197 39.2563 9.11938 37.406 9.11938C35.5556 9.11938 34.0553 10.6197 34.0553 12.4701C34.0553 14.3205 35.5556 15.8209 37.406 15.8209Z" fill="white"/>
<path d="M48.0312 275.801V279.687V283.574L55.8039 279.687L48.0312 275.801Z" fill="white"/>
<path d="M67.3819 276.405V279.687V282.97L71.3555 279.687L67.3819 276.405Z" fill="white"/>
<path d="M73.3049 276.405H72.296V282.97H73.3049V276.405Z" fill="white"/>
<path d="M84.1542 278.33H82.4913V281.008H84.1542L86.7575 283.574V275.801L84.1542 278.33Z" fill="white"/>
<path d="M88.2025 278.062V281.244C88.6073 281.219 88.9872 281.04 89.265 280.745C89.5428 280.449 89.6973 280.059 89.6973 279.653C89.6973 279.248 89.5428 278.857 89.265 278.561C88.9872 278.266 88.6073 278.087 88.2025 278.062Z" fill="white"/>
<path d="M88.2025 282.546C88.9299 282.498 89.6113 282.175 90.1096 281.644C90.6078 281.111 90.885 280.41 90.885 279.681C90.885 278.952 90.6078 278.251 90.1096 277.719C89.6113 277.187 88.9299 276.864 88.2025 276.816" fill="white"/>
<path d="M98.7031 280.292V279.519H100.217V280.292H98.7031Z" fill="white"/>
<path d="M100.815 279.22V278.448H101.581V279.22H100.815ZM100.815 281.369V280.597H101.581V281.369H100.815Z" fill="white"/>
<path d="M102.446 280.292V279.519H103.966V280.292H102.446Z" fill="white"/>
<path d="M104.321 280.292V279.519H105.841V280.292H104.321Z" fill="white"/>
<path d="M107.435 281.438L108.432 277.271H109.011L108.002 281.438H107.435Z" fill="white"/>
<path d="M110.885 280.292V279.519H112.399V280.292H110.885Z" fill="white"/>
<path d="M112.997 279.22V278.448H113.769V279.22H112.997ZM112.997 281.369V280.597H113.769V281.369H112.997Z" fill="white"/>
<path d="M114.635 280.292V279.519H116.148V280.292H114.635Z" fill="white"/>
<path d="M116.509 280.292V279.519H118.023V280.292H116.509Z" fill="white"/>
<path d="M118.614 279.22V278.448H119.387V279.22H118.614ZM118.614 281.369V280.597H119.387V281.369H118.614Z" fill="white"/>
<path d="M120.253 280.292V279.519H121.772V280.292H120.253Z" fill="white"/>
<path d="M122.127 280.292V279.519H123.641V280.292H122.127Z" fill="white"/>
<path d="M353.34 276.193V283.262H362.277V276.193H353.34ZM354.517 279.258H355.943V280.21H354.517V279.258ZM358.702 282.073H354.517V281.126H358.702V282.073ZM361.088 282.073H359.668V281.126H361.088V282.073ZM361.088 280.204H356.908V279.251H361.088V280.204Z" fill="white"/>
<path d="M421.052 283.86H410.464V275.571H421.052V283.86ZM411.666 282.646H419.837V276.816H411.666V282.646Z" fill="white"/>
<path d="M401.215 283.86H390.627V275.571H401.215V283.86ZM391.829 282.646H400.001V276.816H391.829V282.646Z" fill="white"/>
<path d="M395.461 279.152V281.643H399.197V279.152H395.461Z" fill="white"/>
<path d="M435.439 276.798H437.419V278.809H438.634V275.583H435.439V276.798Z" fill="white"/>
<path d="M431.633 278.809V276.798H433.614V275.583H430.419V278.809H431.633Z" fill="white"/>
<path d="M437.419 280.634V282.646H435.439V283.86H438.634V280.634H437.419Z" fill="white"/>
<path d="M433.614 282.646H431.633V280.634H430.419V283.86H433.614V282.646Z" fill="white"/>
<path d="M379.323 279.849L378.626 279.532C378.613 279.261 378.564 278.993 378.483 278.735L379.012 278.193L378.302 277.103L377.586 277.364C377.387 277.185 377.162 277.033 376.919 276.91V276.144L375.674 275.876L375.356 276.574C375.082 276.585 374.814 276.636 374.553 276.723L373.998 276.187L372.915 276.897L373.183 277.626C373.046 277.784 372.921 277.954 372.815 278.137C372.778 278.199 372.759 278.249 372.74 278.28V278.324H371.943C371.868 278.652 371.775 279.067 371.663 279.569L372.36 279.893C372.373 280.168 372.423 280.441 372.51 280.703L371.968 281.251L372.672 282.341L373.388 282.079C373.594 282.261 373.818 282.415 374.061 282.54C374.061 282.777 374.061 283.038 374.061 283.306L375.306 283.58C375.406 283.362 375.518 283.125 375.624 282.889C375.892 282.871 376.16 282.821 376.421 282.739L376.969 283.275L378.059 282.571L377.798 281.861C377.972 281.658 378.128 281.434 378.252 281.195H379.018C379.106 280.765 379.199 280.342 379.286 279.949V279.918L379.323 279.849ZM374.173 279.052C374.316 278.778 374.547 278.558 374.827 278.43C375.02 278.338 375.238 278.295 375.45 278.305C375.693 278.311 375.929 278.382 376.135 278.51C376.241 278.581 376.34 278.667 376.427 278.766C376.521 278.865 376.596 278.979 376.652 279.102C376.764 279.367 376.795 279.66 376.739 279.943C376.677 280.225 376.533 280.48 376.315 280.672C376.216 280.763 376.104 280.837 375.979 280.89C375.861 280.944 375.736 280.982 375.605 281.002C375.362 281.035 375.12 281.005 374.895 280.915C374.696 280.835 374.522 280.709 374.385 280.547C374.179 280.315 374.061 280.021 374.042 279.712C374.042 279.495 374.042 279.37 374.042 279.37C374.042 279.37 374.073 279.252 374.173 279.052ZM372.653 278.087L372.591 278.193L372.653 278.087Z" fill="white"/>
<path d="M444.451 270.246C444.42 270.545 444.27 270.82 444.04 271.01C443.803 271.2 443.504 271.291 443.205 271.261H42.0148C41.7152 271.291 41.4163 271.2 41.1827 271.01C40.9492 270.82 40.801 270.545 40.7692 270.246C40.8022 269.947 40.9517 269.674 41.1846 269.485C41.4182 269.297 41.7165 269.207 42.0148 269.237H443.205C443.504 269.207 443.803 269.297 444.034 269.485C444.27 269.674 444.42 269.947 444.451 270.246Z" fill="white"/>
<path d="M303.695 270.246C303.695 269.685 303.073 269.237 302.257 269.237H42.2203C41.4231 269.237 40.7816 269.685 40.7816 270.246C40.7816 270.806 41.4044 271.261 42.2203 271.261H302.257C303.073 271.261 303.695 270.806 303.695 270.246Z" fill="#DADDDF"/>
<path d="M248.888 270.246C248.888 269.685 247.605 269.237 246.023 269.237H43.6466C42.0646 269.237 40.7816 269.685 40.7816 270.246C40.7816 270.806 42.0646 271.261 43.6466 271.261H246.023C247.605 271.261 248.888 270.806 248.888 270.246Z" fill="#4FB9E3"/>
<path d="M36.1604 42.645H26.5566V43.9093H36.1604V42.645Z" fill="#4FB9E3"/>
<path d="M36.1604 45.1926H26.5566V46.4569H36.1604V45.1926Z" fill="#4FB9E3"/>
<path d="M36.1604 47.7336H26.5566V48.998H36.1604V47.7336Z" fill="#4FB9E3"/>
<path d="M59.5532 41.1318H48.0934C47.3504 41.1318 46.7482 41.7341 46.7482 42.4771V49.1723C46.7482 49.9153 47.3504 50.5176 48.0934 50.5176H59.5532C60.2962 50.5176 60.8985 49.9153 60.8985 49.1723V42.4771C60.8985 41.7341 60.2962 41.1318 59.5532 41.1318Z" fill="#4FB9E3"/>
<path d="M51.9736 43.2244V45.8215V48.4248L57.1802 45.8215L51.9736 43.2244Z" fill="white"/>
<path d="M364.775 40.1479H70.0164C69.6962 40.1479 69.4372 40.407 69.4372 40.7272V50.9164C69.4372 51.2365 69.6962 51.4956 70.0164 51.4956H364.775C365.095 51.4956 365.354 51.2365 365.354 50.9164V40.7272C365.354 40.407 365.095 40.1479 364.775 40.1479Z" fill="#4FB9E3"/>
<path opacity="0.7" d="M364.775 40.1479H70.0164C69.6962 40.1479 69.4372 40.407 69.4372 40.7272V50.9164C69.4372 51.2365 69.6962 51.4956 70.0164 51.4956H364.775C365.095 51.4956 365.354 51.2365 365.354 50.9164V40.7272C365.354 40.407 365.095 40.1479 364.775 40.1479Z" fill="white"/>
<path d="M365.011 51.3085H333.59V40.2224H365.011C365.159 40.2305 365.297 40.2965 365.396 40.4061C365.496 40.5158 365.547 40.6602 365.541 40.8079V50.7355C365.544 50.8812 365.491 51.0226 365.392 51.1291C365.293 51.2362 365.156 51.3004 365.011 51.3085Z" fill="#4FB9E3"/>
<path d="M352.898 48.8238L351.029 46.7436C351.471 46.2403 351.717 45.5945 351.72 44.925C351.727 44.2947 351.522 43.68 351.139 43.1792C350.755 42.6785 350.214 42.321 349.604 42.1634C348.993 42.0059 348.347 42.0576 347.77 42.3098C347.192 42.5627 346.715 43.0011 346.416 43.5567C346.116 44.1116 346.012 44.7512 346.119 45.3728C346.225 45.9943 346.537 46.5623 347.005 46.9859C347.472 47.4094 348.068 47.6641 348.697 47.7095C349.326 47.7544 349.952 47.5881 350.475 47.2356L352.343 49.3033C352.377 49.3413 352.418 49.3712 352.465 49.3918C352.511 49.4117 352.561 49.4223 352.611 49.4217C352.701 49.4217 352.787 49.3886 352.854 49.3282C352.89 49.2983 352.921 49.2616 352.942 49.2199C352.964 49.1781 352.977 49.1321 352.982 49.0853C352.985 49.038 352.98 48.9907 352.966 48.9458C352.952 48.901 352.928 48.8599 352.898 48.8238ZM346.813 44.925C346.813 44.5114 346.935 44.1066 347.165 43.7622C347.396 43.4184 347.722 43.15 348.104 42.9918C348.487 42.8336 348.908 42.7918 349.314 42.8728C349.719 42.9532 350.092 43.1525 350.385 43.4452C350.678 43.7379 350.877 44.111 350.957 44.517C351.038 44.9225 350.997 45.3435 350.839 45.7259C350.68 46.1083 350.412 46.4353 350.068 46.6651C349.724 46.8949 349.319 47.0176 348.905 47.0176C348.355 47.0095 347.83 46.7859 347.444 46.3942C347.057 46.0031 346.839 45.4755 346.838 44.925H346.813Z" fill="white"/>
<path d="M392.035 44.3892V42.5208H384.661V48.7987H392.023V46.8306L394.053 48.699V42.4709L392.035 44.3892ZM390.465 46.1268H388.946V47.6216H387.862V46.1268H386.343V45.0494H387.862V43.5235H388.946V45.0494H390.465V46.1268Z" fill="#4FB9E3"/>
<path d="M407.674 41.4805H405.569V43.5856H407.674V41.4805Z" fill="#4FB9E3"/>
<path d="M407.674 44.5946H405.569V46.6997H407.674V44.5946Z" fill="#4FB9E3"/>
<path d="M407.674 47.7087H405.569V49.8138H407.674V47.7087Z" fill="#4FB9E3"/>
<path d="M410.85 41.4805H408.745V43.5856H410.85V41.4805Z" fill="#4FB9E3"/>
<path d="M410.85 44.5946H408.745V46.6997H410.85V44.5946Z" fill="#4FB9E3"/>
<path d="M410.85 47.7087H408.745V49.8138H410.85V47.7087Z" fill="#4FB9E3"/>
<path d="M414.027 41.4805H411.922V43.5856H414.027V41.4805Z" fill="#4FB9E3"/>
<path d="M414.027 44.5946H411.922V46.6997H414.027V44.5946Z" fill="#4FB9E3"/>
<path d="M414.027 47.7087H411.922V49.8138H414.027V47.7087Z" fill="#4FB9E3"/>
<path d="M433.334 47.8332V45.0181C433.334 44.2695 433.078 43.5433 432.611 42.9585C432.144 42.3737 431.49 41.9645 430.761 41.7982C430.811 41.6917 430.842 41.5746 430.842 41.4557C430.842 41.2408 430.755 41.0353 430.606 40.8833C430.456 40.7313 430.245 40.646 430.033 40.646C429.821 40.646 429.609 40.7313 429.46 40.8833C429.31 41.0353 429.223 41.2408 429.223 41.4557C429.223 41.5715 429.254 41.6861 429.298 41.792C428.563 41.9564 427.909 42.365 427.442 42.9517C426.969 43.5377 426.713 44.267 426.713 45.0181V47.8582L425.53 49.3653H434.536L433.334 47.8332Z" fill="#4FB9E3"/>
<path d="M430.033 50.9971C430.363 50.9971 430.681 50.8657 430.911 50.6321C431.148 50.3986 431.278 50.0816 431.278 49.7515H428.787C428.787 50.0816 428.918 50.3986 429.155 50.6321C429.385 50.8657 429.703 50.9971 430.033 50.9971Z" fill="#4FB9E3"/>
<path d="M452.03 52.8221C455.898 52.8221 459.031 49.6881 459.031 45.8217C459.031 41.9553 455.898 38.8213 452.03 38.8213C448.163 38.8213 445.03 41.9553 445.03 45.8217C445.03 49.6881 448.163 52.8221 452.03 52.8221Z" fill="#4FB9E3"/>
<path d="M452.031 45.4481C453.108 45.4481 453.986 44.5724 453.986 43.4925C453.986 42.4125 453.108 41.5369 452.031 41.5369C450.953 41.5369 450.075 42.4125 450.075 43.4925C450.075 44.5724 450.953 45.4481 452.031 45.4481Z" fill="white"/>
<path d="M453.706 45.3671C453.245 45.7837 452.647 46.0142 452.031 46.0142C451.414 46.0142 450.816 45.7837 450.355 45.3671C449.751 45.7669 449.253 46.3144 448.917 46.9584C448.58 47.6024 448.412 48.3211 448.431 49.0479C449.502 49.7386 450.754 50.1061 452.031 50.1061C453.307 50.1061 454.559 49.7386 455.63 49.0479C455.649 48.3211 455.481 47.6024 455.145 46.9584C454.808 46.3144 454.31 45.7669 453.706 45.3671Z" fill="white"/>
<path d="M455.039 332.726H29.7329C29.6507 332.724 29.5729 332.691 29.5143 332.633C29.4564 332.575 29.4234 332.497 29.4215 332.415C29.4215 332.332 29.4546 332.253 29.5131 332.194C29.571 332.136 29.6507 332.103 29.7329 332.103H455.039C455.12 332.103 455.201 332.136 455.257 332.194C455.319 332.253 455.35 332.332 455.35 332.415C455.35 332.497 455.319 332.576 455.257 332.635C455.201 332.693 455.12 332.726 455.039 332.726Z" fill="#DADDDF"/>
<path d="M455.52 331.624H400.09V333.206H455.52V331.624Z" fill="#DADDDF"/>
<path d="M44.531 367.429C51.9232 367.429 57.9152 361.437 57.9152 354.045C57.9152 346.653 51.9232 340.661 44.531 340.661C37.1395 340.661 31.1468 346.653 31.1468 354.045C31.1468 361.437 37.1395 367.429 44.531 367.429Z" fill="#4FB9E3"/>
<path d="M44.5309 353.335C46.598 353.335 48.274 351.659 48.274 349.592C48.274 347.525 46.598 345.849 44.5309 345.849C42.4638 345.849 40.7878 347.525 40.7878 349.592C40.7878 351.659 42.4638 353.335 44.5309 353.335Z" fill="white"/>
<path d="M47.7198 353.179C46.8416 353.976 45.6982 354.418 44.5123 354.418C43.3265 354.418 42.183 353.976 41.3049 353.179C40.1446 353.942 39.1985 354.988 38.5545 356.218C37.9105 357.448 37.5904 358.822 37.624 360.211C39.6768 361.536 42.0684 362.241 44.5123 362.241C46.9563 362.241 49.3478 361.536 51.4006 360.211C51.4349 358.822 51.1148 357.448 50.4708 356.218C49.8268 354.988 48.8801 353.942 47.7198 353.179Z" fill="white"/>
<path d="M207.471 346.571H67.9611C67.4454 346.571 67.0269 346.99 67.0269 347.506C67.0269 348.021 67.4454 348.44 67.9611 348.44H207.471C207.987 348.44 208.405 348.021 208.405 347.506C208.405 346.99 207.987 346.571 207.471 346.571Z" fill="#DADDDF"/>
<path d="M139.584 353.111H67.9611C67.4454 353.111 67.0269 353.529 67.0269 354.045C67.0269 354.56 67.4454 354.979 67.9611 354.979H139.584C140.1 354.979 140.519 354.56 140.519 354.045C140.519 353.529 140.1 353.111 139.584 353.111Z" fill="#DADDDF"/>
<path d="M99.1017 359.65H67.9611C67.4454 359.65 67.0269 360.069 67.0269 360.584C67.0269 361.1 67.4454 361.519 67.9611 361.519H99.1017C99.6174 361.519 100.036 361.1 100.036 360.584C100.036 360.069 99.6174 359.65 99.1017 359.65Z" fill="#DADDDF"/>
<path d="M453.992 347.294H397.335C396.588 347.294 395.978 347.902 395.978 348.651V359.439C395.978 360.188 396.588 360.796 397.335 360.796H453.992C454.74 360.796 455.35 360.188 455.35 359.439V348.651C455.35 347.902 454.74 347.294 453.992 347.294Z" fill="#4FB9E3"/>
<path d="M164.976 483.814L135.468 483.085L134.048 466.811H133.967L129.732 425.787L129.657 425.108L118.496 317.106C118.459 316.628 118.241 316.182 117.884 315.862C117.529 315.54 117.063 315.368 116.584 315.381C116.112 315.38 115.657 315.557 115.311 315.877C114.964 316.197 114.752 316.636 114.716 317.106L102.646 425.002L97.9682 466.811L97.2021 475.531L96.5482 483.067L80.1496 483.472L81.4326 475.668L82.0927 469.334L82.5038 460.11L83.4754 425.693V425.226L87.4738 284.222L150.695 283.175L149.911 424.828L149.693 464.494L149.904 469.334C149.973 470.955 150.543 472.516 151.536 473.799C152.006 474.4 152.558 474.932 153.174 475.381L164.976 483.814Z" fill="#FC9D9D"/>
<path opacity="0.15" d="M151.561 473.818L144.766 479.554L144.442 470.212L143.197 434.394C143.16 433.344 142.815 432.329 142.205 431.474C141.594 430.618 140.746 429.962 139.765 429.586L129.744 425.768L129.47 425.662L129.414 425.095H129.669L149.948 424.834L149.73 464.501L149.942 469.34C149.942 469.527 149.942 469.72 149.979 469.907C150.144 471.329 150.69 472.681 151.561 473.818Z" fill="black"/>
<path d="M82.3792 475.992L82.8338 475.574C86.2531 472.41 92.1324 472.46 95.4583 475.718L95.7136 475.992C96.119 476.378 96.4442 476.839 96.669 477.349C96.8932 477.866 97.0134 478.414 97.0215 478.975V480.75C97.0215 481.771 97.171 481.342 97.526 482.313L99.083 487.109C99.4866 488.261 99.6971 489.475 99.7058 490.696V491.319C99.6566 491.799 99.4256 492.235 99.0606 492.552C98.695 492.864 98.2235 493.019 97.744 492.994H79.6824C79.2003 493.032 78.7226 492.876 78.3545 492.565C77.9865 492.247 77.7585 491.799 77.7205 491.319V491.064C77.723 489.65 77.9809 488.249 78.4804 486.922L80.2927 482.22C80.6913 481.148 80.9467 481.485 80.9467 480.351L80.9965 479C81.0625 477.86 81.5558 476.783 82.3792 475.992Z" fill="#4FB9E3"/>
<path opacity="0.6" d="M77.7019 491.064V491.3C77.7505 491.78 77.9815 492.222 78.3471 492.533C78.7127 492.845 79.1841 493 79.6637 492.976H97.7253C98.2073 493.013 98.6851 492.857 99.0531 492.546C99.4206 492.228 99.6492 491.78 99.6872 491.3V490.677C99.6953 490.441 99.6784 490.204 99.6373 489.974H77.7019V491.064Z" fill="black"/>
<path d="M150.72 283.194V469.888L149.967 469.932L144.442 470.243L134.023 470.866L129.458 425.668L129.402 425.102L118.496 317.106C118.459 316.628 118.241 316.182 117.884 315.862C117.529 315.54 117.063 315.368 116.584 315.381C116.123 315.383 115.68 315.556 115.338 315.867C114.983 316.19 114.761 316.634 114.716 317.112L98.5225 470.828L81.4138 469.988L87.48 284.246L150.72 283.194Z" fill="#21252B"/>
<path opacity="0.3" d="M91.2668 470.467L105.436 326.598C105.978 320.208 109.839 315.387 114.392 315.387H116.528C115.569 315.387 114.753 316.415 114.66 317.816L98.5412 470.828L91.2668 470.467Z" fill="black"/>
<path opacity="0.3" d="M150.733 285.461V469.888L144.449 470.243L141.291 285.486L150.733 285.461Z" fill="black"/>
<path d="M133.425 477.854V489.357C133.424 489.799 133.511 490.235 133.68 490.646C133.849 491.057 134.097 491.425 134.41 491.736C134.723 492.054 135.095 492.297 135.504 492.465C135.914 492.633 136.352 492.72 136.794 492.72H175.888C176.262 492.72 176.621 492.571 176.885 492.309C177.151 492.048 177.3 491.686 177.302 491.313C177.298 489.974 176.875 488.672 176.093 487.588C175.311 486.505 174.209 485.689 172.942 485.265L164.117 482.344L152.906 473.656C152.342 473.222 151.646 472.994 150.934 473.012C150.223 473.029 149.538 473.289 148.995 473.749L144.069 477.984C143.713 478.296 143.284 478.508 142.822 478.601C142.362 478.694 141.883 478.676 141.434 478.533L135.156 476.577C134.956 476.521 134.746 476.508 134.54 476.546C134.335 476.577 134.142 476.664 133.974 476.789C133.807 476.907 133.67 477.069 133.574 477.256C133.479 477.443 133.428 477.648 133.425 477.854Z" fill="#4FB9E3"/>
<path opacity="0.6" d="M136.782 492.72H175.876C176.249 492.72 176.608 492.571 176.874 492.309C177.138 492.041 177.288 491.686 177.29 491.313C177.3 490.833 177.239 490.36 177.109 489.899H133.481C133.607 490.684 134.008 491.4 134.613 491.917C135.217 492.434 135.987 492.72 136.782 492.72Z" fill="black"/>
<path d="M152.701 478.265C152.615 478.265 152.533 478.227 152.47 478.171C152.408 478.103 152.373 478.016 152.373 477.922C152.373 477.829 152.408 477.742 152.47 477.673L154.837 475.126C154.904 475.06 154.993 475.024 155.086 475.024C155.18 475.024 155.269 475.06 155.335 475.126C155.401 475.193 155.438 475.284 155.438 475.378C155.438 475.472 155.401 475.563 155.335 475.63L152.975 478.171C152.892 478.221 152.798 478.259 152.701 478.265Z" fill="white"/>
<path d="M154.569 479.722C154.484 479.722 154.401 479.685 154.339 479.629C154.274 479.56 154.237 479.473 154.237 479.38C154.237 479.286 154.274 479.199 154.339 479.13L156.706 476.583C156.772 476.515 156.861 476.483 156.955 476.483C157.048 476.483 157.137 476.515 157.204 476.583C157.269 476.652 157.307 476.739 157.307 476.832C157.307 476.932 157.269 477.019 157.204 477.088L154.843 479.629C154.761 479.679 154.667 479.716 154.569 479.722Z" fill="white"/>
<path d="M156.432 481.173C156.347 481.173 156.265 481.142 156.201 481.086C156.135 481.018 156.098 480.93 156.098 480.837C156.098 480.737 156.135 480.65 156.201 480.582L158.568 478.034C158.636 477.972 158.725 477.935 158.817 477.935C158.909 477.935 158.998 477.972 159.066 478.034C159.132 478.103 159.169 478.19 159.169 478.29C159.169 478.383 159.132 478.47 159.066 478.539L156.712 481.099C156.631 481.155 156.531 481.186 156.432 481.173Z" fill="white"/>
<path d="M103.679 178.761H122.987C123.203 178.763 123.415 178.822 123.601 178.931C123.788 179.04 123.943 179.196 124.052 179.383L125.721 182.143L144.206 184.528C148.419 185.071 152.309 187.069 155.205 190.177L180.117 216.902L207.702 189.809L215.306 199.936L185.729 234.758C183.99 236.669 181.599 237.86 179.026 238.097C176.453 238.333 173.885 237.597 171.828 236.034L150.652 221.903V285.492H87.3867C87.3867 285.492 81.0714 186.34 83.3322 185.886L100.952 182.51L102.583 179.396C102.692 179.202 102.852 179.04 103.044 178.928C103.237 178.817 103.456 178.759 103.679 178.761Z" fill="#FC9D9D"/>
<path d="M97.3081 183.232L83.7557 185.612C82.4497 185.84 81.2053 186.338 80.1017 187.073C78.998 187.809 78.0601 188.766 77.347 189.884L46.9662 234.502C45.502 236.654 44.9215 239.287 45.345 241.855C45.7679 244.422 47.1624 246.729 49.2395 248.298L69.4622 263.575L78.1815 254.295L65.3952 240.83L89.8032 211.421L101.101 210.916L97.3081 183.232Z" fill="#FC9D9D"/>
<path d="M69.4621 263.575L78.0881 270.14C78.0881 270.14 78.2562 273.976 84.5653 276.891L86.3341 283.319C86.7452 285.28 89.4918 285.118 89.4482 283.157L92.3692 267.86L78.1753 254.296L69.4621 263.575Z" fill="#FC9D9D"/>
<path d="M126.194 158.314C125.945 158.351 125.851 158.619 125.889 158.874C125.926 159.13 126.194 159.211 126.443 159.18L128.442 158.762C128.915 158.639 129.321 158.335 129.572 157.916C129.824 157.497 129.901 156.995 129.788 156.52C129.705 156.214 129.547 155.934 129.33 155.704C129.113 155.473 128.842 155.3 128.542 155.2C128.168 155.057 127.844 154.809 127.61 154.484C127.375 154.16 127.24 153.775 127.222 153.375C127.222 153.02 127.184 152.752 127.166 152.653C126.119 148.517 126.194 158.314 126.194 158.314Z" fill="#FC9D9D"/>
<path d="M126.537 144.979L128.324 165.7C128.452 167.151 128.07 168.603 127.245 169.803C126.42 171.005 125.203 171.881 123.802 172.283L122.507 172.657L123.591 182.186L114.361 180.94L103.773 181.775L104.95 156.533L116.74 145.247L126.537 144.979Z" fill="#FC9D9D"/>
<path opacity="0.15" d="M114.579 158.426L114.84 159.049C115.735 159.31 116.643 159.518 117.562 159.672L114.149 163.913L114.579 158.426Z" fill="black"/>
<path d="M129.258 155.661C129.146 155.662 129.037 155.624 128.949 155.554C128.862 155.483 128.802 155.384 128.779 155.275L127.172 148.181C127.151 148.115 127.145 148.046 127.153 147.978C127.161 147.91 127.183 147.844 127.218 147.785C127.253 147.727 127.3 147.675 127.356 147.635C127.411 147.595 127.475 147.568 127.542 147.554C127.609 147.54 127.678 147.54 127.746 147.554C127.812 147.568 127.876 147.597 127.931 147.637C127.987 147.677 128.033 147.729 128.068 147.788C128.102 147.847 128.124 147.914 128.131 147.981L129.732 155.069C129.745 155.132 129.747 155.196 129.735 155.26C129.724 155.322 129.7 155.382 129.665 155.436C129.631 155.49 129.585 155.537 129.533 155.573C129.48 155.61 129.421 155.635 129.358 155.648L129.258 155.661Z" fill="black"/>
<path d="M128.255 150.731L117.274 153.17L117.486 154.124L128.467 151.686L128.255 150.731Z" fill="black"/>
<path opacity="0.15" d="M122.507 172.657L118.452 172.576C118.175 172.57 117.9 172.632 117.652 172.758C117.404 172.883 117.191 173.067 117.031 173.294C116.87 173.521 116.769 173.784 116.735 174.06C116.7 174.335 116.734 174.615 116.833 174.875L118.309 178.773H123.205L122.507 172.657Z" fill="black"/>
<path d="M114.579 158.426L114.149 163.944L104.396 167.133C104.396 167.133 98.5039 165.227 97.252 157.616L116.036 148.791L117.244 153.188L114.579 158.426Z" fill="#3F4249"/>
<path d="M118.303 156.613C118.845 158.482 119.437 159.808 116.983 159.821C112.318 159.821 111.377 153.68 113.981 152.266C114.252 152.087 114.561 151.97 114.883 151.923C115.205 151.876 115.533 151.901 115.845 151.996C116.156 152.09 116.443 152.252 116.685 152.47C116.927 152.688 117.118 152.956 117.244 153.256L118.303 156.613Z" fill="#FC9D9D"/>
<path opacity="0.15" d="M116.945 155.922C116.872 155.323 116.658 154.749 116.323 154.247C116.048 153.879 115.654 153.618 115.208 153.512C114.982 153.492 114.755 153.518 114.541 153.59C114.327 153.662 114.13 153.777 113.962 153.929C113.905 153.997 113.87 154.08 113.862 154.168C113.853 154.256 113.87 154.343 113.912 154.421C114.006 154.583 114.168 154.571 114.323 154.477C114.435 154.36 114.573 154.271 114.725 154.217C114.878 154.163 115.041 154.145 115.201 154.166C115.451 154.166 115.631 154.384 115.899 154.689C116.182 155.09 116.356 155.558 116.403 156.047L116.528 156.607C116.528 156.769 116.709 156.838 116.871 156.832C117.033 156.825 117.101 156.651 117.089 156.483L116.97 155.922" fill="black"/>
<path d="M127.159 138.807C127.159 135.071 124.45 132.056 121.112 132.056C120.654 132.057 120.198 132.115 119.754 132.231C119.085 131.279 118.193 130.507 117.156 129.98C116.119 129.454 114.969 129.189 113.806 129.21C112.558 129.178 111.324 129.477 110.23 130.077C109.136 130.678 108.221 131.559 107.578 132.629C106.204 131.291 104.358 130.546 102.44 130.555C98.4851 130.555 95.2839 133.601 95.2839 137.356C95.2863 138.416 95.5473 139.459 96.0437 140.396C93.2846 141.018 91.2792 142.949 91.2792 145.216C91.2792 147.19 92.8113 148.897 95.016 149.725C94.4761 150.055 94.0289 150.517 93.7163 151.067C93.4036 151.617 93.2361 152.238 93.2286 152.87C93.2479 153.737 93.5587 154.571 94.1117 155.238C94.6648 155.905 95.4265 156.366 96.2741 156.545C96.2741 156.582 96.2741 156.626 96.2741 156.663C96.2125 157.324 96.4155 157.983 96.8384 158.493C97.2619 159.005 97.871 159.326 98.5318 159.388C99.1926 159.45 99.8509 159.247 100.362 158.824C100.873 158.4 101.195 157.791 101.257 157.131C101.632 157.269 102.028 157.341 102.428 157.342C104.296 157.342 105.847 155.841 106.501 153.711C106.737 153.711 106.974 153.742 107.217 153.742C110.256 153.742 112.766 152.254 113.215 150.317C113.549 150.364 113.886 150.389 114.224 150.392C117.444 150.392 120.059 148.324 120.122 145.752C121.01 146.448 122.107 146.827 123.236 146.829C124.52 146.858 125.762 146.375 126.691 145.488C127.62 144.6 128.158 143.38 128.187 142.096C128.187 140.996 127.791 139.933 127.072 139.1C127.147 139 127.159 138.907 127.159 138.807Z" fill="black"/>
<path d="M97.3081 183.232L84.0733 185.555C82.667 185.802 81.3267 186.338 80.139 187.131C78.9506 187.923 77.9404 188.954 77.1725 190.158L60.176 215.27L75.4411 228.766L89.8032 211.421L101.101 210.916L97.3081 183.232Z" fill="#4FB9E3"/>
<path d="M82.8401 185.886L101.008 182.51L102.434 179.533C102.581 179.23 102.812 178.974 103.098 178.797C103.385 178.619 103.716 178.527 104.053 178.53L122.912 178.748C123.217 178.753 123.515 178.839 123.778 178.995C124.04 179.151 124.256 179.373 124.407 179.639L125.783 182.13L144.81 184.621C149.01 185.168 152.878 187.187 155.728 190.32L169.673 205.635L154.252 224.276L150.714 221.897V285.486H87.4427L83.4255 229.252C83.4255 229.252 77.9386 186.808 82.8401 185.886Z" fill="#4FB9E3"/>
<path opacity="0.15" d="M148.117 214.672C147.693 214.388 147.202 214.223 146.692 214.192C146.183 214.162 145.675 214.267 145.22 214.498C144.766 214.729 144.381 215.077 144.105 215.506C143.829 215.935 143.673 216.43 143.652 216.939L143.365 223.828L141.285 285.486H150.714V221.891L154.295 224.214L157.179 220.732L148.117 214.672Z" fill="black"/>
<path d="M215.306 199.905L197.867 199.413L208.249 189.199L218.302 177.883L225.738 170.11C225.838 169.966 225.967 169.845 226.117 169.755C226.266 169.664 226.433 169.606 226.607 169.585C226.781 169.563 226.957 169.579 227.124 169.63C227.291 169.681 227.446 169.766 227.578 169.881C227.711 169.996 227.816 170.137 227.891 170.296C227.964 170.455 228.004 170.627 228.006 170.802C228.009 170.977 227.975 171.151 227.905 171.311C227.837 171.472 227.735 171.617 227.607 171.735C226.236 173.311 224.081 175.877 221.852 178.424C222.223 178.281 222.626 178.244 223.017 178.315C223.408 178.386 223.772 178.565 224.069 178.829C224.392 179.126 224.616 179.513 224.713 179.94C224.81 180.368 224.774 180.814 224.611 181.221C224.934 181.053 225.295 180.97 225.659 180.981C226.023 180.992 226.378 181.096 226.691 181.283C227.003 181.471 227.262 181.735 227.443 182.052C227.625 182.368 227.721 182.725 227.725 183.089C227.724 183.301 227.691 183.511 227.625 183.712C228.008 183.53 228.435 183.466 228.854 183.527C229.273 183.588 229.665 183.771 229.979 184.055C231.225 185.201 229.73 187.636 228.946 188.626C226.062 192.382 215.306 199.905 215.306 199.905Z" fill="#FC9D9D"/>
<path opacity="0.15" d="M229.033 183.587C228.503 187.891 215.798 196.903 215.798 196.903L185.019 231.201C181.412 235.162 175.932 234.047 171.665 230.809C171.665 230.809 151.256 216.771 150.415 216.21L150.658 221.872L173.26 236.919C177.701 239.111 182.365 238.289 185.716 234.726L215.293 199.905C215.293 199.905 226.205 192.35 229.064 188.57C229.917 187.442 231.25 185.175 230.023 184.092C229.747 183.833 229.404 183.658 229.033 183.587Z" fill="black"/>
<path opacity="0.15" d="M82.8401 185.886C81.1461 186.297 80.6229 186.745 79.1033 187.966C79.1406 192.699 78.1441 211.371 78.8292 218.446L62.5863 236.396C62.4387 236.558 62.3571 236.769 62.3571 236.987C62.3571 237.206 62.4387 237.417 62.5863 237.579L65.4574 240.818L80.106 223.117L82.4166 220.333C82.4166 220.333 77.9386 186.808 82.8401 185.886Z" fill="black"/>
</svg>
