<svg width="1299" height="844" viewBox="0 0 1299 844" fill="none" xmlns="http://www.w3.org/2000/svg">
<g opacity="0.65">
<g opacity="0.2" filter="url(#filter0_f_8054_4136)">
<path d="M461.642 121.068C719.623 136.732 1173.91 -103.197 1190.08 129.827C1206.24 362.851 843.701 934.346 585.721 918.684C327.74 903.02 105.503 701.419 89.3394 468.394C73.1756 235.37 203.661 105.406 461.642 121.068Z" fill="url(#paint0_angular_8054_4136)"/>
</g>
<g opacity="0.35" clip-path="url(#clip0_8054_4136)">
<g opacity="0.3" filter="url(#filter1_f_8054_4136)">
<path d="M758.485 222.612C911.652 231.913 1181.37 89.4544 1190.97 227.813C1200.56 366.171 985.32 705.496 832.152 696.197C678.985 686.896 547.039 567.195 537.443 428.837C527.846 290.479 605.318 213.313 758.485 222.612Z" fill="#F5AEFF"/>
</g>
</g>
</g>
<rect width="1299" height="170" fill="url(#paint1_linear_8054_4136)" fill-opacity="0.04"/>
<defs>
<filter id="filter0_f_8054_4136" x="-312" y="-372.535" width="1902.6" height="1691.54" filterUnits="userSpaceOnUse" color-interpolation-filters="sRGB">
<feFlood flood-opacity="0" result="BackgroundImageFix"/>
<feBlend mode="normal" in="SourceGraphic" in2="BackgroundImageFix" result="shape"/>
<feGaussianBlur stdDeviation="200" result="effect1_foregroundBlur_8054_4136"/>
</filter>
<filter id="filter1_f_8054_4136" x="136.647" y="-232.965" width="1454.63" height="1329.35" filterUnits="userSpaceOnUse" color-interpolation-filters="sRGB">
<feFlood flood-opacity="0" result="BackgroundImageFix"/>
<feBlend mode="normal" in="SourceGraphic" in2="BackgroundImageFix" result="shape"/>
<feGaussianBlur stdDeviation="200" result="effect1_foregroundBlur_8054_4136"/>
</filter>
<radialGradient id="paint0_angular_8054_4136" cx="0" cy="0" r="1" gradientUnits="userSpaceOnUse" gradientTransform="translate(639.299 473.232) rotate(90) scale(445.768 551.299)">
<stop stop-color="#FFCAFF"/>
<stop offset="0.635417" stop-color="#F5AEFF"/>
</radialGradient>
<linearGradient id="paint1_linear_8054_4136" x1="971" y1="170" x2="971" y2="-7.17299" gradientUnits="userSpaceOnUse">
<stop stop-color="white"/>
<stop offset="1" stop-color="white" stop-opacity="0"/>
</linearGradient>
<clipPath id="clip0_8054_4136">
<rect width="1160.31" height="883.102" fill="white" transform="translate(226.687)"/>
</clipPath>
</defs>
</svg>
