<svg width="460" height="474" viewBox="0 0 460 474" fill="none" xmlns="http://www.w3.org/2000/svg">
<path d="M340.601 181.37L340.255 181.214L261.315 145.411L261.579 26.3269L340.613 11.6719L426.891 27.3784V145.695L426.346 145.921L340.601 181.37ZM263.071 144.271L340.632 179.453L425.139 144.513V28.8493L340.616 13.4619L263.329 27.7916L263.071 144.271Z" fill="#00B9E9"/>
<path d="M262.694 145.565L261.695 144.119L306.052 113.132L290.827 78.7773V40.179L262.112 27.871L262.8 26.25L292.579 39.0148V78.4049L308.244 113.749L262.694 145.565Z" fill="#00B9E9"/>
<path d="M425.216 145.468L410.494 112.581L398.017 92.4585L382.944 76.7833V40.2535L425.762 27.2695L426.268 28.9563L384.697 41.5616V76.0697L399.406 91.3663L399.456 91.4445L412.07 111.805L426.815 144.745L425.216 145.468Z" fill="#00B9E9"/>
<path d="M292.19 78.9133L291.215 78.2655L317.931 37.7772V33.8561L291.838 40.1649L291.567 39.0226L319.102 32.3633V38.1308L319.002 38.2779L292.19 78.9133Z" fill="#00B9E9"/>
<path d="M361.134 36.2661L360.829 35.13L386.726 28.0982L360.216 20.5532L340.629 25.8013L319.08 20.8912L297.012 28.2203L319.093 32.3669L318.878 33.5216L292.333 28.5365L319.021 19.6739L340.604 24.5934L360.225 19.3359L391.11 28.1265L361.134 36.2661Z" fill="#00B9E9"/>
<path d="M360.815 35.1367L360.56 36.282L383.697 41.4747L383.951 40.3293L360.815 35.1367Z" fill="#00B9E9"/>
<path d="M341.201 180.416H340.031V149.296L345.603 93.4205L340.031 43.7849V25.1992H341.201V43.7536L346.777 93.4143L346.77 93.4769L341.198 149.353L341.201 180.416Z" fill="#00B9E9"/>
<path d="M360.816 35.1367L351.101 62.6494L352.202 63.042L361.916 35.5292L360.816 35.1367Z" fill="#00B9E9"/>
<path d="M411.002 112.687L367.419 90.0772L367.332 89.9364L340.115 44.7945L341.114 44.1875L368.247 89.1853L411.537 111.645L411.002 112.687Z" fill="#00B9E9"/>
<path d="M385.148 77.8465L351.773 63.2633L352.237 62.1868L382.477 75.3992L361.053 36.1563L362.078 35.5898L385.148 77.8465Z" fill="#00B9E9"/>
<path d="M360.482 36.8359L340.724 44.281L341.135 45.3828L360.893 37.9377L360.482 36.8359Z" fill="#00B9E9"/>
<path d="M318.693 37.4023L318.348 38.5234L340.447 45.3975L340.792 44.2764L318.693 37.4023Z" fill="#00B9E9"/>
<path d="M340.328 24.8438L318.445 37.216L319.017 38.2387L340.9 25.8667L340.328 24.8438Z" fill="#00B9E9"/>
<path d="M341.083 24.9805L340.474 25.9815L360.299 38.1752L360.909 37.1742L341.083 24.9805Z" fill="#00B9E9"/>
<path d="M340.292 44.3359L291.319 78.204L291.981 79.1708L340.954 45.3028L340.292 44.3359Z" fill="#00B9E9"/>
<path d="M340.461 150.063L324.789 129.124L306.703 113.512L336.862 86.2451L327.18 78.0053L340.074 44.8711L341.164 45.2998L328.575 77.6516L346.674 93.0547L346.727 93.1798L365.047 135.621L340.461 150.063ZM308.474 113.49L325.686 128.367L340.772 148.52L363.634 135.114L345.712 93.7743L337.765 87.0087L308.474 113.49Z" fill="#00B9E9"/>
<path d="M327.875 77.2539L292.386 77.6023L292.398 78.7759L327.886 78.4275L327.875 77.2539Z" fill="#00B9E9"/>
<path d="M345.306 92.5156L324.932 127.978L325.943 128.565L346.317 93.1024L345.306 92.5156Z" fill="#00B9E9"/>
<path d="M339.514 180.404L324.668 155.682L285.73 128.75L286.39 127.783L325.54 154.859L340.517 179.801L339.514 180.404Z" fill="#00B9E9"/>
<path d="M324.629 128.719L324.526 155.266L325.693 155.27L325.796 128.723L324.629 128.719Z" fill="#00B9E9"/>
<path d="M278.667 152.54L278.654 151.366L318.837 150.906L319.497 152.049L278.667 152.54Z" fill="#00B9E9"/>
<path d="M367.121 147.945L363.811 135.512L365.047 135.621L368.251 147.641L367.121 147.945Z" fill="#00B9E9"/>
<path d="M341.285 180.835L340.38 180.09L381.039 130.164L367.279 89.8193L368.388 89.4375L382.356 130.402L341.285 180.835Z" fill="#00B9E9"/>
<path d="M346.161 92.3086L345.511 93.2871L375.233 113.242L375.883 112.263L346.161 92.3086Z" fill="#00B9E9"/>
<path d="M381.391 130.784C371.329 124.541 356.013 115.119 355.057 114.746L355.219 114.324V113.598C355.428 113.598 355.917 113.598 382.004 129.786L381.391 130.784Z" fill="#00B9E9"/>
<path d="M410.868 111.402L375.511 111.854L375.526 113.027L410.883 112.576L410.868 111.402Z" fill="#00B9E9"/>
<path d="M382.001 130.784L381.394 129.783C394.618 121.678 410.454 111.995 410.793 111.883L410.977 112.44L411.223 112.972C410.498 113.335 389.883 125.953 382.001 130.784Z" fill="#00B9E9"/>
<path d="M410.474 112.125L396.857 133.667L397.842 134.296L411.459 112.754L410.474 112.125Z" fill="#00B9E9"/>
<path d="M397.548 133.117L397.116 134.211L425.429 145.521L425.862 144.428L397.548 133.117Z" fill="#00B9E9"/>
<path d="M367.242 149.528L366.43 148.655L397.66 133.029L398.179 134.084L367.242 149.528Z" fill="#00B9E9"/>
<path d="M400.265 156.119C366.915 149.635 366.85 149.569 366.675 149.391L367.09 148.975L367.27 148.418C368.067 148.643 391.517 153.222 400.486 154.965L400.265 156.119Z" fill="#00B9E9"/>
<path d="M319.41 20.3711H318.788V37.3356H319.41V20.3711Z" fill="#00B9E9"/>
<path d="M240 199.21L136.507 111L69.0784 150.324L69.0648 150.311L69.0603 150.332L69.0104 150.362L69.0467 150.418L65.0944 172.821L43.6289 164.616L8.93337 186.073L8.90164 186.082L8.90618 186.09L8.86085 186.12L8.92883 186.146L16.0719 207.342L0.0861168 217.709L0 217.735L0.00905983 217.761L0.004523 217.765L0.0135967 217.769L10.4925 249.465L10.4699 249.512L36.0281 261.51L46.0085 293.887L134.44 337.666L135.052 338L168.628 316.496L164.177 297.623L202.295 271.869L202.313 271.877L213.182 251.764L213.168 251.759L213.173 251.755L203.877 243.64L222.985 230.55H222.99C222.994 230.546 222.994 230.546 222.999 230.542C223.126 230.422 223.262 230.302 223.411 230.208C223.416 230.204 223.425 230.199 223.43 230.195C223.452 230.174 223.479 230.152 223.502 230.131C223.547 230.049 223.593 229.972 223.643 229.891L223.638 229.883L239.791 199.364L240 199.21ZM202.925 170.493L172.141 191.526L138.61 162.257L168.714 141.335L202.925 170.493ZM136.249 113.667L167.685 140.462L137.595 161.375L104.291 132.308L136.249 113.667ZM103.094 133.005L171.021 192.297L142.091 212.068L70.8415 151.813L103.094 133.005ZM113.229 232.964L125.711 235.982L95.6202 256.22L85.1322 251.747L113.229 232.964ZM84.9464 249.247L73.8012 210.523L104.304 190.097L112.481 230.841L84.9464 249.247ZM128.961 236.423L135.913 272.934L106.376 292.573L97.0343 257.893L128.961 236.423ZM137.015 274.822L156.993 279.971L125.783 301.339L109.095 293.386L137.015 274.822ZM43.8782 167.021L101.789 189.155L72.3644 208.862L13.6743 185.701L43.8782 167.021ZM11.6664 187.233L71.5576 210.865L83.0699 250.865L24.6971 225.957L24.7152 225.953L11.6664 187.233ZM16.7835 209.474L21.9414 224.776L4.60039 217.375L16.7835 209.474ZM12.3825 248.023L2.76929 218.951L94.7817 258.21L103.565 290.822L12.3825 248.023ZM47.8985 292.444L38.8382 262.828L106.978 294.811L106.974 294.794L106.997 294.781L125.249 303.479L133.126 334.49L47.8985 292.444ZM166.076 315.537L135.601 335.059L127.424 302.863L158.131 281.837L166.076 315.537ZM163.638 295.346L161.943 288.16L162.981 285.031L182.878 271.744L176.669 286.512L176.691 286.52L163.638 295.346ZM163.652 283.01L168.732 267.704L190.991 252.457L183.803 269.561L163.652 283.01ZM200.559 270.4L180.059 284.252L186.268 269.484L209.402 254.041L200.559 270.4ZM210.113 251.991L187.188 267.297L194.413 250.111L202.005 244.911L210.113 251.991ZM221.685 228.791L169.866 264.284L176.977 242.848L235.794 202.124L221.685 228.791ZM176.079 240.815L143.124 212.941L203.958 171.37L236.419 199.034L176.079 240.815Z" fill="#F5AEFF"/>
<path d="M459.826 294.58C459.284 287.873 457.27 280.907 451.798 276.356C445.857 271.414 437.866 270.167 430.322 269.408C426.076 268.978 421.802 268.653 417.638 267.691C413.87 266.818 410.253 265.422 406.909 263.539C405.31 262.64 403.77 261.639 402.316 260.528C401.255 259.427 400.266 258.286 399.355 257.057C399.127 256.736 398.9 256.416 398.672 256.095C398.275 255.52 397.884 254.945 397.487 254.37C397.191 253.945 396.89 253.519 396.59 253.093C396.549 253.032 396.499 252.975 396.453 252.913C396.307 252.667 396.152 252.426 395.97 252.189C394.544 250.367 392.539 249.143 390.316 248.405C387.824 247.58 385.141 247.392 382.53 247.234C379.797 247.067 377.049 247.01 374.311 247.146C370.074 247.356 365.742 248.068 361.691 249.446C356.835 245.728 351.878 241.98 346.156 239.574C340.237 237.09 333.764 236.133 327.485 237.92C321.431 239.645 316.205 243.253 311.029 246.606C305.193 250.389 299.357 254.173 293.521 257.956C286.997 262.187 280.468 266.419 273.944 270.65C273.899 270.681 273.862 270.711 273.826 270.746C273.548 270.764 273.275 270.768 272.997 270.79C267.288 271.207 261.784 272.594 256.55 274.815C247.119 278.814 238.153 285.059 233.747 294.29C229.606 302.963 229.269 312.887 230.941 322.174C232.882 332.941 237.456 343.036 241.324 353.245C241.661 354.136 241.984 355.032 242.312 355.927C241.251 365.539 239.952 375.125 238.449 384.689C237.406 391.308 236.394 398.3 238.385 404.853C240.276 411.081 244.987 415.598 250.49 419.065C253.306 420.838 256.281 422.361 259.238 423.898C262.823 425.763 266.409 427.624 269.99 429.489C277.161 433.216 284.327 436.942 291.498 440.669L295.731 442.872C295.749 442.881 295.758 442.894 295.776 442.903C296.615 443.377 297.453 443.855 298.291 444.329C299.649 446.23 301.216 447.985 303.034 449.513C305.389 451.492 308.282 453.173 311.357 453.963C311.449 454.095 311.567 454.205 311.717 454.275C319.294 457.821 326.829 461.46 334.315 465.186C336.379 466.214 338.433 467.245 340.488 468.285C341.007 469.066 341.609 469.795 342.283 470.458C342.247 470.471 342.21 470.484 342.174 470.502C344.752 472.938 348.825 474.013 352.356 474C358.502 473.974 364.265 471.406 369.131 467.952C374.293 464.282 378.635 459.709 382.762 455.012C386.753 450.465 390.508 445.716 394.038 440.827C394.148 440.8 394.262 440.765 394.376 440.704C401.332 436.837 408.103 432.663 414.827 428.436C421.602 424.178 428.417 419.965 435.133 415.62C438.217 413.623 441.224 411.459 443.643 408.72C445.844 406.227 447.602 403.409 448.942 400.402C451.935 393.683 452.869 386.383 453.069 379.128C453.179 375.261 453.11 371.39 453.047 367.519C452.983 363.634 452.823 359.75 452.24 355.905C452.099 354.961 451.926 354.022 451.725 353.087C451.689 352.916 451.598 352.771 451.479 352.648C454.131 348.487 455.862 343.712 455.27 338.792C455.083 337.238 454.673 335.781 454.04 334.341C454.035 334.332 454.026 334.323 454.022 334.315C454.55 332.875 455.029 331.418 455.48 329.956C456.691 326.006 457.634 321.981 458.332 317.917C459.042 313.787 459.516 309.617 459.771 305.434C460.004 301.822 460.117 298.187 459.826 294.58ZM397.428 258.992C397.464 258.773 397.496 258.553 397.519 258.329C401.437 263.842 405.223 269.447 408.772 275.188C412.845 281.781 416.608 288.562 419.861 295.567C419.898 295.642 419.93 295.716 419.962 295.791C412.599 295.993 405.82 299.32 399.164 302.076C395.337 303.661 391.437 304.894 387.396 305.86C383.327 306.834 379.218 307.756 375.045 308.186C370.389 308.66 365.669 308.515 361.199 307.08C361.176 307.071 361.158 307.071 361.136 307.067C359.012 303.718 356.867 300.378 354.529 297.169C352.106 293.833 349.372 290.612 346.046 288.084C356.211 284.901 366.375 281.671 376.202 277.598C381.018 275.601 385.879 273.503 389.979 270.303C393.606 267.476 396.658 263.509 397.428 258.992ZM438.636 318.549C439.639 320.401 440.85 322.135 442.222 323.754C442.235 323.767 442.254 323.781 442.267 323.794C442.094 324.452 441.907 325.106 441.707 325.756C440.281 330.364 438.181 334.749 435.497 338.796C433.98 336.461 433.324 333.643 432.855 330.944C432.208 327.231 431.657 323.517 430.796 319.844C430.718 319.514 430.632 319.19 430.554 318.86C430.554 318.852 430.559 318.843 430.559 318.834C431.196 313.905 432.481 309.046 434.331 304.416C434.527 303.928 434.727 303.437 434.937 302.945C434.759 308.335 436.039 313.747 438.636 318.549ZM437.174 303.599C437.192 301.743 437.402 299.899 437.798 298.082C438.34 297.468 438.978 296.849 439.871 297.16C440.764 297.468 441.434 298.28 441.88 299.052C443.033 301.032 443.452 303.345 443.693 305.574C443.939 307.839 444.021 310.126 443.953 312.404C443.862 315.314 443.511 318.211 442.919 321.059C439.124 316.038 437.115 309.801 437.174 303.599ZM433.169 339.327C434.805 342.198 437.771 344.77 441.22 345.288C441.338 345.305 441.456 345.314 441.575 345.327C438.017 347.684 434.459 350.045 430.9 352.402C430.509 352.661 430.117 352.92 429.725 353.179C428.581 347.789 427.265 342.43 425.757 337.124C424.937 334.231 424.062 331.356 423.142 328.495C422.294 325.857 421.479 323.188 420.235 320.691C419.1 318.408 417.524 316.359 415.397 314.857C413.15 313.273 410.476 312.738 407.733 313.018C404.69 313.33 401.665 314.015 398.667 314.577C395.656 315.143 392.649 315.722 389.646 316.328C383.008 317.658 376.393 319.084 369.801 320.603C368.065 317.908 366.334 315.213 364.598 312.518C364.019 311.623 363.45 310.718 362.876 309.819C370.42 311.557 378.375 310.205 385.819 308.498C389.952 307.554 394.016 306.479 397.952 304.934C401.629 303.49 405.209 301.817 408.918 300.448C412.781 299.021 416.795 297.946 420.95 297.986C423.67 304.126 425.966 310.442 427.707 316.907C428.695 320.585 429.502 324.307 430.099 328.06C430.714 331.896 431.192 335.864 433.169 339.327ZM370.666 424.96C377.632 425.842 384.676 424.486 391.195 422.116C394.202 421.023 397.127 419.728 399.993 418.323C399.893 418.503 399.788 418.688 399.683 418.868C398.512 420.843 397.05 422.581 395.2 424.003C393.332 425.447 391.173 426.535 389.031 427.545C384.462 429.7 379.692 431.605 374.657 432.47C370.261 433.225 365.714 433.036 361.55 431.403C358.01 430.016 354.794 427.593 352.98 424.31C352.548 423.529 352.22 422.712 351.964 421.857C351.928 421.729 351.873 421.628 351.805 421.536C352.602 420.193 353.436 418.868 354.288 417.555C358.63 421.821 364.575 424.187 370.666 424.96ZM355.554 415.65C356.662 414.009 357.81 412.389 358.985 410.791C359.094 410.77 359.208 410.734 359.322 410.677C362.616 408.948 365.992 407.364 369.441 405.941C372.73 404.585 376.188 403.277 379.769 402.891C382.239 402.623 384.717 402.825 387.063 403.545C387.091 403.624 387.127 403.703 387.182 403.773C390.867 408.461 391.783 414.781 389.56 420.263C389.546 420.298 389.542 420.338 389.533 420.373C387.004 421.246 384.412 421.962 381.756 422.44C375.687 423.533 369.295 423.217 363.546 420.944C360.534 419.737 357.782 417.946 355.554 415.65ZM392.275 419.35C393.688 414.676 393.123 409.475 390.781 405.16C392.571 406.178 394.202 407.447 395.665 408.878C397.669 410.84 399.341 413.078 400.726 415.479C397.975 416.884 395.164 418.209 392.275 419.35ZM390.731 402.628C387.851 401.232 384.676 400.481 381.441 400.574C377.555 400.683 373.81 401.851 370.243 403.255C367.441 404.357 364.685 405.573 361.978 406.876C363.09 405.467 364.224 404.072 365.386 402.698C369.099 398.291 373.022 394.051 377.072 389.925C380.653 386.274 384.475 382.833 388.047 379.176C388.138 379.203 388.234 379.22 388.334 379.229C391.501 379.431 394.585 380.418 397.278 382.038C400.312 383.864 402.503 386.585 404.804 389.166C406.166 390.694 407.528 392.221 408.886 393.748C407.729 397.642 406.503 401.522 405.178 405.366C404.33 407.824 403.451 410.274 402.521 412.705C402.417 412.982 402.307 413.258 402.198 413.535C399.442 409.031 395.583 404.98 390.731 402.628ZM402.85 383.666C400.435 381.178 397.451 379.29 394.116 378.154C392.758 377.693 391.355 377.377 389.933 377.188C393.022 373.76 395.574 369.731 395.537 365.144C402.039 367.479 408.308 370.385 414.271 373.795C414.166 374.234 414.062 374.673 413.952 375.103C412.672 380.195 411.333 385.273 409.884 390.325C409.802 390.619 409.711 390.909 409.629 391.203C407.401 388.67 405.2 386.089 402.85 383.666ZM395.811 362.91C395.647 362.853 395.473 362.849 395.305 362.884C394.799 360.206 393.546 357.713 392.139 355.374C390.444 352.56 388.603 349.826 386.826 347.061C385.924 345.661 385.027 344.261 384.125 342.865C392.175 348.123 401.879 350.634 411.437 352.13C414.959 352.683 418.499 353.118 422.039 353.557C422.65 353.631 423.178 352.999 423.178 352.459C423.178 352.253 423.119 352.078 423.028 351.928C423.05 351.7 423.009 351.454 422.905 351.226C420.235 345.279 415.788 340.143 410.294 336.426C404.298 332.37 397.036 330.224 389.719 330.198C385.501 330.184 381.268 330.869 377.295 332.247L371.067 322.569C382.357 319.984 393.71 317.662 405.118 315.626C407.688 315.165 410.394 314.721 412.827 315.911C414.914 316.929 416.485 318.659 417.624 320.599C418.936 322.833 419.716 325.299 420.513 327.735C421.415 330.492 422.271 333.257 423.087 336.04C424.868 342.141 426.404 348.307 427.702 354.518C426.563 355.269 425.433 356.023 424.312 356.796C422.331 358.161 420.431 359.64 418.941 361.51C416.645 364.398 415.647 367.997 414.804 371.557C408.745 368.142 402.389 365.25 395.811 362.91ZM404.03 348.5C403.446 344.309 403.852 340.025 405.132 335.987C408.959 337.892 412.403 340.503 415.26 343.642C417.319 345.902 419.037 348.443 420.381 351.151C414.923 350.471 409.401 349.729 404.03 348.5ZM401.688 347.93C397.164 346.758 392.772 345.2 388.64 342.983C386.015 341.574 383.546 339.924 381.314 337.988C381.159 337.852 380.99 337.773 380.817 337.734C380.052 336.544 379.286 335.35 378.516 334.161C385.122 332.01 392.334 331.822 399.05 333.665C400.417 334.043 401.752 334.508 403.05 335.048C401.67 339.209 401.232 343.589 401.688 347.93ZM360.73 275.416C361.974 273.49 363.614 271.765 365.518 270.43C369.546 267.608 374.594 266.445 379.51 267.323C382.034 267.775 384.416 268.697 386.544 270.053C383.774 271.879 380.694 273.283 377.651 274.604C371.464 277.286 365.108 279.586 358.694 281.724C358.27 279.573 359.596 277.172 360.73 275.416ZM370.229 249.692C375.359 249.024 380.708 249.099 385.842 249.7C389.692 250.148 394.69 251.825 395.287 256.135C395.583 258.25 394.854 260.533 393.87 262.407C392.877 264.299 391.514 265.971 389.929 267.437C389.455 267.871 388.968 268.284 388.462 268.683C383.815 265.387 377.728 264.154 372.083 265.251C366.78 266.278 362.06 269.517 359.081 273.836C358.247 275.043 357.573 276.347 357.04 277.703C356.452 279.2 356.11 280.877 356.525 282.448C353.709 283.37 350.88 284.269 348.055 285.16C347.149 285.446 346.242 285.731 345.336 286.012C344.064 278.142 344.037 269.456 348.229 262.372C352.725 254.752 361.509 250.824 370.229 249.692ZM309.357 250.332C312.055 248.581 314.733 246.803 317.472 245.109C319.977 243.56 322.561 242.076 325.321 240.983C328.041 239.904 330.916 239.206 333.864 239.153C336.98 239.1 340.051 239.706 342.98 240.707C349.044 242.774 354.251 246.558 359.258 250.372C355.053 252.145 351.258 254.717 348.347 258.286C346.566 260.471 345.249 262.881 344.31 265.418C343.089 262.916 341.294 260.673 339.085 258.904C335.791 256.271 331.859 254.827 327.604 254.511C322.752 254.151 317.79 255.016 313.034 255.858C308.296 256.697 303.608 257.785 298.993 259.115C296.906 259.721 294.833 260.375 292.778 261.081C298.305 257.495 303.831 253.914 309.357 250.332ZM284.241 266.616C284.405 266.603 284.569 266.563 284.728 266.493C293.193 262.907 302.073 260.212 311.134 258.435C315.617 257.557 320.228 256.727 324.811 256.635C328.925 256.552 332.88 257.351 336.306 259.611C339.568 261.762 342.046 265.005 343.162 268.662C343.19 268.749 343.222 268.828 343.263 268.899C342.105 273.845 342.133 279.108 342.771 284.111C342.857 284.779 342.953 285.446 343.058 286.113C340.912 284.901 338.629 284.081 336.283 283.58C336.269 283.554 336.265 283.528 336.251 283.501C333.385 278.261 328.47 274.253 322.674 272.309C316.364 270.193 309.499 270.505 302.947 271.018C298.847 271.339 294.751 271.708 290.655 272.098C290.514 272.067 290.373 272.037 290.227 272.01C286.209 271.225 282.108 270.742 278.004 270.672C280.081 269.315 282.159 267.968 284.241 266.616ZM333.385 283.124C329.991 282.781 326.501 283.054 323.089 283.773C323.007 283.672 322.902 283.589 322.779 283.532C314.446 279.876 306.027 276.18 297.23 273.691C298.574 273.573 299.918 273.459 301.262 273.345C304.533 273.077 307.813 272.822 311.098 272.836C317.166 272.866 323.285 273.972 328.201 277.607C330.255 279.13 332.005 281.013 333.385 283.124ZM234.089 326.01C231.87 317.021 231.337 307.356 234.444 298.495C235.957 294.185 238.39 290.234 241.679 286.964C245.21 283.449 249.497 280.714 253.976 278.445C258.809 275.996 263.98 274.205 269.384 273.384C274.801 272.563 280.4 272.7 285.812 273.472C287.161 273.665 288.5 273.898 289.831 274.161C289.999 274.266 290.195 274.328 290.405 274.306C290.432 274.302 290.464 274.302 290.491 274.297C300 276.272 309.048 279.946 317.895 283.791C318.524 284.063 319.148 284.34 319.772 284.612C316.287 285.648 312.952 287.105 309.95 288.803C305.175 291.507 300.879 295.058 297.43 299.232C296.665 300.158 295.949 301.124 295.261 302.103C295.202 302.063 295.143 302.024 295.07 301.988C288.459 298.881 281.015 298.46 273.78 298.802C267.338 299.109 260.327 299.71 254.809 303.253C249.483 306.672 246.882 312.347 245.761 318.237C245.201 321.182 244.937 324.167 244.741 327.152C244.49 330.926 244.258 334.701 243.966 338.476C243.643 342.619 243.26 346.754 242.841 350.884C239.67 342.676 236.203 334.552 234.089 326.01ZM265.712 354.838C269.548 352.293 273.111 349.282 276.455 346.165C278.104 344.629 279.689 343.036 281.229 341.394C281.111 344.397 281.266 347.412 281.744 350.423C283.571 361.914 290.546 371.662 298.123 380.383C298.838 381.209 299.571 382.025 300.3 382.841C299.89 382.644 299.48 382.459 299.056 382.284C296.259 381.156 293.284 380.576 290.318 380.019C287.266 379.444 284.25 378.803 281.307 377.811C278.309 376.802 275.42 375.538 272.568 374.195C269.867 372.922 267.119 371.658 264.586 370.086C260.04 367.26 257.101 362.822 254.85 358.165C258.709 358.543 262.545 356.936 265.712 354.838ZM253.743 355.738C251.556 350.612 250.331 345.033 250.8 339.481C251.201 334.692 253.074 329.89 256.235 326.155C257.803 324.307 259.661 322.701 261.807 321.498C264.144 320.19 267.024 319.137 269.766 319.607C274.96 320.489 277.074 326.177 278.327 330.443C279.179 333.34 279.785 336.299 280.127 339.292C277.215 342.448 274.104 345.424 270.796 348.184C269.156 349.554 267.47 350.893 265.725 352.139C264.017 353.359 262.195 354.531 260.19 355.251C258.117 355.997 255.889 356.278 253.743 355.738ZM280.596 330.11C279.876 327.617 279.001 325.111 277.607 322.881C276.341 320.857 274.6 319.032 272.313 318.079C269.484 316.903 266.299 317.228 263.488 318.294C253.37 322.139 248.094 332.866 248.436 342.917C248.641 348.887 250.522 354.698 253.269 360.018C254.613 362.625 256.144 365.175 258.058 367.435C259.971 369.696 262.381 371.443 264.992 372.891C267.675 374.379 270.482 375.687 273.284 376.951C276.172 378.259 279.124 379.466 282.168 380.397C285.115 381.296 288.141 381.823 291.161 382.411C294.077 382.977 297.034 383.636 299.685 384.979C304.596 387.463 308.095 391.817 311.029 396.228C313.298 399.639 315.353 403.185 317.203 406.824C317.39 407.227 317.572 407.636 317.749 408.044C314.993 405.858 311.9 404.076 308.505 402.948C305.626 401.991 302.514 401.526 299.467 401.697C296.624 401.855 293.612 402.483 291.179 403.975C289.649 404.919 288.5 406.192 287.894 407.706C286.897 405.011 285.708 402.386 284.204 399.92C282.878 397.743 281.293 395.693 279.452 393.898C277.398 391.896 274.997 390.303 272.555 388.78C270.049 387.217 267.511 385.694 265.338 383.706C263.124 381.683 261.261 379.347 259.456 376.991C255.634 371.987 252.044 366.821 248.7 361.51C247.329 359.329 246.007 357.121 244.713 354.895C245.037 351.858 245.347 348.821 245.625 345.784C246.276 338.651 246.6 331.497 247.228 324.36C247.711 318.878 248.659 312.913 252.281 308.454C256.181 303.652 262.513 302.015 268.536 301.387C275.311 300.685 282.496 300.426 289.125 302.168C290.774 302.603 292.382 303.169 293.917 303.893C293.958 303.911 293.995 303.92 294.036 303.933C291.758 307.475 289.863 311.263 288.14 315.068C285.225 321.516 282.878 328.345 281.812 335.32C281.493 333.569 281.092 331.826 280.596 330.11ZM306.15 415.356C304.815 413.715 303.052 412.56 301.025 411.845C298.943 411.108 296.492 410.699 294.282 410.928C292.737 411.086 291.198 411.617 290.018 412.569C289.758 411.533 289.58 410.458 289.74 409.4C289.908 408.281 290.514 407.342 291.366 406.587C293.138 405.011 295.744 404.322 298.077 404.015C300.838 403.655 303.681 403.905 306.364 404.607C311.868 406.051 316.547 409.418 320.319 413.46C322.447 418.459 324.182 423.625 325.49 428.875C320.046 429.985 314.392 429.094 309.203 427.29C309.162 427.277 309.125 427.26 309.084 427.246C309.471 423.081 308.893 418.732 306.15 415.356ZM306.87 426.399C304.961 425.622 303.102 424.74 301.275 423.801C299.977 423.134 298.697 422.436 297.425 421.729C296.245 421.071 295.034 420.43 293.954 419.631C292.952 418.885 292.127 417.994 291.539 416.914C291.22 416.331 290.97 415.712 290.751 415.084C292.601 412.24 297.23 412.942 300.041 413.838C303.462 414.93 305.64 417.718 306.483 421.018C306.934 422.774 306.993 424.595 306.87 426.399ZM250.6 373.879C250.513 371.702 250.272 369.52 249.834 367.383C250.572 368.489 251.32 369.586 252.08 370.679C253.875 373.26 255.734 375.801 257.648 378.299C259.466 380.673 261.343 383.039 263.552 385.093C267.826 389.065 273.489 391.268 277.698 395.307C281.389 398.844 283.849 403.374 285.617 408.048C287.835 413.917 289.07 420.057 290.646 426.097C279.165 419.587 267.994 412.573 257.192 405.064C254.882 403.457 252.313 401.855 250.636 399.59C248.8 397.119 248.636 394.266 248.987 391.33C249.338 388.376 249.953 385.462 250.267 382.499C250.568 379.637 250.714 376.754 250.6 373.879ZM276.969 430.626C270.195 427.106 263.379 423.647 256.65 420.048C251.329 417.204 245.816 413.912 242.609 408.759C239.101 403.124 239.214 396.312 239.971 389.991C240.385 386.519 241.005 383.07 241.524 379.611C242.085 375.893 242.613 372.171 243.101 368.44C243.515 365.285 243.898 362.124 244.258 358.96C246.773 363.16 247.957 367.958 248.258 372.803C248.436 375.674 248.345 378.553 248.08 381.415C247.816 384.312 247.288 387.165 246.868 390.044C246.404 393.204 246.267 396.465 247.825 399.384C249.183 401.925 251.556 403.778 253.898 405.45C259.443 409.409 265.147 413.179 270.91 416.835C277.457 420.992 284.122 424.973 290.892 428.778C291.07 428.879 291.248 428.923 291.416 428.932C292.241 431.811 293.184 434.66 294.405 437.425C294.856 438.452 295.353 439.462 295.886 440.458C289.589 437.188 283.279 433.905 276.969 430.626ZM312.383 451.953C307.412 450.847 303.303 447.362 300.4 443.421C300.396 443.407 300.391 443.394 300.387 443.381C300.296 443.258 300.205 443.14 300.127 443.017C300.072 442.933 300.018 442.841 299.963 442.749C299.936 442.727 299.908 442.705 299.877 442.688C295.284 436.034 293.434 428.225 291.571 420.514C293.298 422.098 295.489 423.204 297.548 424.323C300.287 425.82 303.079 427.225 305.977 428.41C312.26 430.968 319.221 432.382 325.973 431.008C327.025 435.994 327.381 441.366 324.848 445.966C323.713 448.025 322.091 449.851 319.973 451.014C317.672 452.287 314.957 452.524 312.383 451.953ZM319.298 455.421C318.67 455.122 318.041 454.824 317.408 454.53C319.914 453.84 322.237 452.559 324.137 450.838C326.697 448.521 328.333 445.418 329.016 442.113C329.782 438.421 329.476 434.651 328.697 430.982C327.9 427.229 326.711 423.533 325.435 419.908C323.987 415.791 322.31 411.753 320.437 407.798C320.36 407.64 320.237 407.522 320.087 407.434C319.476 406.17 318.847 404.919 318.187 403.681C315.44 398.19 312.064 393.007 308.109 388.222C306.902 386.761 305.64 385.347 304.328 383.969C297.102 376.047 289.767 367.734 286.017 357.696C281.812 346.438 283.32 334.35 287.261 323.241C289.27 317.579 291.831 312.031 294.897 306.825C297.744 301.988 301.348 297.7 305.84 294.198C310.032 290.928 314.902 288.417 320.046 286.859C325.718 285.143 331.982 284.423 337.741 286.187C342.843 287.75 346.898 291.288 350.201 295.229C353.791 299.513 356.657 304.345 359.659 309.016L381.295 342.641L386.731 351.086C388.375 353.645 390.139 356.173 391.51 358.881C392.79 361.418 393.647 364.262 393.132 367.093C392.667 369.656 391.318 371.961 389.701 374.015C388.015 376.152 386.011 378.044 384.034 379.927C382.024 381.845 380.033 383.781 378.065 385.738C374.042 389.745 370.124 393.849 366.384 398.107C359.022 406.486 352.302 415.462 347.121 425.263C344.57 430.091 342.388 435.112 340.702 440.287C339.477 444.048 338.447 447.919 337.987 451.848C336.602 448.955 335.495 445.966 334.588 442.92C334.615 442.819 334.629 442.71 334.625 442.591C334.36 437.39 334.388 432.18 334.72 426.983C335.012 422.418 335.413 417.792 336.452 413.32C337.326 409.541 338.752 405.713 341.49 402.794C343.044 401.14 344.948 399.928 346.935 398.805C348.926 397.677 350.962 396.628 353.017 395.618C361.154 391.62 369.687 388.214 377.145 383.056C378.102 382.394 379.04 381.704 379.956 380.989C380.79 380.339 382.061 379.593 382.102 378.443C382.143 377.271 380.849 376.394 380.047 375.683C379.136 374.879 378.184 374.116 377.209 373.383C375.304 371.965 373.241 370.473 370.995 369.595C370.616 369.45 370.234 369.349 369.851 369.279C369.701 366.031 369.487 362.726 368.129 359.702C366.967 357.116 364.912 354.873 362.138 353.864C358.935 352.696 355.377 353.487 352.201 354.329C348.743 355.247 345.308 356.26 341.91 357.362C340.616 357.779 339.326 358.218 338.042 358.661C338.643 358.143 339.212 357.59 339.745 356.989C341.809 354.68 343.304 351.999 344.515 349.198C345.796 346.244 346.834 343.159 347.632 340.051C348.484 336.724 348.999 333.266 348.775 329.833C348.552 326.484 347.623 323.236 346.311 320.138C345.067 317.197 343.572 314.344 341.386 311.943C339.604 309.986 337.395 308.362 334.998 307.168C330.119 304.736 324.369 303.933 319.002 305.14C316.014 305.811 313.153 307.128 310.537 308.656C308.095 310.082 305.817 311.785 303.763 313.694C299.644 317.526 296.423 322.227 294.391 327.38C291.926 333.63 291.38 340.503 292.373 347.096C292.865 350.357 293.68 353.759 295.198 356.726C296.428 359.127 298.451 360.825 300.856 362.023C300.888 362.041 300.915 362.063 300.952 362.081C301.006 362.102 301.061 362.124 301.116 362.146C301.357 362.26 301.594 362.375 301.84 362.48C301.945 362.524 302.054 362.563 302.159 362.607C302.168 362.594 302.173 362.576 302.182 362.563C304.724 363.52 307.339 364.253 310.023 364.727C310.004 364.762 309.986 364.797 309.968 364.833C314.569 365.381 319.33 365.131 323.836 364.481C325.654 364.218 327.472 363.836 329.235 363.301C329.946 369.564 330.479 375.849 330.82 382.143C330.998 385.479 331.126 388.815 331.199 392.155C331.267 395.302 331.44 398.506 331.153 401.644C331.016 403.141 330.688 404.62 330.082 406.012C329.499 407.355 328.761 408.636 328.265 410.015C327.208 412.982 327.745 416.151 328.087 419.188C328.752 425.122 329.476 431.061 330.716 436.911C332.091 443.399 334.146 449.776 337.385 455.636C337.477 455.802 337.595 455.925 337.723 456.013C337.723 456.68 337.736 457.352 337.777 458.023C337.814 458.625 337.873 459.226 337.941 459.823C337.941 459.902 337.946 459.985 337.96 460.069C337.973 460.152 337.991 460.235 338.005 460.319C338.146 461.429 338.342 462.531 338.588 463.624C338.588 463.716 338.593 463.813 338.616 463.914C338.698 464.291 338.802 464.664 338.921 465.037C332.424 461.767 325.882 458.559 319.298 455.421ZM344.301 321.964C344.042 324.474 342.411 326.616 340.757 328.473C338.898 330.562 336.857 332.511 335.326 334.85C332.315 339.463 331.076 345.16 331.768 350.555C332.132 353.39 332.975 356.129 334.347 358.657C332.11 360.062 329.618 361.01 327.034 361.642C324.337 362.304 321.572 362.634 318.793 362.792C316.401 362.928 313.986 362.954 311.59 362.77C308.341 362.278 305.139 361.427 302.109 360.189C302.086 360.18 302.059 360.171 302.032 360.162C301.066 359.697 300.15 359.144 299.344 358.451C297.034 356.454 296.145 353.403 295.412 350.598C293.785 344.383 293.726 337.756 295.407 331.545C298.141 321.446 305.776 312.777 315.681 308.541C320.483 306.487 325.809 306.259 330.798 307.839C333.139 308.581 335.39 309.722 337.303 311.219C339.477 312.917 341.162 315.002 342.484 317.377C343.222 318.698 343.878 320.076 344.443 321.485C344.374 321.63 344.32 321.792 344.301 321.964ZM345.691 325.207C345.755 325.444 345.818 325.677 345.878 325.914C346.639 329.017 346.725 332.208 346.279 335.364C345.818 338.598 344.871 341.767 343.787 344.853C342.871 347.469 341.809 350.05 340.347 352.433C339.226 354.259 337.85 355.936 336.192 357.323C333.95 353.004 333.322 347.961 334.315 343.229C334.857 340.653 335.841 338.186 337.299 335.961C338.752 333.731 340.72 331.896 342.484 329.899C343.764 328.446 344.926 326.91 345.691 325.207ZM350.488 357.081C353.427 356.26 356.611 355.168 359.719 355.536C362.379 355.852 364.393 357.555 365.641 359.763C367.268 362.634 367.427 366.018 367.573 369.217C366.138 369.362 364.703 369.779 363.336 370.1C353.6 372.395 344.142 375.775 335.194 380.124C334.474 380.476 333.759 380.844 333.044 381.209C332.702 375.257 332.201 369.314 331.531 363.384C337.736 360.983 344.064 358.872 350.488 357.081ZM331.686 407.93C332.365 406.516 332.921 405.081 333.189 403.541C333.736 400.442 333.572 397.251 333.522 394.121C333.472 390.856 333.367 387.59 333.212 384.329C333.203 384.092 333.185 383.855 333.171 383.623C341.704 379.194 350.739 375.687 360.079 373.19C362.443 372.557 364.826 371.947 367.236 371.491C368.452 371.258 369.55 371.307 370.671 371.846C371.701 372.342 372.68 372.961 373.632 373.58C375.61 374.862 377.464 376.31 379.182 377.903C379.314 378.026 379.478 378.228 379.637 378.36C379.496 378.47 379.355 378.623 379.232 378.729C378.99 378.926 378.744 379.124 378.498 379.321C377.66 379.98 376.803 380.612 375.924 381.217C368.616 386.256 360.279 389.623 352.302 393.516C350.302 394.495 348.315 395.504 346.37 396.588C344.351 397.707 342.347 398.901 340.666 400.468C337.686 403.242 335.877 406.955 334.775 410.752C333.559 414.935 333.089 419.315 332.707 423.63C332.438 426.623 332.274 429.621 332.21 432.623C331.517 428.708 331.016 424.762 330.565 420.847C330.397 419.377 330.219 417.906 330.073 416.432C329.923 414.948 329.8 413.412 330.101 411.937C330.388 410.511 331.062 409.233 331.686 407.93ZM385.478 448.35C381.573 453.147 377.478 457.896 372.872 462.083C368.625 465.946 363.71 469.466 358.015 471.015C354.329 472.02 349.7 472.288 346.142 470.546C346.06 470.445 345.96 470.348 345.832 470.269C343.96 469.132 342.584 467.627 341.741 465.647C341.112 464.164 340.748 462.592 340.452 461.017C339.773 456.522 340.028 451.966 341.062 447.441C341.399 445.966 341.786 444.496 342.219 443.039C343.185 446.124 345.477 448.832 348.329 450.509C352.889 453.191 358.684 453.261 363.719 451.931C369.09 450.509 373.897 447.595 378.494 444.65C383.1 441.7 387.542 438.505 391.792 435.099C394.576 432.865 397.278 430.534 399.888 428.116C398.849 429.766 397.797 431.412 396.713 433.036C393.209 438.303 389.482 443.429 385.478 448.35ZM450.851 376.249C450.801 383.412 450.277 390.667 447.73 397.457C446.614 400.437 445.092 403.29 443.138 405.845C441.074 408.54 438.44 410.734 435.611 412.657C432.44 414.812 429.142 416.8 425.898 418.846C422.54 420.966 419.183 423.086 415.82 425.201C409.588 429.129 403.332 433.036 396.936 436.714C399.943 432.334 402.777 427.843 405.469 423.283C414.453 416.212 423.438 409.141 432.422 402.07C436.541 398.827 440.955 395.715 444.368 391.743C446.008 389.833 447.379 387.74 448.268 385.405C449.279 382.745 449.507 379.861 449.484 377.048C449.457 373.712 449.242 370.372 449.101 367.04C448.96 363.634 448.814 360.233 448.673 356.827C448.668 356.717 448.646 356.62 448.618 356.528C448.805 356.304 448.996 356.089 449.179 355.861C449.393 355.593 449.607 355.321 449.817 355.045C450.4 358.284 450.623 361.571 450.728 364.854C450.837 368.656 450.874 372.457 450.851 376.249ZM437.93 373.703C439.028 371.017 439.894 368.247 440.527 365.429C440.559 365.285 440.559 365.153 440.541 365.026C442.536 363.015 444.564 361.036 446.482 358.96C446.709 364.24 446.946 369.516 447.147 374.796C447.252 377.539 447.306 380.335 446.632 383.021C446.053 385.33 444.914 387.428 443.456 389.328C440.368 393.349 436.026 396.413 432.044 399.546C427.228 403.334 422.417 407.122 417.602 410.91C414.549 413.311 411.497 415.712 408.444 418.117C410.74 414.026 412.932 409.879 415.028 405.691C416.303 403.141 417.529 400.569 418.759 397.993C418.8 397.971 418.841 397.958 418.877 397.927C427.415 391.721 434.017 383.293 437.93 373.703ZM420.918 393.511C421.989 391.321 423.082 389.144 424.235 386.998C427.452 381.015 431.251 375.345 435.716 370.157C436.276 369.507 436.85 368.871 437.438 368.243C434.955 376.565 430.367 384.268 424.139 390.527C423.105 391.563 422.03 392.559 420.918 393.511ZM449.256 352.003C445.744 357.235 440.764 361.343 436.477 365.956C432.03 370.74 428.085 375.968 424.745 381.525C421.237 387.362 418.422 393.546 415.479 399.661C411.989 406.907 408.257 414.048 404.198 421.014C404.02 421.058 403.843 421.15 403.683 421.317C396.48 428.682 388.498 435.331 379.869 441.103C375.596 443.96 371.149 446.897 366.297 448.775C361.691 450.557 356.475 451.334 351.705 449.658C347.222 448.082 343.654 443.846 344.023 439.115C344.046 438.843 343.928 438.597 343.741 438.399C344.62 435.963 345.604 433.567 346.689 431.219C347.814 428.787 349.04 426.399 350.352 424.06C353.413 431.223 361.837 435.077 369.628 435.09C374.867 435.099 379.997 433.694 384.804 431.78C387.227 430.815 389.624 429.761 391.943 428.576C394.139 427.457 396.266 426.158 398.061 424.494C400.421 422.313 402.011 419.592 403.301 416.73C403.387 416.612 403.451 416.475 403.478 416.331C404.08 414.957 404.617 413.552 405.137 412.17C407.009 407.179 408.704 402.127 410.262 397.036C411.834 391.909 413.273 386.748 414.636 381.568C415.31 378.996 415.966 376.416 416.608 373.835C417.21 371.429 417.725 368.98 418.613 366.654C419.442 364.486 420.709 362.598 422.454 361.014C424.235 359.399 426.299 358.108 428.303 356.778C433.01 353.662 437.711 350.541 442.418 347.425C443.57 346.661 444.723 345.898 445.876 345.134C446.103 344.985 446.272 344.77 446.359 344.537C448.053 343.756 449.543 342.5 450.705 340.991C451.539 339.906 452.19 338.713 452.751 337.475C453.972 342.43 452.058 347.829 449.256 352.003ZM457.042 310.929C456.172 318.939 454.413 326.897 451.557 334.477C450.345 337.694 448.673 341.092 445.297 342.641C442.34 344.002 439.142 342.737 436.987 340.626C442.65 332.392 445.848 322.639 446.222 312.777C446.318 310.31 446.231 307.839 445.953 305.386C445.671 302.849 445.188 300.29 443.898 298.029C442.746 296.006 440.322 294.097 437.844 295.22C436.654 295.76 435.789 296.923 435.074 297.946C434.34 298.991 433.748 300.114 433.224 301.264C431.397 305.254 430.062 309.432 429.16 313.699C427.661 308.594 425.82 303.586 423.716 298.683C420.718 291.722 417.214 284.976 413.36 278.423C410.64 273.801 407.752 269.272 404.749 264.817C406.622 265.94 408.581 266.932 410.631 267.762C414.358 269.276 418.253 270.189 422.253 270.724C429.88 271.747 437.948 271.677 445.078 274.824C448.163 276.185 450.983 278.133 452.983 280.802C454.937 283.405 456.117 286.429 456.814 289.554C457.534 292.776 457.735 296.081 457.726 299.368C457.707 303.231 457.457 307.093 457.042 310.929Z" fill="#EFE750"/>
</svg>
