<svg width="63" height="63" viewBox="0 0 63 63" fill="none" xmlns="http://www.w3.org/2000/svg">
<path d="M31.5 41.3438C36.9366 41.3438 41.3438 36.9366 41.3438 31.5C41.3438 26.0634 36.9366 21.6562 31.5 21.6562C26.0634 21.6562 21.6562 26.0634 21.6562 31.5C21.6562 36.9366 26.0634 41.3438 31.5 41.3438Z" stroke="white" stroke-width="3" stroke-miterlimit="10"/>
<path d="M42.3281 8.85938H20.6719C14.148 8.85938 8.85938 14.148 8.85938 20.6719V42.3281C8.85938 48.852 14.148 54.1406 20.6719 54.1406H42.3281C48.852 54.1406 54.1406 48.852 54.1406 42.3281V20.6719C54.1406 14.148 48.852 8.85938 42.3281 8.85938Z" stroke="white" stroke-width="3" stroke-linecap="round" stroke-linejoin="round"/>
<path d="M44.2969 21.6562C45.9278 21.6562 47.25 20.3341 47.25 18.7031C47.25 17.0722 45.9278 15.75 44.2969 15.75C42.6659 15.75 41.3438 17.0722 41.3438 18.7031C41.3438 20.3341 42.6659 21.6562 44.2969 21.6562Z" fill="white"/>
</svg>
