<svg width="63" height="63" viewBox="0 0 63 63" fill="none" xmlns="http://www.w3.org/2000/svg">
<g filter="url(#filter0_d_8018_5443)">
<path d="M31.5 41.3438C36.9366 41.3438 41.3438 36.9366 41.3438 31.5C41.3438 26.0634 36.9366 21.6562 31.5 21.6562C26.0634 21.6562 21.6562 26.0634 21.6562 31.5C21.6562 36.9366 26.0634 41.3438 31.5 41.3438Z" stroke="white" stroke-width="3" stroke-miterlimit="10" shape-rendering="crispEdges"/>
</g>
<g filter="url(#filter1_d_8018_5443)">
<path d="M42.3281 8.85938H20.6719C14.148 8.85938 8.85938 14.148 8.85938 20.6719V42.3281C8.85938 48.852 14.148 54.1406 20.6719 54.1406H42.3281C48.852 54.1406 54.1406 48.852 54.1406 42.3281V20.6719C54.1406 14.148 48.852 8.85938 42.3281 8.85938Z" stroke="white" stroke-width="3" stroke-linecap="round" stroke-linejoin="round" shape-rendering="crispEdges"/>
</g>
<g filter="url(#filter2_d_8018_5443)">
<path d="M44.2969 21.6562C45.9278 21.6562 47.25 20.3341 47.25 18.7031C47.25 17.0722 45.9278 15.75 44.2969 15.75C42.6659 15.75 41.3438 17.0722 41.3438 18.7031C41.3438 20.3341 42.6659 21.6562 44.2969 21.6562Z" fill="white"/>
</g>
<defs>
<filter id="filter0_d_8018_5443" x="20.1562" y="20.1562" width="22.6875" height="23.6875" filterUnits="userSpaceOnUse" color-interpolation-filters="sRGB">
<feFlood flood-opacity="0" result="BackgroundImageFix"/>
<feColorMatrix in="SourceAlpha" type="matrix" values="0 0 0 0 0 0 0 0 0 0 0 0 0 0 0 0 0 0 127 0" result="hardAlpha"/>
<feOffset dy="1"/>
<feComposite in2="hardAlpha" operator="out"/>
<feColorMatrix type="matrix" values="0 0 0 0 0 0 0 0 0 0 0 0 0 0 0 0 0 0 0.25 0"/>
<feBlend mode="normal" in2="BackgroundImageFix" result="effect1_dropShadow_8018_5443"/>
<feBlend mode="normal" in="SourceGraphic" in2="effect1_dropShadow_8018_5443" result="shape"/>
</filter>
<filter id="filter1_d_8018_5443" x="7.35938" y="7.35938" width="48.2812" height="49.2812" filterUnits="userSpaceOnUse" color-interpolation-filters="sRGB">
<feFlood flood-opacity="0" result="BackgroundImageFix"/>
<feColorMatrix in="SourceAlpha" type="matrix" values="0 0 0 0 0 0 0 0 0 0 0 0 0 0 0 0 0 0 127 0" result="hardAlpha"/>
<feOffset dy="1"/>
<feComposite in2="hardAlpha" operator="out"/>
<feColorMatrix type="matrix" values="0 0 0 0 0 0 0 0 0 0 0 0 0 0 0 0 0 0 0.25 0"/>
<feBlend mode="normal" in2="BackgroundImageFix" result="effect1_dropShadow_8018_5443"/>
<feBlend mode="normal" in="SourceGraphic" in2="effect1_dropShadow_8018_5443" result="shape"/>
</filter>
<filter id="filter2_d_8018_5443" x="41.3438" y="15.75" width="5.90625" height="6.90625" filterUnits="userSpaceOnUse" color-interpolation-filters="sRGB">
<feFlood flood-opacity="0" result="BackgroundImageFix"/>
<feColorMatrix in="SourceAlpha" type="matrix" values="0 0 0 0 0 0 0 0 0 0 0 0 0 0 0 0 0 0 127 0" result="hardAlpha"/>
<feOffset dy="1"/>
<feComposite in2="hardAlpha" operator="out"/>
<feColorMatrix type="matrix" values="0 0 0 0 0 0 0 0 0 0 0 0 0 0 0 0 0 0 0.25 0"/>
<feBlend mode="normal" in2="BackgroundImageFix" result="effect1_dropShadow_8018_5443"/>
<feBlend mode="normal" in="SourceGraphic" in2="effect1_dropShadow_8018_5443" result="shape"/>
</filter>
</defs>
</svg>
