<svg width="459" height="871" viewBox="0 0 459 871" fill="none" xmlns="http://www.w3.org/2000/svg">
<path d="M493.707 1133.69L451.834 969.088L394.555 943.204L391.703 942.253L392.005 942.037L13.2017 770.893L59.0289 917.643L493.707 1133.69Z" fill="#8E4C93"/>
<path d="M117.712 806.264L395.981 931.992L341.1 730.08L55.5933 610.791L117.798 806.243L117.712 806.264Z" fill="#BF63C1"/>
<path d="M79.9868 723.08L21.9087 762.987L104.575 800.323L79.9868 723.08Z" fill="#C37ACE"/>
<path d="M677.339 736.153L815.253 636.374L491.438 337.061L337.687 432.021L677.339 736.153Z" fill="#FFCAFF"/>
<path d="M344.946 719.988L485.215 620.512L209.15 508.785L65.1646 603.076L344.946 719.988Z" fill="#F095F9"/>
<path d="M536.228 830.916L497.25 625.223L351.839 728.35L404.947 923.823L536.228 830.916Z" fill="#FEE1FF"/>
<path d="M599.276 856.887L539.772 841.654L405.833 936.442L455.831 959.02L599.276 856.887Z" fill="#F5AEFF"/>
<path d="M1143.11 672.002L1144.1 671.267L650.742 226.002L329.303 424.5L329.239 424.435L329.217 424.543L328.979 424.695L329.152 424.975L310.311 538.063L207.983 496.644L42.5863 604.957L42.435 605L42.4566 605.043L42.2406 605.195L42.5647 605.324L76.6164 712.319L0.410527 764.65L0 764.78L0.0432221 764.909L0.0216275 764.931L0.0648166 764.952L50.0189 924.948L49.9108 925.186L171.749 985.748L219.327 1149.18L640.846 1370.15L643.763 1371.83L803.824 1263.28L782.606 1168.02L964.316 1038.01L964.402 1038.06L1016.21 936.529L1016.15 936.507L1016.17 936.486L971.857 895.52L1062.95 829.448H1062.97C1062.99 829.448 1062.99 829.426 1063.01 829.404C1063.62 828.778 1064.27 828.194 1064.98 827.719C1065 827.697 1065.05 827.676 1065.07 827.654C1065.17 827.546 1065.3 827.438 1065.41 827.33C1065.63 826.941 1065.84 826.531 1066.08 826.12L1066.06 826.077L1143.11 672.002ZM858.358 1100.52L887.959 1025.98L998.238 948.024L956.084 1030.6L858.358 1100.52ZM842.326 1112.02L780.078 1156.55L771.997 1120.27L776.945 1104.48L871.797 1037.41L842.197 1111.95L842.326 1112.02ZM791.702 1258.44L646.421 1356.99L607.443 1194.47L753.459 1088.59L753.826 1088.34L756.181 1098.94L791.702 1258.44ZM228.337 1141.88L185.145 992.382L509.976 1153.82L509.955 1153.74L510.063 1153.67L597.072 1197.58L634.624 1354.12L228.337 1141.88ZM649.511 239.463L799.373 374.719L655.928 480.288L497.164 333.559L649.511 239.463ZM892.345 1014.96L926.786 928.211L957.726 905.761L962.976 901.959L963.322 902.283L1001.61 937.696L892.345 1014.96ZM876.183 1026.39L782.736 1092.46L780.143 1094.3L780.229 1094.02L804.364 1017.01L910.473 940.051L876.183 1026.39ZM405.833 936.443L539.772 841.655L599.276 856.888L455.831 959.043L405.833 936.443ZM351.839 728.351L497.25 625.245L536.228 830.917L404.947 923.824L351.839 728.351ZM462.572 967.491L614.767 859.113L647.912 1043.42L510.452 1140.19L507.103 1142.55L506.973 1142.03L462.572 967.491ZM653.162 1052.92L748.403 1078.92L599.621 1186.77L520.066 1146.63L653.162 1052.92ZM839.388 881.281L682.287 740.58L972.289 530.739L1127.03 670.381L839.388 881.281ZM820.612 632.483L660.767 484.739L804.277 379.127L967.362 526.31L820.612 632.483ZM815.253 636.373L677.34 736.173L337.687 432.019L491.438 337.081L815.253 636.373ZM485.215 620.514L344.946 719.989L65.165 603.077L209.172 508.787L485.215 620.514ZM341.1 730.08L395.981 931.992L117.712 806.264L117.798 806.242L55.6149 610.791L341.1 730.08ZM79.987 723.079L104.575 800.322L21.9089 762.965L79.987 723.079ZM392.005 942.039L394.555 943.184L451.833 969.068L493.707 1133.69L59.0287 917.645L13.2015 770.894L392.005 942.039ZM809.765 999.749L843.666 891.544L1084.27 715.128L1124.03 685.981L1123.53 686.975L1056.77 820.589L809.765 999.749Z" fill="#624466"/>
</svg>
