<svg width="341" height="842" viewBox="0 0 341 842" fill="none" xmlns="http://www.w3.org/2000/svg">
<path d="M313.066 708.098L313 708.137L313.013 708.204L113.639 609.113L140.149 700.857L389.506 831.125L366.47 735.045L313.066 708.098Z" fill="#79407F"/>
<path d="M303.027 695.829L277.326 594.803L242.17 578.915L240.419 578.332L240.605 578.199L8.10303 473.154L36.2308 563.227L303.027 695.829Z" fill="#8E4C93"/>
<path d="M72.2486 494.866L243.044 572.035L209.36 448.106L34.1216 374.889L72.3016 494.853L72.2486 494.866Z" fill="#BF63C1"/>
<path d="M49.0944 443.812L13.4473 468.307L64.186 491.223L49.0944 443.812Z" fill="#C37ACE"/>
<path d="M415.736 451.833L500.385 390.591L301.634 206.879L207.265 265.163L415.736 451.833Z" fill="#FFCAFF"/>
<path d="M490.638 229.981L398.656 146.977L305.148 204.717L402.594 294.777L490.638 229.981Z" fill="#FEE1FF"/>
<path d="M211.721 441.911L297.815 380.855L128.372 312.279L39.9966 370.153L211.721 441.911Z" fill="#F095F9"/>
<path d="M397.675 640.423L377.331 527.289L283.917 593.822L311.17 700.949L313.305 699.822L397.675 640.423Z" fill="#FFCAFF"/>
<path d="M329.126 510L305.202 383.75L215.952 447.047L248.549 567.025L329.126 510Z" fill="#FEE1FF"/>
<path d="M367.823 525.937L331.301 516.588L249.092 574.766L279.78 588.625L367.823 525.937Z" fill="#F5AEFF"/>
<path d="M242.169 578.921L240.605 578.205L240.419 578.338L242.169 578.921Z" fill="#F5AEFF"/>
<path d="M459.354 662.213L400.897 646.26L319.206 703.775L368.035 728.415L459.354 662.213Z" fill="#F095F9"/>
<path d="M701.616 412.456L702.226 412.005L399.412 138.711L202.119 260.545L202.08 260.505L202.066 260.571L201.921 260.664L202.027 260.837L190.463 330.248L127.656 304.825L26.1385 371.306L26.0457 371.332L26.059 371.359L25.9264 371.451L26.1253 371.531L47.0255 437.202L0.251973 469.322L0 469.401L0.0265288 469.481L0.0132745 469.494L0.0397831 469.507L30.7005 567.709L30.6342 567.855L105.416 605.027L134.618 705.338L393.338 840.964L395.128 841.998L493.37 775.372L480.347 716.902L591.877 637.107L591.93 637.134L623.731 574.818L623.691 574.804L623.705 574.791L596.505 549.647L652.416 509.093H652.429C652.442 509.093 652.442 509.08 652.456 509.067C652.827 508.682 653.225 508.324 653.662 508.032C653.676 508.019 653.702 508.006 653.716 507.992C653.782 507.926 653.861 507.86 653.928 507.794C654.06 507.555 654.193 507.303 654.339 507.051L654.326 507.024L701.616 412.456ZM526.842 675.473L545.01 629.72L612.697 581.873L586.824 632.558L526.842 675.473ZM517.002 682.528L478.795 709.86L473.836 687.594L476.873 677.9L535.091 636.736L516.922 682.488L517.002 682.528ZM485.93 772.402L396.759 832.887L372.836 733.134L462.457 668.152L462.683 667.993L464.128 674.505L485.93 772.402ZM140.148 700.855L113.638 609.099L313.013 708.189L312.999 708.136L313.066 708.096L366.47 735.044L389.519 831.124L140.148 700.855ZM398.656 146.973L490.638 229.99L402.595 294.786L305.149 204.727L398.656 146.973ZM547.703 622.957L568.842 569.712L587.832 555.933L591.055 553.599L591.267 553.798L614.766 575.534L547.703 622.957ZM537.783 629.972L480.427 670.526L478.835 671.653L478.888 671.481L493.701 624.217L558.829 576.979L537.783 629.972ZM249.092 574.764L331.3 516.586L367.823 525.935L279.779 588.636L249.092 574.764ZM215.951 447.042L305.202 383.758L329.125 509.995L248.548 567.02L215.951 447.042ZM283.917 593.821L377.331 527.301L397.674 640.422L313.304 699.821L311.249 701.266L311.169 700.948L283.917 593.821ZM400.897 646.258L459.354 662.211L368.035 728.413L319.206 703.773L400.897 646.258ZM515.199 540.908L418.774 454.548L596.77 325.752L691.75 411.462L515.199 540.908ZM503.674 388.201L405.565 297.518L493.648 232.696L593.747 323.033L503.674 388.201ZM500.385 390.588L415.737 451.843L207.265 265.16L301.634 206.889L500.385 390.588ZM297.815 380.854L211.721 441.91L39.9969 370.152L128.385 312.278L297.815 380.854ZM209.36 448.103L243.045 572.033L72.249 494.864L72.302 494.85L34.1353 374.886L209.36 448.103ZM49.0943 443.807L64.186 491.217L13.4472 468.287L49.0943 443.807ZM240.605 578.199L242.169 578.902L277.326 594.789L303.027 695.829L36.2306 563.227L8.10282 473.154L240.605 578.199ZM497.017 613.621L517.824 547.207L665.505 438.926L689.906 421.036L689.601 421.646L648.623 503.656L497.017 613.621Z" fill="#624466"/>
</svg>
