<svg width="510" height="1527" viewBox="0 0 510 1527" fill="none" xmlns="http://www.w3.org/2000/svg">
<path d="M-169.595 859.284L-0.724245 1010.53L308.45 783.848L142.134 633.721L-169.595 859.284Z" fill="#F095F9"/>
<path d="M-192.727 584.275L-20.907 743.089L136.839 628.96L-38.4652 470.75L-192.727 584.275Z" fill="#F5AEFF"/>
<path d="M262.534 831.926L3.87443 1021.54L-32.5659 1137.87L232.968 945.266L304.734 801.664L262.534 831.926Z" fill="#C37ACE"/>
<path d="M-64.3149 1239.18L-61.6209 1237.51L38.8281 1166.51L75.6634 1073.7L-38.3724 1156.43L-64.3149 1239.18Z" fill="#BF63C1"/>
<path d="M-67.8451 1250.44L-73.1636 1267.42L-64.4774 1306.42L2.43442 1258.55L2.29508 1258.5L34.1136 1178.35L-67.8451 1250.44Z" fill="#79407F"/>
<path d="M51.4865 1166.09L19.668 1246.19L124.716 1171.06L170.028 1082.27L51.4865 1166.09Z" fill="#8E4C93"/>
<path d="M126.48 1036.84L93.2217 1060.97L56.2007 1154.22L173.674 1071.17L132.519 1033.1L126.48 1036.84Z" fill="#F5AEFF"/>
<path d="M325.753 785.569L326.821 784.779L-203.503 306.154L-549.025 519.524L-549.094 519.455L-549.118 519.571L-549.373 519.733L-549.187 520.035L-569.44 641.596L-679.434 597.073L-857.223 713.501L-857.386 713.548L-857.362 713.594L-857.595 713.757L-857.246 713.896L-820.643 828.907L-902.559 885.159L-903 885.298L-902.954 885.437L-902.977 885.461L-902.93 885.484L-849.234 1057.47L-849.35 1057.72L-718.383 1122.82L-667.241 1298.5L-214.141 1536.02L-211.005 1537.83L-38.9528 1421.15L-61.7599 1318.75L133.564 1179L133.657 1179.05L189.351 1069.92L189.281 1069.89L189.305 1069.87L141.67 1025.83L239.587 954.811H239.61C239.633 954.811 239.634 954.788 239.657 954.764C240.307 954.091 241.004 953.464 241.77 952.953C241.793 952.93 241.84 952.906 241.863 952.883C241.979 952.767 242.119 952.651 242.235 952.535C242.467 952.117 242.699 951.676 242.955 951.234L242.931 951.188L325.753 785.569ZM19.6675 1246.19L51.4862 1166.07L170.027 1082.27L124.715 1171.04L19.6675 1246.19ZM2.43449 1258.55L-64.4773 1306.42L-73.1635 1267.42L-67.845 1250.44L34.1137 1178.35L2.29514 1258.48L2.43449 1258.55ZM-51.9821 1415.95L-208.148 1521.88L-250.047 1347.18L-93.0908 1233.37L-92.6959 1233.1L-90.1644 1244.5L-51.9821 1415.95ZM-657.556 1290.65L-703.983 1129.95L-354.816 1303.49L-354.839 1303.4L-354.723 1303.33L-261.195 1350.52L-220.829 1518.79L-657.556 1290.65ZM-204.827 320.624L-43.7373 466.013L-197.929 579.492L-368.588 421.769L-204.827 320.624ZM56.2009 1154.22L93.2219 1060.97L126.48 1036.84L132.124 1032.75L132.496 1033.1L173.651 1071.17L56.2009 1154.22ZM38.8284 1166.51L-61.6207 1237.53L-64.4077 1239.51L-64.3147 1239.2L-38.3722 1156.43L75.6867 1073.7L38.8284 1166.51ZM-466.761 1069.82L-322.788 967.933L-258.826 984.307L-413.018 1094.12L-466.761 1069.82ZM-524.801 846.14L-368.495 735.31L-326.597 956.39L-467.713 1056.26L-524.801 846.14ZM-405.772 1103.2L-242.173 986.699L-206.546 1184.81L-354.305 1288.84L-357.905 1291.37L-358.044 1290.81L-405.772 1103.2ZM-200.902 1195.03L-98.5254 1222.97L-258.454 1338.91L-343.969 1295.76L-200.902 1195.03ZM-0.724038 1010.53L-169.595 859.286L142.134 633.723L308.473 783.827L-0.724038 1010.53ZM-20.9068 743.09L-192.727 584.276L-38.4651 470.751L136.839 628.961L-20.9068 743.09ZM-26.6667 747.271L-174.913 854.548L-540.013 527.607L-374.743 425.555L-26.6667 747.271ZM-381.432 730.223L-532.21 837.152L-832.953 711.48L-678.157 610.126L-381.432 730.223ZM-536.344 847.998L-477.352 1065.04L-776.469 929.89L-776.376 929.867L-843.218 719.772L-536.344 847.998ZM-817.02 840.473L-790.59 923.503L-879.45 883.347L-817.02 840.473ZM-481.625 1075.84L-478.885 1077.07L-417.315 1104.89L-372.304 1281.85L-839.549 1049.62L-888.809 891.871L-481.625 1075.84ZM-32.5659 1137.87L3.8745 1021.56L262.51 831.926L305.245 800.596L304.711 801.664L232.945 945.289L-32.5659 1137.87Z" fill="#624466"/>
<path d="M497.132 1387.24L449.822 1282.54L338.875 1258.83L374.874 1361.34L497.132 1387.24Z" fill="#F095F9"/>
<path d="M373.829 1368.4L305.616 1473.8L428.524 1499.19L493.508 1406.56L501.335 1395.42L500.754 1395.28L373.829 1368.4Z" fill="#8E4C93"/>
<path d="M331.629 1259.66L264.322 1370.75L300.67 1468.34L368.255 1363.94L331.629 1259.66Z" fill="#BF63C1"/>
<path d="M509.464 1396.21L508.767 1395.72L454.815 1276.34L329.468 1249.54L257.331 1368.54L256.448 1370.01L297.162 1479.31L431.659 1507.08L508.883 1397L509.394 1397.11L509.162 1396.6L509.464 1396.21ZM449.821 1282.54L497.154 1387.26L374.897 1361.37L338.898 1258.83L449.821 1282.54ZM264.322 1370.75L331.651 1259.67L368.254 1363.95L300.692 1468.34L264.322 1370.75ZM493.508 1406.56L428.524 1499.19L305.639 1473.8L373.852 1368.41L500.777 1395.3L501.335 1395.42L493.508 1406.56Z" fill="#624466"/>
</svg>
