<svg width="62" height="62" viewBox="0 0 62 62" fill="none" xmlns="http://www.w3.org/2000/svg">
<g filter="url(#filter0_d_8018_5440)">
<path d="M51.3438 8.71875H10.6562C9.5862 8.71875 8.71875 9.5862 8.71875 10.6562V51.3438C8.71875 52.4138 9.5862 53.2812 10.6562 53.2812H51.3438C52.4138 53.2812 53.2812 52.4138 53.2812 51.3438V10.6562C53.2812 9.5862 52.4138 8.71875 51.3438 8.71875Z" stroke="white" stroke-width="3" stroke-linecap="round" stroke-linejoin="round" shape-rendering="crispEdges"/>
</g>
<g filter="url(#filter1_d_8018_5440)">
<path d="M29.0625 27.125V42.625" stroke="white" stroke-width="3" stroke-linecap="round" stroke-linejoin="round"/>
</g>
<g filter="url(#filter2_d_8018_5440)">
<path d="M21.3125 27.125V42.625" stroke="white" stroke-width="3" stroke-linecap="round" stroke-linejoin="round"/>
</g>
<path d="M29.0625 33.9062C29.0625 32.1078 29.7769 30.3829 31.0487 29.1112C32.3204 27.8395 34.0453 27.125 35.8438 27.125C37.6422 27.125 39.3671 27.8395 40.6388 29.1112C41.9106 30.3829 42.625 32.1078 42.625 33.9062V42.625" stroke="white" stroke-width="3" stroke-linecap="round" stroke-linejoin="round"/>
<g filter="url(#filter3_d_8018_5440)">
<path d="M21.3125 22.2812C22.9176 22.2812 24.2188 20.9801 24.2188 19.375C24.2188 17.7699 22.9176 16.4688 21.3125 16.4688C19.7074 16.4688 18.4062 17.7699 18.4062 19.375C18.4062 20.9801 19.7074 22.2812 21.3125 22.2812Z" fill="white"/>
</g>
<defs>
<filter id="filter0_d_8018_5440" x="7.21875" y="7.21875" width="47.5625" height="48.5625" filterUnits="userSpaceOnUse" color-interpolation-filters="sRGB">
<feFlood flood-opacity="0" result="BackgroundImageFix"/>
<feColorMatrix in="SourceAlpha" type="matrix" values="0 0 0 0 0 0 0 0 0 0 0 0 0 0 0 0 0 0 127 0" result="hardAlpha"/>
<feOffset dy="1"/>
<feComposite in2="hardAlpha" operator="out"/>
<feColorMatrix type="matrix" values="0 0 0 0 0 0 0 0 0 0 0 0 0 0 0 0 0 0 0.25 0"/>
<feBlend mode="normal" in2="BackgroundImageFix" result="effect1_dropShadow_8018_5440"/>
<feBlend mode="normal" in="SourceGraphic" in2="effect1_dropShadow_8018_5440" result="shape"/>
</filter>
<filter id="filter1_d_8018_5440" x="27.5625" y="25.625" width="3" height="19.5" filterUnits="userSpaceOnUse" color-interpolation-filters="sRGB">
<feFlood flood-opacity="0" result="BackgroundImageFix"/>
<feColorMatrix in="SourceAlpha" type="matrix" values="0 0 0 0 0 0 0 0 0 0 0 0 0 0 0 0 0 0 127 0" result="hardAlpha"/>
<feOffset dy="1"/>
<feComposite in2="hardAlpha" operator="out"/>
<feColorMatrix type="matrix" values="0 0 0 0 0 0 0 0 0 0 0 0 0 0 0 0 0 0 0.25 0"/>
<feBlend mode="normal" in2="BackgroundImageFix" result="effect1_dropShadow_8018_5440"/>
<feBlend mode="normal" in="SourceGraphic" in2="effect1_dropShadow_8018_5440" result="shape"/>
</filter>
<filter id="filter2_d_8018_5440" x="19.8125" y="25.625" width="3" height="19.5" filterUnits="userSpaceOnUse" color-interpolation-filters="sRGB">
<feFlood flood-opacity="0" result="BackgroundImageFix"/>
<feColorMatrix in="SourceAlpha" type="matrix" values="0 0 0 0 0 0 0 0 0 0 0 0 0 0 0 0 0 0 127 0" result="hardAlpha"/>
<feOffset dy="1"/>
<feComposite in2="hardAlpha" operator="out"/>
<feColorMatrix type="matrix" values="0 0 0 0 0 0 0 0 0 0 0 0 0 0 0 0 0 0 0.25 0"/>
<feBlend mode="normal" in2="BackgroundImageFix" result="effect1_dropShadow_8018_5440"/>
<feBlend mode="normal" in="SourceGraphic" in2="effect1_dropShadow_8018_5440" result="shape"/>
</filter>
<filter id="filter3_d_8018_5440" x="18.4062" y="16.4688" width="5.8125" height="6.8125" filterUnits="userSpaceOnUse" color-interpolation-filters="sRGB">
<feFlood flood-opacity="0" result="BackgroundImageFix"/>
<feColorMatrix in="SourceAlpha" type="matrix" values="0 0 0 0 0 0 0 0 0 0 0 0 0 0 0 0 0 0 127 0" result="hardAlpha"/>
<feOffset dy="1"/>
<feComposite in2="hardAlpha" operator="out"/>
<feColorMatrix type="matrix" values="0 0 0 0 0 0 0 0 0 0 0 0 0 0 0 0 0 0 0.25 0"/>
<feBlend mode="normal" in2="BackgroundImageFix" result="effect1_dropShadow_8018_5440"/>
<feBlend mode="normal" in="SourceGraphic" in2="effect1_dropShadow_8018_5440" result="shape"/>
</filter>
</defs>
</svg>
