<svg width="34" height="35" viewBox="0 0 34 35" fill="none" xmlns="http://www.w3.org/2000/svg">
<path d="M0 0V34.2125H34V0H0ZM28.2473 8.10256L26.4259 9.859C26.2665 9.98119 26.1906 10.1797 26.221 10.3707V23.2996C26.1906 23.4982 26.2665 23.6967 26.4259 23.8113L28.2094 25.5677V25.9572H19.254V25.583L21.0982 23.7807C21.2804 23.5975 21.2804 23.544 21.2804 23.2691V12.8144L16.15 25.919H15.4594L9.48661 12.8144V21.5966C9.43348 21.9632 9.5625 22.3374 9.82054 22.6047L12.2188 25.5296V25.919H5.40357V25.5296L7.80179 22.6047C8.05982 22.3374 8.17366 21.9632 8.11295 21.5966V11.4398C8.1433 11.1572 8.03705 10.8823 7.82455 10.6914L5.69196 8.10256V7.71309H12.3174L17.4326 19.0154L21.933 7.72072H28.2473V8.10256Z" fill="white"/>
</svg>
