<svg width="230" height="230" viewBox="0 0 230 230" fill="none" xmlns="http://www.w3.org/2000/svg">
<g clip-path="url(#clip0_8700_5535)">
<rect width="230" height="230" fill="white" fill-opacity="0.02"/>
<path d="M309.667 -184.309L-217.053 342.411" stroke="#FFF59C" stroke-width="1.72429" stroke-dasharray="2.3 2.3"/>
<path d="M309.667 -184.309L-217.053 342.411" stroke="#FFF59C" stroke-width="1.72429" stroke-dasharray="2.3 2.3"/>
<path d="M309.667 -184.309L-217.053 342.411" stroke="#FFF59C" stroke-width="1.72429" stroke-dasharray="2.3 2.3"/>
<path d="M347.851 -146.125L-178.869 380.595" stroke="#FFF59C" stroke-width="1.72429" stroke-dasharray="2.3 2.3"/>
<path d="M347.851 -146.125L-178.869 380.595" stroke="#FFF59C" stroke-width="1.72429" stroke-dasharray="2.3 2.3"/>
<path d="M347.851 -146.125L-178.869 380.595" stroke="#FFCAFF" stroke-width="1.72429" stroke-dasharray="2.3 2.3"/>
<path d="M-166.179 329.381L330.06 -166.858" stroke="#77E2FF" stroke-width="1.72429" stroke-dasharray="2.3 2.3"/>
<path d="M118.625 139.594H182.375V184.75C182.375 185.454 182.095 186.13 181.597 186.628C181.099 187.126 180.423 187.406 179.719 187.406H121.281C120.577 187.406 119.901 187.126 119.403 186.628C118.905 186.13 118.625 185.454 118.625 184.75V139.594Z" stroke="white" stroke-width="2" stroke-linecap="round" stroke-linejoin="round"/>
<path d="M182.375 139.594L150.5 168.812L118.625 139.594" stroke="white" stroke-width="2" stroke-linecap="round" stroke-linejoin="round"/>
</g>
<defs>
<clipPath id="clip0_8700_5535">
<rect width="230" height="230" fill="white"/>
</clipPath>
</defs>
</svg>
