<svg width="328" height="325" viewBox="0 0 328 325" fill="none" xmlns="http://www.w3.org/2000/svg">
<rect x="241" y="322.439" width="6.86801" height="32.9999" transform="rotate(-90 241 322.439)" fill="#00B9E9"/>
<rect x="241" y="293.124" width="6.61674" height="29.3147" fill="#00B9E9"/>
<rect x="274" y="293.125" width="6.86801" height="32.9999" transform="rotate(90 274 293.125)" fill="#00B9E9"/>
<rect x="274" y="322.439" width="6.61674" height="29.3147" transform="rotate(-180 274 322.439)" fill="#00B9E9"/>
<rect x="17" y="324.439" width="6.86801" height="32.9999" transform="rotate(-90 17 324.439)" fill="#00B9E9"/>
<rect x="17" y="295.124" width="6.61674" height="29.3147" fill="#00B9E9"/>
<rect x="50" y="295.125" width="6.86801" height="32.9999" transform="rotate(90 50 295.125)" fill="#00B9E9"/>
<rect x="50" y="324.439" width="6.61674" height="29.3147" transform="rotate(-180 50 324.439)" fill="#00B9E9"/>
<rect x="281" y="322.439" width="9.78171" height="46.9999" transform="rotate(-90 281 322.439)" fill="#00B9E9"/>
<rect x="281" y="280.688" width="9.42384" height="41.7512" fill="#00B9E9"/>
<rect x="328" y="280.688" width="9.78171" height="46.9999" transform="rotate(90 328 280.688)" fill="#00B9E9"/>
<rect x="328" y="322.439" width="9.42384" height="41.7512" transform="rotate(-180 328 322.439)" fill="#00B9E9"/>
<path d="M206.837 311.74L209.002 306.171L188.546 295.172L185.35 303.39L206.837 311.74Z" fill="#FFB8B8"/>
<path d="M218.44 297.214C217.522 296.857 216.543 296.684 215.558 296.705C214.573 296.726 213.602 296.942 212.7 297.338C211.798 297.735 210.984 298.305 210.303 299.017C209.622 299.729 209.088 300.567 208.731 301.485L207.27 305.239L205.018 311.033L204.467 312.453L211.685 315.26L218.667 297.304L218.44 297.214Z" fill="#2F2E41"/>
<path d="M205.019 301.023L204.077 303.52L201.726 309.752L201.669 309.908C195.68 310.677 189.115 309.169 183.042 306.826C180.612 305.89 178.233 304.828 175.913 303.646C172.478 301.912 169.404 300.081 166.95 298.516C163.257 296.146 160.973 294.367 160.973 294.367C160.973 294.367 160.37 294.912 159.278 295.847C157.815 297.098 155.477 299.052 152.515 301.353C151.385 302.236 150.172 303.161 148.876 304.126C139.32 311.21 127.057 292.306 127.057 292.306C127.057 292.306 130.506 290.111 131.407 289.685C134.308 288.313 141.124 285.075 147.005 282.198C150.034 280.714 152.812 279.322 154.677 278.333C161.28 274.819 169.489 281.469 169.489 281.469L205.019 301.023Z" fill="#2F2E41"/>
<path opacity="0.14" d="M205.019 301.023L204.077 303.52L201.726 309.752L201.669 309.908C195.68 310.677 189.115 309.169 183.042 306.826C180.612 305.89 178.233 304.828 175.913 303.646C172.478 301.912 169.404 300.081 166.95 298.516C163.257 296.146 160.973 294.367 160.973 294.367C160.973 294.367 160.37 294.912 159.278 295.847C157.815 297.098 155.477 299.052 152.515 301.353C151.385 302.236 150.172 303.161 148.876 304.126C139.32 311.21 127.057 292.306 127.057 292.306C127.057 292.306 130.506 290.111 131.407 289.685C134.308 288.313 141.124 285.075 147.005 282.198C150.034 280.714 152.812 279.322 154.677 278.333C161.28 274.819 169.489 281.469 169.489 281.469L205.019 301.023Z" fill="black"/>
<path d="M84.0044 168.478C130.399 168.478 168.009 130.885 168.009 84.5123C168.009 38.1392 130.399 0.546387 84.0044 0.546387C37.61 0.546387 0 38.1392 0 84.5123C0 130.885 37.61 168.478 84.0044 168.478Z" fill="#6C63FF"/>
<path opacity="0.2" d="M21.9784 28.4296C14.1427 46.7504 13.0797 67.2592 18.9795 86.2912C24.8792 105.323 37.3572 121.638 54.1837 132.321C71.0102 143.004 91.0888 147.358 110.831 144.606C130.574 141.853 148.695 132.174 161.955 117.297C157.168 128.49 150.004 138.509 140.959 146.66C131.913 154.811 121.203 160.899 109.571 164.502C97.938 168.105 85.6606 169.137 73.5892 167.527C61.5178 165.916 49.941 161.702 39.6609 155.175C29.3808 148.649 20.6433 139.966 14.0536 129.729C7.46387 119.492 3.17961 107.946 1.49762 95.8894C-0.184365 83.8332 0.776136 71.5556 4.31257 59.9072C7.84901 48.2589 13.8768 37.5183 21.9784 28.4296Z" fill="black"/>
<path d="M84.2349 84.5119H84.466L88.6201 322.569H79.8502L84.2349 84.5119Z" fill="#3F3D56"/>
<path d="M71.3036 192.477L69.3684 196.151L83.2546 203.458L85.1898 199.784L71.3036 192.477Z" fill="#3F3D56"/>
<path d="M109.436 248.615H81.1607C80.579 248.614 80.0214 248.383 79.6101 247.972C79.1988 247.561 78.9675 247.003 78.9669 246.422V234.24C78.9669 229.91 80.6875 225.758 83.7503 222.697C86.8131 219.635 90.9671 217.916 95.2986 217.916C99.63 217.916 103.784 219.635 106.847 222.697C109.91 225.758 111.63 229.91 111.63 234.24V246.422C111.63 247.003 111.398 247.561 110.987 247.972C110.576 248.383 110.018 248.614 109.436 248.615Z" fill="#2F2E41"/>
<path d="M136.327 263.917C135.669 264.032 135.044 264.29 134.496 264.673C133.949 265.057 133.492 265.555 133.158 266.134C132.824 266.712 132.621 267.357 132.563 268.022C132.505 268.688 132.594 269.358 132.824 269.985L125.135 277.054L128.293 282.772L139.011 272.637C140.04 272.182 140.866 271.366 141.333 270.343C141.8 269.319 141.875 268.16 141.544 267.085C141.213 266.01 140.499 265.094 139.538 264.51C138.576 263.926 137.434 263.715 136.327 263.917Z" fill="#FFB8B8"/>
<path d="M113.192 296.054C112.844 296.054 112.496 296.039 112.148 296.009C110.074 295.836 108.078 295.139 106.347 293.984C104.616 292.828 103.207 291.252 102.253 289.404L89.9346 265.705C89.1275 264.153 88.9503 262.349 89.44 260.668C89.9297 258.988 91.0485 257.562 92.5638 256.685C94.079 255.809 95.874 255.55 97.5754 255.962C99.2767 256.375 100.753 257.427 101.698 258.9L113.063 284.388L128.526 271.829L137.48 275.313L122.359 291.999C121.197 293.274 119.781 294.293 118.203 294.992C116.624 295.69 114.918 296.052 113.192 296.054V296.054Z" fill="#CCCCCC"/>
<rect x="129.866" y="259.097" width="4.63518" height="22.2714" transform="rotate(-45.4417 129.866 259.097)" fill="#00B9E9"/>
<rect x="143.747" y="245" width="4.4656" height="19.7843" transform="rotate(44.5583 143.747 245)" fill="#00B9E9"/>
<rect x="159.616" y="260.626" width="4.63518" height="22.2714" transform="rotate(134.558 159.616 260.626)" fill="#00B9E9"/>
<rect x="145.735" y="274.724" width="4.4656" height="19.7843" transform="rotate(-135.442 145.735 274.724)" fill="#00B9E9"/>
<path d="M205.108 319.571L207.695 314.186L188.146 301.648L184.327 309.596L205.108 319.571Z" fill="#FFB8B8"/>
<path d="M217.794 305.979C216.906 305.553 215.943 305.305 214.959 305.251C213.976 305.196 212.991 305.336 212.061 305.663C211.132 305.989 210.276 306.495 209.542 307.152C208.808 307.809 208.212 308.605 207.786 309.493L206.04 313.123L203.349 318.727L202.691 320.101L209.672 323.454L218.014 306.086L217.794 305.979Z" fill="#2F2E41"/>
<path d="M204.12 308.747L202.989 311.164L200.166 317.197L200.098 317.348C194.067 317.655 187.637 315.647 181.762 312.845C179.412 311.725 177.121 310.484 174.898 309.127C171.607 307.134 168.682 305.073 166.357 303.323C162.856 300.677 160.716 298.728 160.716 298.728C160.716 298.728 160.073 299.225 158.912 300.073C157.357 301.209 154.876 302.977 151.746 305.044C150.552 305.838 149.271 306.666 147.904 307.529C137.832 313.859 123.509 321.568 111.326 323.195C89.9292 326.055 94.9652 297.515 94.9652 297.515L111.994 288.675L119.224 290.142L127.273 291.77L130.125 292.35C130.125 292.35 130.666 292.145 131.597 291.789C134.595 290.644 141.64 287.94 147.724 285.523C150.859 284.275 153.735 283.101 155.67 282.258C162.525 279.261 170.198 286.522 170.198 286.522L204.12 308.747Z" fill="#2F2E41"/>
<path d="M63.8046 323.877C64.456 323.727 65.0666 323.437 65.5936 323.026C66.1206 322.615 66.5511 322.094 66.8547 321.499C67.1583 320.904 67.3276 320.249 67.3508 319.582C67.3741 318.914 67.2505 318.25 66.989 317.635L74.3019 310.179L70.8525 304.631L60.6732 315.306C59.6691 315.814 58.8862 316.672 58.4729 317.718C58.0595 318.764 58.0444 319.925 58.4304 320.982C58.8164 322.038 59.5766 322.916 60.5671 323.45C61.5576 323.984 62.7096 324.135 63.8046 323.877L63.8046 323.877Z" fill="#FFB8B8"/>
<path d="M99.302 249.158C105.599 249.158 110.703 244.056 110.703 237.763C110.703 231.469 105.599 226.367 99.302 226.367C93.0053 226.367 87.9009 231.469 87.9009 237.763C87.9009 244.056 93.0053 249.158 99.302 249.158Z" fill="#FFB8B8"/>
<path d="M84.4694 269.396L94.4009 297.54L94.3413 297.639C92.9599 299.921 92.5085 301.762 93.0359 302.963C93.1748 303.268 93.3783 303.54 93.6324 303.759C93.8864 303.978 94.185 304.139 94.5075 304.232L118.01 287.812L117.187 281.231L117.233 281.157C119.504 277.524 120.24 274.234 119.419 271.379C118.354 267.673 114.971 265.991 114.936 265.974L114.855 265.91L103.132 251.649L87.4626 254.432L84.4694 269.396Z" fill="#CCCCCC"/>
<path d="M69.3663 318.796L62.713 310.611L78.7519 284.146L86.2297 261.042L86.4617 261.117L86.2297 261.042C86.6382 259.78 87.3127 258.62 88.2076 257.641C89.1025 256.661 90.1972 255.885 91.4177 255.364C92.6382 254.843 93.9563 254.589 95.2831 254.621C96.6099 254.652 97.9146 254.967 99.1092 255.545C100.304 256.123 101.361 256.95 102.208 257.971C103.056 258.991 103.675 260.182 104.024 261.462C104.372 262.742 104.442 264.081 104.229 265.391C104.016 266.7 103.524 267.948 102.787 269.052L89.0592 289.61L69.3663 318.796Z" fill="#CCCCCC"/>
<path d="M115.494 235.458H98.2039L98.0265 232.977L97.14 235.458H94.4778L94.1264 230.54L92.3694 235.458H87.218V235.214C87.2218 231.791 88.5842 228.508 91.0061 226.087C93.4281 223.667 96.7118 222.305 100.137 222.301H102.575C106 222.305 109.284 223.667 111.706 226.087C114.128 228.508 115.49 231.791 115.494 235.214V235.458Z" fill="#2F2E41"/>
<path d="M98.0625 250.889C97.9323 250.889 97.8024 250.877 97.6742 250.854L85.0137 248.622V227.707H98.9505L98.6055 228.109C93.8048 233.705 97.4215 242.78 100.005 247.691C100.195 248.051 100.28 248.457 100.25 248.862C100.219 249.268 100.075 249.657 99.8329 249.985C99.6304 250.264 99.3643 250.492 99.0565 250.65C98.7488 250.807 98.4081 250.889 98.0625 250.889V250.889Z" fill="#2F2E41"/>
<path d="M260.233 221.316C290.927 221.316 315.81 196.445 315.81 165.765C315.81 135.085 290.927 110.213 260.233 110.213C229.539 110.213 204.657 135.085 204.657 165.765C204.657 196.445 229.539 221.316 260.233 221.316Z" fill="#3F3D56"/>
<path d="M246.024 144.172V191.435C246.011 191.654 246.059 191.872 246.16 192.066C246.262 192.26 246.414 192.424 246.601 192.539C246.788 192.653 247.002 192.716 247.222 192.719C247.441 192.722 247.657 192.666 247.847 192.557L285.329 168.925C285.512 168.803 285.662 168.637 285.766 168.443C285.87 168.249 285.925 168.032 285.925 167.811C285.925 167.591 285.87 167.374 285.766 167.18C285.662 166.985 285.512 166.82 285.329 166.697L247.847 143.066C247.659 142.953 247.443 142.894 247.224 142.895C247.004 142.895 246.789 142.956 246.602 143.07C246.414 143.183 246.261 143.346 246.159 143.54C246.057 143.735 246.01 143.953 246.024 144.172V144.172Z" fill="#F2F2F2"/>
</svg>
