<svg width="60" height="60" viewBox="0 0 60 60" fill="none" xmlns="http://www.w3.org/2000/svg">
<g filter="url(#filter0_d_8018_5442)">
<path d="M29.9991 20.6239C29.9991 15.4676 34.335 11.1786 39.4913 11.2489C41.297 11.2697 43.0583 11.8117 44.5634 12.8095C46.0685 13.8074 47.2534 15.2188 47.9756 16.8739H56.2491L48.6788 24.4442C48.1902 32.0487 44.8239 39.1817 39.2644 44.393C33.7048 49.6043 26.3692 52.5027 18.7491 52.4989C11.2491 52.4989 9.37407 49.6864 9.37407 49.6864C9.37407 49.6864 16.8741 46.8739 20.6241 41.2489C20.6241 41.2489 5.62407 33.7489 9.37407 13.1239C9.37407 13.1239 18.7491 22.4989 29.9991 24.3739V20.6239Z" stroke="white" stroke-width="3" stroke-linecap="round" stroke-linejoin="round" shape-rendering="crispEdges"/>
</g>
<defs>
<filter id="filter0_d_8018_5442" x="7.27222" y="9.74805" width="50.4768" height="45.25" filterUnits="userSpaceOnUse" color-interpolation-filters="sRGB">
<feFlood flood-opacity="0" result="BackgroundImageFix"/>
<feColorMatrix in="SourceAlpha" type="matrix" values="0 0 0 0 0 0 0 0 0 0 0 0 0 0 0 0 0 0 127 0" result="hardAlpha"/>
<feOffset dy="1"/>
<feComposite in2="hardAlpha" operator="out"/>
<feColorMatrix type="matrix" values="0 0 0 0 0 0 0 0 0 0 0 0 0 0 0 0 0 0 0.25 0"/>
<feBlend mode="normal" in2="BackgroundImageFix" result="effect1_dropShadow_8018_5442"/>
<feBlend mode="normal" in="SourceGraphic" in2="effect1_dropShadow_8018_5442" result="shape"/>
</filter>
</defs>
</svg>
