<svg width="60" height="60" viewBox="0 0 60 60" fill="none" xmlns="http://www.w3.org/2000/svg">
<path d="M29.9992 20.6239C29.9992 15.4676 34.3351 11.1786 39.4914 11.2489C41.2971 11.2697 43.0584 11.8117 44.5635 12.8095C46.0686 13.8074 47.2535 15.2188 47.9758 16.8739H56.2492L48.6789 24.4442C48.1903 32.0487 44.8241 39.1817 39.2645 44.393C33.7049 49.6043 26.3693 52.5027 18.7492 52.4989C11.2492 52.4989 9.37419 49.6864 9.37419 49.6864C9.37419 49.6864 16.8742 46.8739 20.6242 41.2489C20.6242 41.2489 5.62419 33.7489 9.37419 13.1239C9.37419 13.1239 18.7492 22.4989 29.9992 24.3739V20.6239Z" stroke="white" stroke-width="3" stroke-linecap="round" stroke-linejoin="round"/>
</svg>
