<svg width="51" height="51" viewBox="0 0 51 51" fill="none" xmlns="http://www.w3.org/2000/svg">
<path d="M0 40.3717V44.625C0 48.1412 8.56641 51 19.125 51C29.6836 51 38.25 48.1412 38.25 44.625V40.3717C34.1361 43.2703 26.6156 44.625 19.125 44.625C11.6344 44.625 4.11387 43.2703 0 40.3717ZM31.875 12.75C42.4336 12.75 51 9.89121 51 6.375C51 2.85879 42.4336 0 31.875 0C21.3164 0 12.75 2.85879 12.75 6.375C12.75 9.89121 21.3164 12.75 31.875 12.75ZM0 29.9227V35.0625C0 38.5787 8.56641 41.4375 19.125 41.4375C29.6836 41.4375 38.25 38.5787 38.25 35.0625V29.9227C34.1361 33.3094 26.6057 35.0625 19.125 35.0625C11.6443 35.0625 4.11387 33.3094 0 29.9227ZM41.4375 31.0184C47.1451 29.9127 51 27.8607 51 25.5V21.2467C48.6891 22.8803 45.2924 23.9959 41.4375 24.6832V31.0184ZM19.125 15.9375C8.56641 15.9375 0 19.5035 0 23.9062C0 28.309 8.56641 31.875 19.125 31.875C29.6836 31.875 38.25 28.309 38.25 23.9062C38.25 19.5035 29.6836 15.9375 19.125 15.9375ZM40.9693 21.5455C46.9459 20.4697 51 18.358 51 15.9375V11.6842C47.4639 14.1844 41.3877 15.5291 34.9928 15.8479C37.9312 17.2723 40.0928 19.1848 40.9693 21.5455Z" fill="white"/>
</svg>
