<svg width="36" height="38" viewBox="0 0 36 38" fill="none" xmlns="http://www.w3.org/2000/svg">
<g clip-path="url(#clip0)">
<path d="M13.9575 24.3957C13.9575 25.9469 13.14 28.4852 11.205 28.4852C9.27 28.4852 8.4525 25.9469 8.4525 24.3957C8.4525 22.8445 9.27 20.3063 11.205 20.3063C13.14 20.3063 13.9575 22.8445 13.9575 24.3957ZM36 20.6477C36 23.0152 35.76 25.5238 34.6875 27.6984C31.845 33.3836 24.03 33.25 18.435 33.25C12.75 33.25 4.47 33.4504 1.515 27.6984C0.42 25.5461 0 23.0152 0 20.6477C0 17.5379 1.0425 14.5988 3.1125 12.2164C2.7225 11.0438 2.535 9.81172 2.535 8.59453C2.535 6.99883 2.9025 6.19727 3.63 4.75C7.0275 4.75 9.2025 5.41797 11.79 7.42188C13.965 6.90977 16.2 6.67969 18.4425 6.67969C20.4675 6.67969 22.5075 6.89492 24.4725 7.3625C27.0225 5.38086 29.1975 4.75 32.5575 4.75C33.2925 6.19727 33.6525 6.99883 33.6525 8.59453C33.6525 9.81172 33.4575 11.0215 33.075 12.1719C35.1375 14.5766 36 17.5379 36 20.6477ZM31.1775 24.3957C31.1775 21.1375 29.175 18.2652 25.665 18.2652C24.2475 18.2652 22.89 18.5176 21.465 18.7105C20.3475 18.8813 19.23 18.948 18.0825 18.948C16.9425 18.948 15.825 18.8813 14.7 18.7105C13.2975 18.5176 11.925 18.2652 10.5 18.2652C6.99 18.2652 4.9875 21.1375 4.9875 24.3957C4.9875 30.9121 11.0175 31.9141 16.2675 31.9141H19.8825C25.155 31.9141 31.1775 30.9195 31.1775 24.3957ZM24.9825 20.3063C23.0475 20.3063 22.23 22.8445 22.23 24.3957C22.23 25.9469 23.0475 28.4852 24.9825 28.4852C26.9175 28.4852 27.735 25.9469 27.735 24.3957C27.735 22.8445 26.9175 20.3063 24.9825 20.3063Z" fill="white"/>
</g>
<defs>
<clipPath id="clip0">
<rect width="36" height="38" fill="white"/>
</clipPath>
</defs>
</svg>
