<svg width="36" height="30" viewBox="0 0 36 30" fill="none" xmlns="http://www.w3.org/2000/svg">
<path d="M13.9575 20.3957C13.9575 21.9469 13.14 24.4852 11.205 24.4852C9.27 24.4852 8.4525 21.9469 8.4525 20.3957C8.4525 18.8445 9.27 16.3063 11.205 16.3063C13.14 16.3063 13.9575 18.8445 13.9575 20.3957ZM36 16.6477C36 19.0152 35.76 21.5238 34.6875 23.6984C31.845 29.3836 24.03 29.25 18.435 29.25C12.75 29.25 4.47 29.4504 1.515 23.6984C0.42 21.5461 0 19.0152 0 16.6477C0 13.5379 1.0425 10.5988 3.1125 8.21641C2.7225 7.04375 2.535 5.81172 2.535 4.59453C2.535 2.99883 2.9025 2.19727 3.63 0.75C7.0275 0.75 9.2025 1.41797 11.79 3.42188C13.965 2.90977 16.2 2.67969 18.4425 2.67969C20.4675 2.67969 22.5075 2.89492 24.4725 3.3625C27.0225 1.38086 29.1975 0.75 32.5575 0.75C33.2925 2.19727 33.6525 2.99883 33.6525 4.59453C33.6525 5.81172 33.4575 7.02148 33.075 8.17188C35.1375 10.5766 36 13.5379 36 16.6477ZM31.1775 20.3957C31.1775 17.1375 29.175 14.2652 25.665 14.2652C24.2475 14.2652 22.89 14.5176 21.465 14.7105C20.3475 14.8813 19.23 14.948 18.0825 14.948C16.9425 14.948 15.825 14.8813 14.7 14.7105C13.2975 14.5176 11.925 14.2652 10.5 14.2652C6.99 14.2652 4.9875 17.1375 4.9875 20.3957C4.9875 26.9121 11.0175 27.9141 16.2675 27.9141H19.8825C25.155 27.9141 31.1775 26.9195 31.1775 20.3957ZM24.9825 16.3063C23.0475 16.3063 22.23 18.8445 22.23 20.3957C22.23 21.9469 23.0475 24.4852 24.9825 24.4852C26.9175 24.4852 27.735 21.9469 27.735 20.3957C27.735 18.8445 26.9175 16.3063 24.9825 16.3063Z" fill="white"/>
</svg>
