<svg width="35" height="27" viewBox="0 0 35 27" fill="none" xmlns="http://www.w3.org/2000/svg">
<path d="M34.3369 8.66797C34.6035 8.45605 35 8.6543 35 8.98926V22.9688C35 24.7803 33.5303 26.25 31.7188 26.25H3.28125C1.46973 26.25 0 24.7803 0 22.9688V8.99609C0 8.6543 0.389648 8.46289 0.663086 8.6748C2.19434 9.86426 4.22461 11.375 11.1973 16.4404C12.6396 17.4932 15.0732 19.708 17.5 19.6943C19.9404 19.7148 22.4219 17.4521 23.8096 16.4404C30.7822 11.375 32.8057 9.85742 34.3369 8.66797ZM17.5 17.5C19.0859 17.5273 21.3691 15.5039 22.5176 14.6699C31.5889 8.08691 32.2793 7.51269 34.3711 5.87207C34.7676 5.56445 35 5.08594 35 4.58008V3.28125C35 1.46973 33.5303 0 31.7188 0H3.28125C1.46973 0 0 1.46973 0 3.28125V4.58008C0 5.08594 0.232422 5.55762 0.628906 5.87207C2.7207 7.50586 3.41113 8.08691 12.4824 14.6699C13.6309 15.5039 15.9141 17.5273 17.5 17.5Z" fill="white"/>
</svg>
