<svg width="36" height="36" viewBox="0 0 36 36" fill="none" xmlns="http://www.w3.org/2000/svg">
<path d="M0 0V36H35.7764V0H0ZM29.7232 8.52589L27.8066 10.3741C27.6389 10.5027 27.559 10.7116 27.5909 10.9125V24.517C27.559 24.7259 27.6389 24.9348 27.8066 25.0554L29.6832 26.9036V27.3134H20.26V26.9196L22.2005 25.0232C22.3922 24.8304 22.3922 24.7741 22.3922 24.4848V13.4839L16.9938 27.2732H16.2671L9.98225 13.4839V22.725C9.92635 23.1107 10.0621 23.5045 10.3336 23.7857L12.8571 26.8634V27.2732H5.68589V26.8634L8.20941 23.7857C8.48092 23.5045 8.60071 23.1107 8.53682 22.725V12.0375C8.56877 11.7402 8.45697 11.4509 8.23336 11.25L5.98935 8.52589V8.11607H12.961L18.3434 20.0089L23.079 8.12411H29.7232V8.52589Z" fill="white"/>
</svg>
