<svg width="39" height="64" viewBox="0 0 39 64" fill="none" xmlns="http://www.w3.org/2000/svg">
<path d="M19.5 38C16.9813 37.9972 14.5666 37.0366 12.7857 35.3288C11.0047 33.621 10.0029 31.3056 10 28.8904V9.10959C10 6.69358 11.0009 4.37652 12.7825 2.66814C14.5641 0.959762 16.9804 0 19.5 0C22.0196 0 24.4359 0.959762 26.2175 2.66814C27.9991 4.37652 29 6.69358 29 9.10959V28.8904C28.9971 31.3056 27.9953 33.621 26.2143 35.3288C24.4333 37.0366 22.0187 37.9972 19.5 38Z" fill="white"/>
<path d="M19.5 46C14.3301 45.9942 9.37357 43.9457 5.71788 40.3041C2.06218 36.6625 0.00584746 31.725 0 26.575C0 26.1573 0.166568 25.7567 0.463079 25.4613C0.759589 25.1659 1.16175 25 1.58108 25C2.00041 25 2.40254 25.1659 2.69905 25.4613C2.99556 25.7567 3.16216 26.1573 3.16216 26.575C3.16216 30.8914 4.88344 35.031 7.94738 38.0832C11.0113 41.1353 15.1669 42.85 19.5 42.85C23.8331 42.85 27.9886 41.1353 31.0526 38.0832C34.1165 35.031 35.8378 30.8914 35.8378 26.575C35.8378 26.1573 36.0044 25.7567 36.3009 25.4613C36.5974 25.1659 36.9996 25 37.4189 25C37.8382 25 38.2404 25.1659 38.5369 25.4613C38.8334 25.7567 39 26.1573 39 26.575C38.9942 31.725 36.9378 36.6625 33.2821 40.3041C29.6264 43.9457 24.6699 45.9942 19.5 46Z" fill="white"/>
<path d="M19.5 64C19.1022 64 18.7207 63.8298 18.4394 63.5268C18.1581 63.2239 18 62.813 18 62.3846V44.6154C18 44.187 18.158 43.7761 18.4393 43.4731C18.7206 43.1702 19.1022 43 19.5 43C19.8978 43 20.2793 43.1702 20.5606 43.4731C20.8419 43.7761 21 44.187 21 44.6154V62.3846C21 62.813 20.8419 63.2239 20.5606 63.5268C20.2793 63.8298 19.8978 64 19.5 64Z" fill="white"/>
<path d="M31.4307 64H6.56929C6.15309 64 5.75396 63.842 5.45966 63.5607C5.16536 63.2793 5 62.8978 5 62.5C5 62.1022 5.16536 61.7207 5.45966 61.4393C5.75396 61.158 6.15309 61 6.56929 61H31.4307C31.8469 61 32.246 61.158 32.5403 61.4393C32.8346 61.7207 33 62.1022 33 62.5C33 62.8978 32.8346 63.2793 32.5403 63.5607C32.246 63.842 31.8469 64 31.4307 64Z" fill="white"/>
</svg>
