<svg width="38" height="31" viewBox="0 0 38 31" fill="none" xmlns="http://www.w3.org/2000/svg">
<path d="M34.0939 7.69159C34.118 8.02913 34.118 8.36675 34.118 8.7043C34.118 18.9999 26.2817 30.8629 11.9594 30.8629C7.54693 30.8629 3.44798 29.5849 0 27.3668C0.626926 27.439 1.22966 27.4632 1.8807 27.4632C5.5215 27.4632 8.87307 26.2335 11.5495 24.1358C8.12562 24.0634 5.25632 21.8211 4.26773 18.7347C4.75 18.807 5.2322 18.8553 5.73859 18.8553C6.43781 18.8553 7.1371 18.7588 7.78807 18.5901C4.21956 17.8667 1.54308 14.7322 1.54308 10.9467V10.8503C2.57984 11.4289 3.78553 11.7906 5.06335 11.8388C2.96563 10.4403 1.59132 8.05325 1.59132 5.35273C1.59132 3.90606 1.97704 2.57992 2.65221 1.42255C6.48598 6.14843 12.2487 9.23467 18.7105 9.57229C18.59 8.9936 18.5177 8.39087 18.5177 7.78807C18.5177 3.49615 21.9897 0 26.3057 0C28.5481 0 30.5734 0.940352 31.9961 2.45939C33.7562 2.12184 35.444 1.47079 36.939 0.578684C36.3602 2.3871 35.1306 3.90613 33.5151 4.87053C35.0824 4.70183 36.6014 4.26773 37.9998 3.665C36.9391 5.20808 35.6129 6.58239 34.0939 7.69159Z" fill="white"/>
</svg>
