<svg width="65" height="46" viewBox="0 0 65 46" fill="none" xmlns="http://www.w3.org/2000/svg">
<path d="M63.6418 7.19744C62.8942 4.36437 60.6916 2.13313 57.8951 1.37593C52.8261 0 32.5 0 32.5 0C32.5 0 12.174 0 7.10492 1.37593C4.30835 2.13325 2.10579 4.36437 1.35824 7.19744C0 12.3326 0 23.0465 0 23.0465C0 23.0465 0 33.7604 1.35824 38.8955C2.10579 41.7286 4.30835 43.8669 7.10492 44.6241C12.174 46 32.5 46 32.5 46C32.5 46 52.826 46 57.8951 44.6241C60.6916 43.8669 62.8942 41.7286 63.6418 38.8955C65 33.7604 65 23.0465 65 23.0465C65 23.0465 65 12.3326 63.6418 7.19744ZM25.8522 32.7739V13.319L42.8408 23.0467L25.8522 32.7739Z" fill="white"/>
</svg>
