<svg width="489" height="494" viewBox="0 0 489 494" fill="none" xmlns="http://www.w3.org/2000/svg">
<path d="M10.6187 179.987H11.9874V181.381H12.8249V179.15H10.6187V179.987Z" fill="white"/>
<path d="M7.98743 181.381V179.987H9.35617V179.15H7.14993V181.381H7.98743Z" fill="white"/>
<path d="M11.9874 182.644V184.038H10.6187V184.875H12.8249V182.644H11.9874Z" fill="white"/>
<path d="M9.35617 184.038H7.98743V182.644H7.14993V184.875H9.35617V184.038Z" fill="white"/>
<path d="M466.275 338.363V340.763V343.163L471.069 340.763L466.275 338.363Z" fill="white"/>
<path d="M478.219 338.738V340.763V342.788L480.675 340.763L478.219 338.738Z" fill="white"/>
<path d="M481.881 338.738H481.256V342.794H481.881V338.738Z" fill="white"/>
<path d="M484.444 0.78125H4.27496C2.54934 0.78125 1.14996 2.18063 1.14996 3.90625V377.6C1.14996 379.326 2.54934 380.725 4.27496 380.725H484.444C486.169 380.725 487.569 379.326 487.569 377.6V3.90625C487.569 2.18063 486.169 0.78125 484.444 0.78125Z" fill="white"/>
<path d="M481.169 381.375H7.54996C5.64496 381.332 3.83434 380.535 2.51684 379.157C1.19934 377.781 0.483087 375.936 0.524962 374.031V7.46875C0.483087 5.56375 1.19934 3.71938 2.51684 2.3425C3.83434 0.965002 5.64496 0.1675 7.54996 0.125H481.169C483.075 0.169375 484.881 0.967497 486.2 2.34437C487.519 3.72062 488.231 5.56375 488.194 7.46875V374.031C488.231 375.936 487.519 377.779 486.2 379.155C484.881 380.532 483.075 381.331 481.169 381.375ZM7.54996 1.43125C6.77433 1.44812 6.00934 1.61813 5.29934 1.93063C4.58934 2.24313 3.94808 2.69312 3.41183 3.25375C2.87558 3.81437 2.45496 4.475 2.17371 5.19813C1.89309 5.92188 1.75746 6.69312 1.77496 7.46875V374.031C1.75746 374.807 1.89309 375.578 2.17371 376.302C2.45496 377.025 2.87558 377.686 3.41183 378.246C3.94808 378.807 4.58934 379.257 5.29934 379.569C6.00934 379.882 6.77433 380.052 7.54996 380.069H481.169C482.737 380.032 484.225 379.377 485.306 378.244C486.387 377.112 486.975 375.597 486.944 374.031V7.46875C486.975 5.9025 486.387 4.3875 485.306 3.25563C484.225 2.12313 482.737 1.4675 481.169 1.43125H7.54996Z" fill="#4FB9E3"/>
<g opacity="0.6">
<path opacity="0.6" d="M481.169 381.375H7.54996C5.64496 381.332 3.83434 380.535 2.51684 379.157C1.19934 377.781 0.483087 375.936 0.524962 374.031V7.46875C0.483087 5.56375 1.19934 3.71938 2.51684 2.3425C3.83434 0.965002 5.64496 0.1675 7.54996 0.125H481.169C483.075 0.169375 484.881 0.967497 486.2 2.34437C487.519 3.72062 488.231 5.56375 488.194 7.46875V374.031C488.231 375.936 487.519 377.779 486.2 379.155C484.881 380.532 483.075 381.331 481.169 381.375ZM7.54996 1.43125C6.77433 1.44812 6.00934 1.61813 5.29934 1.93063C4.58934 2.24313 3.94808 2.69312 3.41183 3.25375C2.87558 3.81437 2.45496 4.475 2.17371 5.19813C1.89309 5.92188 1.75746 6.69312 1.77496 7.46875V374.031C1.75746 374.807 1.89309 375.578 2.17371 376.302C2.45496 377.025 2.87558 377.686 3.41183 378.246C3.94808 378.807 4.58934 379.257 5.29934 379.569C6.00934 379.882 6.77433 380.052 7.54996 380.069H481.169C482.737 380.032 484.225 379.377 485.306 378.244C486.387 377.112 486.975 375.597 486.944 374.031V7.46875C486.975 5.9025 486.387 4.3875 485.306 3.25563C484.225 2.12313 482.737 1.4675 481.169 1.43125H7.54996Z" fill="white"/>
</g>
<path d="M457.937 69.4062H30.7812V291.787H457.937V69.4062Z" fill="#4FB9E3"/>
<path opacity="0.7" d="M457.937 69.4062H30.7812V291.787H457.937V69.4062Z" fill="white"/>
<path d="M239.625 306.5H30.5375V308.8H239.625V306.5Z" fill="#B2B6BB"/>
<path d="M88.9999 316.8H30.3249V319.1H88.9999V316.8Z" fill="#B2B6BB"/>
<path d="M158.375 316.8H99.7V319.1H158.375V316.8Z" fill="#B2B6BB"/>
<path d="M94.35 319.513C95.2131 319.513 95.9124 318.813 95.9124 317.95C95.9124 317.087 95.2131 316.388 94.35 316.388C93.4868 316.388 92.7875 317.087 92.7875 317.95C92.7875 318.813 93.4868 319.513 94.35 319.513Z" fill="#B2B6BB"/>
<path d="M267.612 180.125C267.612 184.724 266.249 189.221 263.693 193.045C261.137 196.87 257.506 199.85 253.256 201.611C249.006 203.371 244.331 203.832 239.819 202.934C235.308 202.037 231.164 199.822 227.911 196.569C224.659 193.317 222.444 189.173 221.547 184.662C220.649 180.15 221.11 175.475 222.87 171.225C224.631 166.976 227.611 163.344 231.436 160.788C235.26 158.232 239.756 156.869 244.356 156.869C247.411 156.868 250.435 157.469 253.257 158.637C256.079 159.806 258.643 161.519 260.802 163.679C262.962 165.838 264.676 168.402 265.844 171.224C267.012 174.046 267.613 177.07 267.612 180.125Z" fill="#4FB9E3"/>
<path d="M239.362 173.006V180.138V187.269L253.625 180.138L239.362 173.006Z" fill="white"/>
<path d="M277.544 173.25V180.138V187.025L285.887 180.138L277.544 173.25Z" fill="white"/>
<path d="M289.988 173.25H287.863V187.025H289.988V173.25Z" fill="white"/>
<path d="M211.175 173.25V180.138V187.025L202.825 180.138L211.175 173.25Z" fill="white"/>
<path d="M200.856 173.25H198.731V187.025H200.856V173.25Z" fill="white"/>
<path d="M314.162 309.888H311.144C311.084 309.889 311.024 309.878 310.97 309.854C310.915 309.83 310.866 309.794 310.826 309.75C310.786 309.706 310.757 309.653 310.739 309.596C310.722 309.538 310.717 309.478 310.725 309.419V309.3C310.731 309.233 310.744 309.166 310.762 309.1L311.037 307.35C311.053 307.217 311.053 307.083 311.037 306.95C311.037 306.9 311.037 306.831 311.037 306.756C311.016 306.618 310.961 306.486 310.875 306.375L310.719 306.194C310.637 306.125 310.612 306.081 310.519 306.056H310.387C310.291 306.058 310.196 306.082 310.111 306.126C310.025 306.171 309.951 306.234 309.894 306.313L306.937 309.556C306.857 309.639 306.794 309.737 306.752 309.844C306.711 309.951 306.691 310.066 306.694 310.181V316.95C306.694 317.179 306.784 317.398 306.946 317.56C307.108 317.722 307.327 317.813 307.556 317.813H312.481C312.647 317.812 312.809 317.763 312.948 317.673C313.087 317.581 313.196 317.452 313.262 317.3L315.075 313.181C315.159 312.998 315.217 312.805 315.25 312.606C315.292 312.373 315.309 312.136 315.3 311.9V310.863C315.3 310.718 315.256 310.576 315.175 310.456C315.073 310.279 314.925 310.133 314.747 310.033C314.569 309.933 314.367 309.883 314.162 309.888Z" fill="#4FB9E3"/>
<path d="M305.312 310.475H303.556C303.456 310.475 303.375 310.556 303.375 310.656V317.588C303.375 317.688 303.456 317.769 303.556 317.769H305.312C305.412 317.769 305.494 317.688 305.494 317.588V310.656C305.494 310.556 305.412 310.475 305.312 310.475Z" fill="#4FB9E3"/>
<path d="M337.281 313.919H340.306C340.365 313.919 340.423 313.932 340.477 313.956C340.531 313.981 340.578 314.017 340.618 314.061C340.656 314.105 340.686 314.157 340.703 314.213C340.721 314.269 340.726 314.329 340.719 314.388V314.506L340.681 314.706L340.4 316.456C340.381 316.589 340.381 316.724 340.4 316.856C340.4 316.913 340.4 316.975 340.4 317.056C340.424 317.198 340.481 317.331 340.569 317.444L340.731 317.625C340.782 317.688 340.849 317.735 340.925 317.763H341.056C341.152 317.761 341.247 317.738 341.333 317.695C341.418 317.652 341.493 317.589 341.55 317.513L344.506 314.263C344.587 314.18 344.651 314.082 344.693 313.975C344.734 313.867 344.754 313.753 344.75 313.638V306.9C344.75 306.671 344.66 306.452 344.498 306.29C344.336 306.128 344.116 306.037 343.888 306.037H338.963C338.797 306.038 338.634 306.087 338.496 306.177C338.357 306.269 338.248 306.398 338.181 306.55L336.369 310.669C336.289 310.854 336.231 311.046 336.194 311.244C336.157 311.477 336.142 311.714 336.15 311.95V312.988C336.149 313.134 336.19 313.277 336.269 313.4C336.378 313.567 336.528 313.703 336.706 313.794C336.884 313.885 337.082 313.928 337.281 313.919Z" fill="#868A91"/>
<path d="M347.887 306.037H346.131C346.031 306.037 345.95 306.119 345.95 306.219V313.15C345.95 313.25 346.031 313.331 346.131 313.331H347.887C347.987 313.331 348.069 313.25 348.069 313.15V306.219C348.069 306.119 347.987 306.037 347.887 306.037Z" fill="#868A91"/>
<path d="M418.756 307.4H411.131V308.737H418.756V307.4Z" fill="#868A91"/>
<path d="M418.756 310.006H411.131V311.344H418.756V310.006Z" fill="#868A91"/>
<path d="M416.356 312.613H411.131V313.95H416.356V312.613Z" fill="#868A91"/>
<path d="M421.431 310.256H420.1V312.669H417.688V314H420.1V316.412H421.431V314H423.844V312.669H421.431V310.256Z" fill="#868A91"/>
<path d="M456.212 313.063C455.981 313.064 455.762 312.997 455.569 312.871C455.375 312.745 455.231 312.565 455.137 312.353C455.05 312.142 455.025 311.91 455.069 311.684C455.112 311.46 455.225 311.253 455.387 311.091C455.55 310.929 455.756 310.818 455.981 310.773C456.2 310.728 456.437 310.75 456.65 310.838C456.856 310.925 457.037 311.073 457.169 311.263C457.294 311.454 457.362 311.678 457.362 311.906C457.362 312.212 457.244 312.505 457.025 312.722C456.812 312.938 456.519 313.061 456.212 313.063Z" fill="#868A91"/>
<path d="M452.125 313.062C451.894 313.062 451.675 312.995 451.481 312.867C451.294 312.741 451.144 312.56 451.056 312.349C450.969 312.137 450.944 311.905 450.994 311.681C451.037 311.456 451.144 311.251 451.306 311.089C451.469 310.927 451.675 310.817 451.9 310.773C452.125 310.728 452.356 310.751 452.569 310.838C452.781 310.926 452.956 311.074 453.087 311.264C453.212 311.454 453.281 311.677 453.281 311.906C453.281 312.213 453.156 312.507 452.944 312.724C452.725 312.941 452.431 313.062 452.125 313.062Z" fill="#868A91"/>
<path d="M448.044 313.063C448.681 313.063 449.2 312.545 449.2 311.906C449.2 311.267 448.681 310.75 448.044 310.75C447.406 310.75 446.887 311.267 446.887 311.906C446.887 312.545 447.406 313.063 448.044 313.063Z" fill="#868A91"/>
<path d="M3.61255 0.193848H485.031C485.862 0.193848 486.656 0.52322 487.244 1.10947C487.825 1.69509 488.156 2.4901 488.156 3.31885V23.2501H0.487549V3.31885C0.487549 2.4901 0.816917 1.69509 1.40254 1.10947C1.98879 0.52322 2.7838 0.193848 3.61255 0.193848Z" fill="#4FB9E3"/>
<path d="M16.65 15.0876C18.5068 15.0876 20.0125 13.5819 20.0125 11.7251C20.0125 9.86818 18.5068 8.36255 16.65 8.36255C14.7931 8.36255 13.2874 9.86818 13.2874 11.7251C13.2874 13.5819 14.7931 15.0876 16.65 15.0876Z" fill="white"/>
<path d="M27.3375 15.0876C29.1944 15.0876 30.7 13.5819 30.7 11.7251C30.7 9.86818 29.1944 8.36255 27.3375 8.36255C25.4806 8.36255 23.975 9.86818 23.975 11.7251C23.975 13.5819 25.4806 15.0876 27.3375 15.0876Z" fill="white"/>
<path d="M38.0249 15.0876C39.8818 15.0876 41.3874 13.5819 41.3874 11.7251C41.3874 9.86818 39.8818 8.36255 38.0249 8.36255C36.1681 8.36255 34.6624 9.86818 34.6624 11.7251C34.6624 13.5819 36.1681 15.0876 38.0249 15.0876Z" fill="white"/>
<path d="M48.6875 275.981V279.881V283.781L56.4875 279.881L48.6875 275.981Z" fill="white"/>
<path d="M68.1062 276.588V279.881V283.175L72.0938 279.881L68.1062 276.588Z" fill="white"/>
<path d="M74.05 276.588H73.0375V283.175H74.05V276.588Z" fill="white"/>
<path d="M84.9374 278.519H83.2687V281.206H84.9374L87.5499 283.781V275.981L84.9374 278.519Z" fill="white"/>
<path d="M88.9999 278.25V281.444C89.4062 281.418 89.7874 281.239 90.0662 280.943C90.3449 280.646 90.5 280.254 90.5 279.847C90.5 279.44 90.3449 279.048 90.0662 278.751C89.7874 278.455 89.4062 278.276 88.9999 278.25Z" fill="white"/>
<path d="M88.9999 282.75C89.73 282.702 90.4137 282.378 90.9137 281.844C91.4137 281.31 91.6919 280.606 91.6919 279.875C91.6919 279.144 91.4137 278.44 90.9137 277.906C90.4137 277.372 89.73 277.048 88.9999 277" fill="white"/>
<path d="M99.5374 280.488V279.713H101.056V280.488H99.5374Z" fill="white"/>
<path d="M101.656 279.412V278.637H102.425V279.412H101.656ZM101.656 281.569V280.794H102.425V281.569H101.656Z" fill="white"/>
<path d="M103.294 280.488V279.713H104.819V280.488H103.294Z" fill="white"/>
<path d="M105.175 280.488V279.713H106.7V280.488H105.175Z" fill="white"/>
<path d="M108.3 281.638L109.3 277.456H109.881L108.869 281.638H108.3Z" fill="white"/>
<path d="M111.762 280.488V279.713H113.281V280.488H111.762Z" fill="white"/>
<path d="M113.881 279.412V278.637H114.656V279.412H113.881ZM113.881 281.569V280.794H114.656V281.569H113.881Z" fill="white"/>
<path d="M115.525 280.488V279.713H117.044V280.488H115.525Z" fill="white"/>
<path d="M117.406 280.488V279.713H118.925V280.488H117.406Z" fill="white"/>
<path d="M119.519 279.412V278.637H120.294V279.412H119.519ZM119.519 281.569V280.794H120.294V281.569H119.519Z" fill="white"/>
<path d="M121.163 280.488V279.713H122.688V280.488H121.163Z" fill="white"/>
<path d="M123.044 280.488V279.713H124.562V280.488H123.044Z" fill="white"/>
<path d="M355.069 276.375V283.469H364.037V276.375H355.069ZM356.25 279.45H357.681V280.406H356.25V279.45ZM360.45 282.275H356.25V281.325H360.45V282.275ZM362.844 282.275H361.419V281.325H362.844V282.275ZM362.844 280.4H358.65V279.444H362.844V280.4Z" fill="white"/>
<path d="M423.019 284.069H412.394V275.75H423.019V284.069ZM413.6 282.85H421.8V277H413.6V282.85Z" fill="white"/>
<path d="M403.112 284.069H392.487V275.75H403.112V284.069ZM393.694 282.85H401.894V277H393.694V282.85Z" fill="white"/>
<path d="M397.337 279.344V281.844H401.088V279.344H397.337Z" fill="white"/>
<path d="M437.456 276.981H439.444V279H440.663V275.762H437.456V276.981Z" fill="white"/>
<path d="M433.637 279V276.981H435.625V275.762H432.419V279H433.637Z" fill="white"/>
<path d="M439.444 280.831V282.85H437.456V284.069H440.663V280.831H439.444Z" fill="white"/>
<path d="M435.625 282.85H433.637V280.831H432.419V284.069H435.625V282.85Z" fill="white"/>
<path d="M381.144 280.044L380.444 279.725C380.431 279.453 380.381 279.185 380.3 278.925L380.831 278.381L380.119 277.288L379.4 277.55C379.2 277.37 378.975 277.217 378.731 277.094V276.325L377.481 276.056L377.163 276.756C376.888 276.768 376.619 276.819 376.356 276.906L375.8 276.369L374.713 277.081L374.981 277.813C374.844 277.971 374.719 278.142 374.613 278.325C374.575 278.388 374.556 278.438 374.538 278.469V278.513H373.738C373.663 278.842 373.569 279.258 373.456 279.763L374.156 280.088C374.169 280.364 374.219 280.637 374.306 280.9L373.763 281.45L374.469 282.544L375.188 282.281C375.394 282.464 375.619 282.619 375.863 282.744C375.863 282.981 375.863 283.244 375.863 283.513L377.113 283.788C377.213 283.569 377.325 283.331 377.431 283.094C377.7 283.076 377.969 283.026 378.231 282.944L378.781 283.481L379.875 282.775L379.613 282.063C379.788 281.859 379.944 281.634 380.069 281.394H380.838C380.925 280.963 381.019 280.538 381.106 280.144V280.113L381.144 280.044ZM375.975 279.244C376.119 278.968 376.35 278.748 376.631 278.619C376.825 278.527 377.044 278.484 377.256 278.494C377.5 278.5 377.738 278.571 377.944 278.7C378.05 278.771 378.15 278.858 378.238 278.956C378.331 279.056 378.406 279.17 378.463 279.294C378.575 279.559 378.606 279.854 378.55 280.138C378.488 280.421 378.344 280.676 378.125 280.869C378.025 280.961 377.913 281.035 377.788 281.088C377.669 281.142 377.544 281.18 377.413 281.2C377.169 281.233 376.925 281.203 376.7 281.113C376.5 281.033 376.325 280.906 376.188 280.744C375.981 280.511 375.863 280.216 375.844 279.906C375.844 279.688 375.844 279.563 375.844 279.563C375.844 279.563 375.875 279.444 375.975 279.244ZM374.45 278.275L374.388 278.381L374.45 278.275Z" fill="white"/>
<path d="M446.5 270.406C446.469 270.707 446.319 270.982 446.087 271.173C445.85 271.364 445.55 271.455 445.25 271.425H42.65C42.3494 271.455 42.0494 271.364 41.815 271.173C41.5806 270.982 41.4319 270.707 41.4 270.406C41.4331 270.107 41.5831 269.832 41.8169 269.643C42.0512 269.454 42.3506 269.364 42.65 269.394H445.25C445.55 269.364 445.85 269.454 446.081 269.643C446.319 269.832 446.469 270.107 446.5 270.406Z" fill="white"/>
<path d="M305.25 270.406C305.25 269.844 304.625 269.394 303.806 269.394H42.8562C42.0562 269.394 41.4124 269.844 41.4124 270.406C41.4124 270.969 42.0375 271.425 42.8562 271.425H303.806C304.625 271.425 305.25 270.969 305.25 270.406Z" fill="#DADDDF"/>
<path d="M250.25 270.406C250.25 269.844 248.963 269.394 247.375 269.394H44.2874C42.6999 269.394 41.4124 269.844 41.4124 270.406C41.4124 270.969 42.6999 271.425 44.2874 271.425H247.375C248.963 271.425 250.25 270.969 250.25 270.406Z" fill="#4FB9E3"/>
<path d="M36.775 42.0061H27.1375V43.2749H36.775V42.0061Z" fill="#4FB9E3"/>
<path d="M36.775 44.5625H27.1375V45.8313H36.775V44.5625Z" fill="#4FB9E3"/>
<path d="M36.775 47.1125H27.1375V48.3813H36.775V47.1125Z" fill="#4FB9E3"/>
<path d="M60.25 40.4875H48.75C48.0043 40.4875 47.4 41.0919 47.4 41.8376V48.5563C47.4 49.3019 48.0043 49.9063 48.75 49.9063H60.25C60.9956 49.9063 61.6 49.3019 61.6 48.5563V41.8376C61.6 41.0919 60.9956 40.4875 60.25 40.4875Z" fill="#4FB9E3"/>
<path d="M52.6437 42.5874V45.1936V47.8062L57.8687 45.1936L52.6437 42.5874Z" fill="white"/>
<path d="M366.544 39.5H70.7499C70.4287 39.5 70.1687 39.76 70.1687 40.0812V50.3063C70.1687 50.6275 70.4287 50.8875 70.7499 50.8875H366.544C366.865 50.8875 367.125 50.6275 367.125 50.3063V40.0812C367.125 39.76 366.865 39.5 366.544 39.5Z" fill="#4FB9E3"/>
<path opacity="0.7" d="M366.544 39.5H70.7499C70.4287 39.5 70.1687 39.76 70.1687 40.0812V50.3063C70.1687 50.6275 70.4287 50.8875 70.7499 50.8875H366.544C366.865 50.8875 367.125 50.6275 367.125 50.3063V40.0812C367.125 39.76 366.865 39.5 366.544 39.5Z" fill="white"/>
<path d="M366.781 50.7H335.25V39.575H366.781C366.929 39.5831 367.068 39.6493 367.167 39.7593C367.267 39.8693 367.319 40.0143 367.312 40.1625V50.1249C367.316 50.2712 367.262 50.4131 367.163 50.5199C367.064 50.6274 366.927 50.6918 366.781 50.7Z" fill="#4FB9E3"/>
<path d="M354.625 48.2064L352.75 46.1189C353.194 45.6139 353.44 44.9658 353.444 44.2939C353.451 43.6614 353.245 43.0445 352.86 42.542C352.475 42.0395 351.932 41.6808 351.32 41.5226C350.707 41.3645 350.059 41.4164 349.479 41.6695C348.899 41.9233 348.421 42.3633 348.121 42.9207C347.82 43.4776 347.715 44.1195 347.822 44.7433C347.929 45.367 348.242 45.937 348.711 46.362C349.18 46.787 349.778 47.0426 350.409 47.0882C351.041 47.1332 351.669 46.9664 352.194 46.6126L354.069 48.6876C354.102 48.7257 354.144 48.7557 354.191 48.7764C354.237 48.7964 354.287 48.807 354.337 48.8064C354.427 48.8064 354.514 48.7732 354.581 48.7126C354.617 48.6826 354.648 48.6457 354.67 48.6039C354.692 48.562 354.705 48.5157 354.709 48.4689C354.713 48.4214 354.708 48.3739 354.694 48.3289C354.679 48.2839 354.656 48.2426 354.625 48.2064ZM348.519 44.2939C348.519 43.8789 348.642 43.4726 348.872 43.127C349.104 42.782 349.431 42.5126 349.815 42.3539C350.199 42.1951 350.621 42.1533 351.029 42.2345C351.436 42.3151 351.81 42.5151 352.104 42.8089C352.397 43.1026 352.597 43.477 352.678 43.8845C352.759 44.2914 352.718 44.7139 352.559 45.0976C352.4 45.4814 352.131 45.8095 351.786 46.0401C351.44 46.2707 351.034 46.3939 350.619 46.3939C350.067 46.3857 349.54 46.1614 349.152 45.7682C348.764 45.3757 348.546 44.8464 348.544 44.2939H348.519Z" fill="white"/>
<path d="M393.9 43.7563V41.8813H386.5V48.1813H393.887V46.2063L395.925 48.0813V41.8313L393.9 43.7563ZM392.325 45.5H390.8V47H389.712V45.5H388.187V44.4188H389.712V42.8875H390.8V44.4188H392.325V45.5Z" fill="#4FB9E3"/>
<path d="M409.594 40.8374H407.481V42.9499H409.594V40.8374Z" fill="#4FB9E3"/>
<path d="M409.594 43.9624H407.481V46.0749H409.594V43.9624Z" fill="#4FB9E3"/>
<path d="M409.594 47.0874H407.481V49.1998H409.594V47.0874Z" fill="#4FB9E3"/>
<path d="M412.781 40.8374H410.669V42.9499H412.781V40.8374Z" fill="#4FB9E3"/>
<path d="M412.781 43.9624H410.669V46.0749H412.781V43.9624Z" fill="#4FB9E3"/>
<path d="M412.781 47.0874H410.669V49.1998H412.781V47.0874Z" fill="#4FB9E3"/>
<path d="M415.969 40.8374H413.856V42.9499H415.969V40.8374Z" fill="#4FB9E3"/>
<path d="M415.969 43.9624H413.856V46.0749H415.969V43.9624Z" fill="#4FB9E3"/>
<path d="M415.969 47.0874H413.856V49.1998H415.969V47.0874Z" fill="#4FB9E3"/>
<path d="M435.344 47.2125V44.3875C435.344 43.6363 435.087 42.9075 434.619 42.3206C434.15 41.7338 433.494 41.3231 432.762 41.1563C432.812 41.0494 432.844 40.9319 432.844 40.8125C432.844 40.5969 432.756 40.3906 432.606 40.2381C432.456 40.0856 432.244 40 432.031 40C431.819 40 431.606 40.0856 431.456 40.2381C431.306 40.3906 431.219 40.5969 431.219 40.8125C431.219 40.9288 431.25 41.0438 431.294 41.15C430.556 41.315 429.9 41.725 429.431 42.3138C428.956 42.9019 428.7 43.6338 428.7 44.3875V47.2375L427.512 48.75H436.55L435.344 47.2125Z" fill="#4FB9E3"/>
<path d="M432.031 50.3875C432.362 50.3875 432.681 50.2556 432.912 50.0212C433.15 49.7868 433.281 49.4687 433.281 49.1375H430.781C430.781 49.4687 430.912 49.7868 431.15 50.0212C431.381 50.2556 431.7 50.3875 432.031 50.3875Z" fill="#4FB9E3"/>
<path d="M454.106 52.2187C457.987 52.2187 461.131 49.0737 461.131 45.1937C461.131 41.3137 457.987 38.1687 454.106 38.1687C450.225 38.1687 447.081 41.3137 447.081 45.1937C447.081 49.0737 450.225 52.2187 454.106 52.2187Z" fill="#4FB9E3"/>
<path d="M454.106 44.8187C455.188 44.8187 456.069 43.94 456.069 42.8563C456.069 41.7725 455.188 40.8938 454.106 40.8938C453.025 40.8938 452.144 41.7725 452.144 42.8563C452.144 43.94 453.025 44.8187 454.106 44.8187Z" fill="white"/>
<path d="M455.788 44.7375C455.325 45.1557 454.725 45.3869 454.106 45.3869C453.488 45.3869 452.888 45.1557 452.425 44.7375C451.819 45.1388 451.319 45.6882 450.981 46.3344C450.644 46.9807 450.475 47.702 450.494 48.4313C451.569 49.1245 452.825 49.4932 454.106 49.4932C455.388 49.4932 456.644 49.1245 457.719 48.4313C457.737 47.702 457.569 46.9807 457.231 46.3344C456.894 45.6882 456.394 45.1388 455.788 44.7375Z" fill="white"/>
<path d="M457.125 333.106H30.325C30.2425 333.104 30.1643 333.071 30.1056 333.013C30.0475 332.955 30.0143 332.876 30.0125 332.794C30.0125 332.711 30.0456 332.631 30.1043 332.572C30.1625 332.514 30.2425 332.481 30.325 332.481H457.125C457.206 332.481 457.287 332.514 457.344 332.572C457.406 332.631 457.437 332.711 457.437 332.794C457.437 332.877 457.406 332.956 457.344 333.015C457.287 333.073 457.206 333.106 457.125 333.106Z" fill="#DADDDF"/>
<path d="M355.25 332H299.625V333.587H355.25V332Z" fill="#DADDDF"/>
<path d="M45.175 367.931C52.5931 367.931 58.6062 361.918 58.6062 354.5C58.6062 347.082 52.5931 341.069 45.175 341.069C37.7575 341.069 31.7438 347.082 31.7438 354.5C31.7438 361.918 37.7575 367.931 45.175 367.931Z" fill="#4FB9E3"/>
<path d="M45.1749 353.787C47.2493 353.787 48.9312 352.105 48.9312 350.031C48.9312 347.957 47.2493 346.275 45.1749 346.275C43.1006 346.275 41.4187 347.957 41.4187 350.031C41.4187 352.105 43.1006 353.787 45.1749 353.787Z" fill="white"/>
<path d="M48.375 353.631C47.4938 354.431 46.3463 354.874 45.1563 354.874C43.9663 354.874 42.8188 354.431 41.9375 353.631C40.7731 354.397 39.8238 355.447 39.1775 356.681C38.5313 357.916 38.21 359.294 38.2438 360.688C40.3038 362.018 42.7038 362.725 45.1563 362.725C47.6088 362.725 50.0088 362.018 52.0688 360.688C52.1031 359.294 51.7819 357.916 51.1356 356.681C50.4894 355.447 49.5394 354.397 48.375 353.631Z" fill="white"/>
<path d="M208.687 347H68.6874C68.1699 347 67.7499 347.42 67.7499 347.938C67.7499 348.455 68.1699 348.875 68.6874 348.875H208.687C209.205 348.875 209.625 348.455 209.625 347.938C209.625 347.42 209.205 347 208.687 347Z" fill="#DADDDF"/>
<path d="M140.562 353.562H68.6874C68.1699 353.562 67.7499 353.982 67.7499 354.5C67.7499 355.017 68.1699 355.437 68.6874 355.437H140.562C141.08 355.437 141.5 355.017 141.5 354.5C141.5 353.982 141.08 353.562 140.562 353.562Z" fill="#DADDDF"/>
<path d="M99.9374 360.125H68.6874C68.1699 360.125 67.7499 360.545 67.7499 361.062C67.7499 361.58 68.1699 362 68.6874 362H99.9374C100.455 362 100.875 361.58 100.875 361.062C100.875 360.545 100.455 360.125 99.9374 360.125Z" fill="#DADDDF"/>
<path d="M456.075 347.725H399.219C398.469 347.725 397.856 348.335 397.856 349.088V359.913C397.856 360.665 398.469 361.275 399.219 361.275H456.075C456.825 361.275 457.437 360.665 457.437 359.913V349.088C457.437 348.335 456.825 347.725 456.075 347.725Z" fill="#4FB9E3"/>
<path d="M166.044 484.725L136.431 483.994L135.006 467.663H134.925L130.675 426.494L130.6 425.813L119.4 317.431C119.363 316.952 119.144 316.504 118.786 316.183C118.429 315.86 117.962 315.688 117.481 315.7C117.007 315.699 116.551 315.876 116.204 316.198C115.856 316.519 115.642 316.959 115.606 317.431L103.494 425.706L98.7999 467.663L98.0312 476.413L97.3749 483.975L80.9187 484.381L82.2062 476.55L82.8687 470.194L83.2812 460.938L84.2562 426.4V425.931L88.2687 284.431L151.712 283.381L150.925 425.531L150.706 465.338L150.919 470.194C150.987 471.821 151.56 473.387 152.556 474.675C153.027 475.278 153.581 475.812 154.2 476.263L166.044 484.725Z" fill="#FC9D9D"/>
<path opacity="0.15" d="M152.581 474.694L145.762 480.45L145.437 471.075L144.187 435.131C144.151 434.078 143.804 433.059 143.192 432.201C142.579 431.342 141.728 430.684 140.744 430.306L130.687 426.475L130.412 426.369L130.356 425.8H130.612L150.962 425.537L150.744 465.344L150.956 470.2C150.956 470.387 150.956 470.581 150.994 470.769C151.159 472.196 151.707 473.552 152.581 474.694Z" fill="black"/>
<path d="M83.1561 476.875L83.6124 476.456C87.0436 473.281 92.9437 473.331 96.2812 476.6L96.5374 476.875C96.9443 477.263 97.2705 477.725 97.4961 478.238C97.7211 478.756 97.8418 479.306 97.8499 479.869V481.65C97.8499 482.675 97.9999 482.244 98.3561 483.219L99.9186 488.031C100.324 489.188 100.535 490.406 100.544 491.631V492.256C100.494 492.738 100.262 493.175 99.8962 493.494C99.5293 493.806 99.0562 493.963 98.5749 493.938H80.4499C79.9661 493.975 79.4867 493.819 79.1174 493.506C78.748 493.188 78.5192 492.738 78.4811 492.256V492C78.4836 490.581 78.7424 489.175 79.2436 487.844L81.0624 483.125C81.4624 482.05 81.7186 482.388 81.7186 481.25L81.7686 479.894C81.8349 478.75 82.3299 477.669 83.1561 476.875Z" fill="#4FB9E3"/>
<path opacity="0.6" d="M78.4624 492V492.238C78.5112 492.719 78.7431 493.162 79.1099 493.475C79.4768 493.787 79.9499 493.944 80.4312 493.919H98.5562C99.0399 493.956 99.5193 493.8 99.8887 493.488C100.257 493.169 100.487 492.719 100.525 492.238V491.613C100.533 491.375 100.516 491.137 100.475 490.906H78.4624V492Z" fill="black"/>
<path d="M151.737 283.4V470.75L150.981 470.794L145.437 471.106L134.981 471.731L130.4 426.375L130.344 425.806L119.4 317.431C119.363 316.952 119.144 316.504 118.786 316.182C118.429 315.86 117.962 315.687 117.481 315.7C117.019 315.702 116.574 315.876 116.231 316.187C115.874 316.512 115.652 316.957 115.606 317.437L99.3562 471.694L82.1874 470.85L88.2749 284.456L151.737 283.4Z" fill="#21252B"/>
<path opacity="0.3" d="M92.075 471.331L106.294 326.956C106.837 320.544 110.712 315.706 115.281 315.706H117.425C116.462 315.706 115.644 316.738 115.55 318.144L99.375 471.694L92.075 471.331Z" fill="black"/>
<path opacity="0.3" d="M151.75 285.675V470.75L145.444 471.106L142.275 285.7L151.75 285.675Z" fill="black"/>
<path d="M134.381 478.744V490.288C134.381 490.731 134.467 491.169 134.637 491.581C134.807 491.994 135.056 492.362 135.37 492.675C135.684 492.994 136.057 493.238 136.468 493.406C136.879 493.575 137.319 493.663 137.762 493.663H176.994C177.369 493.663 177.729 493.513 177.994 493.25C178.261 492.988 178.411 492.625 178.412 492.25C178.408 490.906 177.984 489.6 177.199 488.512C176.415 487.425 175.309 486.606 174.037 486.181L165.181 483.25L153.931 474.531C153.365 474.096 152.666 473.867 151.952 473.885C151.238 473.902 150.551 474.163 150.006 474.625L145.062 478.875C144.706 479.187 144.275 479.4 143.812 479.494C143.349 479.587 142.869 479.569 142.419 479.425L136.119 477.462C135.918 477.406 135.707 477.394 135.501 477.431C135.295 477.462 135.101 477.55 134.932 477.675C134.764 477.794 134.627 477.956 134.531 478.144C134.436 478.331 134.384 478.537 134.381 478.744Z" fill="#4FB9E3"/>
<path opacity="0.6" d="M137.75 493.663H176.981C177.356 493.663 177.716 493.513 177.983 493.25C178.248 492.981 178.398 492.625 178.4 492.25C178.411 491.769 178.349 491.294 178.219 490.831H134.438C134.564 491.619 134.966 492.338 135.573 492.856C136.18 493.375 136.952 493.663 137.75 493.663Z" fill="black"/>
<path d="M153.725 479.156C153.639 479.156 153.556 479.119 153.494 479.062C153.431 478.994 153.396 478.906 153.396 478.813C153.396 478.719 153.431 478.631 153.494 478.562L155.869 476.006C155.936 475.941 156.025 475.904 156.119 475.904C156.212 475.904 156.302 475.941 156.369 476.006C156.435 476.074 156.472 476.165 156.472 476.259C156.472 476.354 156.435 476.445 156.369 476.512L154 479.062C153.917 479.112 153.822 479.15 153.725 479.156Z" fill="white"/>
<path d="M155.6 480.619C155.514 480.619 155.431 480.581 155.369 480.525C155.303 480.456 155.266 480.369 155.266 480.275C155.266 480.181 155.303 480.094 155.369 480.025L157.744 477.469C157.81 477.4 157.9 477.369 157.994 477.369C158.088 477.369 158.177 477.4 158.244 477.469C158.309 477.537 158.347 477.625 158.347 477.719C158.347 477.819 158.309 477.906 158.244 477.975L155.875 480.525C155.792 480.575 155.698 480.613 155.6 480.619Z" fill="white"/>
<path d="M157.469 482.075C157.384 482.075 157.302 482.044 157.237 481.988C157.171 481.919 157.134 481.831 157.134 481.738C157.134 481.638 157.171 481.55 157.237 481.481L159.612 478.925C159.681 478.863 159.77 478.825 159.862 478.825C159.955 478.825 160.044 478.863 160.112 478.925C160.179 478.994 160.216 479.081 160.216 479.181C160.216 479.275 160.179 479.363 160.112 479.431L157.75 482C157.669 482.056 157.569 482.088 157.469 482.075Z" fill="white"/>
<path d="M104.531 178.6H123.906C124.123 178.602 124.336 178.661 124.523 178.771C124.711 178.881 124.866 179.037 124.975 179.225L126.65 181.994L145.2 184.387C149.428 184.932 153.332 186.937 156.238 190.056L181.238 216.875L208.919 189.687L216.55 199.85L186.869 234.794C185.124 236.712 182.724 237.907 180.143 238.144C177.561 238.381 174.984 237.643 172.919 236.075L151.669 221.894V285.706H88.1812C88.1812 285.706 81.8437 186.206 84.1125 185.75L101.794 182.362L103.431 179.237C103.541 179.042 103.701 178.881 103.894 178.768C104.088 178.656 104.307 178.598 104.531 178.6Z" fill="#FC9D9D"/>
<path d="M98.1375 183.087L84.5375 185.475C83.2269 185.704 81.9781 186.204 80.8706 186.942C79.7631 187.68 78.8219 188.641 78.1063 189.762L47.6188 234.537C46.1494 236.697 45.5669 239.339 45.9919 241.916C46.4163 244.492 47.8157 246.807 49.9 248.381L70.1938 263.712L78.9438 254.4L66.1125 240.887L90.6063 211.375L101.944 210.869L98.1375 183.087Z" fill="#FC9D9D"/>
<path d="M70.1937 263.713L78.85 270.3C78.85 270.3 79.0187 274.15 85.35 277.075L87.125 283.525C87.5375 285.494 90.2937 285.331 90.25 283.363L93.1812 268.013L78.9375 254.4L70.1937 263.713Z" fill="#FC9D9D"/>
<path d="M127.125 158.081C126.875 158.119 126.781 158.388 126.819 158.644C126.856 158.9 127.125 158.981 127.375 158.95L129.381 158.531C129.856 158.408 130.263 158.103 130.515 157.682C130.767 157.261 130.845 156.758 130.731 156.281C130.648 155.974 130.49 155.693 130.272 155.462C130.054 155.231 129.782 155.057 129.481 154.956C129.106 154.813 128.781 154.564 128.546 154.238C128.31 153.913 128.175 153.526 128.156 153.125C128.156 152.769 128.119 152.5 128.1 152.4C127.05 148.25 127.125 158.081 127.125 158.081Z" fill="#FC9D9D"/>
<path d="M127.469 144.7L129.262 165.494C129.391 166.95 129.007 168.406 128.179 169.611C127.352 170.817 126.131 171.696 124.725 172.1L123.425 172.475L124.512 182.037L115.25 180.787L104.625 181.625L105.806 156.294L117.637 144.969L127.469 144.7Z" fill="#FC9D9D"/>
<path opacity="0.15" d="M115.469 158.194L115.731 158.819C116.629 159.081 117.541 159.289 118.463 159.444L115.038 163.7L115.469 158.194Z" fill="black"/>
<path d="M130.2 155.419C130.088 155.42 129.978 155.382 129.89 155.311C129.803 155.241 129.742 155.141 129.719 155.031L128.106 147.913C128.086 147.847 128.079 147.778 128.087 147.709C128.096 147.641 128.117 147.575 128.152 147.516C128.187 147.457 128.234 147.405 128.291 147.365C128.346 147.325 128.41 147.298 128.478 147.283C128.545 147.269 128.614 147.269 128.682 147.284C128.749 147.298 128.813 147.327 128.868 147.367C128.924 147.408 128.97 147.459 129.005 147.519C129.039 147.578 129.061 147.644 129.069 147.713L130.675 154.825C130.689 154.888 130.69 154.953 130.679 155.016C130.667 155.079 130.643 155.139 130.608 155.194C130.574 155.248 130.528 155.294 130.476 155.331C130.423 155.368 130.363 155.393 130.3 155.406L130.2 155.419Z" fill="black"/>
<path d="M129.193 150.472L118.174 152.919L118.386 153.877L129.406 151.43L129.193 150.472Z" fill="black"/>
<path opacity="0.15" d="M123.425 172.475L119.356 172.394C119.077 172.387 118.802 172.45 118.553 172.576C118.304 172.701 118.09 172.886 117.929 173.114C117.769 173.342 117.667 173.606 117.632 173.882C117.597 174.159 117.632 174.439 117.731 174.7L119.212 178.612H124.125L123.425 172.475Z" fill="black"/>
<path d="M115.469 158.194L115.037 163.731L105.25 166.931C105.25 166.931 99.3375 165.019 98.0813 157.381L116.931 148.525L118.144 152.937L115.469 158.194Z" fill="#3F4249"/>
<path d="M119.206 156.375C119.75 158.25 120.344 159.581 117.881 159.594C113.2 159.594 112.256 153.431 114.869 152.012C115.141 151.832 115.451 151.715 115.774 151.668C116.097 151.621 116.427 151.646 116.739 151.741C117.052 151.836 117.34 151.998 117.582 152.217C117.825 152.436 118.017 152.705 118.144 153.006L119.206 156.375Z" fill="#FC9D9D"/>
<path opacity="0.15" d="M117.844 155.681C117.77 155.08 117.556 154.504 117.219 154C116.944 153.63 116.548 153.369 116.1 153.262C115.874 153.242 115.646 153.269 115.431 153.341C115.216 153.413 115.018 153.529 114.85 153.681C114.793 153.749 114.758 153.832 114.749 153.92C114.741 154.009 114.758 154.097 114.8 154.175C114.894 154.337 115.056 154.325 115.212 154.231C115.324 154.114 115.463 154.024 115.616 153.97C115.769 153.915 115.932 153.898 116.094 153.919C116.344 153.919 116.525 154.137 116.794 154.444C117.078 154.846 117.252 155.315 117.3 155.806L117.425 156.369C117.425 156.531 117.606 156.6 117.769 156.594C117.931 156.587 118 156.412 117.987 156.244L117.869 155.681" fill="black"/>
<path d="M128.094 138.506C128.094 134.756 125.375 131.731 122.025 131.731C121.565 131.732 121.107 131.791 120.662 131.906C119.991 130.952 119.096 130.177 118.055 129.648C117.014 129.12 115.861 128.854 114.694 128.875C113.441 128.842 112.203 129.143 111.105 129.746C110.007 130.349 109.089 131.232 108.444 132.306C107.064 130.963 105.212 130.216 103.287 130.225C99.3187 130.225 96.1062 133.281 96.1062 137.05C96.1087 138.114 96.3706 139.161 96.8687 140.1C94.0999 140.725 92.0874 142.662 92.0874 144.937C92.0874 146.919 93.6249 148.631 95.8374 149.462C95.2956 149.794 94.8468 150.257 94.5331 150.809C94.2193 151.361 94.0512 151.984 94.0437 152.619C94.0631 153.488 94.3749 154.325 94.9299 154.994C95.4849 155.664 96.2493 156.126 97.0999 156.306C97.0999 156.344 97.0999 156.387 97.0999 156.425C97.0381 157.088 97.2418 157.749 97.6662 158.261C98.0912 158.774 98.7025 159.097 99.3656 159.159C100.029 159.221 100.689 159.017 101.202 158.593C101.715 158.168 102.038 157.557 102.1 156.894C102.476 157.033 102.874 157.105 103.275 157.106C105.15 157.106 106.706 155.6 107.362 153.462C107.6 153.462 107.837 153.494 108.081 153.494C111.131 153.494 113.65 152 114.1 150.056C114.436 150.103 114.774 150.129 115.112 150.131C118.344 150.131 120.969 148.056 121.031 145.475C121.923 146.174 123.023 146.554 124.156 146.556C125.445 146.585 126.692 146.101 127.624 145.21C128.556 144.319 129.096 143.095 129.125 141.806C129.125 140.702 128.727 139.636 128.006 138.8C128.081 138.7 128.094 138.606 128.094 138.506Z" fill="black"/>
<path d="M98.1375 183.087L84.8562 185.419C83.445 185.666 82.1 186.204 80.9081 187C79.7156 187.795 78.7018 188.829 77.9312 190.037L60.8749 215.237L76.1937 228.781L90.6062 211.375L101.944 210.869L98.1375 183.087Z" fill="#4FB9E3"/>
<path d="M83.6187 185.75L101.85 182.362L103.281 179.375C103.429 179.071 103.661 178.814 103.948 178.636C104.236 178.458 104.568 178.366 104.906 178.369L123.831 178.587C124.137 178.592 124.437 178.678 124.7 178.835C124.963 178.992 125.181 179.214 125.331 179.481L126.712 181.981L145.806 184.481C150.021 185.03 153.903 187.056 156.762 190.2L170.756 205.569L155.281 224.275L151.731 221.887V285.7H88.2375L84.2062 229.269C84.2062 229.269 78.7 186.675 83.6187 185.75Z" fill="#4FB9E3"/>
<path opacity="0.15" d="M149.125 214.638C148.699 214.353 148.206 214.187 147.695 214.156C147.184 214.125 146.674 214.231 146.218 214.463C145.762 214.695 145.376 215.044 145.099 215.475C144.822 215.905 144.665 216.401 144.644 216.913L144.356 223.825L142.269 285.7H151.731V221.881L155.325 224.213L158.219 220.719L149.125 214.638Z" fill="black"/>
<path d="M216.55 199.819L199.05 199.325L209.469 189.075L219.556 177.719L227.019 169.919C227.119 169.774 227.248 169.653 227.399 169.563C227.549 169.471 227.716 169.413 227.891 169.392C228.065 169.37 228.242 169.386 228.41 169.437C228.578 169.488 228.733 169.574 228.866 169.689C228.998 169.804 229.104 169.946 229.179 170.106C229.253 170.265 229.293 170.438 229.295 170.613C229.298 170.789 229.263 170.963 229.194 171.124C229.125 171.286 229.023 171.431 228.894 171.55C227.519 173.131 225.356 175.706 223.119 178.263C223.491 178.119 223.896 178.081 224.288 178.153C224.681 178.224 225.046 178.403 225.344 178.669C225.668 178.966 225.893 179.355 225.99 179.784C226.088 180.213 226.051 180.661 225.888 181.069C226.212 180.9 226.574 180.817 226.939 180.828C227.304 180.839 227.661 180.943 227.975 181.131C228.288 181.319 228.548 181.585 228.73 181.903C228.912 182.219 229.009 182.578 229.013 182.944C229.012 183.156 228.978 183.367 228.913 183.569C229.296 183.386 229.725 183.321 230.146 183.383C230.566 183.444 230.959 183.628 231.275 183.913C232.525 185.063 231.025 187.506 230.238 188.5C227.344 192.269 216.55 199.819 216.55 199.819Z" fill="#FC9D9D"/>
<path opacity="0.15" d="M230.325 183.444C229.794 187.762 217.044 196.806 217.044 196.806L186.156 231.225C182.537 235.2 177.037 234.081 172.756 230.831C172.756 230.831 152.275 216.744 151.431 216.181L151.675 221.862L174.356 236.962C178.812 239.162 183.494 238.337 186.856 234.762L216.537 199.819C216.537 199.819 227.487 192.237 230.356 188.444C231.212 187.312 232.55 185.037 231.319 183.95C231.042 183.69 230.697 183.515 230.325 183.444Z" fill="black"/>
<path opacity="0.15" d="M83.6187 185.75C81.9187 186.163 81.3937 186.613 79.8687 187.838C79.9062 192.588 78.9062 211.325 79.5937 218.425L63.2937 236.438C63.1456 236.6 63.0638 236.812 63.0638 237.031C63.0638 237.251 63.1456 237.463 63.2937 237.625L66.175 240.875L80.875 223.113L83.1937 220.319C83.1937 220.319 78.7 186.675 83.6187 185.75Z" fill="black"/>
<path opacity="0.1" d="M443.056 454.044H329.275V455.731H443.056V454.044Z" fill="black"/>
</svg>
