<svg width="186" height="27" viewBox="0 0 186 27" fill="none" xmlns="http://www.w3.org/2000/svg">
<g clip-path="url(#clip0_1214_49)">
<path d="M81.4633 0.127197C78.2713 0.127197 75.2101 1.43963 72.9531 3.7758C70.696 6.11198 69.428 9.28052 69.428 12.5844V26.1182H93.4038V12.5042C93.3836 9.23122 92.1196 6.0979 89.8852 3.78178C87.6507 1.46566 84.6254 0.152848 81.4633 0.127197Z" fill="#FCF9F2"/>
<path d="M185.653 15.7886H167.197C167.248 16.0555 167.265 16.2424 167.317 16.4204C167.589 17.4014 168.111 18.2889 168.828 18.9901C169.545 19.6912 170.43 20.1804 171.392 20.4066C173.127 20.9432 174.995 20.7581 176.601 19.8906C177.283 19.5473 177.873 19.0372 178.321 18.4046C178.377 18.3047 178.459 18.2228 178.558 18.1678C178.656 18.1129 178.768 18.0871 178.88 18.0932H185.163C185.261 18.0857 185.358 18.0857 185.456 18.0932C185.386 18.3335 185.344 18.5558 185.266 18.7606C184.69 20.469 183.737 22.0152 182.484 23.277C181.231 24.5386 179.711 25.4812 178.045 26.0302C175.222 27.0611 172.161 27.1698 169.277 26.3416C167.595 25.9217 166.03 25.1003 164.71 23.943C163.388 22.7859 162.347 21.325 161.669 19.677C160.681 17.5647 160.219 15.2311 160.321 12.8869C160.423 10.5428 161.086 8.2618 162.253 6.24998C163.216 4.51443 164.574 3.04862 166.208 1.98013C167.842 0.911621 169.705 0.272789 171.633 0.119255C174.062 -0.211737 176.532 0.173795 178.758 1.2315C180.292 1.96593 181.654 3.03232 182.755 4.35859C183.855 5.68485 184.667 7.24015 185.138 8.91937C185.737 10.9792 185.956 13.1376 185.782 15.2814C185.731 15.4683 185.731 15.5929 185.653 15.7886ZM178.854 10.4053C178.407 8.3766 176.369 6.06312 172.699 6.28558C170.024 6.44574 167.609 8.26983 167.334 10.4053H178.854Z" fill="#FCF9F2"/>
<path d="M40.7756 26.9999C37.8944 27.016 35.0786 26.1117 32.712 24.4106C31.3575 23.4176 30.2161 22.1453 29.3596 20.6738C28.503 19.2022 27.9498 17.5631 27.7347 15.8596C27.2028 12.7708 27.6903 9.58653 29.1187 6.81924C29.9664 5.16815 31.1623 3.73575 32.6177 2.62824C34.0731 1.52074 35.7508 0.766567 37.5262 0.421623C40.2129 -0.197468 43.0141 -0.0185871 45.6069 0.937694C47.7005 1.63366 49.5665 2.91693 50.9975 4.64485C52.4287 6.37277 53.3688 8.47764 53.7135 10.7255C54.4366 14.151 53.8644 17.7334 52.1145 20.7356C51.2468 22.2481 50.0771 23.5513 48.6834 24.558C47.2898 25.5647 45.7046 26.2515 44.0337 26.5728C42.9763 26.7953 41.8674 26.8575 40.7756 26.9999ZM40.7756 20.2196C42.0697 20.2266 43.3365 19.8358 44.4156 19.0966C45.4947 18.3575 46.3374 17.3032 46.837 16.0677C47.3365 14.8322 47.4703 13.4709 47.2214 12.1566C46.9726 10.8422 46.3521 9.63391 45.439 8.68494C44.5258 7.73599 43.3609 7.08908 42.092 6.82625C40.8232 6.56343 39.5075 6.69652 38.3119 7.20867C37.1162 7.72081 36.0944 8.58891 35.3759 9.70291C34.6576 10.8169 34.275 12.1266 34.2766 13.4661C34.252 14.3546 34.402 15.239 34.7173 16.0658C35.0327 16.8926 35.507 17.6445 36.1115 18.2759C36.7159 18.9074 37.4379 19.4052 38.2337 19.7393C39.0296 20.0734 39.8827 20.2368 40.7412 20.2196H40.7756Z" fill="#FCF9F2"/>
<path d="M156.442 0.839722V7.42422C156.21 7.42422 155.969 7.47761 155.738 7.47761H143.702C143.493 7.46443 143.283 7.46443 143.075 7.47761C142.842 7.48139 142.621 7.5748 142.452 7.73945C142.283 7.90412 142.18 8.12811 142.163 8.3674C142.121 8.61301 142.169 8.8663 142.297 9.0772C142.426 9.28809 142.627 9.44123 142.859 9.50634C143.573 9.70209 144.304 9.83558 145.035 9.98684C147.614 10.5385 150.141 11.0368 152.686 11.6329C154.459 12.0103 156.029 13.069 157.078 14.5959C158.089 16.1584 158.473 18.0653 158.153 19.9158C157.832 21.7661 156.831 23.4156 155.359 24.5173C153.854 25.6217 152.046 26.1957 150.201 26.1544H136.163C136.011 23.9297 136.011 21.6967 136.163 19.472H149.6C149.825 19.4899 150.052 19.4899 150.279 19.472C150.53 19.461 150.768 19.3522 150.945 19.1674C151.122 18.9826 151.225 18.7355 151.233 18.4755C151.257 18.2041 151.182 17.9333 151.023 17.7161C150.863 17.4988 150.632 17.3509 150.373 17.301C149.573 17.1052 148.774 16.9361 147.974 16.7582C145.542 16.2154 143.101 15.7082 140.676 15.112C139.624 14.903 138.631 14.4524 137.769 13.7933C136.908 13.1342 136.201 12.2835 135.698 11.3037C135.041 9.90101 134.852 8.31138 135.163 6.7856C135.475 5.25982 136.268 3.88476 137.418 2.87734C138.779 1.64693 140.512 0.948088 142.318 0.901987C144.717 0.839701 147.115 0.901998 149.513 0.857508H156.485L156.442 0.839722Z" fill="#FCF9F2"/>
<path d="M25.4136 10.4413H18.4848C18.4074 10.29 18.3215 10.1387 18.2527 9.97858C17.7464 8.92035 16.9447 8.04403 15.9513 7.46332C14.958 6.88259 13.819 6.62429 12.6821 6.72192C8.38384 6.95326 6.35505 10.8328 6.77629 14.4009C6.87032 15.6878 7.34024 16.9147 8.1237 17.9186C8.90714 18.9225 9.96707 19.6562 11.1628 20.0221C12.3585 20.3879 13.6333 20.3688 14.8183 19.9671C16.0033 19.5655 17.0421 18.8003 17.797 17.7732C18.0635 17.3817 18.2612 16.9546 18.5105 16.5097H25.448C25.2933 17.1415 25.1987 17.7376 25.0095 18.2893C24.3809 20.4139 23.1944 22.316 21.5824 23.7835C19.9704 25.2509 17.9962 26.2259 15.88 26.6C12.8672 27.3126 9.71004 26.9488 6.92241 25.5678C5.20181 24.7282 3.70329 23.4698 2.55503 21.9001C1.40677 20.3303 0.64294 18.4961 0.328868 16.5542C-0.34263 13.4108 0.0204905 10.1254 1.36047 7.2202C2.13901 5.4779 3.30793 3.95303 4.77017 2.77224C6.23242 1.59145 7.94576 0.788821 9.76787 0.431038C12.5086 -0.242228 15.382 -0.0437396 18.0119 1.00052C19.8574 1.69089 21.4999 2.86158 22.7811 4.3998C24.0625 5.93802 24.9395 7.79192 25.3276 9.78283C25.362 9.96968 25.3706 10.1654 25.4136 10.4413Z" fill="white"/>
<path d="M111.594 26.1367H104.923C101.442 17.737 97.9599 9.34623 94.444 0.893143H101.631C103.926 6.47217 106.221 12.078 108.585 17.7993C109.445 15.8418 110.098 13.9731 110.838 12.1223C111.577 10.2716 112.316 8.37633 113.047 6.49885C113.778 4.62138 114.517 2.75282 115.264 0.857544H122.142C118.566 9.32842 115.084 17.7103 111.594 26.1367Z" fill="white"/>
<path d="M57.754 0.875244H64.3389V26.1188H57.754V0.875244Z" fill="#FCF9F2"/>
<path d="M124.918 0.884399H131.512V26.119H124.918V0.884399Z" fill="#FCF9F2"/>
</g>
<defs>
<clipPath id="clip0_1214_49">
<rect width="186" height="27" fill="white"/>
</clipPath>
</defs>
</svg>
